# Created by Kenney (www.kenney.nl)

mtllib building_045.mtl

g building_045

v 0 0 0.125
v -0.1 0 0.125
v 0 0.5 0.125
v -0.1 0.5 0.125
v -0.1 0 0.875
v 0 0 0.875
v -0.1 0.5 0.875
v 0 0.5 0.875
v 0 0 1
v -1 0 1
v 0 0.625 1
v -1 0.625 1
v -1 0 0
v 0 0 0
v 0 0.625 0
v -1 0.625 0

vn 0 0 1
vn 0 0 -1
vn 0 -1 0
vn 0 1 0
vn 1 0 0
vn -1 0 0

vt 0 0
vt -3.937008 0
vt 0 19.68504
vt -3.937008 19.68504
vt 3.937008 0
vt 3.937008 19.68504
vt -39.37008 0
vt 0 24.6063
vt -39.37008 24.6063
vt 0 39.37008
vt 0 34.44882
vt -39.37008 39.37008
vt -3.937008 34.44882
vt -3.937008 4.92126
vt 0 4.92126
vt 39.37008 0
vt 39.37008 39.37008
vt 1.184238E-14 34.44882
vt 1.184238E-14 4.92126
vt 39.37008 24.6063
vt -4.92126 19.68504
vt -34.44882 19.68504
vt -34.44882 0
vt -4.92126 0

usemtl brick

f 3/3/1 2/2/1 1/1/1
f 2/2/1 3/3/1 4/4/1
f 7/6/2 6/1/2 5/5/2
f 6/1/2 7/6/2 8/3/2
f 11/8/1 10/7/1 9/1/1
f 10/7/1 11/8/1 12/9/1
f 10/12/3 6/11/3 9/10/3
f 6/11/3 10/12/3 5/13/3
f 5/13/3 10/12/3 2/14/3
f 13/7/3 2/14/3 10/12/3
f 14/1/3 2/14/3 13/7/3
f 2/14/3 14/1/3 1/15/3
f 16/16/4 11/10/4 15/1/4
f 11/10/4 16/16/4 12/17/4
f 7/13/3 3/19/3 8/18/3
f 3/19/3 7/13/3 4/14/3
f 16/20/2 14/1/2 13/16/2
f 14/1/2 16/20/2 15/8/2
f 15/8/5 3/21/5 14/1/5
f 3/21/5 15/8/5 11/9/5
f 3/21/5 11/9/5 8/22/5
f 8/22/5 11/9/5 6/23/5
f 6/23/5 11/9/5 9/7/5
f 1/24/5 14/1/5 3/21/5
f 10/16/6 16/8/6 13/1/6
f 16/8/6 10/16/6 12/20/6

usemtl glass

f 7/22/5 2/24/5 4/21/5
f 2/24/5 7/22/5 5/23/5

