# Created by Kenney (www.kenney.nl)

mtllib building_041.mtl

g building_041

v 0.0908554 0.06 0.1841446
v 0.0908554 0.06 0.8158554
v -0.1 0.06 0.1841446
v -0.1 0.06 0.8158554
v 0 0 0
v 0 0.5 0.125
v 0 0.625 0
v 0 0.625 1
v 0 0.5 0.875
v 0 0.18 0.875
v 0 0 0.875
v 0 0 1
v 0 0 0.125
v 0 0.18 0.125
v -1 0 1
v -1 0 0
v 0.15 0 0.875
v 0.15 0 0.125
v -0.1 0.5 0.875
v -0.1 0.5 0.125
v -1 0.625 0
v -1 0.625 1
v 0.15 0.18 0.125
v 0.15 0.18 0.875
v 0.0908554 0.18 0.1841446
v 0.0908554 0.18 0.8158554
v -0.1 0.18 0.1841446
v -0.1 0.18 0.125
v -0.1 0.18 0.8158554
v -0.1 0.18 0.875

vn 0 1 0
vn 1 0 0
vn 0 -1 0
vn -1 0 0
vn 0 0 1
vn 0 0 -1

vt -3.576984 7.249787
vt -3.576984 32.12029
vt 3.937008 7.249787
vt 3.937008 32.12029
vt 0 0
vt -4.92126 19.68504
vt 0 24.6063
vt -39.37008 24.6063
vt -34.44882 19.68504
vt -34.44882 7.086614
vt -34.44882 0
vt -39.37008 0
vt -4.92126 0
vt -4.92126 7.086614
vt 0 39.37008
vt 0 34.44882
vt -39.37008 39.37008
vt 0 4.92126
vt 5.905512 34.44882
vt 5.905512 4.92126
vt -1.97443E-42 34.44882
vt -1.97443E-42 4.92126
vt -3.937008 34.44882
vt -3.937008 4.92126
vt 39.37008 0
vt 39.37008 24.6063
vt 7.249787 2.362205
vt 7.249787 7.086614
vt 32.12029 2.362205
vt 32.12029 7.086614
vt 5.905512 0
vt 5.905512 7.086614
vt 0 7.086614
vt -5.905512 0
vt -5.905512 7.086614
vt -5.905512 34.44882
vt -5.905512 4.92126
vt 3.937008 4.92126
vt 3.937008 34.44882
vt 3.576984 2.362205
vt -3.937008 2.362205
vt 3.576984 7.086614
vt -3.937008 7.086614
vt 3.937008 7.086614
vt 3.937008 19.68504
vt 0 19.68504
vt -3.937008 19.68504
vt 3.937008 2.362205
vt -3.576984 2.362205
vt -3.576984 7.086614
vt 8.881784E-15 8.881784E-15
vt 8.881784E-15 39.37008
vt 39.37008 8.881784E-15
vt 39.37008 39.37008
vt -7.249787 7.086614
vt -7.249787 2.362205
vt -32.12029 7.086614
vt -32.12029 2.362205

usemtl brick

f 3/3/1 2/2/1 1/1/1
f 2/2/1 3/3/1 4/4/1
f 7/7/2 6/6/2 5/5/2
f 6/6/2 7/7/2 8/8/2
f 6/6/2 8/8/2 9/9/2
f 9/9/2 8/8/2 10/10/2
f 10/10/2 8/8/2 11/11/2
f 11/11/2 8/8/2 12/12/2
f 6/6/2 13/13/2 5/5/2
f 13/13/2 6/6/2 14/14/2
f 15/17/3 11/16/3 12/15/3
f 11/16/3 15/17/3 13/18/3
f 13/18/3 15/17/3 5/5/3
f 5/5/3 15/17/3 16/12/3
f 13/18/3 17/19/3 11/16/3
f 17/19/3 13/18/3 18/20/3
f 19/23/3 6/22/3 9/21/3
f 6/22/3 19/23/3 20/24/3
f 15/25/4 21/7/4 16/5/4
f 21/7/4 15/25/4 22/26/4
f 24/10/2 18/13/2 23/14/2
f 18/13/2 24/10/2 17/11/2
f 2/29/4 25/28/4 1/27/4
f 25/28/4 2/29/4 26/30/4
f 24/32/5 11/5/5 17/31/5
f 11/5/5 24/32/5 10/33/5
f 14/33/6 18/34/6 13/5/6
f 18/34/6 14/33/6 23/35/6
f 21/26/6 5/5/6 16/25/6
f 5/5/6 21/26/6 7/7/6
f 23/37/1 25/1/1 24/36/1
f 25/1/1 23/37/1 14/18/1
f 25/1/1 14/18/1 27/3/1
f 27/3/1 14/18/1 28/38/1
f 26/2/1 24/36/1 25/1/1
f 24/36/1 26/2/1 10/16/1
f 10/16/1 26/2/1 29/4/1
f 10/16/1 29/4/1 30/39/1
f 25/42/5 3/41/5 1/40/5
f 3/41/5 25/42/5 27/43/5
f 19/45/6 10/33/6 30/44/6
f 10/33/6 19/45/6 9/46/6
f 6/46/5 28/43/5 14/33/5
f 28/43/5 6/46/5 20/47/5
f 29/44/6 2/49/6 4/48/6
f 2/49/6 29/44/6 26/50/6
f 8/7/5 15/12/5 12/5/5
f 15/12/5 8/7/5 22/8/5
f 21/53/1 8/52/1 7/51/1
f 8/52/1 21/53/1 22/54/1

usemtl glass

f 19/9/2 28/14/2 20/6/2
f 28/14/2 19/9/2 27/55/2
f 27/55/2 19/9/2 3/56/2
f 3/56/2 19/9/2 29/57/2
f 29/57/2 19/9/2 30/10/2
f 4/58/2 3/56/2 29/57/2

