# Created by Kenney (www.kenney.nl)

mtllib building_048.mtl

g building_048

v -0.3604854 0.625 0.1395146
v -0.4311961 0.625 0.2102253
v -0.5 0.625 0
v -1 0.625 1
v -0.2102253 0.625 0.4311961
v 0 0.625 1
v -0.1395146 0.625 0.3604854
v 0 0.625 0.5
v -1 0.625 0
v -1 0 0
v -1 0 1
v -0.5 4.511946E-17 0
v -0.3604854 4.17355E-16 0.1395146
v -0.1395146 4.399148E-16 0.3604854
v 0 5.86553E-16 0.5
v 0 0 1
v -0.2102253 4.399148E-16 0.4311961
v -0.4311961 4.17355E-16 0.2102253

vn 0 1 0
vn -1 0 0
vn 0.7071068 0 -0.7071068
vn 1 0 0
vn 0 -1 0
vn 0 0 1
vn 0 0 -1
vn -0.7071068 0 -0.7071068
vn 0.7071068 0 0.7071068

vt 14.19234 5.4927
vt 16.97622 8.276585
vt 19.68504 2.187441E-14
vt 39.37008 39.37008
vt 8.276585 16.97622
vt -3.769236E-15 39.37008
vt 5.4927 14.19234
vt -3.769236E-15 19.68504
vt 39.37008 2.187441E-14
vt 0 0
vt 0 24.6063
vt 39.37008 0
vt 39.37008 24.6063
vt 13.91943 24.6063
vt 13.91943 7.320636E-15
vt 6.151575 24.6063
vt 6.151575 2.197558E-14
vt -6.151575 24.6063
vt -6.151575 5.999908E-15
vt -13.91943 24.6063
vt -13.91943 1.177307E-14
vt -19.68504 24.6063
vt -19.68504 2.309264E-14
vt -39.37008 24.6063
vt -39.37008 -4.103591E-30
vt 0 39.37008
vt 9.063165E-30 19.68504
vt -39.37008 39.37008
vt -8.276585 16.97622
vt -5.4927 14.19234
vt -16.97622 8.276585
vt -19.68504 -1.712288E-30
vt -39.37008 -2.784376E-30
vt -14.19234 5.4927
vt -39.37008 0
vt 19.68504 1.776357E-15
vt 19.68504 24.6063
vt 13.91943 2.234759E-14
vt 17.85643 2.234759E-14
vt 17.85643 24.6063
vt -13.91943 1.64313E-14
vt -17.85643 24.6063
vt -17.85643 1.64313E-14
vt 6.151575 5.428347E-15
vt -6.151575 6.316525E-15

usemtl brick

f 3/3/1 2/2/1 1/1/1
f 4/4/1 2/2/1 3/3/1
f 4/4/1 5/5/1 2/2/1
f 6/6/1 5/5/1 4/4/1
f 6/6/1 7/7/1 5/5/1
f 7/7/1 6/6/1 8/8/1
f 4/4/1 3/3/1 9/9/1
f 11/12/2 9/11/2 10/10/2
f 9/11/2 11/12/2 4/13/2
f 1/16/3 12/15/3 3/14/3
f 12/15/3 1/16/3 13/17/3
f 8/20/3 14/19/3 7/18/3
f 14/19/3 8/20/3 15/21/3
f 6/24/4 15/23/4 8/22/4
f 15/23/4 6/24/4 16/25/4
f 11/28/5 15/27/5 16/26/5
f 15/27/5 11/28/5 17/29/5
f 15/27/5 17/29/5 14/30/5
f 17/29/5 11/28/5 18/31/5
f 18/31/5 11/28/5 12/32/5
f 12/32/5 11/28/5 10/33/5
f 12/32/5 13/34/5 18/31/5
f 6/11/6 11/35/6 16/10/6
f 11/35/6 6/11/6 4/24/6
f 9/13/7 12/36/7 10/12/7
f 12/36/7 9/13/7 3/37/7
f 17/39/8 7/14/8 14/38/8
f 7/14/8 17/39/8 5/40/8
f 2/42/9 13/41/9 1/20/9
f 13/41/9 2/42/9 18/43/9

usemtl glass

f 2/16/3 17/45/3 18/44/3
f 17/45/3 2/16/3 5/18/3

