# Created by Kenney (www.kenney.nl)

mtllib building_040.mtl

g building_040

v 0 0 0
v 0 0.5 0.125
v 0 0.625 0
v 0 0.625 1
v 0 0.5 0.875
v -3.609557E-16 0.12 0.875
v 0 0.06 0.875
v 0 0.06 0.125
v 0 0 1
v -3.609557E-16 0.12 0.125
v 0.05 0.12 0.125
v 0.05 0.12 0.875
v -0.1 0.12 0.125
v -0.1 0.12 0.875
v -0.1 0.5 0.875
v -0.1 0.5 0.125
v 0.05 0.06 0.125
v 0.05 0.06 0.875
v -1 0 1
v -1 0 0
v -1 0.625 1
v -1 0.625 0

vn 1 0 0
vn 0 1 0
vn 0 -1 0
vn 0 0 -1
vn 0 0 1
vn -1 0 0

vt 0 0
vt -4.92126 19.68504
vt 0 24.6063
vt -39.37008 24.6063
vt -34.44882 19.68504
vt -34.44882 4.72441
vt -34.44882 2.362205
vt -4.92126 2.362205
vt -39.37008 0
vt -4.92126 4.72441
vt -1.968504 4.92126
vt -1.968504 34.44882
vt 6.293379E-15 4.92126
vt 6.293379E-15 34.44882
vt 3.937008 4.92126
vt 3.937008 34.44882
vt 0 34.44882
vt 0 4.92126
vt -3.937008 34.44882
vt -3.937008 4.92126
vt 0 2.362205
vt -1.968504 2.362205
vt 1.421085E-14 4.72441
vt -1.968504 4.72441
vt 1.968504 34.44882
vt 1.968504 4.92126
vt 1.438849E-14 34.44882
vt 1.438849E-14 4.92126
vt 0 39.37008
vt -39.37008 39.37008
vt 3.937008 4.72441
vt 3.937008 19.68504
vt 0 19.68504
vt 39.37008 0
vt 39.37008 24.6063
vt -1.421085E-14 4.72441
vt 1.968504 2.362205
vt 1.968504 4.72441
vt -3.937008 4.72441
vt -3.937008 19.68504
vt 39.37008 39.37008

usemtl brick

f 3/3/1 2/2/1 1/1/1
f 2/2/1 3/3/1 4/4/1
f 2/2/1 4/4/1 5/5/1
f 5/5/1 4/4/1 6/6/1
f 6/6/1 4/4/1 7/7/1
f 8/8/1 1/1/1 2/2/1
f 1/1/1 8/8/1 9/9/1
f 9/9/1 8/8/1 7/7/1
f 9/9/1 7/7/1 4/4/1
f 8/8/1 2/2/1 10/10/1
f 10/13/2 12/12/2 11/11/2
f 12/12/2 10/13/2 6/14/2
f 6/14/2 10/13/2 13/15/2
f 6/14/2 13/15/2 14/16/2
f 15/19/3 2/18/3 5/17/3
f 2/18/3 15/19/3 16/20/3
f 10/23/4 17/22/4 8/21/4
f 17/22/4 10/23/4 11/24/4
f 7/27/3 17/26/3 18/25/3
f 17/26/3 7/27/3 8/28/3
f 19/30/3 1/1/3 9/29/3
f 1/1/3 19/30/3 20/9/3
f 15/32/4 6/23/4 14/31/4
f 6/23/4 15/32/4 5/33/4
f 4/3/5 19/9/5 9/1/5
f 19/9/5 4/3/5 21/4/5
f 12/6/1 17/8/1 11/10/1
f 17/8/1 12/6/1 18/7/1
f 22/35/4 1/1/4 20/34/4
f 1/1/4 22/35/4 3/3/4
f 18/37/5 6/36/5 7/21/5
f 6/36/5 18/37/5 12/38/5
f 19/34/6 22/3/6 20/1/6
f 22/3/6 19/34/6 21/35/6
f 2/33/5 13/39/5 10/36/5
f 13/39/5 2/33/5 16/40/5
f 22/34/2 4/29/2 3/1/2
f 4/29/2 22/34/2 21/41/2

usemtl glass

f 15/5/1 13/10/1 16/2/1
f 13/10/1 15/5/1 14/6/1

