# Created by Kenney (www.kenney.nl)

mtllib building_052.mtl

g building_052

v -0.1 0 0.625
v -1.804779E-16 0 0.625
v -0.1 0.5 0.625
v -1.804779E-16 0.5 0.625
v -1.804779E-16 2.255973E-16 0.75
v -0.25 2.255973E-16 1
v -1.804779E-16 0.625 0.75
v -0.25 0.625 1
v -0.25 0.625 0
v -0.25 4.511946E-17 0
v -1.804779E-16 0.625 0.25
v 0 2.255973E-16 0.25
v -1.804779E-16 0 0.375
v -0.1 0 0.375
v -1.804779E-16 0.5 0.375
v -0.1 0.5 0.375
v -1 0 1
v -1 0.625 1
v -1 0.625 0
v -1 0 0

vn 0 0 -1
vn 0.7071068 0 0.7071068
vn 0.7071068 0 -0.7071068
vn 0 0 1
vn 0 -1 0
vn 0 1 0
vn 1 0 0
vn -1 0 0

vt 3.937008 0
vt 7.105427E-15 0
vt 3.937008 19.68504
vt 7.105427E-15 19.68504
vt -20.87914 8.881784E-15
vt -34.79856 8.881784E-15
vt -20.87914 24.6063
vt -34.79856 24.6063
vt 6.959713 24.6063
vt 6.959713 2.815909E-15
vt -6.959713 24.6063
vt -6.959713 9.921337E-15
vt -7.105427E-15 0
vt -3.937008 0
vt -7.105427E-15 19.68504
vt -3.937008 19.68504
vt -7.105427E-15 24.6063
vt -7.105427E-15 14.76378
vt -3.937008 24.6063
vt -3.937008 14.76378
vt -39.37008 0
vt -39.37008 24.6063
vt -9.84252 8.881784E-15
vt -9.84252 24.6063
vt 1.466297E-15 9.84252
vt 1.466297E-15 29.52756
vt 9.84252 9.023843E-15
vt 9.84252 39.37008
vt 39.37008 39.37008
vt 39.37008 9.023843E-15
vt -7.105427E-15 29.52756
vt -9.84252 39.37008
vt -9.84252 2.427012E-31
vt 7.253994E-31 9.84252
vt -39.37008 39.37008
vt -39.37008 3.024532E-31
vt -14.76378 19.68504
vt -29.52756 24.6063
vt -24.6063 19.68504
vt -24.6063 2.718393E-31
vt -29.52756 8.881784E-15
vt -14.76378 3.80575E-31
vt 39.37008 0
vt 9.84252 1.776357E-15
vt 39.37008 24.6063
vt 9.84252 24.6063
vt 0 0
vt 0 24.6063
vt -14.76378 0
vt -24.6063 0

usemtl brick

f 3/3/1 2/2/1 1/1/1
f 2/2/1 3/3/1 4/4/1
f 7/7/2 6/6/2 5/5/2
f 6/6/2 7/7/2 8/8/2
f 11/11/3 10/10/3 9/9/3
f 10/10/3 11/11/3 12/12/3
f 15/15/4 14/14/4 13/13/4
f 14/14/4 15/15/4 16/16/4
f 3/19/5 15/18/5 4/17/5
f 15/18/5 3/19/5 16/20/5
f 6/23/4 18/22/4 17/21/4
f 18/22/4 6/23/4 8/24/4
f 9/27/6 7/26/6 11/25/6
f 7/26/6 9/27/6 8/28/6
f 8/28/6 9/27/6 18/29/6
f 18/29/6 9/27/6 19/30/6
f 6/32/5 2/17/5 5/31/5
f 2/17/5 6/32/5 1/19/5
f 1/19/5 6/32/5 14/20/5
f 10/33/5 14/20/5 6/32/5
f 10/33/5 13/18/5 14/20/5
f 13/18/5 10/33/5 12/34/5
f 10/33/5 6/32/5 17/35/5
f 10/33/5 17/35/5 20/36/5
f 11/24/7 15/37/7 12/23/7
f 15/37/7 11/24/7 7/38/7
f 15/37/7 7/38/7 4/39/7
f 4/39/7 7/38/7 2/40/7
f 2/40/7 7/38/7 5/41/7
f 13/42/7 12/23/7 15/37/7
f 19/45/1 10/44/1 20/43/1
f 10/44/1 19/45/1 9/46/1
f 17/43/8 19/48/8 20/47/8
f 19/48/8 17/43/8 18/45/8

usemtl glass

f 3/39/7 14/49/7 16/37/7
f 14/49/7 3/39/7 1/50/7

