# Created by Kenney (www.kenney.nl)

mtllib building_019.mtl

g building_019

v -1 0 0
v -1 0.2125 0
v -1 0 1
v -1 0.2125 1
v 0 9.023893E-17 1
v 0 0.2125 1
v 0 0 0
v 0 0.2125 0
v 0.11 0 0
v 0.11 0.2125 0
v 0.11 0.2125 1
v 0.11 9.023893E-17 1

vn -1 0 0
vn 0 0 1
vn 0 -1 0
vn 0 1 0
vn 0 0 -1
vn 1 0 0

vt 0 0
vt 0 8.366141
vt 39.37008 0
vt 39.37008 8.366141
vt -39.37008 0
vt -39.37008 8.366141
vt 0 3.552714E-15
vt 1.602965E-31 39.37008
vt -39.37008 39.37008
vt -39.37008 8.014827E-32
vt -1.509903E-15 -1.509903E-15
vt -1.509903E-15 39.37008
vt 39.37008 -1.509903E-15
vt 39.37008 39.37008
vt -4.330709 0
vt -4.330709 8.366141
vt -39.37008 3.552714E-15
vt 4.330709 3.552714E-15
vt 4.330709 8.366141
vt -4.330709 -3.019807E-15
vt -4.330709 39.37008
vt 4.330709 39.37008
vt 4.330709 0

usemtl brickDark

f 3/3/1 2/2/1 1/1/1
f 2/2/1 3/3/1 4/4/1
f 5/7/2 4/6/2 3/5/2
f 4/6/2 5/7/2 6/2/2
f 3/9/3 7/1/3 5/8/3
f 7/1/3 3/9/3 1/10/3
f 2/13/4 6/12/4 8/11/4
f 6/12/4 2/13/4 4/14/4
f 2/4/5 7/1/5 1/3/5
f 7/1/5 2/4/5 8/2/5

usemtl green

f 8/2/5 9/15/5 7/1/5
f 9/15/5 8/2/5 10/16/5
f 11/6/6 9/1/6 10/2/6
f 9/1/6 11/6/6 12/17/6
f 11/19/2 5/7/2 12/18/2
f 5/7/2 11/19/2 6/2/2
f 8/11/4 11/21/4 10/20/4
f 11/21/4 8/11/4 6/12/4
f 5/8/3 9/23/3 12/22/3
f 9/23/3 5/8/3 7/1/3

usemtl brick

f 6/6/6 7/1/6 8/2/6
f 7/1/6 6/6/6 5/17/6

