# Created by Kenney (www.kenney.nl)

mtllib building_020.mtl

g building_020

v 0 0.625 0.4375
v 0 0 0.4375
v 0 0.625 0.5625
v 0 0 0.5625
v 0 0.625 0.875
v 0 0 0.875
v 0 0.625 1
v 0 0 1
v -1 0 1
v -0.1 0 0.875
v -0.1 0 0.5625
v -0.1 0 0.4375
v -0.1 0 0.125
v -1 0 0
v 0 0 0
v 0 0 0.125
v -0.1 0.625 0.5625
v -0.1 0.625 0.4375
v -1 0.625 1
v 0 0.625 0
v 0 0.625 0.125
v -0.1 0.625 0.125
v -1 0.625 0
v -0.1 0.625 0.875

vn 1 0 0
vn 0 -1 0
vn 0 0 1
vn 0 0 -1
vn -1 0 0
vn 0 1 0

vt -17.22441 24.6063
vt -17.22441 0
vt -22.14567 24.6063
vt -22.14567 0
vt -34.44882 24.6063
vt -34.44882 0
vt -39.37008 24.6063
vt -39.37008 0
vt 0 39.37008
vt 0 34.44882
vt -39.37008 39.37008
vt -3.937008 34.44882
vt -3.937008 22.14567
vt -3.937008 17.22441
vt -3.937008 4.92126
vt 0 0
vt 0 4.92126
vt 0 17.22441
vt 0 22.14567
vt -3.937008 0
vt 0 24.6063
vt -3.937008 24.6063
vt 3.937008 0
vt 3.937008 24.6063
vt -4.92126 24.6063
vt -4.92126 0
vt 39.37008 0
vt 39.37008 24.6063
vt 6.650785E-16 8.488445E-16
vt 6.650785E-16 4.92126
vt 39.37008 8.488445E-16
vt 3.937008 4.92126
vt 3.937008 17.22441
vt 3.937008 22.14567
vt 3.937008 34.44882
vt 39.37008 39.37008
vt 6.650785E-16 39.37008
vt 6.650785E-16 34.44882
vt 6.650785E-16 22.14567
vt 6.650785E-16 17.22441

usemtl brick

f 3/3/1 2/2/1 1/1/1
f 2/2/1 3/3/1 4/4/1
f 7/7/1 6/6/1 5/5/1
f 6/6/1 7/7/1 8/8/1
f 9/11/2 6/10/2 8/9/2
f 6/10/2 9/11/2 10/12/2
f 10/12/2 9/11/2 11/13/2
f 11/13/2 9/11/2 12/14/2
f 12/14/2 9/11/2 13/15/2
f 14/8/2 13/15/2 9/11/2
f 15/16/2 13/15/2 14/8/2
f 13/15/2 15/16/2 16/17/2
f 2/18/2 11/13/2 12/14/2
f 11/13/2 2/18/2 4/19/2
f 3/21/3 11/20/3 4/16/3
f 11/20/3 3/21/3 17/22/3
f 18/24/4 2/16/4 12/23/4
f 2/16/4 18/24/4 1/21/4
f 7/21/3 9/8/3 8/16/3
f 9/8/3 7/21/3 19/7/3
f 21/25/1 15/16/1 20/21/1
f 15/16/1 21/25/1 16/26/1
f 21/21/3 13/20/3 16/16/3
f 13/20/3 21/21/3 22/22/3
f 23/28/4 15/16/4 14/27/4
f 15/16/4 23/28/4 20/21/4
f 9/27/5 23/21/5 14/16/5
f 23/21/5 9/27/5 19/28/5
f 24/24/4 6/16/4 10/23/4
f 6/16/4 24/24/4 5/21/4
f 23/31/6 21/30/6 20/29/6
f 21/30/6 23/31/6 22/32/6
f 22/32/6 23/31/6 18/33/6
f 18/33/6 23/31/6 17/34/6
f 17/34/6 23/31/6 24/35/6
f 19/36/6 24/35/6 23/31/6
f 7/37/6 24/35/6 19/36/6
f 24/35/6 7/37/6 5/38/6
f 3/39/6 18/33/6 17/34/6
f 18/33/6 3/39/6 1/40/6

usemtl glass

f 24/5/1 11/4/1 17/3/1
f 11/4/1 24/5/1 10/6/1
f 18/1/1 13/26/1 22/25/1
f 13/26/1 18/1/1 12/2/1

