# Created by Kenney (www.kenney.nl)

mtllib building_053.mtl

g building_053

v -1 0 0
v 0 0 0
v -1 0.625 0
v 0 0.625 0
v 0 0.5 0.875
v 0 0.5 0.5625
v -0.1 0.5 0.875
v -0.1 0.5 0.5625
v 0 0.625 1
v 0 0.12 0.875
v 0 0.12 0.5625
v 0 0 1
v -1 0 1
v -1 0.625 1
v -0.1 0.12 0.5625
v -0.1 0.12 0.875

vn 0 0 -1
vn 0 -1 0
vn 1 0 0
vn -1 0 0
vn 0 1 0
vn 0 0 1

vt 39.37008 0
vt 0 0
vt 39.37008 24.6063
vt 0 24.6063
vt 0 34.44882
vt 0 22.14567
vt -3.937008 34.44882
vt -3.937008 22.14567
vt -22.14567 19.68504
vt -39.37008 24.6063
vt -34.44882 19.68504
vt -34.44882 4.72441
vt -22.14567 4.72441
vt -39.37008 0
vt 3.937008 22.14567
vt 3.937008 34.44882
vt 3.937008 4.72441
vt 0 4.72441
vt 3.937008 19.68504
vt 0 19.68504
vt -3.937008 4.72441
vt -3.937008 19.68504
vt 3.330669E-15 -3.330669E-15
vt 3.330669E-15 39.37008
vt 39.37008 -3.330669E-15
vt 39.37008 39.37008
vt 0 39.37008
vt -39.37008 39.37008

usemtl brick

f 3/3/1 2/2/1 1/1/1
f 2/2/1 3/3/1 4/4/1
f 7/7/2 6/6/2 5/5/2
f 6/6/2 7/7/2 8/8/2
f 4/4/3 6/9/3 2/2/3
f 6/9/3 4/4/3 9/10/3
f 6/9/3 9/10/3 5/11/3
f 5/11/3 9/10/3 10/12/3
f 11/13/3 2/2/3 6/9/3
f 2/2/3 11/13/3 12/14/3
f 12/14/3 11/13/3 10/12/3
f 12/14/3 10/12/3 9/10/3
f 13/1/4 3/4/4 1/2/4
f 3/4/4 13/1/4 14/3/4
f 15/15/5 10/5/5 11/6/5
f 10/5/5 15/15/5 16/16/5
f 7/19/1 10/18/1 16/17/1
f 10/18/1 7/19/1 5/20/1
f 6/20/6 15/21/6 11/18/6
f 15/21/6 6/20/6 8/22/6
f 3/25/5 9/24/5 4/23/5
f 9/24/5 3/25/5 14/26/5
f 13/28/2 2/2/2 12/27/2
f 2/2/2 13/28/2 1/14/2
f 9/4/6 13/14/6 12/2/6
f 13/14/6 9/4/6 14/10/6

usemtl glass

f 7/11/3 15/13/3 8/9/3
f 15/13/3 7/11/3 16/12/3

