# Created by Kenney (www.kenney.nl)

mtllib building_030.mtl

g building_030

v -0.171875 0.4204854 0.328125
v -0.1947573 0.4453165 0.3052427
v -0.2425857 0.4204854 0.3988357
v -0.2654679 0.4453165 0.3759534
v -0.3567207 0.3504405 0.1432793
v -0.4274314 0.3504405 0.2139899
v -0.3456832 0.388125 0.1543168
v -0.4163939 0.388125 0.2250275
v -0.2214043 0.4609259 0.2785957
v -0.25 0.46625 0.25
v -0.2921149 0.4609259 0.3493064
v -0.3207107 0.46625 0.3207107
v -0.3604854 3.158362E-16 0.1395146
v -0.4311961 3.9042E-16 0.2102253
v -0.3604854 0.31 0.1395146
v -0.4311961 0.31 0.2102253
v -0.2785957 0.4609259 0.2214043
v -0.3052427 0.4453165 0.1947573
v -0.3493064 0.4609259 0.2921149
v -0.3759534 0.4453165 0.2654679
v -1 0 0
v -1 0.625 0
v -1 0 1
v -1 0.625 1
v 0 0 1
v 0 5.86553E-16 0.5
v -0.2102253 3.9042E-16 0.4311961
v -0.1395146 3.158362E-16 0.3604854
v -0.5 4.511946E-17 0
v -0.1395146 0.31 0.3604854
v -0.2102253 0.31 0.4311961
v -0.5 0.625 0
v -0.328125 0.4204854 0.171875
v 0 0.625 0.5
v -0.1543168 0.388125 0.3456832
v -0.1432793 0.3504405 0.3567207
v 0 0.625 1
v -0.2139899 0.3504405 0.4274314
v -0.2250275 0.388125 0.4163939
v -0.3988357 0.4204854 0.2425857

vn -0.5 -0.7071068 -0.5
vn -0.3535534 -0.8660254 -0.3535534
vn 0.6830127 -0.258819 0.6830127
vn 0.6123725 -0.5 0.6123725
vn -0.1830127 -0.9659258 -0.1830127
vn 0 -1 0
vn 0.7071068 0 0.7071068
vn 0.1830127 -0.9659258 0.1830127
vn 0.3535534 -0.8660254 0.3535534
vn -1 0 0
vn -0.7071068 0 -0.7071068
vn 0.7071068 0 -0.7071068
vn 0 0 1
vn 0.7010574 -0.1305262 0.7010574
vn 1 0 0
vn -0.7010574 -0.1305262 -0.7010574
vn -0.6830127 -0.258819 -0.6830127
vn -0.6123725 -0.5 -0.6123725
vn 0 1 0
vn 0.5 -0.7071068 0.5
vn 0 0 -1

vt 13.91943 6.626824
vt 13.91943 8.232707
vt 17.85643 6.626824
vt 17.85643 8.232707
vt -13.91943 10.47275
vt -17.85643 10.47275
vt -13.91943 12.07864
vt -17.85643 12.07864
vt 13.91943 0.7900947
vt 13.91943 2.395978
vt 17.85643 0.7900947
vt 17.85643 2.395978
vt -13.91943 1.24345E-14
vt -17.85643 1.537087E-14
vt -13.91943 12.20472
vt -17.85643 12.20472
vt -13.91943 5.473487
vt -13.91943 3.867604
vt -17.85643 5.473487
vt -17.85643 3.867604
vt 0 0
vt 0 24.6063
vt 39.37008 0
vt 39.37008 24.6063
vt 0 39.37008
vt 8.016996E-30 19.68504
vt -39.37008 39.37008
vt -8.276585 16.97622
vt -5.4927 14.19234
vt -16.97622 8.276585
vt -19.68504 -1.194558E-30
vt -39.37008 -1.89623E-30
vt -14.19234 5.4927
vt 13.91943 1.24345E-14
vt 13.91943 12.20472
vt 17.85643 1.537087E-14
vt 17.85643 12.20472
vt 13.91943 3.573507E-14
vt 6.151575 4.639321E-14
vt 13.91943 24.6063
vt 6.151575 12.20472
vt 5.941965 13.79687
vt 5.32742 15.28051
vt 4.34982 16.55454
vt 3.075787 17.53214
vt 1.592145 18.14669
vt -4.5833E-08 18.3563
vt -13.91943 24.6063
vt -1.592145 18.14669
vt -3.075788 17.53214
vt -4.34982 16.55454
vt -5.32742 15.28051
vt -5.941965 13.79687
vt -6.151575 12.20472
vt -13.91943 5.705136E-14
vt -6.151575 4.639321E-14
vt -39.37008 0
vt -39.37008 24.6063
vt -13.91943 2.395978
vt -13.91943 0.7900945
vt -17.85643 2.395978
vt -17.85643 0.7900945
vt 13.91943 3.867604
vt 13.91943 5.473487
vt 17.85643 3.867604
vt 17.85643 5.473487
vt -13.91943 11.29737
vt -17.85643 11.29737
vt -13.91943 12.90325
vt -17.85643 12.90325
vt -19.68504 24.6063
vt -19.68504 2.309264E-14
vt -39.37008 -4.103591E-30
vt 13.91943 11.29737
vt 13.91943 12.90325
vt 17.85643 11.29737
vt 17.85643 12.90325
vt 13.91943 10.47275
vt 13.91943 12.07864
vt 17.85643 10.47275
vt 17.85643 12.07864
vt 13.91943 8.879717
vt 13.91943 10.4856
vt 17.85643 8.879717
vt 17.85643 10.4856
vt -8.881784E-15 19.68504
vt -8.881784E-15 39.37008
vt 19.68504 1.776357E-14
vt 39.37008 39.37008
vt 39.37008 1.776357E-14
vt -13.91943 10.4856
vt -13.91943 8.879717
vt -17.85643 10.4856
vt -17.85643 8.879717
vt 19.68504 1.776357E-15
vt 19.68504 24.6063
vt -13.91943 8.232707
vt -13.91943 6.626824
vt -17.85643 8.232707
vt -17.85643 6.626824
vt 6.151575 2.052861E-15
vt -6.151575 2.052861E-15
vt -4.583309E-08 18.3563

usemtl brick

f 3/3/1 2/2/2 1/1/1
f 2/2/2 3/3/1 4/4/2
f 7/7/4 6/6/3 5/5/3
f 6/6/3 7/7/4 8/8/4
f 11/11/5 10/10/6 9/9/5
f 10/10/6 11/11/5 12/12/6
f 15/15/7 14/14/7 13/13/7
f 14/14/7 15/15/7 16/16/7
f 19/19/8 18/18/9 17/17/8
f 18/18/9 19/19/8 20/20/9
f 23/23/10 22/22/10 21/21/10
f 22/22/10 23/23/10 24/24/10
f 23/27/6 26/26/6 25/25/6
f 26/26/6 23/27/6 27/28/6
f 26/26/6 27/28/6 28/29/6
f 27/28/6 23/27/6 14/30/6
f 14/30/6 23/27/6 29/31/6
f 29/31/6 23/27/6 21/32/6
f 29/31/6 13/33/6 14/30/6
f 27/36/11 30/35/11 28/34/11
f 30/35/11 27/36/11 31/37/11
f 32/40/12 13/39/12 29/38/12
f 13/39/12 32/40/12 15/41/12
f 15/41/12 32/40/12 5/42/12
f 5/42/12 32/40/12 7/43/12
f 7/43/12 32/40/12 33/44/12
f 33/44/12 32/40/12 18/45/12
f 18/45/12 32/40/12 17/46/12
f 17/46/12 32/40/12 10/47/12
f 34/48/12 10/47/12 32/40/12
f 34/48/12 9/49/12 10/47/12
f 34/48/12 2/50/12 9/49/12
f 34/48/12 1/51/12 2/50/12
f 34/48/12 35/52/12 1/51/12
f 34/48/12 36/53/12 35/52/12
f 34/48/12 30/54/12 36/53/12
f 26/55/12 30/54/12 34/48/12
f 30/54/12 26/55/12 28/56/12
f 37/22/13 23/57/13 25/21/13
f 23/57/13 37/22/13 24/58/13
f 12/61/6 17/60/8 10/59/6
f 17/60/8 12/61/6 19/62/8
f 4/65/2 9/64/5 2/63/2
f 9/64/5 4/65/2 11/66/5
f 5/69/3 16/68/14 15/67/14
f 16/68/14 5/69/3 6/70/3
f 37/58/15 26/72/15 34/71/15
f 26/72/15 37/58/15 25/73/15
f 31/76/16 36/75/17 30/74/16
f 36/75/17 31/76/16 38/77/17
f 38/80/17 35/79/18 36/78/17
f 35/79/18 38/80/17 39/81/18
f 39/84/18 1/83/1 35/82/18
f 1/83/1 39/84/18 3/85/1
f 32/88/19 37/87/19 34/86/19
f 37/87/19 32/88/19 24/89/19
f 24/89/19 32/88/19 22/90/19
f 40/93/20 7/92/4 33/91/20
f 7/92/4 40/93/20 8/94/4
f 22/24/21 29/95/21 21/23/21
f 29/95/21 22/24/21 32/96/21
f 20/99/9 33/98/20 18/97/9
f 33/98/20 20/99/9 40/100/20

usemtl glass

f 6/42/12 14/101/12 16/41/12
f 14/101/12 6/42/12 27/102/12
f 27/102/12 6/42/12 8/43/12
f 27/102/12 8/43/12 40/44/12
f 27/102/12 40/44/12 20/45/12
f 27/102/12 20/45/12 19/46/12
f 27/102/12 19/46/12 12/103/12
f 27/102/12 12/103/12 11/49/12
f 27/102/12 11/49/12 4/50/12
f 27/102/12 4/50/12 3/51/12
f 27/102/12 3/51/12 39/52/12
f 27/102/12 39/52/12 38/53/12
f 27/102/12 38/53/12 31/54/12

