# Created by Kenney (www.kenney.nl)

mtllib building_023.mtl

g building_023

v 0 0.7125 0.625
v 0 0.7125 0.375
v -0.1 0.7125 0.625
v -0.1 0.7125 0.375
v 0 0.7125 0.90625
v 0 0.7125 0.71875
v -0.1 0.7125 0.90625
v -0.1 0.7125 0.71875
v 0 0.290625 0.71875
v 0 0.290625 0.90625
v -0.1 0.290625 0.71875
v -0.1 0.290625 0.90625
v 0 0.2125 1
v -1 0.2125 1
v 0 0.8375 1
v -1 0.8375 1
v 0 0.2125 0.375
v 0 0.290625 0.09375
v 0 0.2125 0
v 0 0.7125 0.09375
v 0 0.290625 0.28125
v 0 0.8375 0
v 0 0.7125 0.28125
v 0 0.2125 0.625
v -0.1 0.290625 0.28125
v -0.1 0.7125 0.28125
v -1 0.8375 0
v -0.1 0.290625 0.09375
v -0.1 0.2125 0.625
v -1 0.2125 0
v -0.1 0.7125 0.09375
v -0.1 0.2125 0.375
v 0 0 1
v 0 0 0.625
v -1 0 1
v 0 0 0.375
v 0 0 0
v -1 0 0
v 0.2 0 0.375
v 0.2 0 0.625
v 0.1 0.2125 0.375
v 0.1 0.10625 0.375
v 0.1 0.2125 0.625
v 0.1 0.10625 0.625
v 0.2 0.10625 0.625
v 0.2 0.10625 0.375

vn 0 -1 0
vn 0 1 0
vn 0 0 1
vn 1 0 0
vn 0 0 -1
vn -1 0 0

vt 0 24.6063
vt 0 14.76378
vt -3.937008 24.6063
vt -3.937008 14.76378
vt 0 35.67913
vt 0 28.29725
vt -3.937008 35.67913
vt -3.937008 28.29725
vt 3.937008 28.29725
vt 3.937008 35.67913
vt 0 8.366141
vt -39.37008 8.366141
vt 0 32.97244
vt -39.37008 32.97244
vt -14.76378 8.366141
vt -3.690945 11.44193
vt -3.690945 28.05118
vt -11.07283 11.44193
vt -14.76378 28.05118
vt -11.07283 28.05118
vt -24.6063 28.05118
vt -28.29725 28.05118
vt -24.6063 8.366141
vt -35.67913 28.05118
vt -35.67913 11.44193
vt -28.29725 11.44193
vt 3.937008 11.44193
vt 0 11.44193
vt 3.937008 28.05118
vt 0 28.05118
vt -1.190159E-14 1.190159E-14
vt -1.190159E-14 39.37008
vt 39.37008 1.190159E-14
vt 39.37008 39.37008
vt -3.937008 11.44193
vt -3.937008 28.05118
vt 0 3.690945
vt 0 11.07283
vt 3.937008 3.690945
vt 3.937008 11.07283
vt 3.937008 8.366141
vt 39.37008 8.366141
vt 39.37008 32.97244
vt -3.937008 11.07283
vt -3.937008 3.690945
vt -3.937008 8.366141
vt 0 39.37008
vt -39.37008 39.37008
vt 0 0
vt -39.37008 0
vt 7.874016 14.76378
vt 7.874016 24.6063
vt -14.76378 4.183071
vt -24.6063 4.183071
vt 7.874016 0
vt 7.874016 4.183071
vt 3.937008 4.183071
vt 39.37008 0
vt -7.874016 14.76378
vt -7.874016 24.6063
vt -14.76378 0
vt -24.6063 0
vt -7.874016 0
vt -3.937008 4.183071
vt -7.874016 4.183071
vt 3.937008 14.76378
vt 3.937008 24.6063

usemtl brick

f 3/3/1 2/2/1 1/1/1
f 2/2/1 3/3/1 4/4/1
f 7/7/1 6/6/1 5/5/1
f 6/6/1 7/7/1 8/8/1
f 11/9/2 10/5/2 9/6/2
f 10/5/2 11/9/2 12/10/2
f 15/13/3 14/12/3 13/11/3
f 14/12/3 15/13/3 16/14/3
f 19/11/4 18/16/4 17/15/4
f 18/16/4 19/11/4 20/17/4
f 17/15/4 18/16/4 21/18/4
f 17/15/4 21/18/4 2/19/4
f 22/13/4 20/17/4 19/11/4
f 20/17/4 22/13/4 15/14/4
f 20/17/4 15/14/4 23/20/4
f 23/20/4 15/14/4 2/19/4
f 23/20/4 2/19/4 21/18/4
f 2/19/4 15/14/4 1/21/4
f 1/21/4 15/14/4 6/22/4
f 1/21/4 6/22/4 24/23/4
f 6/22/4 15/14/4 5/24/4
f 5/24/4 15/14/4 10/25/4
f 9/26/4 24/23/4 6/22/4
f 24/23/4 9/26/4 13/12/4
f 13/12/4 9/26/4 10/25/4
f 13/12/4 10/25/4 15/14/4
f 26/29/5 21/28/5 25/27/5
f 21/28/5 26/29/5 23/30/5
f 27/33/2 15/32/2 22/31/2
f 15/32/2 27/33/2 16/34/2
f 6/30/3 11/35/3 9/28/3
f 11/35/3 6/30/3 8/36/3
f 28/39/2 21/38/2 18/37/2
f 21/38/2 28/39/2 25/40/2
f 3/29/5 24/11/5 29/41/5
f 24/11/5 3/29/5 1/30/5
f 7/29/5 10/28/5 12/27/5
f 10/28/5 7/29/5 5/30/5
f 27/43/5 19/11/5 30/42/5
f 19/11/5 27/43/5 22/13/5
f 14/42/6 27/13/6 30/11/6
f 27/13/6 14/42/6 16/43/6
f 20/30/3 28/35/3 18/28/3
f 28/35/3 20/30/3 31/36/3
f 26/44/1 20/37/1 23/38/1
f 20/37/1 26/44/1 31/45/1
f 2/30/3 32/46/3 17/11/3
f 32/46/3 2/30/3 4/36/3

usemtl brickDark

f 35/48/1 34/1/1 33/47/1
f 34/1/1 35/48/1 36/2/1
f 36/2/1 35/48/1 37/49/1
f 37/49/1 35/48/1 38/50/1
f 39/51/1 34/1/1 36/2/1
f 34/1/1 39/51/1 40/52/1
f 43/23/4 42/53/4 41/15/4
f 42/53/4 43/23/4 44/54/4
f 45/56/3 34/49/3 40/55/3
f 34/49/3 45/56/3 44/57/3
f 34/49/3 44/57/3 24/11/3
f 24/11/3 44/57/3 43/41/3
f 35/58/6 30/11/6 38/49/6
f 30/11/6 35/58/6 14/42/6
f 42/4/2 45/60/2 46/59/2
f 45/60/2 42/4/2 44/3/2
f 30/42/5 37/49/5 38/58/5
f 37/49/5 30/42/5 19/11/5
f 45/54/4 39/61/4 46/53/4
f 39/61/4 45/54/4 40/62/4
f 13/12/4 34/62/4 24/23/4
f 34/62/4 13/12/4 33/50/4
f 36/49/5 42/64/5 39/63/5
f 42/64/5 36/49/5 17/11/5
f 42/64/5 17/11/5 41/46/5
f 46/65/5 39/63/5 42/64/5
f 17/15/4 37/49/4 19/11/4
f 37/49/4 17/15/4 36/61/4
f 13/11/3 35/50/3 33/49/3
f 35/50/3 13/11/3 14/12/3
f 17/2/2 43/3/2 41/4/2
f 43/3/2 17/2/2 24/1/2
f 24/1/2 17/2/2 32/66/2
f 24/1/2 32/66/2 29/67/2

usemtl glass

f 3/21/4 32/15/4 4/19/4
f 32/15/4 3/21/4 29/23/4
f 7/24/4 11/26/4 8/22/4
f 11/26/4 7/24/4 12/25/4
f 26/20/4 28/16/4 31/17/4
f 28/16/4 26/20/4 25/18/4

