# Created by Kenney (www.kenney.nl)

mtllib building_055.mtl

g building_055

v -1 0 0
v -1 0.625 0
v -1 0 1
v -1 0.625 1
v 0 0.5 0.4375
v 0 0.5 0.125
v -0.1 0.5 0.4375
v -0.1 0.5 0.125
v -0.1 0.12 0.4375
v 0 0.12 0.4375
v 0 0 0
v 0 0.625 0
v 0 0 1
v 0 0.625 1
v 0 0.06 0.4375
v 0 0.06 0.125
v 0 0.12 0.125
v -0.1 0.12 0.125
v 0.05 0.12 0.125
v 0.05 0.12 0.4375
v -0.1 0.06 0.4375
v -0.1 0.06 0.125
v 0.05 0.06 0.125
v 0.05 0.06 0.4375

vn -1 0 0
vn 0 -1 0
vn 0 0 -1
vn 0 0 1
vn 0 1 0
vn 1 0 0

vt 0 0
vt 0 24.6063
vt 39.37008 0
vt 39.37008 24.6063
vt 0 17.22441
vt 0 4.92126
vt -3.937008 17.22441
vt -3.937008 4.92126
vt 3.937008 4.72441
vt 0 4.72441
vt 3.937008 19.68504
vt 0 19.68504
vt -39.37008 0
vt -39.37008 24.6063
vt 3.330669E-15 3.330669E-15
vt 3.330669E-15 39.37008
vt 39.37008 3.330669E-15
vt 39.37008 39.37008
vt -4.92126 19.68504
vt -17.22441 19.68504
vt -17.22441 4.72441
vt -17.22441 2.362205
vt -4.92126 2.362205
vt -4.92126 4.72441
vt -3.937008 4.72441
vt -3.937008 19.68504
vt -1.968504 4.92126
vt -1.968504 17.22441
vt 3.937008 4.92126
vt 3.937008 17.22441
vt 1.968504 4.92126
vt 1.968504 17.22441
vt 17.22441 2.362205
vt 4.92126 4.72441
vt 4.92126 2.362205
vt 17.22441 4.72441
vt -3.937008 2.362205
vt 0 2.362205
vt 1.968504 4.72441
vt 1.968504 2.362205
vt 0 39.37008
vt -39.37008 39.37008
vt -1.968504 2.362205
vt -1.968504 4.72441
vt 3.937008 2.362205

usemtl brick

f 3/3/1 2/2/1 1/1/1
f 2/2/1 3/3/1 4/4/1
f 7/7/2 6/6/2 5/5/2
f 6/6/2 7/7/2 8/8/2
f 7/11/3 10/10/3 9/9/3
f 10/10/3 7/11/3 5/12/3
f 2/4/3 11/1/3 1/3/3
f 11/1/3 2/4/3 12/2/3
f 14/2/4 3/13/4 13/1/4
f 3/13/4 14/2/4 4/14/4
f 2/17/5 14/16/5 12/15/5
f 14/16/5 2/17/5 4/18/5
f 12/2/6 6/19/6 11/1/6
f 6/19/6 12/2/6 14/14/6
f 6/19/6 14/14/6 5/20/6
f 5/20/6 14/14/6 10/21/6
f 10/21/6 14/14/6 15/22/6
f 16/23/6 11/1/6 6/19/6
f 11/1/6 16/23/6 13/13/6
f 13/13/6 16/23/6 15/22/6
f 13/13/6 15/22/6 14/14/6
f 16/23/6 6/19/6 17/24/6
f 6/12/4 18/25/4 17/10/4
f 18/25/4 6/12/4 8/26/4
f 17/6/5 20/28/5 19/27/5
f 20/28/5 17/6/5 10/5/5
f 10/5/5 17/6/5 18/29/5
f 10/5/5 18/29/5 9/30/5
f 19/27/2 20/28/2 17/6/2
f 10/5/2 17/6/2 20/28/2
f 18/29/2 17/6/2 10/5/2
f 9/30/2 18/29/2 10/5/2
f 15/5/5 16/6/5 21/7/5
f 22/8/5 21/7/5 16/6/5
f 16/6/5 15/5/5 23/31/5
f 24/32/5 23/31/5 15/5/5
f 22/35/6 18/34/6 21/33/6
f 9/36/6 21/33/6 18/34/6
f 20/21/6 23/23/6 19/24/6
f 23/23/6 20/21/6 24/22/6
f 19/24/1 23/23/1 20/21/1
f 24/22/1 20/21/1 23/23/1
f 15/38/3 21/37/3 10/10/3
f 9/25/3 10/10/3 21/37/3
f 10/10/3 20/39/3 15/38/3
f 24/40/3 15/38/3 20/39/3
f 3/42/2 11/1/2 13/41/2
f 11/1/2 3/42/2 1/13/2
f 20/39/4 15/38/4 24/40/4
f 15/38/4 20/39/4 10/10/4
f 17/10/3 23/43/3 16/38/3
f 23/43/3 17/10/3 19/44/3
f 16/38/4 23/43/4 17/10/4
f 19/44/4 17/10/4 23/43/4
f 17/10/4 18/9/4 16/38/4
f 22/45/4 16/38/4 18/9/4
f 15/5/2 23/31/2 24/32/2
f 23/31/2 15/5/2 16/6/2

usemtl glass

f 7/20/6 18/24/6 8/19/6
f 18/24/6 7/20/6 9/21/6

usemtl _defaultMat

f 21/7/2 16/6/2 15/5/2
f 16/6/2 21/7/2 22/8/2
f 21/33/1 18/34/1 22/35/1
f 18/34/1 21/33/1 9/36/1
f 10/10/4 21/37/4 15/38/4
f 21/37/4 10/10/4 9/25/4
f 18/9/3 16/38/3 22/45/3
f 16/38/3 18/9/3 17/10/3

