# Created by Kenney (www.kenney.nl)

mtllib building_033.mtl

g building_033

v 0 0 0
v 0 0.5 0.125
v 0 0.625 0
v 0 0.625 1
v 0 0.5 0.4375
v 0 0.5 0.5625
v 0 0.12 0.4375
v 0 0.06 0.4375
v 0 0.5 0.875
v 0 0.12 0.875
v 0 0.06 0.875
v 0 0.06 0.125
v 0 0 1
v 0 0.12 0.125
v 0 0.06 0.5625
v 0 0.12 0.5625
v -1 0 0
v -1 0.625 0
v -1 0 1
v -1 0.625 1
v 0.05 0.06 0.125
v 0.05 0.12 0.125
v -0.1 0.12 0.5625
v -0.1 0.5 0.5625
v 0.05 0.12 0.4375
v 0.05 0.06 0.4375
v 0.05 0.06 0.875
v 0.05 0.12 0.875
v 0.05 0.06 0.5625
v 0.05 0.12 0.5625
v -0.1 0.5 0.4375
v -0.1 0.5 0.125
v -0.1 0.12 0.125
v -0.1 0.12 0.4375
v -0.1 0.12 0.875
v -0.1 0.5 0.875

vn 1 0 0
vn -1 0 0
vn 0 0 -1
vn 0 1 0
vn 0 0 1
vn 0 -1 0

vt 0 0
vt -4.92126 19.68504
vt 0 24.6063
vt -39.37008 24.6063
vt -17.22441 19.68504
vt -22.14567 19.68504
vt -17.22441 4.72441
vt -17.22441 2.362205
vt -34.44882 19.68504
vt -34.44882 4.72441
vt -34.44882 2.362205
vt -4.92126 2.362205
vt -39.37008 0
vt -4.92126 4.72441
vt -22.14567 2.362205
vt -22.14567 4.72441
vt 39.37008 0
vt 39.37008 24.6063
vt 0 2.362205
vt -1.968504 2.362205
vt 0 4.72441
vt -1.968504 4.72441
vt 5.551115E-15 5.551115E-15
vt 5.551115E-15 39.37008
vt 39.37008 5.551115E-15
vt 39.37008 39.37008
vt -3.937008 4.72441
vt 0 19.68504
vt -3.937008 19.68504
vt 1.968504 2.362205
vt 1.968504 4.72441
vt 0 17.22441
vt 0 4.92126
vt -3.937008 17.22441
vt -3.937008 4.92126
vt 1.968504 34.44882
vt 1.968504 22.14567
vt 0 34.44882
vt 0 22.14567
vt -1.968504 4.92126
vt -1.968504 17.22441
vt 3.937008 4.92126
vt 3.937008 17.22441
vt 3.937008 4.72441
vt 3.937008 19.68504
vt -3.937008 34.44882
vt -3.937008 22.14567
vt 0 39.37008
vt -39.37008 39.37008
vt -1.968504 22.14567
vt -1.968504 34.44882
vt 3.937008 22.14567
vt 3.937008 34.44882
vt 1.968504 17.22441
vt 1.968504 4.92126

usemtl brick

f 3/3/1 2/2/1 1/1/1
f 2/2/1 3/3/1 4/4/1
f 2/2/1 4/4/1 5/5/1
f 5/5/1 4/4/1 6/6/1
f 5/5/1 6/6/1 7/7/1
f 7/7/1 6/6/1 8/8/1
f 6/6/1 4/4/1 9/9/1
f 9/9/1 4/4/1 10/10/1
f 10/10/1 4/4/1 11/11/1
f 12/12/1 1/1/1 2/2/1
f 1/1/1 12/12/1 13/13/1
f 13/13/1 12/12/1 8/8/1
f 13/13/1 11/11/1 4/4/1
f 12/12/1 2/2/1 14/14/1
f 13/13/1 8/8/1 15/15/1
f 15/15/1 8/8/1 6/6/1
f 13/13/1 15/15/1 11/11/1
f 15/15/1 6/6/1 16/16/1
f 19/17/2 18/3/2 17/1/2
f 18/3/2 19/17/2 20/18/2
f 14/21/3 21/20/3 12/19/3
f 21/20/3 14/21/3 22/22/3
f 18/25/4 4/24/4 3/23/4
f 4/24/4 18/25/4 20/26/4
f 6/28/5 23/27/5 16/21/5
f 23/27/5 6/28/5 24/29/5
f 25/7/1 21/12/1 22/14/1
f 21/12/1 25/7/1 26/8/1
f 28/31/5 11/19/5 27/30/5
f 11/19/5 28/31/5 10/21/5
f 16/21/3 29/20/3 15/19/3
f 29/20/3 16/21/3 30/22/3
f 18/18/3 1/1/3 17/17/3
f 1/1/3 18/18/3 3/3/3
f 31/34/6 2/33/6 5/32/6
f 2/33/6 31/34/6 32/35/6
f 11/38/6 29/37/6 27/36/6
f 29/37/6 11/38/6 15/39/6
f 14/33/4 25/41/4 22/40/4
f 25/41/4 14/33/4 7/32/4
f 7/32/4 14/33/4 33/42/4
f 7/32/4 33/42/4 34/43/4
f 25/31/5 8/19/5 26/30/5
f 8/19/5 25/31/5 7/21/5
f 31/45/3 7/21/3 34/44/3
f 7/21/3 31/45/3 5/28/3
f 4/3/5 19/13/5 13/1/5
f 19/13/5 4/3/5 20/4/5
f 28/10/1 29/15/1 30/16/1
f 29/15/1 28/10/1 27/11/1
f 2/28/5 33/27/5 14/21/5
f 33/27/5 2/28/5 32/29/5
f 36/45/3 10/21/3 35/44/3
f 10/21/3 36/45/3 9/28/3
f 36/46/6 6/39/6 9/38/6
f 6/39/6 36/46/6 24/47/6
f 19/49/6 1/1/6 13/48/6
f 1/1/6 19/49/6 17/13/6
f 16/39/4 28/51/4 30/50/4
f 28/51/4 16/39/4 10/38/4
f 10/38/4 16/39/4 23/52/4
f 10/38/4 23/52/4 35/53/4
f 8/32/6 21/55/6 26/54/6
f 21/55/6 8/32/6 12/33/6

usemtl glass

f 31/5/1 33/14/1 32/2/1
f 33/14/1 31/5/1 34/7/1
f 36/9/1 23/16/1 24/6/1
f 23/16/1 36/9/1 35/10/1

