# Created by Kenney (www.kenney.nl)

mtllib building_010.mtl

g building_010

v -0.125 0.10625 0.125
v -0.125 0.2125 0.125
v -0.125 0.10625 0.875
v -0.125 0.2125 0.875
v -1 0 0
v -1 0.2125 0
v -1 0 1
v -1 0.2125 1
v 0 0.2125 1
v 0 0.2125 0
v -0.875 0.2125 0.125
v -0.875 0.2125 0.875
v -0.875 0.10625 0.125
v -0.875 0.10625 0.875
v 0 0 0
v 0 0 1

vn -1 0 0
vn 0 1 0
vn 0 0 1
vn 0 0 -1
vn 1 0 0
vn 0 -1 0

vt 4.92126 4.183071
vt 4.92126 8.366141
vt 34.44882 4.183071
vt 34.44882 8.366141
vt 1.401298E-45 1.671865E-14
vt 1.401298E-45 8.366141
vt 39.37008 1.671865E-14
vt 39.37008 8.366141
vt 0 39.37008
vt 4.92126 4.92126
vt 0 0
vt 39.37008 0
vt 34.44882 4.92126
vt 34.44882 34.44882
vt 4.92126 34.44882
vt 39.37008 39.37008
vt -4.92126 4.183071
vt -34.44882 4.183071
vt -4.92126 8.366141
vt -34.44882 8.366141
vt 0 8.366141
vt -39.37008 8.366141
vt -39.37008 0
vt -39.37008 39.37008

usemtl brick

f 3/3/1 2/2/1 1/1/1
f 2/2/1 3/3/1 4/4/1
f 7/7/1 6/6/1 5/5/1
f 6/6/1 7/7/1 8/8/1
f 10/11/2 2/10/2 9/9/2
f 2/10/2 10/11/2 6/12/2
f 2/10/2 6/12/2 11/13/2
f 11/13/2 6/12/2 12/14/2
f 4/15/2 9/9/2 2/10/2
f 9/9/2 4/15/2 8/16/2
f 8/16/2 4/15/2 12/14/2
f 8/16/2 12/14/2 6/12/2
f 13/13/2 3/15/2 1/10/2
f 3/15/2 13/13/2 14/14/2
f 2/19/3 13/18/3 1/17/3
f 13/18/3 2/19/3 11/20/3
f 6/8/4 15/11/4 5/12/4
f 15/11/4 6/8/4 10/21/4
f 12/20/5 13/17/5 11/19/5
f 13/17/5 12/20/5 14/18/5
f 9/22/5 15/11/5 10/21/5
f 15/11/5 9/22/5 16/23/5
f 12/4/4 3/1/4 14/3/4
f 3/1/4 12/4/4 4/2/4
f 7/24/6 15/11/6 16/9/6
f 15/11/6 7/24/6 5/23/6
f 9/21/3 7/23/3 16/11/3
f 7/23/3 9/21/3 8/22/3

