# Created by Kenney (www.kenney.nl)

mtllib building_009.mtl

g building_009

v 0.2230751 0.02773681 0.8
v 0.225 0 0.8
v 0.2230751 0.02773681 1
v 0.225 0 1
v 0.2230751 0.02773681 0.4
v 0.225 0 0.4
v 0.2230751 0.02773681 0.6
v 0.225 0 0.6
v 0.1785045 0.1293618 0.4
v 0.1948557 0.10625 0.4
v 0.1785045 0.1293618 0.6
v 0.1948557 0.10625 0.6
v 0.02936839 0.210682 0.8
v 0.02936839 0.210682 1
v 0 0.2125 0.8
v 0 0.2125 1
v 0.159099 0.1502602 0.8
v 0.1785045 0.1293618 0.8
v 0.159099 0.1502602 1
v 0.1785045 0.1293618 1
v 0.08610377 0.1963244 0.8
v 0.08610377 0.1963244 1
v 0.05823429 0.2052592 0.8
v 0.05823429 0.2052592 1
v 0.1785045 0.1293618 0
v 0.1948557 0.10625 0
v 0.1785045 0.1293618 0.2
v 0.1948557 0.10625 0.2
v 0.159099 0.1502602 0
v 0.159099 0.1502602 0.2
v 0.1369713 0.1685876 0
v 0.1369713 0.1685876 0.2
v 0.02936839 0.210682 0
v 0.02936839 0.210682 0.2
v 0 0.2125 0
v 0 0.2125 0.2
v 0.1125 0.1840304 0.8
v 0.1125 0.1840304 1
v 0.1125 0.1840304 0
v 0.1125 0.1840304 0.2
v 0.08610377 0.1963244 0
v 0.08610377 0.1963244 0.2
v 0.08610377 0.1963244 0.4
v 0.08610377 0.1963244 0.6
v 0.05823429 0.2052592 0.4
v 0.05823429 0.2052592 0.6
v 0.2078729 0.08132023 0.4
v 0.2173333 0.05499905 0.4
v 0.2078729 0.08132023 0.6
v 0.2173333 0.05499905 0.6
v 0 9.023893E-17 1
v 0.2173333 0.05499905 1
v 0.2078729 0.08132023 1
v 0.1948557 0.10625 1
v 0.1369713 0.1685876 1
v 0.159099 0.1502602 0.4
v 0.159099 0.1502602 0.6
v 0.1369713 0.1685876 0.4
v 0.1369713 0.1685876 0.6
v 0.2078729 0.08132023 0
v 0.2173333 0.05499905 0
v 0.2078729 0.08132023 0.2
v 0.2173333 0.05499905 0.2
v 0 -1.804779E-16 0.8
v 0.2078729 0.08132023 0.8
v 0.2173333 0.05499905 0.8
v 0.1125 0.1840304 0.4
v 0.1125 0.1840304 0.6
v 0 -1.804779E-16 0.6
v 0 -1.804779E-16 0.4
v 0.1369713 0.1685876 0.8
v 0.02936839 0.210682 0.4
v 0.02936839 0.210682 0.6
v 0.05823429 0.2052592 0
v 0.05823429 0.2052592 0.2
v 0.1948557 0.10625 0.8
v 0.2230751 0.02773681 0
v 0.225 4.511947E-16 0
v 0.2230751 0.02773681 0.2
v 0.225 0 0.2
v 0 0.2125 0.4
v 0 0.2125 0.6
v 0 0 0
v 0 -1.804779E-16 0.2
v -1 0 1
v -1 0.2125 1
v -1 0.2125 0
v -1 0 0

vn 0.9904333 0.1379919 0
vn 0.9976006 0.06923245 0
vn 0.7762807 0.6303874 0
vn 0.8533222 0.5213839 0
vn 0.1234446 0.9923515 0
vn 0.06178389 0.9980895 0
vn 0.6868008 0.7268457 0
vn 0.3644649 0.9312171 0
vn 0.2454368 0.9694126 0
vn 0.5869923 0.8095925 0
vn 0.4789061 0.8778661 0
vn 0.9158693 0.4014767 0
vn 0.9620683 0.2728091 0
vn 0 0 -1
vn 0 -1 0
vn -0.9904333 -0.1379919 0
vn -0.9976006 -0.06923245 0
vn -0.5869923 -0.8095925 0
vn -0.6868008 -0.7268457 0
vn -0.9620683 -0.2728091 0
vn -0.7762807 -0.6303874 0
vn -0.8533222 -0.5213839 0
vn -0.06178389 -0.9980895 0
vn -0.1234446 -0.9923515 0
vn -0.9158693 -0.4014767 0
vn -0.2454368 -0.9694126 0
vn -0.3644649 -0.9312171 0
vn -0.4789061 -0.8778661 0
vn 0 0 1
vn 0 1 0
vn -1 0 0

vt -31.49606 0.4813476
vt -31.49606 -0.6132795
vt -39.37008 0.4813476
vt -39.37008 -0.6132795
vt -15.74803 0.4813476
vt -15.74803 -0.6132795
vt -23.62205 0.4813476
vt -23.62205 -0.6132795
vt -15.74803 0.09876108
vt -15.74803 -1.015849
vt -23.62205 0.09876108
vt -23.62205 -1.015849
vt -31.49606 -0.6415563
vt -39.37008 -0.6415563
vt -31.49606 0.5168929
vt -39.37008 0.5168929
vt -31.49606 0.07289514
vt -31.49606 -1.049888
vt -39.37008 0.07289514
vt -39.37008 -1.049888
vt -31.49606 -0.8683937
vt -39.37008 -0.8683937
vt -31.49606 0.2838386
vt -39.37008 0.2838386
vt 8.974491E-15 0.09876108
vt 9.796565E-15 -1.015849
vt -7.874016 0.09876108
vt -7.874016 -1.015849
vt 1.365047E-14 -1.05046
vt -7.874016 -1.05046
vt 1.175195E-14 0.08072173
vt -7.874016 0.08072173
vt 8.428666E-15 -0.6415563
vt -7.874016 -0.6415563
vt -7.888609E-31 0.5168929
vt -7.874016 0.5168929
vt -31.49606 -0.9560428
vt -39.37008 -0.9560428
vt -31.49606 0.1903659
vt -39.37008 0.1903659
vt 1.072817E-14 -0.9560428
vt -7.874016 -0.9560428
vt 8.210985E-15 0.1903659
vt -7.874016 0.1903659
vt -15.74803 -0.8683937
vt -23.62205 -0.8683937
vt -15.74803 0.2838386
vt -23.62205 0.2838386
vt -15.74803 0.2447537
vt -15.74803 -0.8564155
vt -23.62205 0.2447537
vt -23.62205 -0.8564155
vt 8.782484 1.092001
vt 1.20621E-13 8.177127E-14
vt 8.858268 7.821855E-14
vt 1.20621E-13 8.366141
vt 8.55643 2.165317
vt 8.183972 3.201584
vt 7.671485 4.183071
vt 7.027736 5.092984
vt 6.263741 5.915756
vt 5.392572 6.637307
vt 4.429134 7.245291
vt 3.389912 7.729307
vt 2.292688 8.081073
vt 1.156236 8.294568
vt -15.74803 -1.05046
vt -23.62205 -1.05046
vt -15.74803 0.08072173
vt -23.62205 0.08072173
vt 3.960997E-15 0.2447537
vt 4.141264E-15 -0.8564155
vt -7.874016 0.2447537
vt -7.874016 -0.8564155
vt 8.858268 39.37008
vt 8.858268 31.49606
vt 7.12429E-31 39.37008
vt -1.424858E-30 31.49606
vt -15.74803 0.07289514
vt -15.74803 -1.049888
vt -23.62205 0.07289514
vt -23.62205 -1.049888
vt 5.422724E-15 0.1572308
vt 5.784985E-15 -0.95
vt -7.874016 0.1572308
vt -7.874016 -0.95
vt -31.49606 0.2447537
vt -31.49606 -0.8564155
vt -39.37008 0.2447537
vt -39.37008 -0.8564155
vt -15.74803 0.1572308
vt -15.74803 -0.95
vt -23.62205 0.1572308
vt -23.62205 -0.95
vt -15.74803 -1.01825
vt -23.62205 -1.01825
vt -15.74803 0.120986
vt -23.62205 0.120986
vt 8.858268 23.62205
vt 8.858268 15.74803
vt -5.699432E-30 23.62205
vt -5.699432E-30 15.74803
vt -31.49606 -1.05046
vt -39.37008 -1.05046
vt -31.49606 0.08072173
vt -39.37008 0.08072173
vt -15.74803 -0.7612481
vt -23.62205 -0.7612481
vt -15.74803 0.3950844
vt -23.62205 0.3950844
vt -31.49606 -0.7612481
vt -39.37008 -0.7612481
vt -31.49606 0.3950844
vt -39.37008 0.3950844
vt -31.49606 -1.01825
vt -39.37008 -1.01825
vt -31.49606 0.120986
vt -39.37008 0.120986
vt 1.049841E-14 0.07289514
vt 1.177891E-14 -1.049888
vt -7.874016 0.07289514
vt -7.874016 -1.049888
vt 1.156822E-14 -1.01825
vt -7.874016 -1.01825
vt 9.501436E-15 0.120986
vt -7.874016 0.120986
vt 5.496199E-15 -0.7612481
vt -7.874016 -0.7612481
vt 2.771813E-15 0.3950844
vt -7.874016 0.3950844
vt -31.49606 0.3554233
vt -31.49606 -0.7414396
vt -39.37008 0.3554233
vt -39.37008 -0.7414396
vt -31.49606 0.1572308
vt -31.49606 -0.95
vt -39.37008 0.1572308
vt -39.37008 -0.95
vt 1.100141E-15 0.4813476
vt 1.109635E-15 -0.6132795
vt -7.874016 0.4813476
vt -7.874016 -0.6132795
vt -31.49606 0.09876108
vt -31.49606 -1.015849
vt -39.37008 0.09876108
vt -39.37008 -1.015849
vt -15.74803 -0.6415563
vt -23.62205 -0.6415563
vt -15.74803 0.5168929
vt -23.62205 0.5168929
vt 1.192859E-14 -0.8683937
vt -7.874016 -0.8683937
vt 8.067623E-15 0.2838386
vt -7.874016 0.2838386
vt -15.74803 0.3554233
vt -15.74803 -0.7414396
vt -23.62205 0.3554233
vt -23.62205 -0.7414396
vt 2.839738E-15 0.3554233
vt 2.914762E-15 -0.7414396
vt -7.874016 0.3554233
vt -7.874016 -0.7414396
vt -15.74803 -0.9560428
vt -23.62205 -0.9560428
vt -15.74803 0.1903659
vt -23.62205 0.1903659
vt 0 0
vt -8.858268 1.776357E-14
vt 0 8.366141
vt -8.782484 1.092001
vt -8.55643 2.165317
vt -8.183972 3.201584
vt -7.671485 4.183071
vt -7.027736 5.092984
vt -6.263741 5.915756
vt -5.392572 6.637307
vt -4.429134 7.245291
vt -3.389912 7.729307
vt -2.292688 8.081073
vt -1.156236 8.294568
vt 8.858268 7.874016
vt 8.858268 -8.415568E-30
vt -5.699432E-30 7.874016
vt 0 3.552714E-15
vt 7.874016 -7.105427E-15
vt 7.874016 8.366141
vt 15.74803 -7.105427E-15
vt 15.74803 8.366141
vt 23.62205 -7.105427E-15
vt 23.62205 8.366141
vt 31.49606 -7.105427E-15
vt 31.49606 8.366141
vt 39.37008 3.552714E-15
vt 39.37008 8.366141
vt -39.37008 0
vt -39.37008 8.366141
vt -5.033011E-16 -1.509903E-15
vt -5.033011E-16 7.874016
vt 39.37008 -1.509903E-15
vt -5.033011E-16 15.74803
vt -5.033011E-16 23.62205
vt -5.033011E-16 31.49606
vt -5.033011E-16 39.37008
vt 39.37008 39.37008
vt 39.37008 0
vt -39.37008 39.37008
vt -39.37008 -1.558439E-31

usemtl wood

f 3/3/1 2/2/2 1/1/1
f 2/2/2 3/3/1 4/4/2
f 7/7/1 6/6/2 5/5/1
f 6/6/2 7/7/1 8/8/2
f 11/11/3 10/10/4 9/9/3
f 10/10/4 11/11/3 12/12/4
f 15/15/6 14/14/5 13/13/5
f 14/14/5 15/15/6 16/16/6
f 19/19/7 18/18/3 17/17/7
f 18/18/3 19/19/7 20/20/3
f 23/23/9 22/22/8 21/21/8
f 22/22/8 23/23/9 24/24/9
f 27/27/3 26/26/4 25/25/3
f 26/26/4 27/27/3 28/28/4
f 31/31/10 30/30/7 29/29/7
f 30/30/7 31/31/10 32/32/10
f 35/35/6 34/34/5 33/33/5
f 34/34/5 35/35/6 36/36/6
f 21/39/8 38/38/11 37/37/11
f 38/38/11 21/39/8 22/40/8
f 41/43/8 40/42/11 39/41/11
f 40/42/11 41/43/8 42/44/8
f 45/47/9 44/46/8 43/45/8
f 44/46/8 45/47/9 46/48/9
f 49/51/12 48/50/13 47/49/12
f 48/50/13 49/51/12 50/52/13
f 4/55/14 51/54/14 3/53/14
f 16/56/14 3/53/14 51/54/14
f 52/57/14 3/53/14 16/56/14
f 53/58/14 52/57/14 16/56/14
f 54/59/14 53/58/14 16/56/14
f 20/60/14 54/59/14 16/56/14
f 19/61/14 20/60/14 16/56/14
f 55/62/14 19/61/14 16/56/14
f 38/63/14 55/62/14 16/56/14
f 22/64/14 38/63/14 16/56/14
f 24/65/14 22/64/14 16/56/14
f 14/66/14 24/65/14 16/56/14
f 58/69/10 57/68/7 56/67/7
f 57/68/7 58/69/10 59/70/10
f 62/73/12 61/72/13 60/71/12
f 61/72/13 62/73/12 63/74/13
f 51/77/15 2/76/15 4/75/15
f 2/76/15 51/77/15 64/78/15
f 57/81/7 9/80/3 56/79/7
f 9/80/3 57/81/7 11/82/3
f 28/85/4 60/84/12 26/83/4
f 60/84/12 28/85/4 62/86/12
f 53/89/12 66/88/13 65/87/12
f 66/88/13 53/89/12 52/90/13
f 12/93/4 47/92/12 10/91/4
f 47/92/12 12/93/4 49/94/12
f 67/97/11 59/96/10 58/95/10
f 59/96/10 67/97/11 68/98/11
f 69/101/15 6/100/15 8/99/15
f 6/100/15 69/101/15 70/102/15
f 71/105/10 19/104/7 17/103/7
f 19/104/7 71/105/10 55/106/10
f 72/109/5 46/108/9 45/107/9
f 46/108/9 72/109/5 73/110/5
f 13/113/5 24/112/9 23/111/9
f 24/112/9 13/113/5 14/114/5
f 37/117/11 55/116/10 71/115/10
f 55/116/10 37/117/11 38/118/11
f 30/121/7 25/120/3 29/119/7
f 25/120/3 30/121/7 27/122/3
f 39/125/11 32/124/10 31/123/10
f 32/124/10 39/125/11 40/126/11
f 33/129/5 75/128/9 74/127/9
f 75/128/9 33/129/5 34/130/5
f 52/133/13 1/132/1 66/131/13
f 1/132/1 52/133/13 3/134/1
f 54/137/4 65/136/12 76/135/4
f 65/136/12 54/137/4 53/138/12
f 79/141/1 78/140/2 77/139/1
f 78/140/2 79/141/1 80/142/2
f 20/145/3 76/144/4 18/143/3
f 76/144/4 20/145/3 54/146/4
f 81/149/6 73/148/5 72/147/5
f 73/148/5 81/149/6 82/150/6
f 74/153/9 42/152/8 41/151/8
f 42/152/8 74/153/9 75/154/9
f 50/157/13 5/156/1 48/155/13
f 5/156/1 50/157/13 7/158/1
f 63/161/13 77/160/1 61/159/13
f 77/160/1 63/161/13 79/162/1
f 43/165/8 68/164/11 67/163/11
f 68/164/11 43/165/8 44/166/8
f 35/169/14 78/168/14 83/167/14
f 78/168/14 35/169/14 77/170/14
f 77/170/14 35/169/14 61/171/14
f 61/171/14 35/169/14 60/172/14
f 60/172/14 35/169/14 26/173/14
f 26/173/14 35/169/14 25/174/14
f 25/174/14 35/169/14 29/175/14
f 29/175/14 35/169/14 31/176/14
f 31/176/14 35/169/14 39/177/14
f 39/177/14 35/169/14 41/178/14
f 41/178/14 35/169/14 74/179/14
f 74/179/14 35/169/14 33/180/14
f 84/183/15 78/182/15 80/181/15
f 78/182/15 84/183/15 83/167/15

usemtl green

f 1/1/16 2/2/17 3/3/16
f 4/4/17 3/3/16 2/2/17
f 5/5/16 6/6/17 7/7/16
f 8/8/17 7/7/16 6/6/17
f 6/6/17 5/5/16 80/142/17
f 79/141/16 80/142/17 5/5/16
f 80/142/17 79/141/16 78/140/17
f 77/139/16 78/140/17 79/141/16
f 32/32/10 56/67/7 30/30/7
f 56/67/7 32/32/10 58/69/10
f 30/30/19 56/67/19 32/32/18
f 58/69/18 32/32/18 56/67/19
f 32/32/18 31/31/18 30/30/19
f 29/29/19 30/30/19 31/31/18
f 56/67/19 57/68/19 58/69/18
f 59/70/18 58/69/18 57/68/19
f 48/155/13 79/162/1 63/161/13
f 79/162/1 48/155/13 5/156/1
f 63/161/20 79/162/16 48/155/20
f 5/156/16 48/155/20 79/162/16
f 48/155/20 5/156/16 50/157/20
f 7/158/16 50/157/20 5/156/16
f 79/162/16 63/161/20 77/160/16
f 61/159/20 77/160/16 63/161/20
f 73/110/5 23/111/9 46/108/9
f 23/111/9 73/110/5 13/113/5
f 9/9/21 10/10/22 11/11/21
f 12/12/22 11/11/21 10/10/22
f 10/10/22 9/9/21 28/28/22
f 27/27/21 28/28/22 9/9/21
f 28/28/22 27/27/21 26/26/22
f 25/25/21 26/26/22 27/27/21
f 13/13/24 14/14/24 15/15/23
f 16/16/23 15/15/23 14/14/24
f 47/49/12 63/74/13 62/73/12
f 63/74/13 47/49/12 48/50/13
f 62/73/25 63/74/20 47/49/25
f 48/50/20 47/49/25 63/74/20
f 47/49/25 48/50/20 49/51/25
f 50/52/20 49/51/25 48/50/20
f 63/74/20 62/73/25 61/72/20
f 60/71/25 61/72/20 62/73/25
f 5/5/1 80/142/2 79/141/1
f 80/142/2 5/5/1 6/6/2
f 46/48/9 21/21/8 44/46/8
f 21/21/8 46/48/9 23/23/9
f 17/17/19 18/18/21 19/19/19
f 20/20/21 19/19/19 18/18/21
f 56/79/7 27/122/3 30/121/7
f 27/122/3 56/79/7 9/80/3
f 30/121/19 27/122/21 56/79/19
f 9/80/21 56/79/19 27/122/21
f 56/79/19 9/80/21 57/81/19
f 11/82/21 57/81/19 9/80/21
f 27/122/21 30/121/19 25/120/21
f 29/119/19 25/120/21 30/121/19
f 59/70/10 17/103/7 57/68/7
f 17/103/7 59/70/10 71/105/10
f 21/21/27 22/22/27 23/23/26
f 24/24/26 23/23/26 22/22/27
f 33/33/24 34/34/24 35/35/23
f 36/36/23 35/35/23 34/34/24
f 34/34/24 72/147/24 36/36/23
f 81/149/23 36/36/23 72/147/24
f 72/147/24 73/148/24 81/149/23
f 82/150/23 81/149/23 73/148/24
f 37/37/28 38/38/28 21/39/27
f 22/40/27 21/39/27 38/38/28
f 39/41/28 40/42/28 41/43/27
f 42/44/27 41/43/27 40/42/28
f 40/42/28 67/163/28 42/44/27
f 43/165/27 42/44/27 67/163/28
f 67/163/28 68/164/28 43/165/27
f 44/166/27 43/165/27 68/164/28
f 43/45/27 44/46/27 45/47/26
f 46/48/26 45/47/26 44/46/27
f 45/47/26 75/154/26 43/45/27
f 42/152/27 43/45/27 75/154/26
f 75/154/26 74/153/26 42/152/27
f 41/151/27 42/152/27 74/153/26
f 18/143/3 12/12/4 11/11/3
f 12/12/4 18/143/3 76/144/4
f 34/130/5 45/107/9 75/128/9
f 45/107/9 34/130/5 72/109/5
f 75/128/26 45/107/26 34/130/24
f 72/109/24 34/130/24 45/107/26
f 45/107/26 46/108/26 72/109/24
f 73/110/24 72/109/24 46/108/26
f 34/130/24 33/129/24 75/128/26
f 74/127/26 75/128/26 33/129/24
f 3/53/29 51/184/29 4/55/29
f 51/184/29 3/53/29 16/169/29
f 16/169/29 3/53/29 52/57/29
f 16/169/29 52/57/29 53/58/29
f 16/169/29 53/58/29 54/59/29
f 16/169/29 54/59/29 20/60/29
f 16/169/29 20/60/29 19/61/29
f 16/169/29 19/61/29 55/62/29
f 16/169/29 55/62/29 38/63/29
f 16/169/29 38/63/29 22/64/29
f 16/169/29 22/64/29 24/65/29
f 16/169/29 24/65/29 14/66/29
f 75/154/9 43/45/8 42/152/8
f 43/45/8 75/154/9 45/47/9
f 65/87/12 50/52/13 49/51/12
f 50/52/13 65/87/12 66/88/13
f 82/150/6 13/13/5 73/148/5
f 13/13/5 82/150/6 15/15/6
f 44/166/8 37/37/11 68/164/11
f 37/37/11 44/166/8 21/39/8
f 4/75/30 2/76/30 51/77/30
f 64/78/30 51/77/30 2/76/30
f 26/83/22 60/84/25 28/85/22
f 62/86/25 28/85/22 60/84/25
f 28/85/22 62/86/25 10/91/22
f 47/92/25 10/91/22 62/86/25
f 10/91/22 47/92/25 12/93/22
f 49/94/25 12/93/22 47/92/25
f 65/87/25 66/88/20 53/89/25
f 52/90/20 53/89/25 66/88/20
f 58/95/18 59/96/18 67/97/28
f 68/98/28 67/97/28 59/96/18
f 67/97/28 40/126/28 58/95/18
f 32/124/18 58/95/18 40/126/28
f 40/126/28 39/125/28 32/124/18
f 31/123/18 32/124/18 39/125/28
f 8/99/30 6/100/30 69/101/30
f 70/102/30 69/101/30 6/100/30
f 6/100/30 80/181/30 70/102/30
f 84/183/30 70/102/30 80/181/30
f 80/181/30 78/182/30 84/183/30
f 83/167/30 84/183/30 78/182/30
f 17/103/19 19/104/19 71/105/18
f 55/106/18 71/105/18 19/104/19
f 36/36/6 72/147/5 34/34/5
f 72/147/5 36/36/6 81/149/6
f 68/98/11 71/115/10 59/96/10
f 71/115/10 68/98/11 37/117/11
f 40/126/11 58/95/10 32/124/10
f 58/95/10 40/126/11 67/97/11
f 23/111/26 24/112/26 13/113/24
f 14/114/24 13/113/24 24/112/26
f 17/17/7 11/82/3 57/81/7
f 11/82/3 17/17/7 18/18/3
f 9/9/3 28/28/4 27/27/3
f 28/28/4 9/9/3 10/10/4
f 71/115/18 55/116/18 37/117/28
f 38/118/28 37/117/28 55/116/18
f 42/44/8 67/163/11 40/42/11
f 67/163/11 42/44/8 43/165/8
f 10/91/4 62/86/12 28/85/4
f 62/86/12 10/91/4 47/92/12
f 66/131/20 1/132/16 52/133/20
f 3/134/16 52/133/20 1/132/16
f 64/78/15 8/99/15 2/76/15
f 8/99/15 64/78/15 69/101/15
f 76/135/22 65/136/25 54/137/22
f 53/138/25 54/137/22 65/136/25
f 66/131/13 7/158/1 50/157/13
f 7/158/1 66/131/13 1/132/1
f 70/102/15 80/181/15 6/100/15
f 80/181/15 70/102/15 84/183/15
f 18/143/21 76/144/22 20/145/21
f 54/146/22 20/145/21 76/144/22
f 76/135/4 49/94/12 12/93/4
f 49/94/12 76/135/4 65/136/12
f 1/1/1 8/8/2 7/7/1
f 8/8/2 1/1/1 2/2/2
f 84/185/31 35/169/31 83/167/31
f 35/169/31 84/185/31 36/186/31
f 36/186/31 84/185/31 70/187/31
f 36/186/31 70/187/31 81/188/31
f 81/188/31 70/187/31 69/189/31
f 81/188/31 69/189/31 82/190/31
f 82/190/31 69/189/31 64/191/31
f 82/190/31 64/191/31 15/192/31
f 15/192/31 64/191/31 51/193/31
f 15/192/31 51/193/31 16/194/31
f 83/167/29 78/168/29 35/169/29
f 77/170/29 35/169/29 78/168/29
f 61/171/29 35/169/29 77/170/29
f 60/172/29 35/169/29 61/171/29
f 26/173/29 35/169/29 60/172/29
f 25/174/29 35/169/29 26/173/29
f 29/175/29 35/169/29 25/174/29
f 31/176/29 35/169/29 29/175/29
f 39/177/29 35/169/29 31/176/29
f 41/178/29 35/169/29 39/177/29
f 74/179/29 35/169/29 41/178/29
f 33/180/29 35/169/29 74/179/29

usemtl brickDark

f 51/184/29 86/196/29 85/195/29
f 86/196/29 51/184/29 16/169/29
f 87/199/30 36/198/30 35/197/30
f 36/198/30 87/199/30 81/200/30
f 81/200/30 87/199/30 82/201/30
f 82/201/30 87/199/30 15/202/30
f 15/202/30 87/199/30 16/203/30
f 16/203/30 87/199/30 86/204/30
f 85/205/31 87/169/31 88/167/31
f 87/169/31 85/205/31 86/194/31
f 87/194/14 83/167/14 88/205/14
f 83/167/14 87/194/14 35/169/14
f 85/206/15 64/78/15 51/77/15
f 64/78/15 85/206/15 69/101/15
f 69/101/15 85/206/15 70/102/15
f 70/102/15 85/206/15 84/183/15
f 84/183/15 85/206/15 83/167/15
f 83/167/15 85/206/15 88/207/15

