# Created by Kenney (www.kenney.nl)

mtllib building_035.mtl

g building_035

v -0.5 4.511946E-17 0
v 0 5.86553E-16 0.5
v -7.219114E-16 0.625 0
v -3.609557E-16 0.625 1
v -3.609557E-16 0 1
v -1 0 1
v -1 0 0
v -1 0.625 0
v -1 0.625 1

vn 0.6154575 -0.492366 -0.6154575
vn 1 0 0
vn 0 -1 0
vn -1 0 0
vn 0 0 -1
vn 0 0 1
vn 0 1 0
vn -0.6154575 0.492366 0.6154575

vt 13.91943 -6.853451
vt -13.91943 -6.853451
vt 2.009718E-14 21.41703
vt 4.103591E-30 24.6063
vt -19.68504 2.309264E-14
vt -39.37008 24.6063
vt -39.37008 1.034105E-29
vt 4.584481E-30 19.68504
vt -19.68504 1.025898E-31
vt -1.421085E-14 39.37008
vt -39.37008 39.37008
vt -39.37008 1.41061E-31
vt 0 0
vt 0 24.6063
vt 39.37008 0
vt 39.37008 24.6063
vt 19.68504 1.776357E-15
vt 2.842171E-14 24.6063
vt -1.421085E-14 0
vt -39.37008 0
vt -1.421085E-14 24.6063
vt 1.040438E-14 39.37008
vt 39.37008 39.37008
vt 2.461523E-14 2.283887E-14
vt 39.37008 2.283887E-14

usemtl brick

f 3/3/1 2/2/1 1/1/1
f 4/6/2 2/5/2 3/4/2
f 2/5/2 4/6/2 5/7/2
f 5/10/3 1/9/3 2/8/3
f 1/9/3 5/10/3 6/11/3
f 1/9/3 6/11/3 7/12/3
f 6/15/4 8/14/4 7/13/4
f 8/14/4 6/15/4 9/16/4
f 8/16/5 1/17/5 7/15/5
f 1/17/5 8/16/5 3/18/5
f 4/21/6 6/20/6 5/19/6
f 6/20/6 4/21/6 9/6/6
f 3/24/7 9/23/7 4/22/7
f 9/23/7 3/24/7 8/25/7

usemtl brickDark

f 1/1/8 2/2/8 3/3/8
f 3/4/4 2/5/4 4/6/4
f 5/7/4 4/6/4 2/5/4
f 2/8/7 1/9/7 5/10/7
f 6/11/7 5/10/7 1/9/7
f 7/12/7 6/11/7 1/9/7
f 7/13/2 8/14/2 6/15/2
f 9/16/2 6/15/2 8/14/2
f 7/15/6 1/17/6 8/16/6
f 3/18/6 8/16/6 1/17/6
f 5/19/5 6/20/5 4/21/5
f 9/6/5 4/21/5 6/20/5
f 4/22/3 9/23/3 3/24/3
f 8/25/3 3/24/3 9/23/3

