# Created by Kenney (www.kenney.nl)

mtllib building_011.mtl

g building_011

v 0.08610377 0.1963244 -9.023893E-17
v 0.08610377 0.1963244 1
v 0.05823429 0.2052592 -9.023893E-17
v 0.05823429 0.2052592 1
v 0.02936839 0.210682 -9.023893E-17
v 0.02936839 0.210682 1
v 0.159099 0.1502602 -9.023893E-17
v 0.1785045 0.1293618 -9.023893E-17
v 0.159099 0.1502602 1
v 0.1785045 0.1293618 1
v 0.2078729 0.08132023 -9.023893E-17
v 0.2173333 0.05499905 -9.023893E-17
v 0.2078729 0.08132023 1
v 0.2173333 0.05499905 1
v 0.2230751 0.02773681 -9.023893E-17
v 0.225 1.804779E-16 -9.023893E-17
v 0.2230751 0.02773681 1
v 0.225 1.804779E-16 1
v 0 0.2125 0
v 0 0.2125 1
v 0 0 0
v 0.1948557 0.10625 -9.023893E-17
v 0.1369713 0.1685876 -9.023893E-17
v 0.1125 0.1840304 -9.023893E-17
v 0 9.023893E-17 1
v 0.1948557 0.10625 1
v 0.1125 0.1840304 1
v 0.1369713 0.1685876 1
v -1 0 0
v -1 0.2125 0
v -1 0.2125 1
v -1 0 1

vn 0.3644649 0.9312171 0
vn 0.2454368 0.9694126 0
vn 0.1234446 0.9923515 0
vn 0.6868008 0.7268457 0
vn 0.7762807 0.6303874 0
vn 0.9158693 0.4014767 0
vn 0.9620683 0.2728091 0
vn 0.9904333 0.1379919 0
vn 0.9976006 0.06923245 0
vn 0.06178389 0.9980895 0
vn 0 0 -1
vn -1 0 0
vn 0.8533222 0.5213839 0
vn 0.4789061 0.8778661 0
vn 0 0 1
vn 0.5869923 0.8095925 0
vn 0 -1 0
vn 0 1 0

vt 3.552714E-15 -0.8683937
vt -39.37008 -0.8683937
vt 3.552714E-15 0.2838386
vt -39.37008 0.2838386
vt 3.552714E-15 -0.7612481
vt -39.37008 -0.7612481
vt 3.552714E-15 0.3950844
vt -39.37008 0.3950844
vt 3.552714E-15 0.07289514
vt 3.552714E-15 -1.049888
vt -39.37008 0.07289514
vt -39.37008 -1.049888
vt 3.552714E-15 0.2447537
vt 3.552714E-15 -0.8564155
vt -39.37008 0.2447537
vt -39.37008 -0.8564155
vt 3.552714E-15 0.4813476
vt 3.552714E-15 -0.6132795
vt -39.37008 0.4813476
vt -39.37008 -0.6132795
vt 6.081301E-15 -0.6415563
vt -39.37008 -0.6415563
vt -1.972152E-31 0.5168929
vt -39.37008 0.5168929
vt 0 0
vt -8.858268 7.105427E-15
vt 0 8.366141
vt -8.782484 1.092001
vt -8.55643 2.165317
vt -8.183972 3.201584
vt -7.671485 4.183071
vt -7.027736 5.092984
vt -6.263741 5.915756
vt -5.392572 6.637307
vt -4.429134 7.245291
vt -3.389912 7.729307
vt -2.292688 8.081073
vt -1.156236 8.294568
vt 39.37008 3.552714E-15
vt 39.37008 8.366141
vt 3.552714E-15 0.1572308
vt 3.552714E-15 -0.95
vt -39.37008 0.1572308
vt -39.37008 -0.95
vt 3.552714E-15 -0.9560428
vt -39.37008 -0.9560428
vt 3.552714E-15 0.1903659
vt -39.37008 0.1903659
vt 0 3.552714E-15
vt 8.858268 7.105427E-15
vt 8.782484 1.092001
vt 8.55643 2.165317
vt 8.183972 3.201584
vt 7.671485 4.183071
vt 7.027736 5.092984
vt 6.263741 5.915756
vt 5.392572 6.637307
vt 4.429134 7.245291
vt 3.389912 7.729307
vt 2.292688 8.081073
vt 1.156236 8.294568
vt 3.552714E-15 -1.05046
vt -39.37008 -1.05046
vt 3.552714E-15 0.08072173
vt -39.37008 0.08072173
vt 3.552714E-15 -1.01825
vt -39.37008 -1.01825
vt 3.552714E-15 0.120986
vt -39.37008 0.120986
vt 3.552714E-15 0.3554233
vt 3.552714E-15 -0.7414396
vt -39.37008 0.3554233
vt -39.37008 -0.7414396
vt 3.552714E-15 0.09876108
vt 3.552714E-15 -1.015849
vt -39.37008 0.09876108
vt -39.37008 -1.015849
vt 8.858268 39.37008
vt 8.858268 -3.552714E-15
vt 1.602965E-31 39.37008
vt 39.37008 0
vt -1.132427E-15 -1.132427E-15
vt -1.132427E-15 39.37008
vt 39.37008 -1.132427E-15
vt 39.37008 39.37008
vt -39.37008 39.37008
vt -39.37008 8.014827E-32
vt -39.37008 0
vt -39.37008 8.366141

usemtl green

f 3/3/2 2/2/1 1/1/1
f 2/2/1 3/3/2 4/4/2
f 5/7/3 4/6/2 3/5/2
f 4/6/2 5/7/3 6/8/3
f 9/11/4 8/10/5 7/9/4
f 8/10/5 9/11/4 10/12/5
f 13/15/6 12/14/7 11/13/6
f 12/14/7 13/15/6 14/16/7
f 17/19/8 16/18/9 15/17/8
f 16/18/9 17/19/8 18/20/9
f 19/23/10 6/22/3 5/21/3
f 6/22/3 19/23/10 20/24/10
f 19/27/11 16/26/11 21/25/11
f 16/26/11 19/27/11 15/28/11
f 15/28/11 19/27/11 12/29/11
f 12/29/11 19/27/11 11/30/11
f 11/30/11 19/27/11 22/31/11
f 22/31/11 19/27/11 8/32/11
f 8/32/11 19/27/11 7/33/11
f 7/33/11 19/27/11 23/34/11
f 23/34/11 19/27/11 24/35/11
f 24/35/11 19/27/11 1/36/11
f 1/36/11 19/27/11 3/37/11
f 3/37/11 19/27/11 5/38/11
f 25/39/12 19/27/12 21/25/12
f 19/27/12 25/39/12 20/40/12
f 26/43/13 11/42/6 22/41/13
f 11/42/6 26/43/13 13/44/6
f 1/47/1 27/46/14 24/45/14
f 27/46/14 1/47/1 2/48/1
f 18/50/15 20/27/15 25/49/15
f 20/27/15 18/50/15 17/51/15
f 20/27/15 17/51/15 14/52/15
f 20/27/15 14/52/15 13/53/15
f 20/27/15 13/53/15 26/54/15
f 20/27/15 26/54/15 10/55/15
f 20/27/15 10/55/15 9/56/15
f 20/27/15 9/56/15 28/57/15
f 20/27/15 28/57/15 27/58/15
f 20/27/15 27/58/15 2/59/15
f 20/27/15 2/59/15 4/60/15
f 20/27/15 4/60/15 6/61/15
f 23/64/16 9/63/4 7/62/4
f 9/63/4 23/64/16 28/65/16
f 24/68/14 28/67/16 23/66/16
f 28/67/16 24/68/14 27/69/14
f 14/72/7 15/71/8 12/70/7
f 15/71/8 14/72/7 17/73/8
f 10/76/5 22/75/13 8/74/5
f 22/75/13 10/76/5 26/77/13
f 25/80/17 16/79/17 18/78/17
f 16/79/17 25/80/17 21/25/17

usemtl brickDark

f 30/40/11 21/25/11 29/81/11
f 21/25/11 30/40/11 19/27/11
f 30/84/18 20/83/18 19/82/18
f 20/83/18 30/84/18 31/85/18
f 32/86/17 21/25/17 25/80/17
f 21/25/17 32/86/17 29/87/17
f 25/49/15 31/89/15 32/88/15
f 31/89/15 25/49/15 20/27/15
f 32/81/12 30/27/12 29/25/12
f 30/27/12 32/81/12 31/40/12

