# Created by Kenney (www.kenney.nl)

mtllib building_025.mtl

g building_025

v 0 0.2125 1
v -1 0.2125 1
v 0 0.8375 1
v -1 0.8375 1
v -1 0.2125 0
v 0 0.2125 0
v -1 0.8375 0
v 0 0.8375 0
v 0 0.7125 0.625
v 0 0.7125 0.375
v -0.1 0.7125 0.625
v -0.1 0.7125 0.375
v -0.1 0.2125 0.625
v 0 0.2125 0.625
v 0 0.2125 0.375
v -0.1 0.2125 0.375
v 0 0.2125 0.275
v 0 0.2125 0.725
v 0 0.10625 0.725
v 0 0.10625 0.825
v 0 -9.059281E-16 0.825
v 0 0 1
v 0 0 0.175
v 0.2 0 0.175
v 0 0.10625 0.175
v 0.2 0.10625 0.175
v 0 0.10625 0.275
v 0.1 0.10625 0.275
v 0.1 0.2125 0.275
v -1 0 0
v 0 0 0
v -1 0 1
v 0.1 0.2125 0.725
v 0.2 -9.059281E-16 0.825
v 0.2 0.10625 0.825
v 0.1 0.10625 0.725

vn 0 0 1
vn 0 0 -1
vn -1 0 0
vn 0 -1 0
vn 0 1 0
vn 1 0 0

vt 0 8.366141
vt -39.37008 8.366141
vt 0 32.97244
vt -39.37008 32.97244
vt 39.37008 8.366141
vt 39.37008 32.97244
vt 0 24.6063
vt 0 14.76378
vt -3.937008 24.6063
vt -3.937008 14.76378
vt 3.937008 8.366141
vt 3.937008 28.05118
vt 0 28.05118
vt -3.937008 8.366141
vt -3.937008 28.05118
vt -1.190159E-14 1.190159E-14
vt -1.190159E-14 39.37008
vt 39.37008 1.190159E-14
vt 39.37008 39.37008
vt -14.76378 28.05118
vt -10.82677 8.366141
vt -24.6063 28.05118
vt -24.6063 8.366141
vt -28.54331 8.366141
vt -14.76378 8.366141
vt -28.54331 4.183071
vt -32.48032 4.183071
vt -32.48032 -3.566646E-14
vt -39.37008 0
vt 0 0
vt -7.874016 0
vt 0 4.183071
vt -7.874016 4.183071
vt -3.937008 4.183071
vt 39.37008 0
vt 3.937008 14.76378
vt 3.937008 24.6063
vt 0 28.54331
vt 0 10.82677
vt -3.937008 28.54331
vt -3.937008 10.82677
vt 7.874016 -3.566646E-14
vt 0 -3.566646E-14
vt 7.874016 4.183071
vt -6.889764 4.183071
vt -6.889764 0
vt 3.937008 4.183071
vt 4.121148E-13 4.183071
vt 4.121148E-13 8.366141
vt -10.82677 4.183071
vt -7.874016 32.48032
vt -7.874016 6.889764
vt 3.431598E-15 6.889764
vt 3.431598E-15 10.82677
vt 3.431598E-15 32.48032
vt 3.431598E-15 28.54331
vt 0 39.37008
vt 1.10152E-29 32.48032
vt -39.37008 39.37008
vt 0 6.889764
vt -39.37008 5.033306E-30
vt 7.874016 6.889764
vt 7.874016 32.48032

usemtl brick

f 3/3/1 2/2/1 1/1/1
f 2/2/1 3/3/1 4/4/1
f 7/6/2 6/1/2 5/5/2
f 6/1/2 7/6/2 8/3/2
f 2/5/3 7/3/3 5/1/3
f 7/3/3 2/5/3 4/6/3
f 11/9/4 10/8/4 9/7/4
f 10/8/4 11/9/4 12/10/4
f 11/12/2 14/1/2 13/11/2
f 14/1/2 11/12/2 9/13/2
f 10/13/1 16/14/1 15/1/1
f 16/14/1 10/13/1 12/15/1
f 7/18/5 3/17/5 8/16/5
f 3/17/5 7/18/5 4/19/5
f 8/3/6 10/20/6 6/1/6
f 10/20/6 8/3/6 3/4/6
f 6/1/6 10/20/6 17/21/6
f 10/20/6 3/4/6 9/22/6
f 9/22/6 3/4/6 14/23/6
f 14/23/6 3/4/6 18/24/6
f 18/24/6 3/4/6 1/2/6
f 15/25/6 17/21/6 10/20/6

usemtl brickDark

f 18/24/6 20/27/6 19/26/6
f 20/27/6 18/24/6 1/2/6
f 20/27/6 1/2/6 21/28/6
f 21/28/6 1/2/6 22/29/6
f 25/32/2 24/31/2 23/30/2
f 24/31/2 25/32/2 26/33/2
f 17/1/2 28/34/2 27/32/2
f 28/34/2 17/1/2 29/14/2
f 5/5/2 31/30/2 30/35/2
f 31/30/2 5/5/2 6/1/2
f 32/35/3 5/1/3 30/30/3
f 5/1/3 32/35/3 2/5/3
f 16/36/5 14/7/5 15/8/5
f 14/7/5 16/36/5 13/37/5
f 18/38/5 15/8/5 14/7/5
f 18/38/5 17/39/5 15/8/5
f 33/40/5 17/39/5 18/38/5
f 17/39/5 33/40/5 29/41/5
f 35/44/1 21/43/1 34/42/1
f 21/43/1 35/44/1 20/32/1
f 1/1/1 32/29/1 22/30/1
f 32/29/1 1/1/1 2/2/1
f 35/27/6 24/46/6 26/45/6
f 24/46/6 35/27/6 34/28/6
f 33/11/1 19/48/1 36/47/1
f 19/48/1 33/11/1 18/49/1
f 17/21/6 31/30/6 6/1/6
f 31/30/6 17/21/6 25/45/6
f 25/45/6 17/21/6 27/50/6
f 23/46/6 31/30/6 25/45/6
f 26/52/5 28/41/5 35/51/5
f 28/41/5 26/52/5 25/53/5
f 28/41/5 25/53/5 27/54/5
f 36/40/5 35/51/5 28/41/5
f 35/51/5 36/40/5 20/55/5
f 20/55/5 36/40/5 19/56/5
f 32/59/4 21/58/4 22/57/4
f 21/58/4 32/59/4 23/60/4
f 23/60/4 32/59/4 31/30/4
f 31/30/4 32/59/4 30/61/4
f 24/62/4 21/58/4 23/60/4
f 21/58/4 24/62/4 34/63/4
f 33/24/6 28/50/6 29/21/6
f 28/50/6 33/24/6 36/26/6

usemtl glass

f 11/22/6 16/25/6 12/20/6
f 16/25/6 11/22/6 13/23/6

