# Created by Kenney (www.kenney.nl)

mtllib building_029.mtl

g building_029

v 0 0.3504405 0.5678241
v -0.1 0.3504405 0.5678241
v 0 0.388125 0.5834335
v -0.1 0.388125 0.5834335
v 0 0.4204854 0.6082646
v -0.1 0.4204854 0.6082646
v 0 0.4453165 0.796875
v 0 0.4609259 0.7591905
v -0.1 0.4453165 0.796875
v -0.1 0.4609259 0.7591905
v -0.1 0.3504405 0.4321759
v 0 0.3504405 0.4321759
v -0.1 0.388125 0.4165665
v 0 0.388125 0.4165665
v -1 0 0
v -1 0.625 0
v -1 0 1
v -1 0.625 1
v -0.1 0.12 0.4375
v 0 0.12 0.4375
v -0.1 0.31 0.4375
v 0 0.31 0.4375
v 0 0.31 0.125
v -0.1 0.31 0.125
v 0 0.3504405 0.1303241
v -0.1 0.3504405 0.1303241
v 0 0.46625 0.71875
v -0.1 0.46625 0.71875
v 0 0 0
v 0 0.625 0
v 0 0.388125 0.1459335
v 0 0.4204854 0.1707646
v 0 0.4453165 0.203125
v 0 0.4609259 0.2408095
v 0 0.625 1
v 0 0.46625 0.28125
v 0 0.4609259 0.3216905
v 0 0.4453165 0.359375
v 0 0.4204854 0.3917354
v 0 0.4453165 0.640625
v 0 0.06 0.4375
v 0 0.31 0.5625
v 0 0.4609259 0.6783095
v 0 0.4204854 0.8292354
v 0 0.388125 0.8540665
v 0 0.3504405 0.8696759
v 0 0.31 0.875
v 0 0.12 0.875
v 0 0.06 0.875
v 0 0.06 0.5625
v 0 0 1
v 0 0.06 0.125
v 0 0.12 0.125
v 0 0.12 0.5625
v -0.1 0.12 0.5625
v -0.1 0.31 0.5625
v -0.1 0.388125 0.8540665
v -0.1 0.4204854 0.8292354
v -0.1 0.12 0.125
v 0.05 0.12 0.125
v 0.05 0.06 0.125
v 0.05 0.12 0.4375
v 0.05 0.06 0.4375
v -0.1 0.4453165 0.640625
v -0.1 0.3504405 0.8696759
v -0.1 0.4204854 0.3917354
v -0.1 0.4453165 0.203125
v -0.1 0.4204854 0.1707646
v 0.05 0.12 0.5625
v 0.05 0.12 0.875
v -0.1 0.12 0.875
v -0.1 0.4453165 0.359375
v -0.1 0.4609259 0.3216905
v -0.1 0.388125 0.1459335
v -0.1 0.31 0.875
v -0.1 0.46625 0.28125
v -0.1 0.4609259 0.2408095
v -0.1 0.4609259 0.6783095
v 0.05 0.06 0.5625
v 0.05 0.06 0.875

vn 0 -0.258819 0.9659258
vn 0 -0.5 0.8660254
vn 0 -0.7071068 0.7071068
vn 0 -0.8660254 -0.5
vn 0 -0.9659258 -0.258819
vn 0 -0.258819 -0.9659258
vn 0 -0.5 -0.8660254
vn -1 0 0
vn 0 0 -1
vn 0 -0.1305262 0.9914449
vn 0 -1 0
vn 1 0 0
vn 0 0 1
vn 0 -0.7071068 -0.7071068
vn 0 -0.8660254 0.5
vn 0 1 0
vn 0 -0.1305262 -0.9914449
vn 0 -0.9659258 0.258819

vt -2.36028E-27 21.30164
vt -3.937008 21.30164
vt -2.425163E-27 22.90752
vt -3.937008 22.90752
vt -2.524909E-16 26.10599
vt -3.937008 26.10599
vt -2.63237E-16 27.71187
vt -3.937008 27.71187
vt 3.270049E-27 -22.27564
vt 3.115407E-27 -20.66976
vt 3.937008 -22.27564
vt 3.937008 -20.66976
vt 3.937008 6.235363
vt 0 6.235363
vt 3.937008 7.841247
vt 0 7.841247
vt 0 0
vt 0 24.6063
vt 39.37008 0
vt 39.37008 24.6063
vt 3.937008 4.72441
vt 0 4.72441
vt 3.937008 12.20472
vt 0 12.20472
vt -3.775615E-18 12.74266
vt -3.937008 12.74266
vt -3.936429E-18 14.34855
vt -3.937008 14.34855
vt 3.115407E-27 -27.26506
vt 2.949456E-27 -25.65918
vt 3.937008 -27.26506
vt 3.937008 -25.65918
vt -5.13087 13.79687
vt -5.745415 15.28051
vt -6.723014 16.55454
vt -7.997047 17.53214
vt -9.48069 18.14669
vt -39.37008 24.6063
vt -4.92126 12.20472
vt -11.07283 18.3563
vt -12.66498 18.14669
vt -14.14862 17.53214
vt -15.42266 16.55454
vt -16.40026 15.28051
vt -17.0148 13.79687
vt -25.22146 17.53214
vt -17.22441 12.20472
vt -23.94742 16.55454
vt -22.96982 15.28051
vt -17.22441 4.72441
vt -17.22441 2.362205
vt -22.35528 13.79687
vt -22.14567 12.20472
vt -26.7051 18.14669
vt -28.29725 18.3563
vt -29.88939 18.14669
vt -31.37303 17.53214
vt -32.64706 16.55454
vt -33.62466 15.28051
vt -34.23921 13.79687
vt -34.44882 12.20472
vt -34.44882 4.72441
vt -34.44882 2.362205
vt -22.14567 2.362205
vt -39.37008 0
vt -4.92126 2.362205
vt -4.92126 4.72441
vt -22.14567 4.72441
vt -3.937008 4.72441
vt -3.937008 12.20472
vt 3.937008 -8.346554
vt 8.404004E-29 -8.346554
vt 3.937008 -6.74067
vt 8.159667E-29 -6.74067
vt -2.414738E-27 30.68242
vt -2.29276E-27 29.07654
vt -3.937008 30.68242
vt -3.937008 29.07654
vt 1.968504 17.22441
vt 1.968504 4.92126
vt 0 17.22441
vt 0 4.92126
vt 3.937008 -0.356133
vt -3.568794E-27 -0.356133
vt 3.937008 1.24975
vt -3.50474E-27 1.24975
vt 3.937008 2.139003
vt 0 2.139003
vt 3.937008 3.744886
vt 0 3.744886
vt 0 17.01738
vt 0 15.41149
vt -3.937008 17.01738
vt -3.937008 15.41149
vt -1.968504 22.14567
vt -1.968504 34.44882
vt 0 22.14567
vt 0 34.44882
vt 3.937008 22.14567
vt 3.937008 34.44882
vt -3.965578E-17 14.9909
vt -3.937008 14.9909
vt -4.003112E-17 16.59678
vt -3.937008 16.59678
vt 0 -6.362361
vt 0 -4.756478
vt 3.937008 -6.362361
vt 3.937008 -4.756478
vt -1.968504 4.92126
vt -1.968504 17.22441
vt 3.937008 4.92126
vt 3.937008 17.22441
vt 0 14.71014
vt -3.937008 14.71014
vt 0 16.31603
vt -3.937008 16.31603
vt 0 2.362205
vt -1.968504 2.362205
vt -1.968504 4.72441
vt 0 39.37008
vt -39.37008 39.37008
vt 0 -2.157846
vt 0 -0.5519632
vt 3.937008 -2.157846
vt 3.937008 -0.5519632
vt 3.937008 7.603838
vt 1.477241E-29 7.603838
vt 3.937008 9.209722
vt 1.468252E-29 9.209722
vt 0 -10.18801
vt 0 -8.582127
vt 3.937008 -10.18801
vt 3.937008 -8.582127
vt 0 13.37408
vt 0 11.7682
vt -3.937008 13.37408
vt -3.937008 11.7682
vt 3.937008 9.852075
vt 1.92704E-17 9.852075
vt 3.937008 11.45796
vt 1.90359E-17 11.45796
vt 0 30.45114
vt 0 28.84525
vt -3.937008 30.45114
vt -3.937008 28.84525
vt 4.199985E-28 31.61673
vt 3.966648E-28 30.01085
vt -3.937008 31.61673
vt -3.937008 30.01085
vt 0 15.70345
vt 0 14.09757
vt -3.937008 15.70345
vt -3.937008 14.09757
vt 5.551115E-15 5.551115E-15
vt 5.551115E-15 39.37008
vt 39.37008 5.551115E-15
vt 39.37008 39.37008
vt 1.968504 2.362205
vt 1.968504 4.72441
vt 1.968504 34.44882
vt 1.968504 22.14567
vt 1.415311E-43 34.44882
vt 1.415311E-43 22.14567
vt 0 15.62043
vt -3.937008 15.62043
vt 0 17.22631
vt -3.937008 17.22631
vt -3.402843E-27 -15.82289
vt -3.270049E-27 -14.21701
vt 3.937008 -15.82289
vt 3.937008 -14.21701

usemtl brick

f 3/3/2 2/2/1 1/1/1
f 2/2/1 3/3/2 4/4/2
f 5/7/3 4/6/2 3/5/2
f 4/6/2 5/7/3 6/8/3
f 9/11/4 8/10/5 7/9/4
f 8/10/5 9/11/4 10/12/5
f 13/15/7 12/14/6 11/13/6
f 12/14/6 13/15/7 14/16/7
f 17/19/8 16/18/8 15/17/8
f 16/18/8 17/19/8 18/20/8
f 21/23/9 20/22/9 19/21/9
f 20/22/9 21/23/9 22/24/9
f 25/27/1 24/26/10 23/25/10
f 24/26/10 25/27/1 26/28/1
f 10/31/5 27/30/11 8/29/5
f 27/30/11 10/31/5 28/32/11
f 30/18/12 25/33/12 29/17/12
f 25/33/12 30/18/12 31/34/12
f 31/34/12 30/18/12 32/35/12
f 32/35/12 30/18/12 33/36/12
f 33/36/12 30/18/12 34/37/12
f 34/37/12 30/18/12 35/38/12
f 29/17/12 25/33/12 23/39/12
f 34/37/12 35/38/12 36/40/12
f 36/40/12 35/38/12 37/41/12
f 37/41/12 35/38/12 38/42/12
f 38/42/12 35/38/12 39/43/12
f 39/43/12 35/38/12 14/44/12
f 14/44/12 35/38/12 12/45/12
f 12/45/12 35/38/12 40/46/12
f 12/45/12 40/46/12 22/47/12
f 22/47/12 40/46/12 5/48/12
f 22/47/12 5/48/12 3/49/12
f 22/47/12 3/49/12 20/50/12
f 20/50/12 3/49/12 41/51/12
f 41/51/12 3/49/12 1/52/12
f 41/51/12 1/52/12 42/53/12
f 40/46/12 35/38/12 43/54/12
f 43/54/12 35/38/12 27/55/12
f 27/55/12 35/38/12 8/56/12
f 8/56/12 35/38/12 7/57/12
f 7/57/12 35/38/12 44/58/12
f 44/58/12 35/38/12 45/59/12
f 45/59/12 35/38/12 46/60/12
f 46/60/12 35/38/12 47/61/12
f 47/61/12 35/38/12 48/62/12
f 48/62/12 35/38/12 49/63/12
f 50/64/12 41/51/12 42/53/12
f 51/65/12 41/51/12 50/64/12
f 51/65/12 50/64/12 49/63/12
f 51/65/12 49/63/12 35/38/12
f 51/65/12 52/66/12 41/51/12
f 29/17/12 52/66/12 51/65/12
f 52/66/12 29/17/12 23/39/12
f 52/66/12 23/39/12 53/67/12
f 50/64/12 42/53/12 54/68/12
f 42/24/13 55/69/13 54/22/13
f 55/69/13 42/24/13 56/70/13
f 58/73/14 45/72/7 57/71/7
f 45/72/7 58/73/14 44/74/14
f 23/24/13 59/69/13 53/22/13
f 59/69/13 23/24/13 24/70/13
f 62/50/12 61/66/12 60/67/12
f 61/66/12 62/50/12 63/51/12
f 64/77/15 5/76/3 40/75/15
f 5/76/3 64/77/15 6/78/3
f 41/81/11 61/80/11 63/79/11
f 61/80/11 41/81/11 52/82/11
f 16/20/9 29/17/9 15/19/9
f 29/17/9 16/20/9 30/18/9
f 57/85/7 46/84/6 65/83/6
f 46/84/6 57/85/7 45/86/7
f 66/89/14 14/88/7 13/87/7
f 14/88/7 66/89/14 39/90/14
f 67/93/15 32/92/3 33/91/15
f 32/92/3 67/93/15 68/94/3
f 54/97/16 70/96/16 69/95/16
f 70/96/16 54/97/16 48/98/16
f 48/98/16 54/97/16 55/99/16
f 48/98/16 55/99/16 71/100/16
f 1/103/1 56/102/10 42/101/10
f 56/102/10 1/103/1 2/104/1
f 72/107/4 37/106/5 38/105/4
f 37/106/5 72/107/4 73/108/5
f 53/82/16 62/110/16 60/109/16
f 62/110/16 53/82/16 20/81/16
f 20/81/16 53/82/16 59/111/16
f 20/81/16 59/111/16 19/112/16
f 31/115/2 26/114/1 25/113/1
f 26/114/1 31/115/2 74/116/2
f 53/22/9 61/118/9 52/117/9
f 61/118/9 53/22/9 60/119/9
f 17/121/11 29/17/11 51/120/11
f 29/17/11 17/121/11 15/65/11
f 75/23/9 48/22/9 71/21/9
f 48/22/9 75/23/9 47/24/9
f 66/124/14 38/123/4 39/122/14
f 38/123/4 66/124/14 72/125/4
f 65/128/6 47/127/17 75/126/17
f 47/127/17 65/128/6 46/129/6
f 73/132/5 36/131/11 37/130/5
f 36/131/11 73/132/5 76/133/11
f 76/136/11 34/135/18 36/134/11
f 34/135/18 76/136/11 77/137/18
f 11/140/6 22/139/17 21/138/17
f 22/139/17 11/140/6 12/141/6
f 35/18/13 17/65/13 51/17/13
f 17/65/13 35/18/13 18/38/13
f 28/144/11 43/143/18 27/142/11
f 43/143/18 28/144/11 78/145/18
f 78/148/18 40/147/15 43/146/18
f 40/147/15 78/148/18 64/149/15
f 77/152/18 33/151/15 34/150/18
f 33/151/15 77/152/18 67/153/15
f 16/156/16 35/155/16 30/154/16
f 35/155/16 16/156/16 18/157/16
f 54/22/9 79/118/9 50/117/9
f 79/118/9 54/22/9 69/119/9
f 62/159/13 41/117/13 63/158/13
f 41/117/13 62/159/13 20/22/13
f 49/162/11 79/161/11 80/160/11
f 79/161/11 49/162/11 50/163/11
f 32/166/3 74/165/2 31/164/2
f 74/165/2 32/166/3 68/167/3
f 58/170/14 7/169/4 44/168/14
f 7/169/4 58/170/14 9/171/4
f 70/159/13 49/117/13 80/158/13
f 49/117/13 70/159/13 48/22/13
f 70/62/12 79/64/12 69/68/12
f 79/64/12 70/62/12 80/63/12

usemtl glass

f 2/52/12 55/68/12 56/53/12
f 55/68/12 2/52/12 71/62/12
f 71/62/12 2/52/12 4/49/12
f 71/62/12 4/49/12 6/48/12
f 71/62/12 6/48/12 64/46/12
f 71/62/12 64/46/12 78/54/12
f 71/62/12 78/54/12 28/55/12
f 71/62/12 28/55/12 10/56/12
f 71/62/12 10/56/12 9/57/12
f 71/62/12 9/57/12 58/58/12
f 71/62/12 58/58/12 57/59/12
f 71/62/12 57/59/12 65/60/12
f 71/62/12 65/60/12 75/61/12
f 26/33/12 59/67/12 24/39/12
f 59/67/12 26/33/12 19/50/12
f 19/50/12 26/33/12 74/34/12
f 19/50/12 74/34/12 68/35/12
f 19/50/12 68/35/12 67/36/12
f 19/50/12 67/36/12 77/37/12
f 19/50/12 77/37/12 76/40/12
f 19/50/12 76/40/12 73/41/12
f 19/50/12 73/41/12 72/42/12
f 19/50/12 72/42/12 66/43/12
f 19/50/12 66/43/12 13/44/12
f 19/50/12 13/44/12 11/45/12
f 19/50/12 11/45/12 21/47/12

