# Created by Kenney (www.kenney.nl)

mtllib building_006.mtl

g building_006

v -0.125 0.10625 0.5
v -0.125 0.2125 0.5
v -0.125 0.10625 1
v -0.125 0.2125 1
v -0.5 0.10625 0.125
v -0.5 0.2125 0.125
v -1 0.2125 1
v -0.875 0.10625 1
v -1 0 1
v -0.875 0.2125 1
v 0 0 1
v 0 0.2125 1
v -1 0.10625 0.875
v -0.875 0.10625 0.875
v -1 0.2125 0.875
v -0.875 0.2125 0.875
v -1 0.10625 0.125
v -1 0.2125 0.125
v 0 0.2125 0.5
v 0 1.082867E-15 0.5
v -1 0 0
v -0.5 5.414336E-16 0
v -1 0.2125 0
v -0.5 0.2125 0

vn -1 0 0
vn -0.7071068 0 0.7071068
vn 0 0 1
vn 0 0 -1
vn 1 0 0
vn 0.7071068 0 -0.7071068
vn 0 1 0
vn 0 -1 0

vt 19.68504 4.183071
vt 19.68504 8.366141
vt 39.37008 4.183071
vt 39.37008 8.366141
vt 10.43957 4.183071
vt -10.43957 4.183071
vt 10.43957 8.366141
vt -10.43957 8.366141
vt -39.37008 8.366141
vt -34.44882 4.183071
vt -39.37008 -7.678402E-13
vt -4.92126 4.183071
vt -34.44882 8.366141
vt 3.07987E-13 -7.678402E-13
vt 3.07987E-13 8.366141
vt -4.92126 8.366141
vt 34.44882 4.183071
vt 34.44882 8.366141
vt -19.68504 4.183071
vt -39.37008 4.183071
vt -19.68504 8.366141
vt -19.68504 4.263256E-14
vt -39.37008 -3.017347E-30
vt 39.37008 0
vt 19.68504 2.131628E-14
vt 13.91943 2.930977E-14
vt -13.91943 5.062605E-14
vt 13.91943 8.366141
vt -13.91943 8.366141
vt -3.040035E-15 8.366141
vt 4.92126 4.183071
vt -3.040035E-15 -7.313351E-14
vt 39.37008 -7.313351E-14
vt 4.92126 8.366141
vt 19.68504 4.92126
vt 34.44882 34.44882
vt 39.37008 4.92126
vt 39.37008 34.44882
vt 34.44882 39.37008
vt 4.92126 39.37008
vt 4.92126 19.68504
vt 39.37008 39.37008
vt 0 39.37008
vt 3.546957E-29 19.68504
vt -39.37008 39.37008
vt -19.68504 -2.358593E-29
vt -39.37008 -2.04957E-29
vt 0 19.68504
vt 19.68504 0

usemtl brick

f 3/3/1 2/2/1 1/1/1
f 2/2/1 3/3/1 4/4/1
f 2/7/2 5/6/2 1/5/2
f 5/6/2 2/7/2 6/8/2
f 9/11/3 8/10/3 7/9/3
f 8/10/3 9/11/3 3/12/3
f 7/9/3 8/10/3 10/13/3
f 11/14/3 3/12/3 9/11/3
f 3/12/3 11/14/3 12/15/3
f 3/12/3 12/15/3 4/16/3
f 15/4/4 14/17/4 13/3/4
f 14/17/4 15/4/4 16/18/4
f 6/21/3 17/20/3 5/19/3
f 17/20/3 6/21/3 18/9/3
f 12/9/5 20/22/5 19/21/5
f 20/22/5 12/9/5 11/23/5
f 10/9/5 14/10/5 16/13/5
f 14/10/5 10/9/5 8/20/5
f 23/4/4 22/25/4 21/24/4
f 22/25/4 23/4/4 24/2/4
f 24/28/6 20/27/6 22/26/6
f 20/27/6 24/28/6 19/29/6
f 21/32/1 17/31/1 23/30/1
f 17/31/1 21/32/1 9/33/1
f 17/31/1 9/33/1 13/17/1
f 13/17/1 9/33/1 15/18/1
f 15/18/1 9/33/1 7/4/1
f 18/34/1 23/30/1 17/31/1
f 17/37/7 14/36/7 5/35/7
f 14/36/7 17/37/7 13/38/7
f 8/39/7 5/35/7 14/36/7
f 3/40/7 5/35/7 8/39/7
f 5/35/7 3/40/7 1/41/7
f 15/38/7 10/39/7 16/36/7
f 10/39/7 15/38/7 7/42/7
f 9/45/8 20/44/8 11/43/8
f 20/44/8 9/45/8 22/46/8
f 22/46/8 9/45/8 21/47/8
f 19/48/7 2/41/7 12/43/7
f 2/41/7 19/48/7 24/49/7
f 2/41/7 24/49/7 6/35/7
f 6/35/7 24/49/7 23/24/7
f 6/35/7 23/24/7 18/37/7
f 4/40/7 12/43/7 2/41/7

