# Created by Kenney (www.kenney.nl)

mtllib building_013.mtl

g building_013

v 0 5.414336E-16 0.5
v -0.5 0 0
v -1.804779E-16 0 1
v -1 0 1
v -1 0 0
v -1.804779E-16 0.2125 0.5
v -1.804779E-16 0.2125 1
v -0.5 0.2125 0
v -1 0.2125 1
v -1 0.2125 0

vn 0 -1 0
vn 0 1 0
vn 0 0 1
vn 0 0 -1
vn -1 0 0
vn 0.7071068 0 -0.7071068
vn 1 0 0

vt 3.957034E-30 19.68504
vt -19.68504 1.130581E-31
vt -7.105427E-15 39.37008
vt -39.37008 39.37008
vt -39.37008 2.261163E-31
vt 4.085621E-15 19.68504
vt 4.085621E-15 39.37008
vt 19.68504 6.039613E-15
vt 39.37008 39.37008
vt 39.37008 6.039613E-15
vt -7.105427E-15 0
vt -39.37008 0
vt -7.105427E-15 8.366141
vt -39.37008 8.366141
vt 39.37008 0
vt 19.68504 0
vt 39.37008 8.366141
vt 19.68504 8.366141
vt 0 0
vt 0 8.366141
vt 13.91943 8.366141
vt 13.91943 7.993483E-15
vt -13.91943 8.366141
vt -13.91943 2.930977E-14
vt -19.68504 8.366141
vt -19.68504 2.131628E-14
vt -39.37008 -4.203895E-45

usemtl brickDark

f 3/3/1 2/2/1 1/1/1
f 2/2/1 3/3/1 4/4/1
f 2/2/1 4/4/1 5/5/1
f 8/8/2 7/7/2 6/6/2
f 7/7/2 8/8/2 9/9/2
f 9/9/2 8/8/2 10/10/2
f 7/13/3 4/12/3 3/11/3
f 4/12/3 7/13/3 9/14/3
f 10/17/4 2/16/4 5/15/4
f 2/16/4 10/17/4 8/18/4
f 4/15/5 10/20/5 5/19/5
f 10/20/5 4/15/5 9/17/5
f 6/23/6 2/22/6 8/21/6
f 2/22/6 6/23/6 1/24/6
f 7/14/7 1/26/7 6/25/7
f 1/26/7 7/14/7 3/27/7

