# Created by Kenney (www.kenney.nl)

mtllib building_050.mtl

g building_050

v -0.1 0.5 0.125
v -0.1 0 0.125
v -0.1 0.5 1
v -0.1 0 1
v 0 0.5 1
v 0 0.5 0.125
v -1 0 0
v 0 0 0
v -1 0.625 0
v 0 0.625 0
v -1 0 1
v -1 0.625 1
v 0 0 0.125
v 0 0.625 1

vn 1 0 0
vn 0 -1 0
vn 0 0 -1
vn -1 0 0
vn 0 0 1
vn 0 1 0

vt -4.92126 19.68504
vt -4.92126 0
vt -39.37008 19.68504
vt -39.37008 0
vt 0 39.37008
vt 0 4.92126
vt -3.937008 39.37008
vt -3.937008 4.92126
vt 39.37008 0
vt 0 0
vt 39.37008 24.6063
vt 0 24.6063
vt -39.37008 39.37008
vt 0 19.68504
vt -3.937008 19.68504
vt -39.37008 24.6063
vt -3.937008 0
vt 39.37008 39.37008

usemtl glass

f 3/3/1 2/2/1 1/1/1
f 2/2/1 3/3/1 4/4/1

usemtl brick

f 3/7/2 6/6/2 5/5/2
f 6/6/2 3/7/2 1/8/2
f 9/11/3 8/10/3 7/9/3
f 8/10/3 9/11/3 10/12/3
f 11/9/4 9/12/4 7/10/4
f 9/12/4 11/9/4 12/11/4
f 11/13/2 2/8/2 4/7/2
f 7/4/2 2/8/2 11/13/2
f 8/10/2 2/8/2 7/4/2
f 2/8/2 8/10/2 13/6/2
f 14/12/5 3/15/5 5/14/5
f 12/16/5 3/15/5 14/12/5
f 11/4/5 3/15/5 12/16/5
f 3/15/5 11/4/5 4/17/5
f 9/9/6 14/5/6 10/10/6
f 14/5/6 9/9/6 12/18/6
f 10/12/1 6/1/1 8/10/1
f 6/1/1 10/12/1 14/16/1
f 6/1/1 14/16/1 5/3/1
f 13/2/1 8/10/1 6/1/1
f 6/14/5 2/17/5 13/10/5
f 2/17/5 6/14/5 1/15/5

