# Created by Kenney (www.kenney.nl)

mtllib building_047.mtl

g building_047

v 0 0 1
v 0 0 0
v -1 0 1
v -1 0 0
v -1 0.625 0
v 0 0.625 0
v 0 0.12 0.34375
v 0 0.12 0.65625
v -0.1 0.12 0.34375
v -0.1 0.12 0.65625
v 0 0.5 0.34375
v -0.1 0.5 0.34375
v -0.1 0.5 0.65625
v 0 0.5 0.65625
v 0 0.625 1
v -1 0.625 1

vn 0 -1 0
vn 0 0 -1
vn 0 1 0
vn 0 0 1
vn -1 0 0
vn 1 0 0

vt 0 39.37008
vt 0 0
vt -39.37008 39.37008
vt -39.37008 0
vt 39.37008 0
vt 39.37008 24.6063
vt 0 24.6063
vt 0 13.53346
vt 0 25.83661
vt 3.937008 13.53346
vt 3.937008 25.83661
vt 0 4.72441
vt -3.937008 4.72441
vt 0 19.68504
vt -3.937008 19.68504
vt 3.937008 4.72441
vt 3.937008 19.68504
vt -39.37008 24.6063
vt 4.440892E-15 -4.440892E-15
vt 4.440892E-15 39.37008
vt 39.37008 -4.440892E-15
vt 39.37008 39.37008
vt -3.937008 25.83661
vt -3.937008 13.53346
vt -13.53346 19.68504
vt -25.83661 19.68504
vt -25.83661 4.72441
vt -13.53346 4.72441

usemtl brick

f 3/3/1 2/2/1 1/1/1
f 2/2/1 3/3/1 4/4/1
f 5/6/2 2/2/2 4/5/2
f 2/2/2 5/6/2 6/7/2
f 9/10/3 8/9/3 7/8/3
f 8/9/3 9/10/3 10/11/3
f 11/14/4 9/13/4 7/12/4
f 9/13/4 11/14/4 12/15/4
f 13/17/2 8/12/2 10/16/2
f 8/12/2 13/17/2 14/14/2
f 15/7/4 3/4/4 1/2/4
f 3/4/4 15/7/4 16/18/4
f 5/21/3 15/20/3 6/19/3
f 15/20/3 5/21/3 16/22/3
f 13/23/1 11/8/1 14/9/1
f 11/8/1 13/23/1 12/24/1
f 3/5/5 5/7/5 4/2/5
f 5/7/5 3/5/5 16/6/5
f 6/7/6 11/25/6 2/2/6
f 11/25/6 6/7/6 15/18/6
f 11/25/6 15/18/6 14/26/6
f 14/26/6 15/18/6 8/27/6
f 7/28/6 2/2/6 11/25/6
f 2/2/6 7/28/6 1/4/6
f 1/4/6 7/28/6 8/27/6
f 1/4/6 8/27/6 15/18/6

usemtl glass

f 13/26/6 9/28/6 12/25/6
f 9/28/6 13/26/6 10/27/6

