# Created by Kenney (www.kenney.nl)

mtllib building_054.mtl

g building_054

v 0 0 1
v -1 0 1
v 0 0.625 1
v -1 0.625 1
v -0.1 0.06 0.875
v 0 0.06 0.5625
v 0 0.06 0.875
v -0.1 0.06 0.5625
v 0.05 0.06 0.5625
v 0.05 0.06 0.875
v 0 0.12 0.5625
v -0.1 0.12 0.5625
v 0 0.5 0.5625
v -0.1 0.5 0.5625
v -0.1 0.12 0.875
v 0.05 0.12 0.5625
v 0 0.12 0.875
v -0.1 0.5 0.875
v 0 0.5 0.875
v 0.05 0.12 0.875
v 0 0 0
v -1 0 0
v -1 0.625 0
v 0 0.625 0

vn 0 0 1
vn 0 1 0
vn 1 0 0
vn 0 0 -1
vn 0 -1 0
vn -1 0 0

vt 0 0
vt -39.37008 0
vt 0 24.6063
vt -39.37008 24.6063
vt -3.937008 34.44882
vt 0 22.14567
vt 0 34.44882
vt -3.937008 22.14567
vt 1.968504 22.14567
vt 1.968504 34.44882
vt 0 4.72441
vt -3.937008 4.72441
vt 0 19.68504
vt -3.937008 19.68504
vt 34.44882 2.362205
vt 22.14567 4.72441
vt 22.14567 2.362205
vt 34.44882 4.72441
vt 3.937008 4.72441
vt 0 2.362205
vt 3.937008 2.362205
vt -1.968504 2.362205
vt -1.968504 4.72441
vt 3.937008 19.68504
vt 1.968504 2.362205
vt 1.968504 4.72441
vt -3.937008 2.362205
vt 0 39.37008
vt -39.37008 39.37008
vt -22.14567 4.72441
vt -22.14567 2.362205
vt -34.44882 4.72441
vt -34.44882 2.362205
vt 39.37008 0
vt 39.37008 24.6063
vt -1.968504 22.14567
vt -1.968504 34.44882
vt 3.937008 22.14567
vt 3.937008 34.44882
vt 3.330669E-15 -3.330669E-15
vt 3.330669E-15 39.37008
vt 39.37008 -3.330669E-15
vt 39.37008 39.37008
vt -22.14567 19.68504
vt -34.44882 19.68504

usemtl brick

f 3/3/1 2/2/1 1/1/1
f 2/2/1 3/3/1 4/4/1
f 7/7/2 6/6/2 5/5/2
f 8/8/2 5/5/2 6/6/2
f 6/6/2 7/7/2 9/9/2
f 10/10/2 9/9/2 7/7/2
f 13/13/1 12/12/1 11/11/1
f 12/12/1 13/13/1 14/14/1
f 8/17/3 12/16/3 5/15/3
f 15/18/3 5/15/3 12/16/3
f 8/21/1 6/20/1 12/19/1
f 11/11/1 12/19/1 6/20/1
f 6/20/1 9/22/1 11/11/1
f 16/23/1 11/11/1 9/22/1
f 18/24/4 17/11/4 15/19/4
f 17/11/4 18/24/4 19/13/4
f 20/26/1 7/20/1 10/25/1
f 7/20/1 20/26/1 17/11/1
f 10/25/4 7/20/4 20/26/4
f 17/11/4 20/26/4 7/20/4
f 7/20/4 5/27/4 17/11/4
f 15/12/4 17/11/4 5/27/4
f 2/29/5 21/1/5 1/28/5
f 21/1/5 2/29/5 22/2/5
f 20/32/3 9/31/3 16/30/3
f 9/31/3 20/32/3 10/33/3
f 16/30/6 9/31/6 20/32/6
f 10/33/6 20/32/6 9/31/6
f 2/34/6 23/3/6 22/1/6
f 23/3/6 2/34/6 4/35/6
f 18/5/5 13/6/5 19/7/5
f 13/6/5 18/5/5 14/8/5
f 11/11/4 9/22/4 6/20/4
f 9/22/4 11/11/4 16/23/4
f 7/7/5 9/9/5 10/10/5
f 9/9/5 7/7/5 6/6/5
f 11/6/2 20/37/2 16/36/2
f 20/37/2 11/6/2 17/7/2
f 17/7/2 11/6/2 12/38/2
f 17/7/2 12/38/2 15/39/2
f 16/36/5 20/37/5 11/6/5
f 17/7/5 11/6/5 20/37/5
f 12/38/5 11/6/5 17/7/5
f 15/39/5 12/38/5 17/7/5
f 23/42/2 3/41/2 24/40/2
f 3/41/2 23/42/2 4/43/2
f 24/3/3 13/44/3 21/1/3
f 13/44/3 24/3/3 3/4/3
f 13/44/3 3/4/3 19/45/3
f 19/45/3 3/4/3 17/32/3
f 17/32/3 3/4/3 7/33/3
f 6/31/3 21/1/3 13/44/3
f 21/1/3 6/31/3 1/2/3
f 1/2/3 6/31/3 7/33/3
f 1/2/3 7/33/3 3/4/3
f 6/31/3 13/44/3 11/30/3
f 23/35/4 21/1/4 22/34/4
f 21/1/4 23/35/4 24/3/4

usemtl _defaultMat

f 5/5/5 6/6/5 7/7/5
f 6/6/5 5/5/5 8/8/5
f 5/15/6 12/16/6 8/17/6
f 12/16/6 5/15/6 15/18/6
f 12/19/4 6/20/4 8/21/4
f 6/20/4 12/19/4 11/11/4
f 17/11/1 5/27/1 7/20/1
f 5/27/1 17/11/1 15/12/1

usemtl glass

f 18/45/3 12/30/3 14/44/3
f 12/30/3 18/45/3 15/32/3

