# Created by Kenney (www.kenney.nl)

mtllib building_059.mtl

g building_059

v 0 0 1
v -1 0 1
v 0 0.625 1
v -1 0.625 1
v 0 0.5 0.875
v 0 0.5 2.887646E-15
v -0.1 0.5 0.875
v -0.1 0.5 2.887646E-15
v 0 0.625 0
v -1 0.625 0
v 0 0 0.875
v -1 0 0
v -0.1 0 2.887646E-15
v -0.1 0 0.875

vn 0 0 1
vn 0 -1 0
vn 0 1 0
vn 1 0 0
vn 0 0 -1
vn -1 0 0

vt 0 0
vt -39.37008 0
vt 0 24.6063
vt -39.37008 24.6063
vt -8.463843E-43 34.44882
vt -8.463843E-43 1.177471E-13
vt -3.937008 34.44882
vt -3.937008 1.177471E-13
vt 0 39.37008
vt 39.37008 0
vt 39.37008 39.37008
vt -1.136868E-13 19.68504
vt -34.44882 19.68504
vt -34.44882 0
vt 39.37008 -2.29075E-29
vt 3.937008 -5.112049E-29
vt 39.37008 24.6063
vt 3.937008 19.68504
vt -1.540094E-28 19.68504
vt 3.937008 0
vt 0 19.68504
vt 0 34.44882
vt -39.37008 39.37008
vt -3.937008 1.136868E-13
vt -1.136868E-13 0

usemtl brick

f 3/3/1 2/2/1 1/1/1
f 2/2/1 3/3/1 4/4/1
f 7/7/2 6/6/2 5/5/2
f 6/6/2 7/7/2 8/8/2
f 10/10/3 3/9/3 9/1/3
f 3/9/3 10/10/3 4/11/3
f 3/4/4 6/12/4 9/3/4
f 6/12/4 3/4/4 5/13/4
f 5/13/4 3/4/4 11/14/4
f 11/14/4 3/4/4 1/2/4
f 10/17/5 13/16/5 12/15/5
f 13/16/5 10/17/5 8/18/5
f 8/18/5 10/17/5 6/19/5
f 6/19/5 10/17/5 9/3/5
f 7/18/5 11/1/5 14/20/5
f 11/1/5 7/18/5 5/21/5
f 2/10/6 10/3/6 12/1/6
f 10/3/6 2/10/6 4/17/6
f 2/23/2 11/22/2 1/9/2
f 11/22/2 2/23/2 14/7/2
f 14/7/2 2/23/2 13/24/2
f 13/24/2 2/23/2 12/2/2

usemtl glass

f 7/13/4 13/25/4 8/12/4
f 13/25/4 7/13/4 14/14/4

