# Created by Kenney (www.kenney.nl)

mtllib building_018.mtl

g building_018

v 0 0 1
v 0 0 0
v -1 0 1
v -1 0 0
v 0 0.2125 0
v 0 0.2125 1
v -1 0.2125 0
v -1 0.2125 1

vn 0 -1 0
vn 0 1 0
vn 0 0 1
vn 0 0 -1
vn 1 0 0
vn -1 0 0

vt 0 39.37008
vt 0 0
vt -39.37008 39.37008
vt -39.37008 0
vt -4.52971E-15 4.52971E-15
vt -4.52971E-15 39.37008
vt 39.37008 4.52971E-15
vt 39.37008 39.37008
vt 0 8.366141
vt -39.37008 8.366141
vt 39.37008 0
vt 39.37008 8.366141

usemtl brickDark

f 3/3/1 2/2/1 1/1/1
f 2/2/1 3/3/1 4/4/1
f 7/7/2 6/6/2 5/5/2
f 6/6/2 7/7/2 8/8/2
f 6/9/3 3/4/3 1/2/3
f 3/4/3 6/9/3 8/10/3
f 7/12/4 2/2/4 4/11/4
f 2/2/4 7/12/4 5/9/4
f 6/10/5 2/2/5 5/9/5
f 2/2/5 6/10/5 1/4/5
f 3/11/6 7/9/6 4/2/6
f 7/9/6 3/11/6 8/12/6

