# Created by Kenney (www.kenney.nl)

mtllib building_015.mtl

g building_015

v 0 0.10625 0
v 0 0.10625 1
v -1 0.10625 0
v -1 0.10625 1
v 0 0 1
v -1 0 1
v 0 0 0
v -1 0 0

vn 0 1 0
vn 0 0 1
vn 1 0 0
vn 0 0 -1
vn -1 0 0
vn 0 -1 0

vt 0 1.589372E-16
vt 0 39.37008
vt 39.37008 1.589372E-16
vt 39.37008 39.37008
vt 0 0
vt -39.37008 0
vt 0 4.183071
vt -39.37008 4.183071
vt 39.37008 0
vt 39.37008 4.183071
vt -39.37008 39.37008

usemtl brick

f 3/3/1 2/2/1 1/1/1
f 2/2/1 3/3/1 4/4/1
f 2/7/2 6/6/2 5/5/2
f 6/6/2 2/7/2 4/8/2
f 2/8/3 7/5/3 1/7/3
f 7/5/3 2/8/3 5/6/3
f 3/10/4 7/5/4 8/9/4
f 7/5/4 3/10/4 1/7/4
f 6/9/5 3/7/5 8/5/5
f 3/7/5 6/9/5 4/10/5
f 6/11/6 7/5/6 5/2/6
f 7/5/6 6/11/6 8/6/6

