# Created by Kenney (www.kenney.nl)

mtllib building_026.mtl

g building_026

v 0.2 0.10625 0.375
v 0.2 0.10625 0.625
v 0.1 0.10625 0.375
v 0.1 0.10625 0.625
v -1 0 0
v 0 0 0
v -1 0.2125 0
v 0 0.2125 0
v 0 0 1
v -1 0 1
v 0 0.2125 1
v -1 0.2125 1
v 0 0.2125 0.375
v 0 0 0.375
v 0.2 0 0.375
v 0.1 0.2125 0.375
v 0 0.2125 0.625
v 0 0 0.625
v 0.2 0 0.625
v 0.1 0.2125 0.625
v -0.1 0.2125 0.375
v -0.1 0.2125 0.625
v 0 0.8375 0
v 0 0.8375 1
v -1 0.8375 0
v -1 0.8375 1
v 0 0.7125 0.375
v 0 0.7125 0.625
v -0.1 0.7125 0.375
v -0.1 0.7125 0.625

vn 0 1 0
vn 0 0 -1
vn 0 0 1
vn 1 0 0
vn -1 0 0
vn 0 -1 0

vt -7.874016 14.76378
vt -7.874016 24.6063
vt -3.937008 14.76378
vt -3.937008 24.6063
vt 39.37008 0
vt 0 0
vt 39.37008 8.366141
vt 0 8.366141
vt -39.37008 0
vt -39.37008 8.366141
vt -14.76378 8.366141
vt -14.76378 0
vt -7.874016 0
vt -3.937008 4.183071
vt -3.937008 8.366141
vt -7.874016 4.183071
vt -24.6063 8.366141
vt -24.6063 0
vt -14.76378 4.183071
vt -24.6063 4.183071
vt 7.874016 0
vt 7.874016 4.183071
vt 3.937008 4.183071
vt 3.937008 8.366141
vt 0 39.37008
vt 0 24.6063
vt -39.37008 39.37008
vt 0 14.76378
vt 7.874016 14.76378
vt 7.874016 24.6063
vt 3.937008 14.76378
vt 3.937008 24.6063
vt -1.190159E-14 1.190159E-14
vt -1.190159E-14 39.37008
vt 39.37008 1.190159E-14
vt 39.37008 39.37008
vt 39.37008 32.97244
vt 0 32.97244
vt -14.76378 28.05118
vt -39.37008 32.97244
vt -24.6063 28.05118
vt 0 28.05118
vt -3.937008 28.05118
vt 3.937008 28.05118

usemtl brickDark

f 3/3/1 2/2/1 1/1/1
f 2/2/1 3/3/1 4/4/1
f 7/7/2 6/6/2 5/5/2
f 6/6/2 7/7/2 8/8/2
f 11/8/3 10/9/3 9/6/3
f 10/9/3 11/8/3 12/10/3
f 13/11/4 6/6/4 8/8/4
f 6/6/4 13/11/4 14/12/4
f 14/6/2 3/14/2 15/13/2
f 3/14/2 14/6/2 13/8/2
f 3/14/2 13/8/2 16/15/2
f 1/16/2 15/13/2 3/14/2
f 10/5/5 7/8/5 5/6/5
f 7/8/5 10/5/5 12/7/5
f 11/10/4 18/18/4 17/17/4
f 18/18/4 11/10/4 9/9/4
f 2/20/4 15/12/4 1/19/4
f 15/12/4 2/20/4 19/18/4
f 2/22/3 18/6/3 19/21/3
f 18/6/3 2/22/3 4/23/3
f 18/6/3 4/23/3 17/8/3
f 17/8/3 4/23/3 20/24/3
f 10/27/6 18/26/6 9/25/6
f 18/26/6 10/27/6 14/28/6
f 14/28/6 10/27/6 6/6/6
f 6/6/6 10/27/6 5/9/6
f 15/29/6 18/26/6 14/28/6
f 18/26/6 15/29/6 19/30/6
f 13/28/1 20/4/1 16/3/1
f 20/4/1 13/28/1 17/26/1
f 17/26/1 13/28/1 21/31/1
f 17/26/1 21/31/1 22/32/1
f 20/17/4 3/19/4 16/11/4
f 3/19/4 20/17/4 4/20/4

usemtl brick

f 25/35/1 24/34/1 23/33/1
f 24/34/1 25/35/1 26/36/1
f 25/37/2 8/8/2 7/7/2
f 8/8/2 25/37/2 23/38/2
f 23/38/4 27/39/4 8/8/4
f 27/39/4 23/38/4 24/40/4
f 27/39/4 24/40/4 28/41/4
f 28/41/4 24/40/4 17/17/4
f 17/17/4 24/40/4 11/10/4
f 13/11/4 8/8/4 27/39/4
f 27/42/3 21/15/3 13/8/3
f 21/15/3 27/42/3 29/43/3
f 30/4/6 27/28/6 28/26/6
f 27/28/6 30/4/6 29/3/6
f 24/38/3 12/10/3 11/8/3
f 12/10/3 24/38/3 26/40/3
f 12/7/5 25/38/5 7/8/5
f 25/38/5 12/7/5 26/37/5
f 30/44/2 17/8/2 22/24/2
f 17/8/2 30/44/2 28/42/2

usemtl glass

f 30/41/4 21/11/4 29/39/4
f 21/11/4 30/41/4 22/17/4

