# Created by Kenney (www.kenney.nl)

mtllib building_017.mtl

g building_017

v 0 0 1
v 0 0 0
v -1 0 1
v -1 0 0
v 0 0.625 0
v 0 0.625 1
v -1 0.625 0
v -1 0.625 1

vn 0 -1 0
vn 1 0 0
vn 0 0 -1
vn 0 0 1
vn 0 1 0
vn -1 0 0

vt 0 39.37008
vt 0 0
vt -39.37008 39.37008
vt -39.37008 0
vt 0 24.6063
vt -39.37008 24.6063
vt 39.37008 0
vt 39.37008 24.6063
vt -1.332268E-14 1.332268E-14
vt -1.332268E-14 39.37008
vt 39.37008 1.332268E-14
vt 39.37008 39.37008

usemtl brick

f 3/3/1 2/2/1 1/1/1
f 2/2/1 3/3/1 4/4/1
f 6/6/2 2/2/2 5/5/2
f 2/2/2 6/6/2 1/4/2
f 7/8/3 2/2/3 4/7/3
f 2/2/3 7/8/3 5/5/3
f 6/5/4 3/4/4 1/2/4
f 3/4/4 6/5/4 8/6/4
f 7/11/5 6/10/5 5/9/5
f 6/10/5 7/11/5 8/12/5
f 3/7/6 7/5/6 4/2/6
f 7/5/6 3/7/6 8/8/6

