# Created by Kenney (www.kenney.nl)

mtllib detail_016.mtl

g detail_016

v -0.05 0.04774169 0.04774169
v -0.025 0.1661292 0.04774169
v 0 0.04774169 0.04774169
v 0 0.3322583 0.04774169
v -0.025 0.2138708 0.04774169
v -0.05 0.2138708 0.04774169
v -0.05 0.3322583 0.04774169
v -0.05 0.1661292 0.04774169
v -0.05 0.2138708 0.2647583
v -0.025 0.2138708 0.2647583
v -0.05 0.3322583 0.2647583
v 0 0.3322583 0.2647583
v -0.025 0.1661292 0.2647583
v 0 0.04774169 0.2647583
v -0.05 0.1661292 0.2647583
v -0.05 0.04774169 0.2647583
v 0 0.38 0
v 0 0.38 0.3125
v -0.05 0.38 0
v -0.05 0.38 0.3125
v -0.05 0 0
v 0 0 0
v 0 0 0.3125
v -0.05 0 0.3125

vn 0 0 1
vn 0 0 -1
vn 1 0 0
vn 0 1 0
vn 0 -1 0
vn -1 0 0

vt -1.968504 1.879594
vt -0.984252 6.540518
vt 0 1.879594
vt 0 13.08104
vt -0.984252 8.420112
vt -1.968504 8.420112
vt -1.968504 13.08104
vt -1.968504 6.540518
vt 1.968504 8.420112
vt 0.984252 8.420112
vt 1.968504 13.08104
vt 0.984252 6.540518
vt 1.968504 6.540518
vt 1.968504 1.879594
vt -1.879594 8.420112
vt -1.879594 6.540518
vt -10.42356 8.420112
vt -10.42356 6.540518
vt 0 0
vt 0 12.30315
vt 1.968504 0
vt 1.968504 12.30315
vt 1.968504 14.96063
vt 0 14.96063
vt -1.879594 13.08104
vt -12.30315 14.96063
vt -10.42356 13.08104
vt -10.42356 1.879594
vt -1.879594 1.879594
vt -12.30315 0
vt 0.984252 1.879594
vt 0.984252 10.42356
vt 1.968504 10.42356
vt 0 10.42356
vt -1.968504 10.42356
vt -1.968504 12.30315
vt -1.968504 0
vt 1.879594 1.879594
vt 12.30315 0
vt 10.42356 1.879594
vt 10.42356 6.540518
vt 10.42356 8.420112
vt 10.42356 13.08104
vt 1.879594 13.08104
vt 12.30315 14.96063
vt 1.879594 6.540518
vt 1.879594 8.420112
vt -1.968504 14.96063
vt -0.984252 10.42356
vt -0.984252 1.879594

usemtl wood

f 3/3/1 2/2/1 1/1/1
f 2/2/1 3/3/1 4/4/1
f 2/2/1 4/4/1 5/5/1
f 5/5/1 4/4/1 6/6/1
f 6/6/1 4/4/1 7/7/1
f 8/8/1 1/1/1 2/2/1
f 11/11/2 10/10/2 9/9/2
f 12/4/2 10/10/2 11/11/2
f 12/4/2 13/12/2 10/10/2
f 14/3/2 13/12/2 12/4/2
f 14/3/2 15/13/2 13/12/2
f 15/13/2 14/3/2 16/14/2
f 10/17/3 2/16/3 5/15/3
f 2/16/3 10/17/3 13/18/3
f 19/21/4 18/20/4 17/19/4
f 18/20/4 19/21/4 20/22/4
f 19/23/2 22/19/2 21/21/2
f 22/19/2 19/23/2 17/24/2
f 17/24/3 4/25/3 22/19/3
f 4/25/3 17/24/3 18/26/3
f 4/25/3 18/26/3 12/27/3
f 12/27/3 18/26/3 14/28/3
f 3/29/3 22/19/3 4/25/3
f 22/19/3 3/29/3 23/30/3
f 23/30/3 3/29/3 14/28/3
f 23/30/3 14/28/3 18/26/3
f 10/5/1 15/8/1 13/2/1
f 15/8/1 10/5/1 9/6/1
f 6/14/4 10/32/4 5/31/4
f 10/32/4 6/14/4 9/33/4
f 11/35/5 4/3/5 12/34/5
f 4/3/5 11/35/5 7/1/5
f 24/36/5 22/19/5 23/20/5
f 22/19/5 24/36/5 21/37/5
f 21/19/6 1/38/6 19/24/6
f 1/38/6 21/19/6 24/39/6
f 1/38/6 24/39/6 16/40/6
f 16/40/6 24/39/6 15/41/6
f 15/41/6 24/39/6 9/42/6
f 9/42/6 24/39/6 11/43/6
f 7/44/6 19/24/6 1/38/6
f 19/24/6 7/44/6 20/45/6
f 20/45/6 7/44/6 11/43/6
f 20/45/6 11/43/6 24/39/6
f 7/44/6 1/38/6 8/46/6
f 7/44/6 8/46/6 6/47/6
f 6/47/6 15/41/6 9/42/6
f 15/41/6 6/47/6 8/46/6
f 6/9/2 2/12/2 8/13/2
f 2/12/2 6/9/2 5/10/2
f 1/14/4 14/34/4 3/3/4
f 14/34/4 1/14/4 16/33/4
f 18/24/1 24/37/1 23/19/1
f 24/37/1 18/24/1 20/48/1
f 15/35/5 2/50/5 13/49/5
f 2/50/5 15/35/5 8/1/5

