# Created by Kenney (www.kenney.nl)

mtllib detail_003.mtl

g detail_003

v 0 0.5 0
v 0 0.5 0.25
v -0.05 0.5 0
v -0.05 0.5 0.25
v 0 0 0.25
v -0.05 0 0.25
v 0 0.25 0.05423587
v 0 0.25 0.1957641
v -0.025 0.25 0.05423587
v -0.025 0.25 0.1957641
v -0.05 0 0
v 0 0 0
v 0 0.4457641 0.05423587
v 0 0.4457641 0.1957641
v -0.025 0.4457641 0.05423587
v -0.025 0.4457641 0.1957641

vn 0 1 0
vn 0 0 1
vn 0 0 -1
vn 1 0 0
vn -1 0 0
vn 0 -1 0

vt 0 0
vt 0 9.84252
vt 1.968504 0
vt 1.968504 9.84252
vt -1.968504 0
vt 0 19.68504
vt -1.968504 19.68504
vt 0 2.135271
vt 0 7.707249
vt 0.984252 2.135271
vt 0.984252 7.707249
vt 1.968504 19.68504
vt -2.135271 17.54977
vt -9.84252 19.68504
vt -7.707249 17.54977
vt -7.707249 9.84252
vt -2.135271 9.84252
vt -9.84252 0
vt -0.984252 9.84252
vt 0 17.54977
vt -0.984252 17.54977
vt 9.84252 0
vt 9.84252 19.68504
vt -0.984252 7.707249
vt -0.984252 2.135271
vt 0.984252 9.84252
vt 0.984252 17.54977
vt -1.968504 9.84252

usemtl metal

f 3/3/1 2/2/1 1/1/1
f 2/2/1 3/3/1 4/4/1
f 2/6/2 6/5/2 5/1/2
f 6/5/2 2/6/2 4/7/2
f 9/10/1 8/9/1 7/8/1
f 8/9/1 9/10/1 10/11/1
f 3/12/3 12/1/3 11/3/3
f 12/1/3 3/12/3 1/6/3
f 1/6/4 13/13/4 12/1/4
f 13/13/4 1/6/4 2/14/4
f 13/13/4 2/14/4 14/15/4
f 14/15/4 2/14/4 8/16/4
f 7/17/4 12/1/4 13/13/4
f 12/1/4 7/17/4 5/18/4
f 5/18/4 7/17/4 8/16/4
f 5/18/4 8/16/4 2/14/4
f 13/20/2 9/19/2 7/2/2
f 9/19/2 13/20/2 15/21/2
f 6/22/5 3/6/5 11/1/5
f 3/6/5 6/22/5 4/23/5
f 16/24/6 13/8/6 14/9/6
f 13/8/6 16/24/6 15/25/6
f 16/27/3 8/2/3 10/26/3
f 8/2/3 16/27/3 14/20/3
f 6/28/6 12/1/6 5/2/6
f 12/1/6 6/28/6 11/5/6

usemtl glass

f 16/15/4 9/17/4 15/13/4
f 9/17/4 16/15/4 10/16/4

