# Created by Kenney (www.kenney.nl)

mtllib detail_023.mtl

g detail_023

v 0 0.4105105 0.09822024
v 0 0.3920665 0.07418351
v -0.05 0.4105105 0.09822024
v -0.05 0.3920665 0.07418351
v -0.05 0.03984663 0.2726534
v 0 0.03984663 0.2726534
v -0.05 0.3073883 0.2726534
v 0 0.3073883 0.2726534
v -0.05 0.3680298 0.2567605
v 0 0.3680298 0.2567605
v -0.05 0.3920665 0.2383165
v 0 0.3920665 0.2383165
v 0 0 0.3125
v 0 0 0
v -0.05 0 0.3125
v -0.05 0 0
v 0 0.4221049 0.1862884
v 0 0.4260595 0.15625
v -0.05 0.4221049 0.1862884
v -0.05 0.4260595 0.15625
v 0 0.388125 0.02093353
v 0 0.3073883 0.03984663
v 0 0.4204854 0.04576457
v 0 0.3400384 0.0441451
v 0 0.3680298 0.05573949
v 0 0.4453165 0.078125
v 0 0.4609259 0.1158095
v 0 0.4221049 0.1262116
v 0 0.46625 0.15625
v 0 0.4609259 0.1966905
v 0 0.4105105 0.2142798
v 0 0.4453165 0.234375
v 0 0.4204854 0.2667354
v 0 0.3400384 0.2683549
v 0 0.388125 0.2915665
v 0 0.03984663 0.03984663
v 0 0.3504405 0.00532409
v 0 0.31 0
v 0 0.3504405 0.3071759
v 0 0.31 0.3125
v -0.05 0.3504405 0.3071759
v -0.05 0.388125 0.2915665
v -0.05 0.46625 0.15625
v -0.05 0.4609259 0.1966905
v -0.05 0.4221049 0.1262116
v -0.05 0.3073883 0.03984663
v -0.05 0.3400384 0.0441451
v -0.05 0.31 0.3125
v -0.05 0.3680298 0.05573949
v -0.05 0.03984663 0.03984663
v -0.05 0.4204854 0.04576457
v -0.05 0.4453165 0.078125
v -0.05 0.31 0
v -0.05 0.3504405 0.00532409
v -0.05 0.388125 0.02093353
v -0.05 0.3400384 0.2683549
v -0.05 0.4453165 0.234375
v -0.05 0.4609259 0.1158095
v -0.05 0.4105105 0.2142798
v -0.05 0.4204854 0.2667354

vn 0 -0.8660254 0.5
vn 0 -0.7071068 0.7071068
vn 0 0 -1
vn 0 -0.5 -0.8660254
vn 0 -0.7071068 -0.7071068
vn 0 -1 0
vn 0 -0.9659258 -0.258819
vn 1 0 0
vn 0 0.258819 0.9659258
vn 0 0.5 0.8660254
vn 0 1 0
vn 0 0.9659258 0.258819
vn 0 -0.9659258 0.258819
vn 0 -0.1305262 0.9914449
vn 0 -0.258819 0.9659258
vn 0 0 1
vn 0 -0.5 0.8660254
vn 0 0.7071068 -0.7071068
vn 0 0.8660254 -0.5
vn 0 0.1305262 -0.9914449
vn 0 0.258819 -0.9659258
vn 0 0.5 -0.8660254
vn 0 -0.258819 -0.9659258
vn 0 0.8660254 0.5
vn 0 0.9659258 -0.258819
vn -1 0 0
vn 0 0.1305262 0.9914449
vn 0 0.7071068 0.7071068
vn 0 -0.8660254 -0.5
vn 0 -0.1305262 -0.9914449

vt 1.122912E-30 12.90655
vt 8.481099E-31 11.71373
vt -1.968504 12.90655
vt -1.968504 11.71373
vt 1.968504 1.568765
vt 8.781811E-40 1.568765
vt 1.968504 12.1019
vt 8.781811E-40 12.1019
vt 1.968504 5.341408
vt 1.728359E-30 5.341408
vt 1.968504 6.534227
vt 1.604204E-30 6.534227
vt 0 12.30315
vt 0 0
vt -1.968504 12.30315
vt -1.968504 0
vt 1.241315E-29 -5.102321
vt 1.041157E-29 -3.909501
vt 1.968504 -5.102321
vt 1.968504 -3.909501
vt -0.8241548 15.28051
vt -1.568765 12.1019
vt -1.801755 16.55454
vt -1.737996 13.38734
vt -2.194468 14.48936
vt -3.075788 17.53214
vt -2.920611 15.43569
vt -3.866938 16.16183
vt -4.55943 18.14669
vt -4.96896 16.6183
vt -6.151575 18.3563
vt -6.151575 16.774
vt -7.33419 16.6183
vt -7.74372 18.14669
vt -8.436212 16.16183
vt -9.227363 17.53214
vt -9.382539 15.43569
vt -10.5014 16.55454
vt -10.10868 14.48936
vt -10.56515 13.38734
vt -11.479 15.28051
vt -10.73438 12.1019
vt -10.73438 1.568765
vt -12.30315 0
vt -1.568765 1.568765
vt -0.2096099 13.79687
vt 0 12.20472
vt -12.09354 13.79687
vt -12.30315 12.20472
vt 0 8.118648
vt -1.968504 8.118648
vt 0 9.724531
vt -1.968504 9.724531
vt 0 -3.702969
vt 0 -5.308853
vt -1.968504 -3.702969
vt -1.968504 -5.308853
vt 1.041157E-29 8.288393
vt 8.409986E-30 7.095573
vt -1.968504 8.288393
vt -1.968504 7.095573
vt 4.601992E-32 12.20313
vt -1.968504 12.20313
vt 5.098433E-32 13.49966
vt -1.968504 13.49966
vt -1.968504 12.20472
vt 1.604102E-31 13.03339
vt -1.968504 13.03339
vt 2.025408E-31 14.22621
vt -1.968504 14.22621
vt 3.49556E-31 1.568765
vt 3.49556E-31 10.73438
vt 1.968504 10.73438
vt 0 11.5072
vt 0 13.11308
vt 1.968504 11.5072
vt 1.968504 13.11308
vt 2.673007E-30 10.95027
vt 2.080184E-30 9.75745
vt -1.968504 10.95027
vt -1.968504 9.75745
vt 1.968504 0
vt 1.968504 12.20472
vt 1.968504 12.10031
vt 0 12.10031
vt 1.968504 13.70619
vt 0 13.70619
vt 1.968504 12.62456
vt 0 12.62456
vt 1.968504 14.23044
vt 0 14.23044
vt 1.968504 8.325179
vt 9.751221E-31 8.325179
vt 1.968504 9.517999
vt 9.329916E-31 9.517999
vt 0 -0.2098265
vt 0 -1.81571
vt -1.968504 -0.2098265
vt -1.968504 -1.81571
vt 0 9.550919
vt 0 11.1568
vt 1.968504 9.550919
vt 1.968504 11.1568
vt 1.568765 1.568765
vt 12.30315 0
vt 0.2096099 13.79687
vt 0.8241548 15.28051
vt 10.73438 1.568765
vt 10.73438 12.1019
vt 11.479 15.28051
vt 12.09354 13.79687
vt 12.30315 12.20472
vt 1.568765 12.1019
vt 1.801755 16.55454
vt 1.737996 13.38734
vt 2.194468 14.48936
vt 3.075788 17.53214
vt 2.920611 15.43569
vt 3.866938 16.16183
vt 4.55943 18.14669
vt 4.96896 16.6183
vt 6.151575 18.3563
vt 6.151575 16.774
vt 7.33419 16.6183
vt 7.74372 18.14669
vt 8.436212 16.16183
vt 9.227363 17.53214
vt 9.382539 15.43569
vt 10.5014 16.55454
vt 10.10868 14.48936
vt 10.56515 13.38734
vt 1.968504 12.82686
vt 0 12.82686
vt 1.968504 14.43274
vt 0 14.43274
vt 0 10.49443
vt -1.968504 10.49443
vt -1.968504 12.10031
vt 0 5.134876
vt -1.968504 5.134876
vt 0 6.740759
vt -1.968504 6.740759
vt -1.283407E-40 1.568765
vt -1.968504 1.568765
vt -1.283407E-40 12.1019
vt -1.968504 12.1019
vt 2.724575E-30 1.952983
vt 2.449773E-30 3.145803
vt 1.968504 1.952983
vt 1.968504 3.145803
vt 0 6.889042
vt 0 8.494925
vt 1.968504 6.889042
vt 1.968504 8.494925
vt 3.75205E-31 12.83109
vt -1.968504 12.83109
vt 4.993592E-31 14.02391
vt -1.968504 14.02391
vt 4.538183E-30 -1.609178
vt 3.94536E-30 -0.4163583
vt 1.968504 -1.609178
vt 1.968504 -0.4163583
vt 0 3.352335
vt 0 1.746451
vt -1.968504 3.352335
vt -1.968504 1.746451
vt 1.968504 10.59725
vt 3.148946E-31 10.59725
vt 1.968504 11.89378
vt 3.099301E-31 11.89378

usemtl metal

f 3/3/1 2/2/2 1/1/1
f 2/2/2 3/3/1 4/4/2
f 7/7/3 6/6/3 5/5/3
f 6/6/3 7/7/3 8/8/3
f 11/11/5 10/10/4 9/9/4
f 10/10/4 11/11/5 12/12/5
f 15/15/6 14/14/6 13/13/6
f 14/14/6 15/15/6 16/16/6
f 19/19/7 18/18/6 17/17/7
f 18/18/6 19/19/7 20/20/6
f 23/23/8 22/22/8 21/21/8
f 22/22/8 23/23/8 24/24/8
f 24/24/8 23/23/8 25/25/8
f 25/25/8 23/23/8 26/26/8
f 25/25/8 26/26/8 2/27/8
f 2/27/8 26/26/8 1/28/8
f 1/28/8 26/26/8 27/29/8
f 1/28/8 27/29/8 28/30/8
f 28/30/8 27/29/8 29/31/8
f 28/30/8 29/31/8 18/32/8
f 18/32/8 29/31/8 17/33/8
f 17/33/8 29/31/8 30/34/8
f 17/33/8 30/34/8 31/35/8
f 31/35/8 30/34/8 32/36/8
f 31/35/8 32/36/8 12/37/8
f 12/37/8 32/36/8 33/38/8
f 12/37/8 33/38/8 10/39/8
f 10/39/8 33/38/8 34/40/8
f 34/40/8 33/38/8 35/41/8
f 34/40/8 35/41/8 8/42/8
f 8/42/8 35/41/8 6/43/8
f 13/44/8 6/43/8 35/41/8
f 13/44/8 36/45/8 6/43/8
f 14/14/8 36/45/8 13/44/8
f 14/14/8 37/46/8 36/45/8
f 37/46/8 14/14/8 38/47/8
f 36/45/8 37/46/8 21/21/8
f 36/45/8 21/21/8 22/22/8
f 13/44/8 35/41/8 39/48/8
f 13/44/8 39/48/8 40/49/8
f 35/52/10 41/51/9 39/50/9
f 41/51/9 35/52/10 42/53/10
f 43/56/11 30/55/12 29/54/11
f 30/55/12 43/56/11 44/57/12
f 20/60/6 28/59/13 18/58/6
f 28/59/13 20/60/6 45/61/13
f 24/64/15 46/63/14 22/62/14
f 46/63/14 24/64/15 47/65/15
f 40/47/16 15/16/16 13/14/16
f 15/16/16 40/47/16 48/66/16
f 25/69/17 47/68/15 24/67/15
f 47/68/15 25/69/17 49/70/17
f 50/5/11 6/72/11 36/71/11
f 6/72/11 50/5/11 5/73/11
f 51/76/18 26/75/19 23/74/18
f 26/75/19 51/76/18 52/77/19
f 45/80/13 1/79/1 28/78/13
f 1/79/1 45/80/13 3/81/1
f 53/83/3 14/14/3 16/82/3
f 14/14/3 53/83/3 38/47/3
f 54/86/21 38/85/20 53/84/20
f 38/85/20 54/86/21 37/87/21
f 51/90/18 21/89/22 55/88/22
f 21/89/22 51/90/18 23/91/18
f 9/94/4 34/93/23 56/92/23
f 34/93/23 9/94/4 10/95/4
f 44/98/12 32/97/24 30/96/12
f 32/97/24 44/98/12 57/99/24
f 52/102/19 27/101/25 26/100/19
f 27/101/25 52/102/19 58/103/25
f 16/14/26 50/104/26 53/47/26
f 50/104/26 16/14/26 15/105/26
f 53/47/26 50/104/26 54/106/26
f 54/106/26 50/104/26 55/107/26
f 50/104/26 15/105/26 5/108/26
f 5/108/26 15/105/26 7/109/26
f 7/109/26 15/105/26 42/110/26
f 42/110/26 15/105/26 41/111/26
f 41/111/26 15/105/26 48/112/26
f 46/113/26 55/107/26 50/104/26
f 55/107/26 46/113/26 51/114/26
f 51/114/26 46/113/26 47/115/26
f 51/114/26 47/115/26 49/116/26
f 51/114/26 49/116/26 52/117/26
f 52/117/26 49/116/26 4/118/26
f 52/117/26 4/118/26 3/119/26
f 52/117/26 3/119/26 58/120/26
f 58/120/26 3/119/26 45/121/26
f 58/120/26 45/121/26 43/122/26
f 43/122/26 45/121/26 20/123/26
f 43/122/26 20/123/26 19/124/26
f 43/122/26 19/124/26 44/125/26
f 44/125/26 19/124/26 59/126/26
f 44/125/26 59/126/26 57/127/26
f 57/127/26 59/126/26 11/128/26
f 57/127/26 11/128/26 60/129/26
f 60/129/26 11/128/26 9/130/26
f 60/129/26 9/130/26 56/131/26
f 60/129/26 56/131/26 42/110/26
f 42/110/26 56/131/26 7/109/26
f 55/134/22 37/133/21 54/132/21
f 37/133/21 55/134/22 21/135/22
f 39/85/9 48/137/27 40/136/27
f 48/137/27 39/85/9 41/138/9
f 33/141/28 42/140/10 35/139/10
f 42/140/10 33/141/28 60/142/28
f 22/145/16 50/144/16 36/143/16
f 50/144/16 22/145/16 46/146/16
f 11/149/5 31/148/29 12/147/5
f 31/148/29 11/149/5 59/150/29
f 58/153/25 29/152/11 27/151/25
f 29/152/11 58/153/25 43/154/11
f 2/157/2 49/156/17 25/155/17
f 49/156/17 2/157/2 4/158/2
f 59/161/29 17/160/7 31/159/29
f 17/160/7 59/161/29 19/162/7
f 57/165/24 33/164/28 32/163/24
f 33/164/28 57/165/24 60/166/28
f 56/169/23 8/168/30 7/167/30
f 8/168/30 56/169/23 34/170/23

