# Created by Kenney (www.kenney.nl)

mtllib detail_007.mtl

g detail_007

v 0 0 0.25
v -0.05 0 0.25
v 0 0.5 0.25
v -0.05 0.5 0.25
v 0 0.05423587 0.05423587
v 0 0.05423587 0.1957641
v -0.025 0.05423587 0.05423587
v -0.025 0.05423587 0.1957641
v 0 0 0
v -0.05 0 0
v -0.05 0.5 0
v 0 0.5 0
v -0.025 0.4457641 0.1957641
v 0 0.4457641 0.1957641
v 0 0.4457641 0.05423587
v -0.025 0.4457641 0.05423587

vn 0 0 1
vn 0 1 0
vn 0 -1 0
vn 0 0 -1
vn 1 0 0
vn -1 0 0

vt 0 0
vt -1.968504 0
vt 0 19.68504
vt -1.968504 19.68504
vt 0 2.135271
vt 0 7.707249
vt 0.984252 2.135271
vt 0.984252 7.707249
vt 0 9.84252
vt -1.968504 9.84252
vt 1.968504 0
vt 1.968504 19.68504
vt 1.968504 9.84252
vt 0.984252 17.54977
vt 0 17.54977
vt -0.984252 7.707249
vt -0.984252 2.135271
vt -0.984252 17.54977
vt -2.135271 17.54977
vt -9.84252 19.68504
vt -7.707249 17.54977
vt -7.707249 2.135271
vt -2.135271 2.135271
vt -9.84252 0
vt 9.84252 0
vt 9.84252 19.68504

usemtl metal

f 3/3/1 2/2/1 1/1/1
f 2/2/1 3/3/1 4/4/1
f 7/7/2 6/6/2 5/5/2
f 6/6/2 7/7/2 8/8/2
f 2/10/3 9/1/3 1/9/3
f 9/1/3 2/10/3 10/2/3
f 11/12/4 9/1/4 10/11/4
f 9/1/4 11/12/4 12/3/4
f 11/11/2 3/9/2 12/1/2
f 3/9/2 11/11/2 4/13/2
f 13/14/4 6/5/4 8/7/4
f 6/5/4 13/14/4 14/15/4
f 13/16/3 15/5/3 14/6/3
f 15/5/3 13/16/3 16/17/3
f 15/15/1 7/17/1 5/5/1
f 7/17/1 15/15/1 16/18/1
f 12/3/5 15/19/5 9/1/5
f 15/19/5 12/3/5 3/20/5
f 15/19/5 3/20/5 14/21/5
f 14/21/5 3/20/5 6/22/5
f 5/23/5 9/1/5 15/19/5
f 9/1/5 5/23/5 1/24/5
f 1/24/5 5/23/5 6/22/5
f 1/24/5 6/22/5 3/20/5
f 13/21/5 7/23/5 16/19/5
f 7/23/5 13/21/5 8/22/5
f 2/25/6 11/3/6 10/1/6
f 11/3/6 2/25/6 4/26/6

