# Created by Kenney (www.kenney.nl)

mtllib detail_010.mtl

g detail_010

v 0 0.04774169 0.04774169
v -0.05 0.04774169 0.04774169
v 0 0.3322583 0.04774169
v -0.05 0.1661292 0.04774169
v -0.05 0.2138708 0.04774169
v -0.05 0.3322583 0.04774169
v 0 0 0.3125
v 0 0 0
v -0.05 0 0.3125
v -0.05 0 0
v -0.05 0.38 0
v -0.05 0.04774169 0.2647583
v -0.05 0.1661292 0.2647583
v -0.05 0.2138708 0.2647583
v -0.05 0.3322583 0.2647583
v -0.05 0.38 0.3125
v 0 0.3322583 0.2647583
v 0 0.38 0
v 0 0.38 0.3125
v 0 0.04774169 0.2647583

vn 0 0 1
vn 0 -1 0
vn -1 0 0
vn 1 0 0
vn 0 0 -1
vn 0 1 0

vt 0 1.879594
vt -1.968504 1.879594
vt 0 13.08104
vt -1.968504 6.540518
vt -1.968504 8.420112
vt -1.968504 13.08104
vt 0 12.30315
vt 0 0
vt -1.968504 12.30315
vt -1.968504 0
vt 0 14.96063
vt 1.879594 1.879594
vt 12.30315 0
vt 10.42356 1.879594
vt 10.42356 6.540518
vt 10.42356 8.420112
vt 10.42356 13.08104
vt 1.879594 13.08104
vt 12.30315 14.96063
vt 1.879594 6.540518
vt 1.879594 8.420112
vt 0 10.42356
vt -1.968504 10.42356
vt -1.879594 13.08104
vt -12.30315 14.96063
vt -10.42356 13.08104
vt -10.42356 1.879594
vt -1.879594 1.879594
vt -12.30315 0
vt 1.968504 0
vt 1.968504 14.96063
vt 1.968504 1.879594
vt 1.968504 6.540518
vt 1.968504 8.420112
vt 1.968504 13.08104
vt 1.968504 12.30315
vt 1.968504 10.42356
vt -1.968504 14.96063

usemtl metal

f 3/3/1 2/2/1 1/1/1
f 2/2/1 3/3/1 4/4/1
f 4/4/1 3/3/1 5/5/1
f 5/5/1 3/3/1 6/6/1
f 9/9/2 8/8/2 7/7/2
f 8/8/2 9/9/2 10/10/2
f 10/8/3 2/12/3 11/11/3
f 2/12/3 10/8/3 9/13/3
f 2/12/3 9/13/3 12/14/3
f 12/14/3 9/13/3 13/15/3
f 13/15/3 9/13/3 14/16/3
f 14/16/3 9/13/3 15/17/3
f 6/18/3 11/11/3 2/12/3
f 11/11/3 6/18/3 16/19/3
f 16/19/3 6/18/3 15/17/3
f 16/19/3 15/17/3 9/13/3
f 6/18/3 2/12/3 4/20/3
f 6/18/3 4/20/3 5/21/3
f 15/23/2 3/1/2 17/22/2
f 3/1/2 15/23/2 6/2/2
f 18/11/4 3/24/4 8/8/4
f 3/24/4 18/11/4 19/25/4
f 3/24/4 19/25/4 17/26/4
f 17/26/4 19/25/4 20/27/4
f 1/28/4 8/8/4 3/24/4
f 8/8/4 1/28/4 7/29/4
f 7/29/4 1/28/4 20/27/4
f 7/29/4 20/27/4 19/25/4
f 11/31/5 8/8/5 10/30/5
f 8/8/5 11/31/5 18/11/5
f 13/33/5 20/1/5 12/32/5
f 20/1/5 13/33/5 17/3/5
f 17/3/5 13/33/5 14/34/5
f 17/3/5 14/34/5 15/35/5
f 11/30/6 19/7/6 18/8/6
f 19/7/6 11/30/6 16/36/6
f 2/32/6 20/22/6 1/1/6
f 20/22/6 2/32/6 12/37/6
f 19/11/1 9/10/1 7/8/1
f 9/10/1 19/11/1 16/38/1

