# Created by Kenney (www.kenney.nl)

mtllib detail_024.mtl

g detail_024

v 0 0.19 0.3125
v -0.05 0.19 0.3125
v 0 0.2304405 0.3071759
v -0.05 0.2304405 0.3071759
v 0 0.2905105 0.2142798
v 0 0.3021049 0.1862884
v -0.05 0.2905105 0.2142798
v -0.05 0.3021049 0.1862884
v 0 0 0.3125
v 0 0 0
v -0.05 0 0.3125
v -0.05 0 0
v -0.05 0.1873883 0.2726534
v 0 0.1873883 0.2726534
v -0.05 0.2200384 0.2683549
v 0 0.2200384 0.2683549
v 0 0.2200384 0.0441451
v -0.05 0.2200384 0.0441451
v 0 0.2480298 0.05573949
v -0.05 0.2480298 0.05573949
v 0 0.3004854 0.04576457
v 0 0.3253165 0.078125
v -0.05 0.3004854 0.04576457
v -0.05 0.3253165 0.078125
v -0.05 0.268125 0.02093353
v 0 0.268125 0.02093353
v 0 0.1873883 0.03984663
v 0 0.2720665 0.07418351
v 0 0.2905105 0.09822024
v 0 0.3409259 0.1158095
v 0 0.3021049 0.1262116
v 0 0.34625 0.15625
v 0 0.3060595 0.15625
v 0 0.3409259 0.1966905
v 0 0.3253165 0.234375
v 0 0.2720665 0.2383165
v 0 0.3004854 0.2667354
v 0 0.2480298 0.2567605
v 0 0.268125 0.2915665
v 0 0.03984663 0.2726534
v 0 0.03984663 0.03984663
v 0 0.2304405 0.00532409
v 0 0.19 0
v -0.05 0.2304405 0.00532409
v -0.05 0.34625 0.15625
v -0.05 0.3409259 0.1966905
v -0.05 0.3253165 0.234375
v -0.05 0.3004854 0.2667354
v -0.05 0.3409259 0.1158095
v -0.05 0.2905105 0.09822024
v -0.05 0.2720665 0.07418351
v -0.05 0.3021049 0.1262116
v -0.05 0.03984663 0.03984663
v -0.05 0.03984663 0.2726534
v -0.05 0.268125 0.2915665
v -0.05 0.2480298 0.2567605
v -0.05 0.2720665 0.2383165
v -0.05 0.3060595 0.15625
v -0.05 0.19 0
v -0.05 0.1873883 0.03984663

vn 0 0.1305262 0.9914449
vn 0 0.258819 0.9659258
vn 0 -0.8660254 -0.5
vn 0 -0.9659258 -0.258819
vn 0 -1 0
vn 0 -0.1305262 -0.9914449
vn 0 -0.258819 -0.9659258
vn 0 -0.258819 0.9659258
vn 0 -0.5 0.8660254
vn 0 0.7071068 -0.7071068
vn 0 0.8660254 -0.5
vn 0 0.5 -0.8660254
vn 1 0 0
vn 0 0.258819 -0.9659258
vn 0 1 0
vn 0 0.9659258 0.258819
vn 0 0 1
vn 0 0.8660254 0.5
vn 0 0.7071068 0.7071068
vn 0 0.9659258 -0.258819
vn 0 -0.8660254 0.5
vn 0 -0.7071068 0.7071068
vn 0 -0.9659258 0.258819
vn 0 0.5 0.8660254
vn 0 -0.5 -0.8660254
vn 0 -0.7071068 -0.7071068
vn 0 0 -1
vn 0 -0.1305262 0.9914449
vn 0 0.1305262 -0.9914449
vn -1 0 0

vt 0 5.810437
vt -1.968504 5.810437
vt 0 7.41632
vt -1.968504 7.41632
vt -1.406907E-26 -3.417131
vt -1.223122E-26 -2.224312
vt 1.968504 -3.417131
vt 1.968504 -2.224312
vt 0 12.30315
vt 0 0
vt -1.968504 12.30315
vt -1.968504 0
vt 1.968504 5.913259
vt -1.790173E-26 5.913259
vt 1.968504 7.209788
vt -1.76195E-26 7.209788
vt 0 8.668606
vt -1.968504 8.668606
vt 0 9.861425
vt -1.968504 9.861425
vt 0 8.631158
vt 0 10.23704
vt 1.968504 8.631158
vt 1.968504 10.23704
vt 1.968504 8.876432
vt 0 8.876432
vt 1.968504 10.48232
vt 0 10.48232
vt -0.8241548 10.5561
vt -1.568765 7.377493
vt -1.801755 11.83014
vt -1.737996 8.66293
vt -2.194468 9.764952
vt -3.075788 12.80774
vt -2.920611 10.71128
vt -3.866938 11.43742
vt -4.55943 13.42228
vt -4.96896 11.89389
vt -6.151575 13.63189
vt -6.151575 12.04959
vt -7.33419 11.89389
vt -7.74372 13.42228
vt -8.436212 11.43742
vt -9.227363 12.80774
vt -9.382539 10.71128
vt -10.5014 11.83014
vt -10.10868 9.764952
vt -10.56515 8.66293
vt -11.479 10.5561
vt -10.73438 7.377493
vt -10.73438 1.568765
vt -12.30315 0
vt -1.568765 1.568765
vt -0.2096099 9.07246
vt 0 7.480315
vt -12.09354 9.072459
vt -12.30315 7.480315
vt 1.968504 8.462074
vt 0 8.462074
vt 1.968504 10.06796
vt 0 10.06796
vt 0 -4.319629
vt 0 -5.925512
vt -1.968504 -4.319629
vt -1.968504 -5.925512
vt -1.968504 7.480315
vt 0 0.4762965
vt 0 -1.129587
vt -1.968504 0.4762965
vt -1.968504 -1.129587
vt 0 -2.01778
vt 0 -3.623663
vt -1.968504 -2.01778
vt -1.968504 -3.623663
vt 0 7.742965
vt 0 9.348848
vt 1.968504 7.742965
vt 1.968504 9.348848
vt -5.539555E-17 10.03051
vt -4.1839E-17 8.837689
vt -1.968504 10.03051
vt -1.968504 8.837689
vt -8.286732E-27 9.142317
vt -6.448891E-27 7.949497
vt -1.968504 9.142317
vt -1.968504 7.949497
vt 3.49556E-31 1.568765
vt 3.49556E-31 10.73438
vt 1.968504 1.568765
vt 1.968504 10.73438
vt 0 3.753863
vt -1.968504 3.753863
vt 0 5.359746
vt -1.968504 5.359746
vt 1.968504 1.593282
vt -1.685824E-26 1.593282
vt 1.968504 2.786101
vt -1.564725E-26 2.786101
vt 1.564725E-26 -0.923055
vt 1.406907E-26 0.2697647
vt 1.968504 -0.923055
vt 1.968504 0.2697647
vt -3.571957E-27 9.082965
vt -1.968504 9.082965
vt -4.753907E-27 10.27578
vt -1.968504 10.27578
vt -1.223122E-26 -5.71898
vt -1.025898E-26 -4.52616
vt 1.968504 -5.71898
vt 1.968504 -4.52616
vt 1.968504 0
vt 1.968504 7.480315
vt 0 7.671734
vt 0 6.478914
vt -1.968504 7.671734
vt -1.968504 6.478914
vt 0 6.272383
vt 0 7.878266
vt 1.968504 6.272383
vt 1.968504 7.878266
vt 0 1.38675
vt -1.968504 1.38675
vt 0 2.992633
vt -1.968504 2.992633
vt 0 7.519142
vt -1.968504 7.519142
vt 0 8.815671
vt -1.968504 8.815671
vt 1.968504 3.960394
vt 1.784757E-26 3.960394
vt 1.968504 5.153214
vt 1.707646E-26 5.153214
vt 1.968504 7.41632
vt 1.968504 9.022203
vt 0 9.022203
vt 0 1.568765
vt 1.968504 7.377493
vt 0 7.377493
vt 1.568765 1.568765
vt 12.30315 0
vt 0.2096099 9.07246
vt 0.8241548 10.5561
vt 10.73438 1.568765
vt 10.73438 7.377493
vt 11.479 10.5561
vt 12.09354 9.072459
vt 12.30315 7.480315
vt 1.568765 7.377493
vt 1.801755 11.83014
vt 1.737996 8.66293
vt 2.194468 9.764952
vt 3.075788 12.80774
vt 2.920611 10.71128
vt 3.866938 11.43742
vt 4.55943 13.42228
vt 4.96896 11.89389
vt 6.151575 13.63189
vt 6.151575 12.04959
vt 7.33419 11.89389
vt 7.74372 13.42228
vt 8.436212 11.43742
vt 9.227363 12.80774
vt 9.382539 10.71128
vt 10.5014 11.83014
vt 10.10868 9.764952
vt 10.56515 8.66293
vt -1.968504 1.568765
vt -1.968504 7.377493

usemtl metal

f 3/3/2 2/2/1 1/1/1
f 2/2/1 3/3/2 4/4/2
f 7/7/3 6/6/4 5/5/3
f 6/6/4 7/7/3 8/8/4
f 11/11/5 10/10/5 9/9/5
f 10/10/5 11/11/5 12/12/5
f 15/15/7 14/14/6 13/13/6
f 14/14/6 15/15/7 16/16/7
f 19/19/9 18/18/8 17/17/8
f 18/18/8 19/19/9 20/20/9
f 23/23/10 22/22/11 21/21/10
f 22/22/11 23/23/10 24/24/11
f 23/27/10 26/26/12 25/25/12
f 26/26/12 23/27/10 21/28/10
f 21/31/13 27/30/13 26/29/13
f 27/30/13 21/31/13 17/32/13
f 17/32/13 21/31/13 19/33/13
f 19/33/13 21/31/13 22/34/13
f 19/33/13 22/34/13 28/35/13
f 28/35/13 22/34/13 29/36/13
f 29/36/13 22/34/13 30/37/13
f 29/36/13 30/37/13 31/38/13
f 31/38/13 30/37/13 32/39/13
f 31/38/13 32/39/13 33/40/13
f 33/40/13 32/39/13 6/41/13
f 6/41/13 32/39/13 34/42/13
f 6/41/13 34/42/13 5/43/13
f 5/43/13 34/42/13 35/44/13
f 5/43/13 35/44/13 36/45/13
f 36/45/13 35/44/13 37/46/13
f 36/45/13 37/46/13 38/47/13
f 38/47/13 37/46/13 16/48/13
f 16/48/13 37/46/13 39/49/13
f 16/48/13 39/49/13 14/50/13
f 14/50/13 39/49/13 40/51/13
f 9/52/13 40/51/13 39/49/13
f 9/52/13 41/53/13 40/51/13
f 10/10/13 41/53/13 9/52/13
f 10/10/13 42/54/13 41/53/13
f 42/54/13 10/10/13 43/55/13
f 41/53/13 42/54/13 26/29/13
f 41/53/13 26/29/13 27/30/13
f 9/52/13 39/49/13 3/56/13
f 9/52/13 3/56/13 1/57/13
f 25/60/12 42/59/14 44/58/14
f 42/59/14 25/60/12 26/61/12
f 45/64/15 34/63/16 32/62/15
f 34/63/16 45/64/15 46/65/16
f 1/55/17 11/12/17 9/10/17
f 11/12/17 1/55/17 2/66/17
f 47/69/18 37/68/19 35/67/18
f 37/68/19 47/69/18 48/70/19
f 46/73/16 35/72/18 34/71/16
f 35/72/18 46/73/16 47/74/18
f 24/77/11 30/76/20 22/75/11
f 30/76/20 24/77/11 49/78/20
f 50/81/21 28/80/22 29/79/21
f 28/80/22 50/81/21 51/82/22
f 52/85/23 29/84/21 31/83/23
f 29/84/21 52/85/23 50/86/21
f 53/89/15 40/88/15 41/87/15
f 40/88/15 53/89/15 54/90/15
f 39/93/24 4/92/2 3/91/2
f 4/92/2 39/93/24 55/94/24
f 57/97/26 38/96/25 56/95/25
f 38/96/25 57/97/26 36/98/26
f 57/101/26 5/100/3 36/99/26
f 5/100/3 57/101/26 7/102/3
f 28/105/22 20/104/9 19/103/9
f 20/104/9 28/105/22 51/106/22
f 8/109/4 33/108/5 6/107/4
f 33/108/5 8/109/4 58/110/5
f 59/112/27 10/10/27 12/111/27
f 10/10/27 59/112/27 43/55/27
f 58/115/5 31/114/23 33/113/5
f 31/114/23 58/115/5 52/116/23
f 49/119/20 32/118/15 30/117/20
f 32/118/15 49/119/20 45/120/15
f 37/123/19 55/122/24 39/121/24
f 55/122/24 37/123/19 48/124/19
f 17/127/8 60/126/28 27/125/28
f 60/126/28 17/127/8 18/128/8
f 56/131/25 16/130/7 15/129/7
f 16/130/7 56/131/25 38/132/25
f 44/134/14 43/3/29 59/133/29
f 43/3/29 44/134/14 42/135/14
f 13/137/27 40/136/27 54/89/27
f 40/136/27 13/137/27 14/138/27
f 12/10/30 53/139/30 59/55/30
f 53/139/30 12/10/30 11/140/30
f 59/55/30 53/139/30 44/141/30
f 44/141/30 53/139/30 25/142/30
f 53/139/30 11/140/30 54/143/30
f 54/143/30 11/140/30 13/144/30
f 13/144/30 11/140/30 55/145/30
f 55/145/30 11/140/30 4/146/30
f 4/146/30 11/140/30 2/147/30
f 60/148/30 25/142/30 53/139/30
f 25/142/30 60/148/30 23/149/30
f 23/149/30 60/148/30 18/150/30
f 23/149/30 18/150/30 20/151/30
f 23/149/30 20/151/30 24/152/30
f 24/152/30 20/151/30 51/153/30
f 24/152/30 51/153/30 50/154/30
f 24/152/30 50/154/30 49/155/30
f 49/155/30 50/154/30 52/156/30
f 49/155/30 52/156/30 45/157/30
f 45/157/30 52/156/30 58/158/30
f 45/157/30 58/158/30 8/159/30
f 45/157/30 8/159/30 46/160/30
f 46/160/30 8/159/30 7/161/30
f 46/160/30 7/161/30 47/162/30
f 47/162/30 7/161/30 57/163/30
f 47/162/30 57/163/30 48/164/30
f 48/164/30 57/163/30 56/165/30
f 48/164/30 56/165/30 15/166/30
f 48/164/30 15/166/30 55/145/30
f 55/145/30 15/166/30 13/144/30
f 27/138/17 53/167/17 41/136/17
f 53/167/17 27/138/17 60/168/17

