# Created by Kenney (www.kenney.nl)

mtllib detail_004.mtl

g detail_004

v 0 0.4457641 0.1957641
v 0 0.4457641 0.05423587
v -0.025 0.4457641 0.1957641
v -0.025 0.4457641 0.05423587
v 0 0.25 0.05423587
v 0 0.25 0.1957641
v -0.025 0.25 0.05423587
v -0.025 0.25 0.1957641
v 0 0 0
v 0 0.5 0
v 0 0.5 0.25
v 0 0 0.25
v -0.05 0 0.25
v -0.05 0.5 0.25
v -0.05 0 0
v -0.05 0.5 0

vn 0 -1 0
vn 0 1 0
vn 0 0 -1
vn 1 0 0
vn 0 0 1
vn -1 0 0

vt 0 7.707249
vt 0 2.135271
vt -0.984252 7.707249
vt -0.984252 2.135271
vt 0.984252 2.135271
vt 0.984252 7.707249
vt 0.984252 9.84252
vt 0 9.84252
vt 0.984252 17.54977
vt 0 17.54977
vt 0 0
vt -2.135271 17.54977
vt 0 19.68504
vt -9.84252 19.68504
vt -7.707249 17.54977
vt -7.707249 9.84252
vt -2.135271 9.84252
vt -9.84252 0
vt -1.968504 0
vt -1.968504 19.68504
vt -1.968504 9.84252
vt 9.84252 0
vt 9.84252 19.68504
vt -0.984252 9.84252
vt -0.984252 17.54977
vt 1.968504 0
vt 1.968504 19.68504
vt 1.968504 9.84252

usemtl wood

f 3/3/1 2/2/1 1/1/1
f 2/2/1 3/3/1 4/4/1
f 7/5/2 6/1/2 5/2/2
f 6/1/2 7/5/2 8/6/2
f 3/9/3 6/8/3 8/7/3
f 6/8/3 3/9/3 1/10/3
f 10/13/4 2/12/4 9/11/4
f 2/12/4 10/13/4 11/14/4
f 2/12/4 11/14/4 1/15/4
f 1/15/4 11/14/4 6/16/4
f 5/17/4 9/11/4 2/12/4
f 9/11/4 5/17/4 12/18/4
f 12/18/4 5/17/4 6/16/4
f 12/18/4 6/16/4 11/14/4
f 11/13/5 13/19/5 12/11/5
f 13/19/5 11/13/5 14/20/5
f 13/21/1 9/11/1 12/8/1
f 9/11/1 13/21/1 15/19/1
f 13/22/6 16/13/6 15/11/6
f 16/13/6 13/22/6 14/23/6
f 2/10/5 7/24/5 5/8/5
f 7/24/5 2/10/5 4/25/5
f 16/27/3 9/11/3 15/26/3
f 9/11/3 16/27/3 10/13/3
f 16/26/2 11/8/2 10/11/2
f 11/8/2 16/26/2 14/28/2

usemtl glass

f 3/15/4 7/17/4 4/12/4
f 7/17/4 3/15/4 8/16/4

