# Created by Kenney (www.kenney.nl)

mtllib detail_002.mtl

g detail_002

v 0 0 0
v 0.1 0 4.692424E-15
v 0 0.2 0
v 0.1 0.2 4.692424E-15
v 0.1 0.153033 0.159467
v 0.1 0.1649519 0.175
v 0.1 0.1724444 0.1930886
v 0.1 0.2 0.31
v 0.1 0.1375 0.1475481
v 0.1 0.1194114 0.1400556
v 0.1 0.1 0.1375
v 0.1 0.175 0.2125
v 0.1 0.1724444 0.2319114
v 0.1 0.1649519 0.25
v 0.1 0.153033 0.265533
v 0.1 0.1375 0.2774519
v 0.1 0.1194114 0.2849444
v 0.1 0.1 0.2875
v 0.1 0.08058857 0.1400556
v 0.1 0 0.31
v 0.1 0.08058857 0.2849444
v 0.1 0.0625 0.2774519
v 0.1 0.04696699 0.265533
v 0.1 0.03504809 0.25
v 0.1 0.02755556 0.2319114
v 0.1 0.025 0.2125
v 0.1 0.02755556 0.1930886
v 0.1 0.03504809 0.175
v 0.1 0.04696699 0.159467
v 0.1 0.0625 0.1475481
v -1.443823E-14 0.2 0.31
v -1.443823E-14 0 0.31

vn 0 0 -1
vn 1 0 0
vn 0 1 0
vn 0 0 1
vn -1 0 0
vn 0 -1 0

vt 0 0
vt -3.937008 0
vt 0 7.874016
vt -3.937008 7.874016
vt -1.375244E-15 0
vt -6.278228 6.024921
vt -1.375244E-15 7.874016
vt -6.889764 6.49417
vt -7.601912 6.789151
vt -12.20472 7.874016
vt -5.80898 5.413386
vt -5.513999 4.701237
vt -5.413386 3.937008
vt -8.366141 6.889764
vt -9.130371 6.789151
vt -9.84252 6.49417
vt -10.45406 6.024921
vt -10.9233 5.413386
vt -11.21828 4.701237
vt -11.3189 3.937008
vt -5.513999 3.172778
vt -12.20472 0
vt -11.21828 3.172778
vt -10.9233 2.46063
vt -10.45406 1.849094
vt -9.84252 1.379846
vt -9.130371 1.084865
vt -8.366141 0.984252
vt -7.601912 1.084865
vt -6.889764 1.379846
vt -6.278228 1.849094
vt -5.80898 2.46063
vt -3.937008 1.847411E-13
vt -3.937008 12.20472
vt 5.684342E-13 12.20472
vt 3.937008 0
vt 4.831691E-14 0
vt 3.937008 7.874016
vt 4.831691E-14 7.874016
vt 12.20472 0
vt 12.20472 7.874016
vt 3.937008 1.847411E-13
vt 3.937008 12.20472
vt -5.684342E-13 12.20472

usemtl metal

f 3/3/1 2/2/1 1/1/1
f 2/2/1 3/3/1 4/4/1
f 4/7/2 5/6/2 2/5/2
f 5/6/2 4/7/2 6/8/2
f 6/8/2 4/7/2 7/9/2
f 7/9/2 4/7/2 8/10/2
f 2/5/2 5/6/2 9/11/2
f 2/5/2 9/11/2 10/12/2
f 2/5/2 10/12/2 11/13/2
f 7/9/2 8/10/2 12/14/2
f 12/14/2 8/10/2 13/15/2
f 13/15/2 8/10/2 14/16/2
f 14/16/2 8/10/2 15/17/2
f 15/17/2 8/10/2 16/18/2
f 16/18/2 8/10/2 17/19/2
f 17/19/2 8/10/2 18/20/2
f 19/21/2 2/5/2 11/13/2
f 20/22/2 18/20/2 8/10/2
f 20/22/2 21/23/2 18/20/2
f 20/22/2 22/24/2 21/23/2
f 20/22/2 23/25/2 22/24/2
f 20/22/2 24/26/2 23/25/2
f 20/22/2 25/27/2 24/26/2
f 20/22/2 26/28/2 25/27/2
f 20/22/2 27/29/2 26/28/2
f 2/5/2 27/29/2 20/22/2
f 27/29/2 2/5/2 28/30/2
f 28/30/2 2/5/2 29/31/2
f 29/31/2 2/5/2 30/32/2
f 30/32/2 2/5/2 19/21/2
f 3/1/3 8/34/3 4/33/3
f 8/34/3 3/1/3 31/35/3
f 8/38/4 32/37/4 20/36/4
f 32/37/4 8/38/4 31/39/4
f 32/40/5 3/3/5 1/1/5
f 3/3/5 32/40/5 31/41/5
f 20/43/6 1/1/6 2/42/6
f 1/1/6 20/43/6 32/44/6

usemtl roof

f 10/12/2 19/21/2 11/13/2
f 19/21/2 10/12/2 9/11/2
f 19/21/2 9/11/2 30/32/2
f 30/32/2 9/11/2 5/6/2
f 30/32/2 5/6/2 29/31/2
f 29/31/2 5/6/2 6/8/2
f 29/31/2 6/8/2 28/30/2
f 28/30/2 6/8/2 7/9/2
f 28/30/2 7/9/2 27/29/2
f 27/29/2 7/9/2 12/14/2
f 27/29/2 12/14/2 26/28/2
f 26/28/2 12/14/2 13/15/2
f 26/28/2 13/15/2 25/27/2
f 25/27/2 13/15/2 14/16/2
f 25/27/2 14/16/2 24/26/2
f 24/26/2 14/16/2 15/17/2
f 24/26/2 15/17/2 23/25/2
f 23/25/2 15/17/2 16/18/2
f 23/25/2 16/18/2 22/24/2
f 22/24/2 16/18/2 17/19/2
f 22/24/2 17/19/2 21/23/2
f 21/23/2 17/19/2 18/20/2

