# Created by Kenney (www.kenney.nl)

mtllib detail_009.mtl

g detail_009

v -0.05 0.38 0
v -0.05 0.04774169 0.04774169
v -0.05 0 0
v -0.05 0 0.3125
v -0.05 0.04774169 0.2647583
v -0.05 0.1661292 0.2647583
v -0.05 0.2138708 0.2647583
v -0.05 0.3322583 0.2647583
v -0.05 0.3322583 0.04774169
v -0.05 0.38 0.3125
v -0.05 0.1661292 0.04774169
v -0.05 0.2138708 0.04774169
v 0 0 0.3125
v 0 0.38 0.3125
v 0 0.04774169 0.04774169
v 0 0.04774169 0.2647583
v 0 0.3322583 0.2647583
v 0 0.3322583 0.04774169
v 0 0.38 0
v 0 0 0

vn -1 0 0
vn 1 0 0
vn 0 0 1
vn 0 0 -1
vn 0 1 0
vn 0 -1 0

vt 0 14.96063
vt 1.879594 1.879594
vt 0 0
vt 12.30315 0
vt 10.42356 1.879594
vt 10.42356 6.540518
vt 10.42356 8.420112
vt 10.42356 13.08104
vt 1.879594 13.08104
vt 12.30315 14.96063
vt 1.879594 6.540518
vt 1.879594 8.420112
vt -1.968504 0
vt -1.968504 14.96063
vt 0 1.879594
vt 0 10.42356
vt 1.968504 1.879594
vt 1.968504 10.42356
vt -1.968504 10.42356
vt -1.968504 1.879594
vt 0 12.30315
vt 1.968504 0
vt 1.968504 12.30315
vt 1.968504 6.540518
vt 0 13.08104
vt 1.968504 8.420112
vt 1.968504 13.08104
vt 1.968504 14.96063
vt -1.968504 12.30315
vt -1.879594 13.08104
vt -12.30315 14.96063
vt -10.42356 13.08104
vt -10.42356 1.879594
vt -1.879594 1.879594
vt -12.30315 0
vt -1.968504 6.540518
vt -1.968504 8.420112
vt -1.968504 13.08104

usemtl wood

f 3/3/1 2/2/1 1/1/1
f 2/2/1 3/3/1 4/4/1
f 2/2/1 4/4/1 5/5/1
f 5/5/1 4/4/1 6/6/1
f 6/6/1 4/4/1 7/7/1
f 7/7/1 4/4/1 8/8/1
f 9/9/1 1/1/1 2/2/1
f 1/1/1 9/9/1 10/10/1
f 10/10/1 9/9/1 8/8/1
f 10/10/1 8/8/1 4/4/1
f 9/9/1 2/2/1 11/11/1
f 9/9/1 11/11/1 12/12/1
f 1/1/2 2/2/2 3/3/2
f 4/4/2 3/3/2 2/2/2
f 5/5/2 4/4/2 2/2/2
f 6/6/2 4/4/2 5/5/2
f 7/7/2 4/4/2 6/6/2
f 8/8/2 4/4/2 7/7/2
f 2/2/2 1/1/2 9/9/2
f 10/10/2 9/9/2 1/1/2
f 8/8/2 9/9/2 10/10/2
f 4/4/2 8/8/2 10/10/2
f 11/11/2 2/2/2 9/9/2
f 12/12/2 11/11/2 9/9/2
f 14/1/3 4/13/3 13/3/3
f 4/13/3 14/1/3 10/14/3
f 13/3/4 4/13/4 14/1/4
f 10/14/4 14/1/4 4/13/4
f 2/17/5 16/16/5 15/15/5
f 16/16/5 2/17/5 5/18/5
f 15/15/6 16/16/6 2/17/6
f 5/18/6 2/17/6 16/16/6
f 8/19/6 18/15/6 17/16/6
f 18/15/6 8/19/6 9/20/6
f 17/16/5 18/15/5 8/19/5
f 9/20/5 8/19/5 18/15/5
f 1/22/5 14/21/5 19/3/5
f 14/21/5 1/22/5 10/23/5
f 19/3/6 14/21/6 1/22/6
f 10/23/6 1/22/6 14/21/6
f 6/24/4 16/15/4 5/17/4
f 16/15/4 6/24/4 17/25/4
f 17/25/4 6/24/4 7/26/4
f 17/25/4 7/26/4 8/27/4
f 5/17/3 16/15/3 6/24/3
f 17/25/3 6/24/3 16/15/3
f 7/26/3 6/24/3 17/25/3
f 8/27/3 7/26/3 17/25/3
f 1/28/4 20/3/4 3/22/4
f 20/3/4 1/28/4 19/1/4
f 3/22/3 20/3/3 1/28/3
f 19/1/3 1/28/3 20/3/3
f 4/29/6 20/3/6 13/21/6
f 20/3/6 4/29/6 3/13/6
f 13/21/5 20/3/5 4/29/5
f 3/13/5 4/29/5 20/3/5
f 19/1/2 18/30/2 20/3/2
f 18/30/2 19/1/2 14/31/2
f 18/30/2 14/31/2 17/32/2
f 17/32/2 14/31/2 16/33/2
f 15/34/2 20/3/2 18/30/2
f 20/3/2 15/34/2 13/35/2
f 13/35/2 15/34/2 16/33/2
f 13/35/2 16/33/2 14/31/2
f 20/3/1 18/30/1 19/1/1
f 14/31/1 19/1/1 18/30/1
f 17/32/1 14/31/1 18/30/1
f 16/33/1 14/31/1 17/32/1
f 18/30/1 20/3/1 15/34/1
f 13/35/1 15/34/1 20/3/1
f 16/33/1 15/34/1 13/35/1
f 14/31/1 16/33/1 13/35/1
f 18/25/3 2/20/3 15/15/3
f 2/20/3 18/25/3 11/36/3
f 11/36/3 18/25/3 12/37/3
f 12/37/3 18/25/3 9/38/3
f 15/15/4 2/20/4 18/25/4
f 11/36/4 18/25/4 2/20/4
f 12/37/4 18/25/4 11/36/4
f 9/38/4 18/25/4 12/37/4

