# Created by Kenney (www.kenney.nl)

mtllib detail_014.mtl

g detail_014

v -0.05 0 0
v 0 0 0
v -0.05 0.5 0
v 0 0.5 0
v 0 0.4522583 0.2647583
v 0 0.4522583 0.04774169
v -0.05 0.4522583 0.2647583
v -0.05 0.4522583 0.04774169
v 0 0.04774169 0.04774169
v 0 0.04774169 0.2647583
v -0.05 0.04774169 0.04774169
v -0.05 0.04774169 0.2647583
v -0.05 0.1661292 0.04774169
v -0.05 0.2138708 0.04774169
v 0 0 0.3125
v -0.05 0 0.3125
v 0 0.5 0.3125
v -0.05 0.5 0.3125
v -0.05 0.1661292 0.2647583
v -0.05 0.2138708 0.2647583

vn 0 0 -1
vn 0 0 1
vn 0 -1 0
vn 0 1 0
vn -1 0 0
vn 1 0 0

vt 1.968504 0
vt 0 0
vt 1.968504 19.68504
vt 0 19.68504
vt 0 10.42356
vt 0 1.879594
vt -1.968504 10.42356
vt -1.968504 1.879594
vt 1.968504 1.879594
vt 1.968504 10.42356
vt 0 17.80544
vt -1.968504 6.540518
vt -1.968504 8.420112
vt -1.968504 17.80544
vt 0 12.30315
vt -1.968504 12.30315
vt -1.968504 0
vt -1.968504 19.68504
vt 1.968504 12.30315
vt 1.968504 6.540518
vt 1.968504 8.420112
vt 1.968504 17.80544
vt 1.879594 1.879594
vt 0 -7.105427E-16
vt 12.30315 -7.105427E-16
vt 10.42356 1.879594
vt 10.42356 6.540518
vt 10.42356 8.420112
vt 10.42356 17.80544
vt 1.879594 17.80544
vt 12.30315 19.68504
vt 1.879594 6.540518
vt 1.879594 8.420112
vt -1.879594 17.80544
vt -12.30315 19.68504
vt -10.42356 17.80544
vt -10.42356 1.879594
vt -1.879594 1.879594
vt -12.30315 0

usemtl wood

f 3/3/1 2/2/1 1/1/1
f 2/2/1 3/3/1 4/4/1
f 1/1/2 2/2/2 3/3/2
f 4/4/2 3/3/2 2/2/2
f 7/7/3 6/6/3 5/5/3
f 6/6/3 7/7/3 8/8/3
f 5/5/4 6/6/4 7/7/4
f 8/8/4 7/7/4 6/6/4
f 11/9/4 10/5/4 9/6/4
f 10/5/4 11/9/4 12/10/4
f 9/6/3 10/5/3 11/9/3
f 12/10/3 11/9/3 10/5/3
f 6/11/2 11/8/2 9/6/2
f 11/8/2 6/11/2 13/12/2
f 13/12/2 6/11/2 14/13/2
f 14/13/2 6/11/2 8/14/2
f 9/6/1 11/8/1 6/11/1
f 13/12/1 6/11/1 11/8/1
f 14/13/1 6/11/1 13/12/1
f 8/14/1 6/11/1 14/13/1
f 16/16/3 2/2/3 15/15/3
f 2/2/3 16/16/3 1/17/3
f 15/15/4 2/2/4 16/16/4
f 1/17/4 16/16/4 2/2/4
f 17/4/2 16/17/2 15/2/2
f 16/17/2 17/4/2 18/18/2
f 15/2/1 16/17/1 17/4/1
f 18/18/1 17/4/1 16/17/1
f 3/1/4 17/15/4 4/2/4
f 17/15/4 3/1/4 18/19/4
f 4/2/3 17/15/3 3/1/3
f 18/19/3 3/1/3 17/15/3
f 19/20/1 10/6/1 12/9/1
f 10/6/1 19/20/1 5/11/1
f 5/11/1 19/20/1 20/21/1
f 5/11/1 20/21/1 7/22/1
f 12/9/2 10/6/2 19/20/2
f 5/11/2 19/20/2 10/6/2
f 20/21/2 19/20/2 5/11/2
f 7/22/2 20/21/2 5/11/2
f 1/24/5 11/23/5 3/4/5
f 11/23/5 1/24/5 16/25/5
f 11/23/5 16/25/5 12/26/5
f 12/26/5 16/25/5 19/27/5
f 19/27/5 16/25/5 20/28/5
f 20/28/5 16/25/5 7/29/5
f 8/30/5 3/4/5 11/23/5
f 3/4/5 8/30/5 18/31/5
f 18/31/5 8/30/5 7/29/5
f 18/31/5 7/29/5 16/25/5
f 8/30/5 11/23/5 13/32/5
f 8/30/5 13/32/5 14/33/5
f 3/4/6 11/23/6 1/24/6
f 16/25/6 1/24/6 11/23/6
f 12/26/6 16/25/6 11/23/6
f 19/27/6 16/25/6 12/26/6
f 20/28/6 16/25/6 19/27/6
f 7/29/6 16/25/6 20/28/6
f 11/23/6 3/4/6 8/30/6
f 18/31/6 8/30/6 3/4/6
f 7/29/6 8/30/6 18/31/6
f 16/25/6 7/29/6 18/31/6
f 13/32/6 11/23/6 8/30/6
f 14/33/6 13/32/6 8/30/6
f 4/4/6 6/34/6 2/2/6
f 6/34/6 4/4/6 17/35/6
f 6/34/6 17/35/6 5/36/6
f 5/36/6 17/35/6 10/37/6
f 9/38/6 2/2/6 6/34/6
f 2/2/6 9/38/6 15/39/6
f 15/39/6 9/38/6 10/37/6
f 15/39/6 10/37/6 17/35/6
f 2/2/5 6/34/5 4/4/5
f 17/35/5 4/4/5 6/34/5
f 5/36/5 17/35/5 6/34/5
f 10/37/5 17/35/5 5/36/5
f 6/34/5 2/2/5 9/38/5
f 15/39/5 9/38/5 2/2/5
f 10/37/5 9/38/5 15/39/5
f 17/35/5 10/37/5 15/39/5

