# Created by Kenney (www.kenney.nl)

mtllib detail_005.mtl

g detail_005

v 0 0.5 0
v 0 0.5 0.25
v -0.05 0.5 0
v -0.05 0.5 0.25
v 0 0.4457641 0.1957641
v 0 0.4457641 0.05423587
v -0.025 0.4457641 0.1957641
v -0.025 0.4457641 0.05423587
v 0 0 0.25
v 0 0 0
v -0.05 0 0.25
v -0.05 0 0
v 0 0.05423587 0.05423587
v 0 0.05423587 0.1957641
v -0.025 0.05423587 0.05423587
v -0.025 0.05423587 0.1957641

vn 0 1 0
vn 0 -1 0
vn 0 0 1
vn 1 0 0
vn 0 0 -1
vn -1 0 0

vt 0 0
vt 0 9.84252
vt 1.968504 0
vt 1.968504 9.84252
vt 0 7.707249
vt 0 2.135271
vt -0.984252 7.707249
vt -0.984252 2.135271
vt -1.968504 9.84252
vt -1.968504 0
vt 0.984252 2.135271
vt 0.984252 7.707249
vt 0 19.68504
vt -1.968504 19.68504
vt -2.135271 17.54977
vt -9.84252 19.68504
vt -7.707249 17.54977
vt -7.707249 2.135271
vt -2.135271 2.135271
vt -9.84252 0
vt 0.984252 17.54977
vt 0 17.54977
vt 1.968504 19.68504
vt -0.984252 17.54977
vt 9.84252 0
vt 9.84252 19.68504

usemtl wood

f 3/3/1 2/2/1 1/1/1
f 2/2/1 3/3/1 4/4/1
f 7/7/2 6/6/2 5/5/2
f 6/6/2 7/7/2 8/8/2
f 11/9/2 10/1/2 9/2/2
f 10/1/2 11/9/2 12/10/2
f 15/11/1 14/5/1 13/6/1
f 14/5/1 15/11/1 16/12/1
f 2/13/3 11/10/3 9/1/3
f 11/10/3 2/13/3 4/14/3
f 1/13/4 6/15/4 10/1/4
f 6/15/4 1/13/4 2/16/4
f 6/15/4 2/16/4 5/17/4
f 5/17/4 2/16/4 14/18/4
f 13/19/4 10/1/4 6/15/4
f 10/1/4 13/19/4 9/20/4
f 9/20/4 13/19/4 14/18/4
f 9/20/4 14/18/4 2/16/4
f 7/21/5 14/6/5 16/11/5
f 14/6/5 7/21/5 5/22/5
f 3/23/5 10/1/5 12/3/5
f 10/1/5 3/23/5 1/13/5
f 6/22/3 15/8/3 13/6/3
f 15/8/3 6/22/3 8/24/3
f 11/25/6 3/13/6 12/1/6
f 3/13/6 11/25/6 4/26/6

usemtl glass

f 7/17/4 15/19/4 8/15/4
f 15/19/4 7/17/4 16/18/4

