# Created by Kenney (www.kenney.nl)

mtllib detail_017.mtl

g detail_017

v 0 0.4522583 0.3272583
v 0 0.4522583 0.04774169
v -0.05 0.4522583 0.3272583
v -0.05 0.4522583 0.04774169
v -0.05 0.04774169 0.3272583
v 0 0.04774169 0.3272583
v -0.05 0.1661292 0.3272583
v -0.05 0.2138708 0.3272583
v 0 8.014827E-32 0
v 0 0.5 0
v 0 0.5 0.375
v 0 0.04774169 0.04774169
v 0 0 0.375
v -0.05 0 0.375
v -0.05 0.5 0.375
v -0.05 0.5 0
v -0.05 0.04774169 0.04774169
v -0.05 0.1661292 0.04774169
v -0.05 0.2138708 0.04774169
v -0.05 8.014827E-32 0

vn 0 -1 0
vn 0 0 -1
vn 1 0 0
vn 0 0 1
vn 0 1 0
vn -1 0 0

vt 0 12.88419
vt 0 1.879594
vt -1.968504 12.88419
vt -1.968504 1.879594
vt 1.968504 1.879594
vt 1.968504 6.540518
vt 0 17.80544
vt 1.968504 8.420112
vt 1.968504 17.80544
vt 0 3.155444E-30
vt -1.879594 17.80544
vt 0 19.68504
vt -14.76378 19.68504
vt -12.88419 17.80544
vt -12.88419 1.879594
vt -1.879594 1.879594
vt -14.76378 0
vt 0 0
vt -1.968504 0
vt -1.968504 19.68504
vt 0 14.76378
vt 1.968504 0
vt 1.968504 14.76378
vt 1.968504 12.88419
vt -1.968504 6.540518
vt -1.968504 8.420112
vt -1.968504 17.80544
vt 1.879594 1.879594
vt 0 -7.105427E-16
vt 14.76378 -7.105427E-16
vt 12.88419 1.879594
vt 12.88419 6.540518
vt 12.88419 8.420112
vt 12.88419 17.80544
vt 1.879594 17.80544
vt 14.76378 19.68504
vt 1.879594 6.540518
vt 1.879594 8.420112
vt -1.968504 14.76378
vt 1.968504 3.155444E-30
vt 1.968504 19.68504

usemtl metal

f 3/3/1 2/2/1 1/1/1
f 2/2/1 3/3/1 4/4/1
f 7/6/2 6/2/2 5/5/2
f 6/2/2 7/6/2 1/7/2
f 1/7/2 7/6/2 8/8/2
f 1/7/2 8/8/2 3/9/2
f 10/12/3 2/11/3 9/10/3
f 2/11/3 10/12/3 11/13/3
f 2/11/3 11/13/3 1/14/3
f 1/14/3 11/13/3 6/15/3
f 12/16/3 9/10/3 2/11/3
f 9/10/3 12/16/3 13/17/3
f 13/17/3 12/16/3 6/15/3
f 13/17/3 6/15/3 11/13/3
f 11/12/4 14/19/4 13/18/4
f 14/19/4 11/12/4 15/20/4
f 16/22/5 11/21/5 10/18/5
f 11/21/5 16/22/5 15/23/5
f 17/5/5 6/1/5 12/2/5
f 6/1/5 17/5/5 5/24/5
f 2/7/4 17/4/4 12/2/4
f 17/4/4 2/7/4 18/25/4
f 18/25/4 2/7/4 19/26/4
f 19/26/4 2/7/4 4/27/4
f 20/29/6 17/28/6 16/12/6
f 17/28/6 20/29/6 14/30/6
f 17/28/6 14/30/6 5/31/6
f 5/31/6 14/30/6 7/32/6
f 7/32/6 14/30/6 8/33/6
f 8/33/6 14/30/6 3/34/6
f 4/35/6 16/12/6 17/28/6
f 16/12/6 4/35/6 15/36/6
f 15/36/6 4/35/6 3/34/6
f 15/36/6 3/34/6 14/30/6
f 4/35/6 17/28/6 18/37/6
f 4/35/6 18/37/6 19/38/6
f 14/39/1 9/18/1 13/21/1
f 9/18/1 14/39/1 20/19/1
f 16/41/2 9/10/2 20/40/2
f 9/10/2 16/41/2 10/12/2

