# Created by Kenney (www.kenney.nl)

mtllib detail_018.mtl

g detail_018

v 0 0.04774169 0.04774169
v 0 0.04774169 0.7022583
v -0.05 0.04774169 0.04774169
v -0.05 0.04774169 0.7022583
v -0.05 0 0
v 0 0 0
v -0.05 0.38 0
v 0 0.38 0
v -0.05 0.1661292 0.7022583
v 0 0.3322583 0.7022583
v -0.05 0.2138708 0.7022583
v -0.05 0.3322583 0.7022583
v 0 0 0.75
v -0.05 0 0.75
v 0 0.3322583 0.04774169
v -0.05 0.3322583 0.04774169
v 0 0.38 0.75
v -0.05 0.38 0.75
v -0.05 0.1661292 0.04774169
v -0.05 0.2138708 0.04774169

vn 0 1 0
vn 0 0 -1
vn 0 -1 0
vn 0 0 1
vn 1 0 0
vn -1 0 0

vt 0 1.879594
vt 0 27.64796
vt 1.968504 1.879594
vt 1.968504 27.64796
vt 1.968504 0
vt 0 0
vt 1.968504 14.96063
vt 0 14.96063
vt 1.968504 6.540518
vt 0 13.08104
vt 1.968504 8.420112
vt 1.968504 13.08104
vt 0 29.52756
vt -1.968504 29.52756
vt -1.968504 0
vt -1.968504 27.64796
vt -1.968504 1.879594
vt -1.968504 14.96063
vt -1.968504 6.540518
vt -1.968504 8.420112
vt -1.968504 13.08104
vt 1.968504 29.52756
vt -1.879594 13.08104
vt -29.52756 14.96063
vt -27.64796 13.08104
vt -27.64796 1.879594
vt -1.879594 1.879594
vt -29.52756 0
vt -1.421085E-15 14.96063
vt 1.879594 1.879594
vt -1.421085E-15 0
vt 29.52756 0
vt 27.64796 1.879594
vt 27.64796 6.540518
vt 27.64796 8.420112
vt 27.64796 13.08104
vt 1.879594 13.08104
vt 29.52756 14.96063
vt 1.879594 6.540518
vt 1.879594 8.420112

usemtl wood

f 3/3/1 2/2/1 1/1/1
f 2/2/1 3/3/1 4/4/1
f 7/7/2 6/6/2 5/5/2
f 6/6/2 7/7/2 8/8/2
f 9/9/2 2/1/2 4/3/2
f 2/1/2 9/9/2 10/10/2
f 10/10/2 9/9/2 11/11/2
f 10/10/2 11/11/2 12/12/2
f 14/14/3 6/6/3 13/13/3
f 6/6/3 14/14/3 5/15/3
f 12/16/3 15/1/3 10/2/3
f 15/1/3 12/16/3 16/17/3
f 17/8/4 14/15/4 13/6/4
f 14/15/4 17/8/4 18/18/4
f 15/10/4 3/17/4 1/1/4
f 3/17/4 15/10/4 19/19/4
f 19/19/4 15/10/4 20/20/4
f 20/20/4 15/10/4 16/21/4
f 7/5/1 17/13/1 8/6/1
f 17/13/1 7/5/1 18/22/1
f 8/8/5 15/23/5 6/6/5
f 15/23/5 8/8/5 17/24/5
f 15/23/5 17/24/5 10/25/5
f 10/25/5 17/24/5 2/26/5
f 1/27/5 6/6/5 15/23/5
f 6/6/5 1/27/5 13/28/5
f 13/28/5 1/27/5 2/26/5
f 13/28/5 2/26/5 17/24/5
f 5/31/6 3/30/6 7/29/6
f 3/30/6 5/31/6 14/32/6
f 3/30/6 14/32/6 4/33/6
f 4/33/6 14/32/6 9/34/6
f 9/34/6 14/32/6 11/35/6
f 11/35/6 14/32/6 12/36/6
f 16/37/6 7/29/6 3/30/6
f 7/29/6 16/37/6 18/38/6
f 18/38/6 16/37/6 12/36/6
f 18/38/6 12/36/6 14/32/6
f 16/37/6 3/30/6 19/39/6
f 16/37/6 19/39/6 20/40/6

