# Created by Kenney (www.kenney.nl)

mtllib detail_012.mtl

g detail_012

v 0 0.3741333 0.1397583
v 0 0.3741333 0.04774169
v -0.05 0.3741333 0.1397583
v -0.05 0.3741333 0.04774169
v 0 0 0
v 0 0.421875 0
v 0 0.421875 0.1875
v 0 0.04774169 0.1397583
v 0 0.04774169 0.04774169
v 0 0 0.1875
v -0.05 0 0.1875
v -0.05 0.421875 0.1875
v -0.05 0.04774169 0.04774169
v -0.05 0.04774169 0.1397583
v -0.05 0.1661292 0.04774169
v -0.05 0.2138708 0.04774169
v -0.05 0.421875 0
v -0.05 0 0
v -0.05 0.1661292 0.1397583
v -0.05 0.2138708 0.1397583

vn 0 -1 0
vn 1 0 0
vn 0 0 1
vn 0 1 0
vn -1 0 0
vn 0 0 -1

vt 0 5.502295
vt 0 1.879594
vt -1.968504 5.502295
vt -1.968504 1.879594
vt 0 0
vt -1.879594 14.72966
vt 0 16.60925
vt -7.38189 16.60925
vt -5.502295 14.72966
vt -5.502295 1.879594
vt -1.879594 1.879594
vt -7.38189 0
vt -1.968504 0
vt -1.968504 16.60925
vt 1.968504 1.879594
vt 1.968504 5.502295
vt 0 14.72966
vt -1.968504 6.540518
vt -1.968504 8.420112
vt -1.968504 14.72966
vt 1.879594 1.879594
vt 0 -3.368499E-15
vt 7.38189 -3.368499E-15
vt 5.502295 1.879594
vt 5.502295 6.540518
vt 5.502295 8.420112
vt 5.502295 14.72966
vt 1.879594 14.72966
vt 7.38189 16.60925
vt 1.879594 6.540518
vt 1.879594 8.420112
vt 1.968504 6.540518
vt 1.968504 8.420112
vt 1.968504 14.72966
vt 1.968504 0
vt 1.968504 16.60925
vt 0 7.38189
vt 1.968504 7.38189
vt -1.968504 7.38189

usemtl metal

f 3/3/1 2/2/1 1/1/1
f 2/2/1 3/3/1 4/4/1
f 6/7/2 2/6/2 5/5/2
f 2/6/2 6/7/2 7/8/2
f 2/6/2 7/8/2 1/9/2
f 1/9/2 7/8/2 8/10/2
f 9/11/2 5/5/2 2/6/2
f 5/5/2 9/11/2 10/12/2
f 10/12/2 9/11/2 8/10/2
f 10/12/2 8/10/2 7/8/2
f 7/7/3 11/13/3 10/5/3
f 11/13/3 7/7/3 12/14/3
f 13/15/4 8/1/4 9/2/4
f 8/1/4 13/15/4 14/16/4
f 2/17/3 13/4/3 9/2/3
f 13/4/3 2/17/3 15/18/3
f 15/18/3 2/17/3 16/19/3
f 16/19/3 2/17/3 4/20/3
f 18/22/5 13/21/5 17/7/5
f 13/21/5 18/22/5 11/23/5
f 13/21/5 11/23/5 14/24/5
f 14/24/5 11/23/5 19/25/5
f 19/25/5 11/23/5 20/26/5
f 20/26/5 11/23/5 3/27/5
f 4/28/5 17/7/5 13/21/5
f 17/7/5 4/28/5 12/29/5
f 12/29/5 4/28/5 3/27/5
f 12/29/5 3/27/5 11/23/5
f 4/28/5 13/21/5 15/30/5
f 4/28/5 15/30/5 16/31/5
f 19/32/6 8/2/6 14/15/6
f 8/2/6 19/32/6 1/17/6
f 1/17/6 19/32/6 20/33/6
f 1/17/6 20/33/6 3/34/6
f 17/36/6 5/5/6 18/35/6
f 5/5/6 17/36/6 6/7/6
f 17/35/4 7/37/4 6/5/4
f 7/37/4 17/35/4 12/38/4
f 11/39/1 5/5/1 10/37/1
f 5/5/1 11/39/1 18/13/1

