# Created by Kenney (www.kenney.nl)

mtllib detail_019.mtl

g detail_019

v 0 0.38 0
v 0 0.38 0.75
v -0.05 0.38 0
v -0.05 0.38 0.75
v -0.05 0 0
v 0 0 0
v -0.05 0.04774169 0.04774169
v -0.05 0 0.75
v -0.05 0.04774169 0.7022583
v -0.05 0.1661292 0.7022583
v -0.05 0.2138708 0.7022583
v -0.05 0.3322583 0.7022583
v -0.05 0.3322583 0.04774169
v -0.05 0.1661292 0.04774169
v -0.05 0.2138708 0.04774169
v 0 0 0.75
v 0 0.04774169 0.04774169
v 0 0.04774169 0.7022583
v 0 0.3322583 0.7022583
v 0 0.3322583 0.04774169

vn 0 1 0
vn 0 0 -1
vn -1 0 0
vn 0 -1 0
vn 0 0 1
vn 1 0 0

vt 0 0
vt 0 29.52756
vt 1.968504 0
vt 1.968504 29.52756
vt 1.968504 14.96063
vt 0 14.96063
vt -1.421085E-15 14.96063
vt 1.879594 1.879594
vt -1.421085E-15 0
vt 29.52756 0
vt 27.64796 1.879594
vt 27.64796 6.540518
vt 27.64796 8.420112
vt 27.64796 13.08104
vt 1.879594 13.08104
vt 29.52756 14.96063
vt 1.879594 6.540518
vt 1.879594 8.420112
vt -1.968504 29.52756
vt -1.968504 0
vt -1.968504 14.96063
vt 0 1.879594
vt 0 27.64796
vt 1.968504 1.879594
vt 1.968504 27.64796
vt -1.968504 27.64796
vt -1.968504 1.879594
vt -1.879594 13.08104
vt -29.52756 14.96063
vt -27.64796 13.08104
vt -27.64796 1.879594
vt -1.879594 1.879594
vt -29.52756 0
vt 1.968504 6.540518
vt 0 13.08104
vt 1.968504 8.420112
vt 1.968504 13.08104
vt -1.968504 6.540518
vt -1.968504 8.420112
vt -1.968504 13.08104

usemtl metal

f 3/3/1 2/2/1 1/1/1
f 2/2/1 3/3/1 4/4/1
f 3/5/2 6/1/2 5/3/2
f 6/1/2 3/5/2 1/6/2
f 5/9/3 7/8/3 3/7/3
f 7/8/3 5/9/3 8/10/3
f 7/8/3 8/10/3 9/11/3
f 9/11/3 8/10/3 10/12/3
f 10/12/3 8/10/3 11/13/3
f 11/13/3 8/10/3 12/14/3
f 13/15/3 3/7/3 7/8/3
f 3/7/3 13/15/3 4/16/3
f 4/16/3 13/15/3 12/14/3
f 4/16/3 12/14/3 8/10/3
f 13/15/3 7/8/3 14/17/3
f 13/15/3 14/17/3 15/18/3
f 8/19/4 6/1/4 16/2/4
f 6/1/4 8/19/4 5/20/4
f 2/6/5 8/20/5 16/1/5
f 8/20/5 2/6/5 4/21/5
f 7/24/1 18/23/1 17/22/1
f 18/23/1 7/24/1 9/25/1
f 12/26/4 20/22/4 19/23/4
f 20/22/4 12/26/4 13/27/4
f 1/6/6 20/28/6 6/1/6
f 20/28/6 1/6/6 2/29/6
f 20/28/6 2/29/6 19/30/6
f 19/30/6 2/29/6 18/31/6
f 17/32/6 6/1/6 20/28/6
f 6/1/6 17/32/6 16/33/6
f 16/33/6 17/32/6 18/31/6
f 16/33/6 18/31/6 2/29/6
f 10/34/2 18/22/2 9/24/2
f 18/22/2 10/34/2 19/35/2
f 19/35/2 10/34/2 11/36/2
f 19/35/2 11/36/2 12/37/2
f 20/35/5 7/27/5 17/22/5
f 7/27/5 20/35/5 14/38/5
f 14/38/5 20/35/5 15/39/5
f 15/39/5 20/35/5 13/40/5

