# Created by Kenney (www.kenney.nl)

mtllib detail_028.mtl

g detail_028

v 0 0.625 0
v 0 0 0
v 0 0.625 0.03984663
v 0 0 0.03984663
v -0.05 1.804779E-16 0.2726534
v -0.05 0.625 0.2726534
v -0.05 0 0.3125
v -0.05 0.625 0.3125
v -0.05 0 0.03984663
v -0.05 1.804779E-16 0
v -0.05 0.625 0
v -0.05 0.625 0.03984663
v 0 0 0.2726534
v 0 0.625 0.2726534
v 0 0 0.3125
v 0 0.625 0.3125

vn 1 0 0
vn -1 0 0
vn 0 -1 0
vn 0 1 0
vn 0 0 -1
vn 0 0 1

vt 0 24.6063
vt 0 0
vt -1.568765 24.6063
vt -1.568765 0
vt 10.73438 3.552714E-15
vt 10.73438 24.6063
vt 12.30315 -3.552714E-15
vt 12.30315 24.6063
vt 0 1.568765
vt -1.968504 1.568765
vt -1.968504 -8.045677E-30
vt 4.440892E-14 -5.572482E-14
vt 4.440892E-14 1.568765
vt 1.968504 -5.572482E-14
vt 1.968504 1.568765
vt -8.774724E-29 2.43097E-14
vt -8.774724E-29 24.6063
vt 1.968504 3.141512E-14
vt 1.968504 24.6063
vt 0 12.30315
vt 0 10.73438
vt -1.968504 12.30315
vt -1.968504 10.73438
vt -1.609135E-29 3.552714E-15
vt -1.609135E-29 24.6063
vt 1.568765 -3.552714E-15
vt 1.568765 24.6063
vt -10.73438 24.6063
vt -10.73438 0
vt -12.30315 24.6063
vt -12.30315 0
vt 0 2.786241E-14
vt -1.968504 2.786241E-14
vt -1.968504 24.6063
vt 0 3.552714E-15
vt -1.968504 3.552714E-15
vt 4.440892E-14 10.73438
vt 4.440892E-14 12.30315
vt 1.968504 10.73438
vt 1.968504 12.30315
vt 1.968504 7.105427E-15

usemtl wood

f 3/3/1 2/2/1 1/1/1
f 2/2/1 3/3/1 4/4/1
f 7/7/2 6/6/2 5/5/2
f 6/6/2 7/7/2 8/8/2
f 9/10/3 2/2/3 4/9/3
f 2/2/3 9/10/3 10/11/3
f 11/14/4 3/13/4 1/12/4
f 3/13/4 11/14/4 12/15/4
f 5/18/5 14/17/5 13/16/5
f 14/17/5 5/18/5 6/19/5
f 7/22/3 13/21/3 15/20/3
f 13/21/3 7/22/3 5/23/3
f 9/26/2 11/25/2 10/24/2
f 11/25/2 9/26/2 12/27/2
f 16/30/1 13/29/1 14/28/1
f 13/29/1 16/30/1 15/31/1
f 16/1/6 7/33/6 15/32/6
f 7/33/6 16/1/6 8/34/6
f 3/1/6 9/36/6 4/35/6
f 9/36/6 3/1/6 12/34/6
f 6/39/4 16/38/4 14/37/4
f 16/38/4 6/39/4 8/40/4
f 10/41/5 1/1/5 2/2/5
f 1/1/5 10/41/5 11/19/5

