# Created by Kenney (www.kenney.nl)

mtllib detail_021.mtl

g detail_021

v 0 0.375 0.1749399
v -0.05 0.375 0.1749399
v 0 0.3944162 0.1600413
v -0.05 0.3944162 0.1600413
v -0.05 0.3509232 0.1332376
v 0 0.3509232 0.1332376
v -0.05 0.3603665 0.1259915
v 0 0.3603665 0.1259915
v -0.05 0.328125 0
v -0.05 0.04774169 0.04774169
v -0.05 0 0
v -0.05 0 0.1875
v -0.05 0.3523893 0.003194454
v -0.05 0.375 0.01256012
v -0.05 0.3944162 0.02745874
v -0.05 0.4093149 0.046875
v -0.05 0.3249958 0.04774169
v -0.05 0.04774169 0.1397583
v -0.05 0.3249958 0.1397583
v -0.05 0.4093149 0.140625
v -0.05 0.3523893 0.1843055
v -0.05 0.328125 0.1875
v -0.05 0.3399262 0.04970731
v -0.05 0.4186805 0.06948572
v -0.05 0.3509232 0.0542624
v -0.05 0.3603665 0.06150851
v -0.05 0.3676126 0.07095183
v -0.05 0.421875 0.09375
v -0.05 0.3721677 0.08194879
v -0.05 0.3737213 0.09375
v -0.05 0.3721677 0.1055512
v -0.05 0.4186805 0.1180143
v -0.05 0.3676126 0.1165482
v -0.05 0.3399262 0.1377927
v 0 0.4186805 0.06948572
v 0 0.421875 0.09375
v 0 0.3523893 0.1843055
v 0 0.4093149 0.140625
v 0 0.4186805 0.1180143
v 0 0.3249958 0.04774169
v 0 0.3399262 0.04970731
v 0 0.4093149 0.046875
v 0 0.3509232 0.0542624
v 0 0.3603665 0.06150851
v 0 0.3676126 0.07095183
v 0 0.3721677 0.08194879
v 0 0.3737213 0.09375
v 0 0.3721677 0.1055512
v 0 0.3676126 0.1165482
v 0 0.3399262 0.1377927
v 0 0.3249958 0.1397583
v 0 0.04774169 0.1397583
v 0 0 0.1875
v 0 0.04774169 0.04774169
v 0 0 0
v 0 0.3523893 0.003194454
v 0 0.328125 0
v 0 0.375 0.01256012
v 0 0.3944162 0.02745874
v 0 0.328125 0.1875

vn 0 0.5 0.8660254
vn 0 0.7071068 0.7071068
vn 0 -0.5 -0.8660254
vn 0 -0.7071068 -0.7071068
vn -1 0 0
vn 0 0.9659258 -0.258819
vn 0 1 0
vn 0 0.258819 0.9659258
vn 0 0.8660254 0.5
vn 0 0.9659258 0.258819
vn 1 0 0
vn 0 0 -1
vn 0 0.1305262 -0.9914449
vn 0 0.258819 -0.9659258
vn 0 0.7071068 -0.7071068
vn 0 0.8660254 -0.5
vn 0 -0.9659258 0.258819
vn 0 -0.8660254 0.5
vn 0 0 1
vn 0 -0.7071068 0.7071068
vn 0 -1 0
vn 0 -0.8660254 -0.5
vn 0 -0.9659258 -0.258819
vn 0 0.5 -0.8660254
vn 0 0.1305262 0.9914449
vn 0 -0.5 0.8660254
vn 0 -0.258819 0.9659258
vn 0 -0.1305262 -0.9914449
vn 0 -0.258819 -0.9659258
vn 0 -0.1305262 0.9914449

vt 0 7.520112
vt -1.968504 7.520112
vt 0 8.483643
vt -1.968504 8.483643
vt 1.968504 7.767565
vt 0 7.767565
vt 1.968504 8.236189
vt 0 8.236189
vt 0 12.91831
vt 1.879594 1.879594
vt 0 0
vt 7.38189 0
vt 0.1257659 13.87359
vt 0.4944929 14.76378
vt 1.081053 15.5282
vt 1.845472 16.11476
vt 1.879594 12.79511
vt 5.502295 1.879594
vt 5.502295 12.79511
vt 5.536417 16.11476
vt 6.300837 15.5282
vt 6.887397 14.76378
vt 7.256124 13.87359
vt 7.38189 12.91831
vt 1.956981 13.38292
vt 2.735658 16.48349
vt 2.136315 13.81587
vt 2.421595 14.18766
vt 2.793379 14.47294
vt 3.690945 16.60925
vt 3.226331 14.65227
vt 3.690945 14.71344
vt 4.155559 14.65227
vt 4.646232 16.48349
vt 4.588511 14.47294
vt 4.960295 14.18766
vt 5.245574 13.81587
vt 5.424909 13.38292
vt 0 4.863781
vt 0 5.827311
vt 1.968504 4.863781
vt 1.968504 5.827311
vt 0 10.04073
vt -1.968504 10.04073
vt 0 11.00426
vt -1.968504 11.00426
vt 0 5.417708
vt 0 4.454179
vt -1.968504 5.417708
vt -1.968504 4.454179
vt 0 -1.491426
vt 0 -2.454956
vt -1.968504 -1.491426
vt -1.968504 -2.454956
vt -1.879594 12.79511
vt -1.956981 13.38292
vt -1.845472 16.11476
vt -2.735658 16.48349
vt -2.136315 13.81587
vt -2.421595 14.18766
vt -2.793379 14.47294
vt -3.690945 16.60925
vt -3.226331 14.65227
vt -3.690945 14.71344
vt -4.646232 16.48349
vt -4.155559 14.65227
vt -4.588511 14.47294
vt -4.960295 14.18766
vt -5.536417 16.11476
vt -5.245574 13.81587
vt -5.424909 13.38292
vt -5.502295 12.79511
vt -5.502295 1.879594
vt -7.38189 0
vt -1.879594 1.879594
vt -0.1257659 13.87359
vt -0.4944929 14.76378
vt -1.081053 15.5282
vt -6.300837 15.5282
vt -6.887397 14.76378
vt -7.256124 13.87359
vt -7.38189 12.91831
vt 0 1.879594
vt 0 5.502295
vt 1.968504 1.879594
vt 1.968504 5.502295
vt 1.968504 12.79511
vt 0 12.79511
vt 1.968504 12.80779
vt 0 12.80779
vt 1.968504 13.77132
vt 0 13.77132
vt 0 10.31063
vt 0 11.27416
vt 1.968504 10.31063
vt 1.968504 11.27416
vt 0 8.587922
vt 0 8.119299
vt -1.968504 8.587922
vt -1.968504 8.119299
vt -1.968504 1.879594
vt -1.968504 12.79511
vt 0 11.0267
vt 0 10.55808
vt -1.968504 11.0267
vt -1.968504 10.55808
vt 0 5.579857
vt 0 5.111234
vt -1.968504 5.579857
vt -1.968504 5.111234
vt 0 1.299322
vt 0 1.767945
vt 1.968504 1.299322
vt 1.968504 1.767945
vt -1.968504 0
vt -1.968504 12.91831
vt 1.968504 12.01392
vt 0 12.01392
vt 1.968504 12.97745
vt 0 12.97745
vt 0 2.015399
vt 0 1.051869
vt -1.968504 2.015399
vt -1.968504 1.051869
vt 1.968504 12.86566
vt 0 12.86566
vt 1.968504 13.82919
vt 0 13.82919
vt 0 4.701632
vt 0 5.170255
vt 1.968504 4.701632
vt 1.968504 5.170255
vt 0 7.871846
vt 0 8.835376
vt 1.968504 7.871846
vt 1.968504 8.835376
vt 0 7.38189
vt -1.968504 7.38189
vt 0 11.84426
vt -1.968504 11.84426
vt -1.968504 12.80779
vt 0 -2.207503
vt 0 -1.738879
vt 1.968504 -2.207503
vt 1.968504 -1.738879
vt 1.968504 0
vt 1.968504 12.91831
vt 0 12.26138
vt -1.968504 12.26138
vt 0 12.73
vt -1.968504 12.73
vt 0 13.11311
vt -1.968504 13.11311
vt 0 13.58173
vt -1.968504 13.58173
vt 1.968504 11.96745
vt 0 11.96745
vt 1.968504 12.56034
vt 0 12.56034
vt 1.968504 10.28818
vt 0 10.28818
vt 1.968504 10.75681
vt 0 10.75681
vt 0 12.93098
vt -1.968504 12.93098
vt 0 13.52387
vt -1.968504 13.52387

usemtl wood

f 3/3/2 2/2/1 1/1/1
f 2/2/1 3/3/2 4/4/2
f 7/7/4 6/6/3 5/5/3
f 6/6/3 7/7/4 8/8/4
f 11/11/5 10/10/5 9/9/5
f 10/10/5 11/11/5 12/12/5
f 9/9/5 10/10/5 13/13/5
f 13/13/5 10/10/5 14/14/5
f 14/14/5 10/10/5 15/15/5
f 15/15/5 10/10/5 16/16/5
f 16/16/5 10/10/5 17/17/5
f 10/10/5 12/12/5 18/18/5
f 18/18/5 12/12/5 19/19/5
f 19/19/5 12/12/5 20/20/5
f 20/20/5 12/12/5 4/21/5
f 4/21/5 12/12/5 2/22/5
f 2/22/5 12/12/5 21/23/5
f 21/23/5 12/12/5 22/24/5
f 23/25/5 16/16/5 17/17/5
f 16/16/5 23/25/5 24/26/5
f 24/26/5 23/25/5 25/27/5
f 24/26/5 25/27/5 26/28/5
f 24/26/5 26/28/5 27/29/5
f 24/26/5 27/29/5 28/30/5
f 28/30/5 27/29/5 29/31/5
f 28/30/5 29/31/5 30/32/5
f 28/30/5 30/32/5 31/33/5
f 28/30/5 31/33/5 32/34/5
f 32/34/5 31/33/5 33/35/5
f 32/34/5 33/35/5 7/36/5
f 32/34/5 7/36/5 20/20/5
f 20/20/5 7/36/5 5/37/5
f 20/20/5 5/37/5 34/38/5
f 20/20/5 34/38/5 19/19/5
f 24/41/6 36/40/7 35/39/6
f 36/40/7 24/41/6 28/42/7
f 1/45/1 21/44/8 37/43/8
f 21/44/8 1/45/1 2/46/1
f 20/49/9 3/48/2 38/47/9
f 3/48/2 20/49/9 4/50/2
f 28/53/7 39/52/10 36/51/7
f 39/52/10 28/53/7 32/54/10
f 42/57/11 41/56/11 40/55/11
f 41/56/11 42/57/11 35/58/11
f 41/56/11 35/58/11 43/59/11
f 43/59/11 35/58/11 44/60/11
f 44/60/11 35/58/11 45/61/11
f 45/61/11 35/58/11 36/62/11
f 45/61/11 36/62/11 46/63/11
f 46/63/11 36/62/11 47/64/11
f 47/64/11 36/62/11 39/65/11
f 47/64/11 39/65/11 48/66/11
f 48/66/11 39/65/11 49/67/11
f 49/67/11 39/65/11 8/68/11
f 8/68/11 39/65/11 38/69/11
f 8/68/11 38/69/11 6/70/11
f 6/70/11 38/69/11 50/71/11
f 50/71/11 38/69/11 51/72/11
f 51/72/11 38/69/11 52/73/11
f 53/74/11 52/73/11 38/69/11
f 53/74/11 54/75/11 52/73/11
f 55/11/11 54/75/11 53/74/11
f 55/11/11 56/76/11 54/75/11
f 56/76/11 55/11/11 57/9/11
f 54/75/11 56/76/11 58/77/11
f 54/75/11 58/77/11 59/78/11
f 54/75/11 59/78/11 42/57/11
f 54/75/11 42/57/11 40/55/11
f 53/74/11 38/69/11 3/79/11
f 53/74/11 3/79/11 1/80/11
f 53/74/11 1/80/11 37/81/11
f 53/74/11 37/81/11 60/82/11
f 10/85/7 52/84/7 54/83/7
f 52/84/7 10/85/7 18/86/7
f 19/87/12 52/83/12 18/85/12
f 52/83/12 19/87/12 51/88/12
f 13/91/14 57/90/13 9/89/13
f 57/90/13 13/91/14 56/92/14
f 15/95/15 42/94/16 59/93/15
f 42/94/16 15/95/15 16/96/16
f 29/99/17 45/98/18 46/97/17
f 45/98/18 29/99/17 27/100/18
f 40/88/19 10/101/19 54/83/19
f 10/101/19 40/88/19 17/102/19
f 27/105/18 44/104/20 45/103/18
f 44/104/20 27/105/18 26/106/20
f 30/109/21 46/108/17 47/107/21
f 46/108/17 30/109/21 29/110/17
f 33/113/22 48/112/23 49/111/22
f 48/112/23 33/113/22 31/114/23
f 60/9/19 12/115/19 53/11/19
f 12/115/19 60/9/19 22/116/19
f 15/119/15 58/118/24 14/117/24
f 58/118/24 15/119/15 59/120/15
f 32/123/10 38/122/9 39/121/10
f 38/122/9 32/123/10 20/124/9
f 14/127/24 56/126/14 13/125/14
f 56/126/14 14/127/24 58/128/24
f 7/131/4 49/130/22 8/129/4
f 49/130/22 7/131/4 33/132/22
f 16/135/16 35/134/6 42/133/16
f 35/134/6 16/135/16 24/136/6
f 12/138/21 55/11/21 53/137/21
f 55/11/21 12/138/21 11/115/21
f 37/90/8 22/140/25 60/139/25
f 22/140/25 37/90/8 21/141/8
f 31/144/23 47/143/21 48/142/23
f 47/143/21 31/144/23 30/145/21
f 9/147/12 55/11/12 11/146/12
f 55/11/12 9/147/12 57/9/12
f 44/150/20 25/149/26 43/148/26
f 25/149/26 44/150/20 26/151/20
f 43/154/26 23/153/27 41/152/27
f 23/153/27 43/154/26 25/155/26
f 34/158/29 51/157/28 19/156/28
f 51/157/28 34/158/29 50/159/29
f 5/162/3 50/161/29 34/160/29
f 50/161/29 5/162/3 6/163/3
f 41/166/27 17/165/30 40/164/30
f 17/165/30 41/166/27 23/167/27

