# Created by Kenney (www.kenney.nl)

mtllib detail_001.mtl

g detail_001

v -0.24 0 0
v -0.24 0.10625 0
v -0.24 0 0.24
v -0.24 0.10625 0.24
v 0 0.10625 0.24
v -0.03306668 0.10625 0.09670629
v 0 0.10625 0
v -0.04205771 0.10625 0.075
v -0.05636039 0.10625 0.05636039
v -0.075 0.10625 0.04205771
v -0.09670629 0.10625 0.03306668
v -0.03 0.10625 0.12
v -0.12 0.10625 0.03
v -0.1432937 0.10625 0.03306668
v -0.165 0.10625 0.04205771
v -0.1836396 0.10625 0.05636039
v -0.1979423 0.10625 0.075
v -0.2069333 0.10625 0.09670629
v -0.21 0.10625 0.12
v -0.03306668 0.10625 0.1432937
v -0.2069333 0.10625 0.1432937
v -0.1979423 0.10625 0.165
v -0.1836396 0.10625 0.1836396
v -0.165 0.10625 0.1979423
v -0.1432937 0.10625 0.2069333
v -0.12 0.10625 0.21
v -0.09670629 0.10625 0.2069333
v -0.075 0.10625 0.1979423
v -0.05636039 0.10625 0.1836396
v -0.04205771 0.10625 0.165
v 0 0 0
v 0 0 0.24

vn -1 0 0
vn 0 1 0
vn 1 0 0
vn 0 0 -1
vn 0 0 1
vn 0 -1 0

vt 0 0
vt 8.267716 4.72441
vt 8.146981 3.807334
vt 8.146981 5.641485
vt 1.181102 4.72441
vt 1.301838 5.641485
vt 1.301838 3.807334
vt 1.655815 2.952756
vt 1.655815 6.496063
vt 2.218913 2.218913
vt 2.218913 7.229906
vt 2.952756 1.655815
vt 2.952756 7.793004
vt 3.807334 1.301838
vt 3.807334 8.146981
vt 4.72441 1.181102
vt 4.72441 8.267716
vt 5.641485 1.301838
vt 5.641485 8.146981
vt 6.496063 1.655815
vt 6.496063 7.793004
vt 7.229906 2.218913
vt 7.229906 7.229906
vt 7.793004 2.952756
vt 7.793004 6.496063

usemtl _defaultMat

f 3/1/1 2/1/1 1/1/1
f 2/1/1 3/1/1 4/1/1
f 7/1/2 6/1/2 5/1/2
f 6/1/2 7/1/2 8/1/2
f 8/1/2 7/1/2 9/1/2
f 9/1/2 7/1/2 10/1/2
f 10/1/2 7/1/2 11/1/2
f 11/1/2 7/1/2 2/1/2
f 5/1/2 6/1/2 12/1/2
f 11/1/2 2/1/2 13/1/2
f 13/1/2 2/1/2 14/1/2
f 14/1/2 2/1/2 15/1/2
f 15/1/2 2/1/2 16/1/2
f 16/1/2 2/1/2 17/1/2
f 17/1/2 2/1/2 18/1/2
f 18/1/2 2/1/2 19/1/2
f 20/1/2 5/1/2 12/1/2
f 4/1/2 19/1/2 2/1/2
f 4/1/2 21/1/2 19/1/2
f 4/1/2 22/1/2 21/1/2
f 4/1/2 23/1/2 22/1/2
f 4/1/2 24/1/2 23/1/2
f 4/1/2 25/1/2 24/1/2
f 4/1/2 26/1/2 25/1/2
f 4/1/2 27/1/2 26/1/2
f 5/1/2 27/1/2 4/1/2
f 27/1/2 5/1/2 28/1/2
f 28/1/2 5/1/2 29/1/2
f 29/1/2 5/1/2 30/1/2
f 30/1/2 5/1/2 20/1/2
f 5/1/3 31/1/3 7/1/3
f 31/1/3 5/1/3 32/1/3
f 2/4/4 31/3/4 1/2/4
f 31/4/4 2/3/4 7/2/4
f 5/4/5 3/3/5 32/2/5
f 3/4/5 5/3/5 4/2/5
f 3/4/6 31/3/6 32/2/6
f 31/4/6 3/3/6 1/2/6

usemtl roof

f 6/7/2 20/6/2 12/5/2
f 20/6/2 6/7/2 8/8/2
f 20/6/2 8/8/2 30/9/2
f 30/9/2 8/8/2 9/10/2
f 30/9/2 9/10/2 29/11/2
f 29/11/2 9/10/2 10/12/2
f 29/11/2 10/12/2 28/13/2
f 28/13/2 10/12/2 11/14/2
f 28/13/2 11/14/2 27/15/2
f 27/15/2 11/14/2 13/16/2
f 27/15/2 13/16/2 26/17/2
f 26/17/2 13/16/2 14/18/2
f 26/17/2 14/18/2 25/19/2
f 25/19/2 14/18/2 15/20/2
f 25/19/2 15/20/2 24/21/2
f 24/21/2 15/20/2 16/22/2
f 24/21/2 16/22/2 23/23/2
f 23/23/2 16/22/2 17/24/2
f 23/23/2 17/24/2 22/25/2
f 22/25/2 17/24/2 18/3/2
f 22/25/2 18/3/2 21/4/2
f 21/4/2 18/3/2 19/2/2

