# Created by Kenney (www.kenney.nl)

mtllib roof_009.mtl

g roof_009

v 1.045643 0.05270964 -1.626153E-08
v 1 0 -1.490126E-08
v 1.045643 0.05270964 1.045643
v 1 0 1
v 0.5 0.51875 -5.775292E-14
v 0.5 0.51875 0.5
v -1.048044E-08 0.09169368 1.04805E-08
v 1.490126E-08 0 1
v 1.626144E-08 0.05270964 1.045643
v 3.465175E-14 0.51875 0.5
v 0 0 0

vn 0.7559654 -0.6546116 0
vn -0.6494621 0.760394 0
vn 0 -0.6546116 0.7559654
vn 0 0.760394 -0.6494621
vn 0 0.760394 0.6494621
vn 0.6494621 0.760394 0
vn -1 0 0
vn 0 0 -1
vn 0 -1 0

vt 2.677689E-08 28.51719
vt -5.718122E-14 25.77211
vt -41.16704 28.51719
vt -39.37008 25.77211
vt 2.933297E-07 28.2325
vt 19.68504 28.2325
vt 4.126182E-07 2.34455
vt 39.37008 25.77211
vt 8.320953E-14 25.77211
vt 41.16704 28.51719
vt 2.677357E-08 28.51719
vt -19.68504 28.2325
vt 2.933305E-07 28.2325
vt 4.126159E-07 2.34455
vt 41.16704 -29.95541
vt 2.677358E-08 -29.95541
vt 19.68504 -1.704273
vt -2.933304E-07 -1.704273
vt -41.16704 -29.95541
vt -19.68504 -1.704273
vt 2.677685E-08 -29.95541
vt -2.933296E-07 -1.704273
vt 0 0
vt 4.126182E-07 3.609988
vt 39.37008 2.551289E-15
vt 19.68504 20.42323
vt 41.16704 2.075183
vt -39.37008 2.551319E-15
vt 4.126159E-07 3.609988
vt -41.16704 2.075183
vt -19.68504 20.42323
vt 39.37008 39.37008
vt 39.37008 -5.866636E-07
vt 5.866637E-07 39.37008

usemtl roof

f 3/3/1 2/2/1 1/1/1
f 2/2/1 3/3/1 4/4/1
f 7/7/2 6/6/2 5/5/2
f 3/10/3 8/9/3 4/8/3
f 8/9/3 3/10/3 9/11/3
f 7/14/4 10/13/4 6/12/4
f 6/17/5 9/16/5 3/15/5
f 9/16/5 6/17/5 10/18/5
f 1/21/6 6/20/6 3/19/6
f 6/20/6 1/21/6 5/22/6

usemtl brick

f 8/25/7 7/24/7 11/23/7
f 7/24/7 8/25/7 10/26/7
f 10/26/7 8/25/7 9/27/7
f 7/29/8 2/28/8 11/23/8
f 2/28/8 7/29/8 1/30/8
f 1/30/8 7/29/8 5/31/8
f 8/34/9 2/33/9 4/32/9
f 2/33/9 8/34/9 11/23/9

