# Created by Kenney (www.kenney.nl)

mtllib roof_010.mtl

g roof_010

v -1.490059E-08 -7.219114E-16 1
v -0.5 -1.171978E-14 1
v -1.624984E-08 -0.04244339 1.090546
v -0.5 -0.04244339 1.090546
v -1 0 -1.490063E-08
v -1.090546 -0.04244339 -1.624981E-08
v -1 0 0.48
v -1 4.511946E-17 0.5
v -1.090546 -0.04244339 0.5
v -1.118768 0.01776478 -1.667035E-08
v -1.118768 0.01776478 0.5
v -0.5 0.01776478 1.118768
v -0.05 0.51875 0.05
v 1.443823E-15 0.51875 0
v -7.450285E-10 0.51875 0.05
v -0.05 0.51875 -7.450314E-10
v -1.667038E-08 0.01776478 1.118768
v 0 0 0

vn 0 -0.9054589 -0.4244339
vn 0.4244339 -0.9054589 0
vn 0.3906992 -0.8334916 -0.3906992
vn -0.9054589 -0.4244339 0
vn -0.6711974 -0.3146237 0.6711973
vn -0.2989356 0.9062423 0.2989356
vn 0 1 0
vn 0 0.9054589 0.4244339
vn 0 -0.4244339 0.9054589
vn -0.4244339 0.9054589 0
vn 1 0 0
vn 0 0 -1
vn 0 -1 0

vt -2.629187E-12 -35.64799
vt 19.68504 -35.64799
vt -1.79641E-13 -39.585
vt 19.68504 -39.585
vt 4.783807E-14 -35.64799
vt -1.896643E-13 -39.585
vt -18.89764 -35.64799
vt -19.68504 -35.64799
vt -19.68504 -39.585
vt -13.91943 -34.80517
vt 13.91943 -34.80517
vt -16.44012 -37.82943
vt 16.44012 -37.82943
vt 8.564546E-14 19.32789
vt 19.68504 19.32789
vt 1.798089E-13 16.71
vt 19.68504 16.71
vt -17.2258 14.84229
vt 17.2258 14.84229
vt -16.44012 12.34508
vt 16.44012 12.34508
vt -1.698863E-12 6.111225
vt 17.2258 -40.54382
vt -17.2258 -40.54382
vt 1.687539E-14 -2.211564E-13
vt 2.93319E-08 1.968504
vt 1.968504 -2.933217E-08
vt 1.968504 1.968504
vt 1.144968E-13 6.885911
vt -1.033064E-12 -39.585
vt -1.968504 6.885911
vt -1.013866E-12 16.71
vt -19.68504 16.71
vt -1.051185E-12 19.32789
vt -19.68504 19.32789
vt 8.099718E-16 6.885911
vt 1.968504 6.885911
vt 1.038045E-13 -39.585
vt 8.470031E-22 20.42323
vt 0 0
vt -1.968504 20.42323
vt -39.37008 -2.842171E-14
vt -44.046 0.6994007
vt -42.93488 -1.671
vt 42.93488 -1.671
vt 39.37008 2.153508E-29
vt 44.046 0.6994007
vt -5.684342E-14 20.42323
vt 1.968504 20.42323
vt -39.37008 -5.866389E-07
vt -5.866373E-07 39.37008
vt -19.68504 39.37008
vt -39.37008 19.68504
vt -39.37008 18.89764

usemtl roof

f 3/3/1 2/2/1 1/1/1
f 2/2/1 3/3/1 4/4/1
f 7/7/2 6/6/2 5/5/2
f 6/6/2 7/7/2 8/8/2
f 6/6/2 8/8/2 9/9/2
f 4/12/3 8/11/3 2/10/3
f 8/11/3 4/12/3 9/13/3
f 6/16/4 11/15/4 10/14/4
f 11/15/4 6/16/4 9/17/4
f 9/20/5 12/19/5 11/18/5
f 12/19/5 9/20/5 4/21/5
f 11/24/6 12/23/6 13/22/6
f 16/27/7 15/26/7 14/25/7
f 15/26/7 16/27/7 13/28/7
f 13/31/8 17/30/8 15/29/8
f 17/30/8 13/31/8 12/9/8
f 17/34/9 4/33/9 3/32/9
f 4/33/9 17/34/9 12/35/9
f 10/38/10 13/37/10 16/36/10
f 13/37/10 10/38/10 11/4/10

usemtl brick

f 15/41/11 18/40/11 14/39/11
f 18/40/11 15/41/11 1/42/11
f 1/42/11 15/41/11 17/43/11
f 1/42/11 17/43/11 3/44/11
f 10/47/12 5/46/12 6/45/12
f 5/46/12 10/47/12 18/40/12
f 18/40/12 10/47/12 14/48/12
f 14/48/12 10/47/12 16/49/12
f 1/51/13 5/50/13 18/40/13
f 5/50/13 1/51/13 2/52/13
f 5/50/13 2/52/13 8/53/13
f 5/50/13 8/53/13 7/54/13

