# Created by Kenney (www.kenney.nl)

mtllib roof_001.mtl

g roof_001

v -1.490109E-09 0.51875 0.05
v -3.334183E-08 0.01776478 1.118768
v -0.05 0.51875 -1.490112E-09
v -1.118768 0.01776478 -3.33418E-08
v 2.887646E-15 0.51875 -5.775292E-14
v -1.090546 -0.04244339 -3.25007E-08
v -3.250074E-08 -0.04244339 1.090546
v -2.98022E-08 -7.219114E-16 1
v -1 0 -2.980224E-08
v 0 0 0

vn -0.3906992 0.8334916 0.3906992
vn 0 1 0
vn -0.6711974 -0.3146237 0.6711973
vn 0.3906992 -0.8334916 -0.3906992
vn 1 0 0
vn 0 -1 0
vn 0 0 -1

vt 1.391943 10.12432
vt 31.14523 -25.57285
vt -1.391943 10.12432
vt -31.14523 -25.57285
vt 1.811884E-13 -2.273737E-12
vt 5.8666E-08 1.968504
vt 1.968504 -5.866582E-08
vt -31.14523 10.46291
vt 31.14523 10.46291
vt -30.35954 7.965694
vt 30.35954 7.965694
vt -27.83885 -23.20345
vt 27.83885 -23.20345
vt -30.35954 -26.22771
vt 30.35954 -26.22771
vt 2.273737E-12 20.42323
vt 0 0
vt -1.968504 20.42323
vt -39.37008 -2.842171E-14
vt -44.046 0.6994007
vt -42.93488 -1.671
vt -1.173315E-06 39.37008
vt -39.37008 -1.173316E-06
vt 42.93488 -1.671
vt 39.37008 6.817603E-27
vt 44.046 0.6994007
vt -1.136868E-13 20.42323
vt 1.968504 20.42323

usemtl roof

f 3/3/1 2/2/1 1/1/1
f 2/2/1 3/3/1 4/4/1
f 3/7/2 1/6/2 5/5/2
f 6/10/3 2/9/3 4/8/3
f 2/9/3 6/10/3 7/11/3
f 7/14/4 9/13/4 8/12/4
f 9/13/4 7/14/4 6/15/4

usemtl brick

f 1/18/5 10/17/5 5/16/5
f 10/17/5 1/18/5 8/19/5
f 8/19/5 1/18/5 2/20/5
f 8/19/5 2/20/5 7/21/5
f 9/23/6 10/17/6 8/22/6
f 4/26/7 9/25/7 6/24/7
f 9/25/7 4/26/7 10/17/7
f 10/17/7 4/26/7 5/27/7
f 5/27/7 4/26/7 3/28/7

