# Created by Kenney (www.kenney.nl)

mtllib roof_002.mtl

g roof_002

v 1.747026E-13 0.51875 -2.887646E-15
v 0 0 0
v 2.483375E-13 0.51875 0.05
v 2.757702E-13 0 1
v 3.032028E-13 0.01776478 1.118768
v 3.01759E-13 -0.04244339 1.090546
v -1 -9.023893E-17 1
v -1 -5.414336E-16 2.714387E-13
v -1.090546 -0.04244339 2.194611E-13
v -1.118768 0.01776478 2.237925E-13
v -0.05 0.51875 7.219114E-15
v -1.090546 -0.04244339 1.090546
v -1.118768 0.01776478 1.118768
v -0.05 0.51875 0.05

vn 1 0 0
vn 0 -1 0
vn 0 0 -1
vn 0 -0.9054589 -0.4244339
vn 0 0.9054589 0.4244339
vn 0.4244339 -0.9054589 0
vn -0.4244339 0.9054589 0
vn 0 -0.4244339 0.9054589
vn 0 1 0
vn -0.9054589 -0.4244339 0

vt 1.136868E-13 20.42323
vt 0 0
vt -1.968504 20.42323
vt -39.37008 -2.360545E-26
vt -44.046 0.6994007
vt -42.93488 -1.671
vt 1.085709E-11 39.37008
vt -39.37008 39.37008
vt -39.37008 1.068656E-11
vt 42.93488 -1.671
vt 39.37008 -2.131628E-14
vt 44.046 0.6994007
vt -6.878054E-12 20.42323
vt 1.968504 20.42323
vt -2.037556E-13 -39.585
vt -1.500526E-13 -35.64799
vt 42.93488 -39.585
vt 39.37008 -35.64799
vt -5.781535E-14 -39.585
vt -44.046 -39.585
vt 9.240991E-12 6.885911
vt -1.968504 6.885911
vt -39.37008 -35.64799
vt 1.448915E-13 -35.64799
vt -42.93488 -39.585
vt 3.171998E-12 -39.585
vt 1.968504 6.885911
vt 44.046 -39.585
vt -2.572582E-13 6.885911
vt -3.304979E-12 -39.585
vt -42.93488 16.71
vt -44.046 19.32789
vt 1.791415E-13 16.71
vt -6.683235E-14 19.32789
vt -9.850787E-12 1.968504
vt 1.968504 1.968504
vt -6.951772E-12 -1.874056E-13
vt 1.968504 2.104983E-13
vt -3.187405E-12 16.71
vt -3.322965E-12 19.32789
vt 42.93488 16.71
vt 44.046 19.32789

usemtl brick

f 3/3/1 2/2/1 1/1/1
f 2/2/1 3/3/1 4/4/1
f 4/4/1 3/3/1 5/5/1
f 4/4/1 5/5/1 6/6/1
f 7/8/2 2/2/2 4/7/2
f 2/2/2 7/8/2 8/9/2
f 10/12/3 8/11/3 9/10/3
f 8/11/3 10/12/3 2/2/3
f 2/2/3 10/12/3 1/13/3
f 1/13/3 10/12/3 11/14/3

usemtl roof

f 12/17/4 4/16/4 6/15/4
f 4/16/4 12/17/4 7/18/4
f 3/21/5 13/20/5 5/19/5
f 13/20/5 3/21/5 14/22/5
f 12/25/6 8/24/6 7/23/6
f 8/24/6 12/25/6 9/26/6
f 11/29/7 13/28/7 14/27/7
f 13/28/7 11/29/7 10/30/7
f 6/33/8 13/32/8 12/31/8
f 13/32/8 6/33/8 5/34/8
f 1/37/9 14/36/9 3/35/9
f 14/36/9 1/37/9 11/38/9
f 12/41/10 10/40/10 9/39/10
f 10/40/10 12/41/10 13/42/10

