# Created by Kenney (www.kenney.nl)

mtllib roof_005.mtl

g roof_005

v -1 -8.962117E-17 1.490115E-08
v -1 0.4270563 0.5
v -1 0 1
v 7.450576E-09 0.4270563 0.5
v 0 0 0
v 1.490115E-08 0 1
v 7.45057E-09 0.51875 0.5
v -1 0.51875 0.5
v -6.801344E-10 0.05270964 -0.04564275
v -1 0.05270964 -0.04564273
v -1 0.05270964 1.045643
v 1.558129E-08 0.05270964 1.045643

vn -1 0 0
vn 0 0.760394 -0.6494621
vn 0 -1 0
vn 1 0 0
vn 0 0.760394 0.6494621
vn 0 -0.6546116 0.7559654
vn 0 -0.6546116 -0.7559654

vt 5.684342E-14 -7.0081E-14
vt 19.68504 16.81324
vt 39.37008 -6.655261E-14
vt -2.759946E-14 25.88795
vt 39.37008 25.88795
vt 0 0
vt 39.37008 3.968137E-14
vt 5.866596E-07 39.37008
vt -39.37008 39.37008
vt -39.37008 5.866596E-07
vt -19.68504 16.81324
vt -39.37008 2.531704E-27
vt 5.681983E-14 -29.93677
vt -39.37008 -29.93677
vt 2.840992E-14 -4.048823
vt -39.37008 -4.048823
vt 2.237174E-13 28.2325
vt 39.37008 28.2325
vt 1.908231E-13 -0.01864407
vt 39.37008 -0.01864407
vt -1.796959 2.075183
vt 19.68504 20.42323
vt 41.16704 2.075183
vt 5.939204E-17 25.77211
vt -39.37008 25.77211
vt 3.610817E-13 28.51719
vt -39.37008 28.51719
vt 1.796959 2.075183
vt -19.68504 20.42323
vt -41.16704 2.075183
vt 39.37008 -4.718638E-15
vt 39.37008 2.745076
vt 1.906323E-13 2.745076
vt 7.092464E-13 -29.95541
vt -39.37008 -29.95541
vt -6.086037E-14 -1.704273
vt -39.37008 -1.704273

usemtl brick

f 3/3/1 2/2/1 1/1/1
f 5/6/2 2/5/2 4/4/2
f 2/5/2 5/6/2 1/7/2
f 3/9/3 5/6/3 6/8/3
f 5/6/3 3/9/3 1/10/3
f 6/12/4 5/6/4 4/11/4
f 4/15/5 3/14/5 6/13/5
f 3/14/5 4/15/5 2/16/5

usemtl roof

f 9/19/2 8/18/2 7/17/2
f 8/18/2 9/19/2 10/20/2
f 1/1/1 8/22/1 10/21/1
f 8/22/1 1/1/1 2/2/1
f 8/22/1 2/2/1 3/3/1
f 8/22/1 3/3/1 11/23/1
f 12/26/6 3/25/6 6/24/6
f 3/25/6 12/26/6 11/27/6
f 7/29/4 5/6/4 9/28/4
f 5/6/4 7/29/4 4/11/4
f 4/11/4 7/29/4 6/12/4
f 6/12/4 7/29/4 12/30/4
f 10/32/7 5/6/7 1/31/7
f 5/6/7 10/32/7 9/33/7
f 7/36/5 11/35/5 12/34/5
f 11/35/5 7/36/5 8/37/5

