# Created by Kenney (www.kenney.nl)

mtllib roof_008.mtl

g roof_008

v 1.090546 -0.04244339 1
v 1 0 1
v 1.118768 0.01776478 1
v 1.443823E-15 0.46875 1
v 0.05 0.51875 1
v 1.443823E-15 0.51875 1
v 1.090546 -0.04244339 -5.775291E-15
v 1.118768 0.01776478 0
v 1 0 0
v 0.05 0.51875 0
v 0 0.46875 0
v 0 0.51875 0
v 1.443823E-15 0 1
v 0 0 0

vn 0 0 1
vn 0.9054589 -0.4244339 0
vn -0.4244339 -0.9054589 0
vn 0.4244339 0.9054589 0
vn 0 0 -1
vn 0 1 0
vn 0 -1 0
vn -1 0 0

vt 42.93488 -1.671
vt 39.37008 3.81026E-13
vt 44.046 0.6994007
vt 3.165663E-13 18.45473
vt 1.968504 20.42323
vt 3.165663E-13 20.42323
vt 1.033898E-13 16.71
vt -39.37008 16.71
vt -1.271925E-13 19.32789
vt -39.37008 19.32789
vt 39.37008 -39.585
vt -1.034168E-13 -39.585
vt 39.37008 -35.64799
vt 1.13665E-13 -35.64799
vt -39.37008 -39.585
vt -39.37008 6.885911
vt -6.525826E-14 -39.585
vt -2.916522E-15 6.885911
vt -42.93488 -1.671
vt -44.046 0.6994007
vt -39.37008 0
vt 0 18.45473
vt -1.968504 20.42323
vt 0 20.42323
vt -1.968504 0
vt -1.968504 39.37008
vt 0 0
vt -5.684342E-14 39.37008
vt 39.37008 39.37008
vt 39.37008 0
vt 5.684342E-14 39.37008
vt 39.37008 20.42323
vt 39.37008 18.45473
vt 5.684342E-14 0

usemtl roof

f 3/3/1 2/2/1 1/1/1
f 2/2/1 3/3/1 4/4/1
f 4/4/1 3/3/1 5/5/1
f 4/4/1 5/5/1 6/6/1
f 8/9/2 1/8/2 7/7/2
f 1/8/2 8/9/2 3/10/2
f 2/13/3 7/12/3 1/11/3
f 7/12/3 2/13/3 9/14/3
f 8/17/4 5/16/4 3/15/4
f 5/16/4 8/17/4 10/18/4
f 9/21/5 8/20/5 7/19/5
f 8/20/5 9/21/5 11/22/5
f 8/20/5 11/22/5 10/23/5
f 10/23/5 11/22/5 12/24/5
f 12/27/6 5/26/6 10/25/6
f 5/26/6 12/27/6 6/28/6

usemtl brick

f 13/31/7 9/30/7 2/29/7
f 9/30/7 13/31/7 14/27/7
f 13/30/8 11/22/8 14/27/8
f 11/22/8 13/30/8 12/24/8
f 12/24/8 13/30/8 6/32/8
f 6/32/8 13/30/8 4/33/8
f 4/4/1 13/34/1 2/2/1
f 11/22/5 9/21/5 14/27/5

