# Created by Kenney (www.kenney.nl)

mtllib roof_006.mtl

g roof_006

v -1.443823E-15 1.173106E-15 2.887646E-15
v -1.443823E-15 0 1
v -8.273105E-13 0.0734375 1.530452E-13
v -4.908998E-14 0.51875 0.9499999
v 0 0.51875 1
v -1 8.121503E-16 2.887646E-15
v -1 0.51875 0
v -0.9499999 0.51875 0
v -1 0.51875 1
v -1 8.121503E-16 1
v -0.9499999 0.51875 0.9499999

vn 1 0 0
vn 0 0 -1
vn -1 0 0
vn 0 0 1
vn 0 -1 0
vn 0 1 0
vn 0.4244339 0.9054589 0
vn 0 0.9054589 -0.4244339

vt -1.136868E-13 4.618528E-14
vt -39.37008 3.417035E-24
vt -6.025402E-12 2.89124
vt -37.40157 20.42323
vt -39.37008 20.42323
vt 39.37008 3.197442E-14
vt 5.684342E-14 4.618528E-14
vt 39.37008 20.42323
vt 3.257128E-11 2.89124
vt 37.40157 20.42323
vt 0 20.42323
vt 1.136868E-13 3.197442E-14
vt 1.92415E-11 3.720162E-11
vt -39.37008 3.723359E-11
vt 1.929834E-11 20.42323
vt -5.684342E-14 39.37008
vt -5.684342E-14 1.136868E-13
vt -39.37008 39.37008
vt -39.37008 1.136868E-13
vt 37.40157 0
vt 37.40157 37.40157
vt 39.37008 0
vt 39.37008 39.37008
vt 1.932676E-12 37.40157
vt 0 39.37008
vt -1.068026E-14 42.5339
vt -6.025402E-12 1.22714
vt -37.40157 42.5339
vt 3.257128E-11 1.22714
vt 1.939796E-12 42.5339
vt 37.40157 42.5339

usemtl brick

f 3/3/1 2/2/1 1/1/1
f 2/2/1 3/3/1 4/4/1
f 2/2/1 4/4/1 5/5/1
f 7/8/2 1/7/2 6/6/2
f 1/7/2 7/8/2 3/9/2
f 3/9/2 7/8/2 8/10/2
f 6/12/3 9/8/3 7/11/3
f 9/8/3 6/12/3 10/6/3
f 5/15/4 10/14/4 2/13/4
f 10/14/4 5/15/4 9/5/4
f 10/18/5 1/17/5 2/16/5
f 1/17/5 10/18/5 6/19/5

usemtl roof

f 7/22/6 11/21/6 8/20/6
f 9/23/6 11/21/6 7/22/6
f 9/23/6 4/24/6 11/21/6
f 4/24/6 9/23/6 5/25/6
f 11/28/7 3/27/7 8/26/7
f 11/31/8 4/30/8 3/29/8

