# Created by Kenney (www.kenney.nl)

mtllib boat_024.mtl

g boat_024

v -0.975 1.749503 -1.272
v -0.975 1.899503 -1.272
v -0.975 1.749503 1.602
v -0.975 1.899503 1.602
v 0.975 1.749503 1.602
v 0.975 1.899503 1.602
v -5.775291E-15 2.399503 1.602
v 0.975 1.899503 -1.272
v 0.975 1.749503 -1.272
v 0.825 1.749503 1.382
v 0.825 1.749503 0.215
v 0.725 1.749503 1.382
v 0.725 1.749503 0.215
v 0.825 1.749503 -1.152
v 0.825 1.749503 1.482
v -0.825 1.749503 1.482
v -0.825 1.749503 1.382
v -0.825 1.749503 0.215
v -0.825 1.749503 0.115
v -0.825 1.749503 -1.052
v -0.825 1.749503 -1.152
v 0.825 1.749503 0.115
v 0.825 1.749503 -1.052
v 0.725 1.749503 0.115
v 0.725 1.749503 -1.052
v -0.725 1.749503 -1.052
v -0.725 1.749503 0.115
v -0.725 1.749503 0.215
v -0.725 1.749503 1.382
v -5.775291E-15 2.399503 -1.272
v -1.02 0.3 2.322
v -0.612 0 -1.2972
v -0.612 9.023893E-17 2.322
v -1.02 0.3 -1.902
v 1.33875 0.7 2.322
v 1.33875 0.7 -2.322
v -1.33875 0.7 2.322
v -1.33875 0.7 -2.322
v 0.8175 0.8 2.172
v 0.8175 1 2.172
v 0.8175 0.8 2.322
v 0.8175 1 2.322
v 1.275 1 -2.238
v 1.275 1 2.322
v 1.02 0.3 -1.902
v -1.125 1 -2.108
v -1.125 0.8 -2.108
v -1.125 1 2.172
v -1.125 0.8 2.172
v -1.275 1 -2.238
v 1.02 0.3 2.322
v 0.612 9.023893E-17 -1.2972
v 0.612 9.023893E-17 2.322
v 1.125 1 -2.108
v -1.275 1 2.322
v -0.8175 1 2.322
v -0.8175 1 2.172
v 1.125 1 2.172
v 1.125 0.8 -2.108
v 1.125 0.8 2.172
v 0.825 1.274751 -1.152
v 0.825 1.174751 -1.052
v 0.825 0.8 -1.252
v 0.825 1.274751 -1.252
v 0.825 0.8 1.482
v 0.825 1.174751 0.115
v 0.825 1.174751 0.215
v 0.825 1.174751 1.382
v -0.8175 0.8 2.172
v -0.8175 0.8 2.322
v -0.825 0.8 -1.252
v -0.825 0.8 1.482
v -0.825 1.274751 -1.152
v -0.825 1.274751 -1.252
v 0.725 1.174751 -1.052
v 0.725 1.174751 0.115
v 0.725 1.174751 0.215
v 0.725 1.174751 1.382
v -0.825 1.174751 -1.052
v -0.825 1.174751 0.115
v -0.825 1.174751 0.215
v -0.825 1.174751 1.382
v -0.725 1.174751 -1.052
v -0.725 1.174751 0.115
v -0.725 1.174751 0.215
v -0.725 1.174751 1.382

vn -1 0 0
vn 0 0 1
vn 1 0 0
vn 0 -1 0
vn 0 0 -1
vn 0.4563166 0.8898174 0
vn -0.4563166 0.8898174 0
vn 0.5923905 0.805651 0
vn 0 1 0
vn 0.9781588 0.2078588 0
vn -0.9781588 -0.2078588 0
vn 0 0.7241379 0.6896552
vn 0 0.2696299 -0.9629641
vn 0 -0.2696299 0.9629641
vn 0 0.8958447 0.4443674
vn -0.5923905 0.805651 0
vn -0.7820596 0.6232036 0
vn 0.7820596 0.6232036 0
vn -0.4563166 -0.8898174 0
vn -0.9781588 0.2078588 0
vn 0.9781588 -0.2078588 0
vn 0.4563166 -0.8898174 0
vn -0.5923905 -0.805651 0
vn 0 -0.7241379 -0.6896552
vn 0 -0.8958447 -0.4443674
vn 0.5923905 -0.805651 0
vn 0.7820596 -0.6232036 0
vn -0.7820596 -0.6232036 0

vt -50.07874 68.87806
vt -50.07874 74.78357
vt 63.07087 68.87806
vt 63.07087 74.78357
vt 38.38583 68.87806
vt -38.38583 68.87806
vt 38.38583 74.78357
vt -38.38583 74.78357
vt -3.674708E-13 94.46861
vt 50.07874 74.78357
vt 50.07874 68.87806
vt -63.07087 74.78357
vt -63.07087 68.87806
vt 32.48032 54.40945
vt 32.48032 8.464567
vt 28.54331 54.40945
vt 28.54331 8.464567
vt 32.48032 -45.35433
vt 32.48032 58.34646
vt 38.38583 -50.07874
vt 38.38583 63.07087
vt -38.38583 63.07087
vt -32.48032 58.34646
vt -32.48032 54.40945
vt -32.48032 8.464567
vt -32.48032 4.527559
vt -32.48032 -41.41732
vt -32.48032 -45.35433
vt -38.38583 -50.07874
vt 32.48032 4.527559
vt 32.48032 -41.41732
vt 28.54331 4.527559
vt 28.54331 -41.41732
vt -28.54331 -41.41732
vt -28.54331 4.527559
vt -28.54331 8.464567
vt -28.54331 54.40945
vt 2.273737E-13 94.46861
vt -63.07087 -0.03139171
vt -63.07087 43.1076
vt 50.07874 -0.03139171
vt 50.07874 43.1076
vt -50.07874 43.1076
vt 63.07087 43.1076
vt -50.07874 -0.03139171
vt 63.07087 -0.03139171
vt 91.41732 39.34965
vt -51.07087 19.41175
vt 91.41732 19.41175
vt -74.88189 39.34965
vt 52.70669 91.41732
vt 52.70669 -91.41732
vt -52.70669 91.41732
vt -52.70669 -91.41732
vt 85.51181 31.49606
vt 85.51181 39.37008
vt 91.41732 31.49606
vt 91.41732 39.37008
vt 91.41732 16.00159
vt -91.41732 16.00159
vt 88.11024 28.07634
vt -91.41732 28.07634
vt -40.15748 62.37035
vt 52.70669 85.20499
vt -52.70669 85.20499
vt 40.15748 62.37035
vt 82.99213 39.37008
vt 82.99213 31.49606
vt -85.51181 39.37008
vt -85.51181 31.49606
vt 52.70669 1.889533
vt -52.70669 1.889533
vt 50.19685 14.15481
vt -50.19685 14.15481
vt 40.15748 91.41732
vt 40.15748 -74.88189
vt -40.15748 91.41732
vt -40.15748 -74.88189
vt -24.09449 45.75156
vt 40.15748 72.33097
vt -40.15748 72.33097
vt 24.09449 45.75156
vt -91.41732 19.41175
vt 74.88189 39.34965
vt -91.41732 39.34965
vt 51.07087 19.41175
vt -50.19685 91.41732
vt -44.29134 -82.99213
vt -50.19685 -88.11024
vt 50.19685 -88.11024
vt 44.29134 -82.99213
vt 44.29134 85.51181
vt 50.19685 91.41732
vt 32.18504 91.41732
vt 32.18504 85.51181
vt -44.29134 85.51181
vt -32.18504 91.41732
vt -32.18504 85.51181
vt -24.09449 91.41732
vt 24.09449 -51.07087
vt 24.09449 91.41732
vt -24.09449 -51.07087
vt 44.29134 31.49606
vt -44.29134 31.49606
vt 44.29134 39.37008
vt -44.29134 39.37008
vt -82.99213 31.49606
vt -82.99213 39.37008
vt 41.41732 68.87806
vt 45.35433 50.18706
vt 45.35433 68.87806
vt 41.41732 46.25005
vt 49.29134 31.49606
vt 49.29134 50.18706
vt -58.34646 31.49606
vt -4.527559 46.25005
vt -8.464567 46.25005
vt -8.464567 68.87806
vt -4.527559 68.87806
vt -54.40945 46.25005
vt -58.34646 68.87806
vt -54.40945 68.87806
vt 32.18504 31.49606
vt 32.18504 39.37008
vt -91.41732 54.39983
vt 74.88189 34.26321
vt 91.41732 54.39983
vt -91.41732 34.26321
vt -74.88189 34.26321
vt 91.41732 34.26321
vt 52.70669 27.55906
vt -40.15748 11.81102
vt 40.15748 11.81102
vt -52.70669 27.55906
vt 50.19685 39.37008
vt -32.18504 31.49606
vt -50.19685 39.37008
vt -32.18504 39.37008
vt -24.09449 3.552714E-15
vt 24.09449 3.552714E-15
vt -32.48032 -49.29134
vt 32.48032 -49.29134
vt -91.41732 39.37008
vt -91.41732 31.49606
vt -88.11024 28.07634
vt 91.41732 28.07634
vt 32.48032 68.87806
vt -32.48032 50.18706
vt 32.48032 50.18706
vt -32.48032 68.87806
vt -32.48032 31.49606
vt 32.48032 31.49606
vt 28.54331 46.25005
vt 32.48032 46.25005
vt 28.54331 68.87806
vt -28.54331 68.87806
vt -32.48032 46.25005
vt -28.54331 46.25005
vt -49.29134 50.18706
vt -41.41732 46.25005
vt -49.29134 31.49606
vt 58.34646 31.49606
vt -45.35433 50.18706
vt -45.35433 68.87806
vt 4.527559 46.25005
vt 8.464567 46.25005
vt 4.527559 68.87806
vt 54.40945 46.25005
vt 54.40945 68.87806
vt 58.34646 68.87806
vt 8.464567 68.87806
vt -41.41732 68.87806

usemtl metalRed

f 3/3/1 2/2/1 1/1/1
f 2/2/1 3/3/1 4/4/1
f 6/7/2 3/6/2 5/5/2
f 3/6/2 6/7/2 4/8/2
f 4/8/2 6/7/2 7/9/2
f 6/12/3 9/11/3 8/10/3
f 9/11/3 6/12/3 5/13/3
f 12/16/4 11/15/4 10/14/4
f 11/15/4 12/16/4 13/17/4
f 14/18/4 10/14/4 11/15/4
f 14/18/4 15/19/4 10/14/4
f 14/18/4 9/20/4 15/19/4
f 5/21/4 15/19/4 9/20/4
f 15/19/4 5/21/4 3/22/4
f 15/19/4 3/22/4 16/23/4
f 16/23/4 3/22/4 17/24/4
f 17/24/4 3/22/4 18/25/4
f 18/25/4 3/22/4 19/26/4
f 19/26/4 3/22/4 20/27/4
f 20/27/4 3/22/4 21/28/4
f 9/20/4 14/18/4 1/29/4
f 1/29/4 14/18/4 21/28/4
f 1/29/4 21/28/4 3/22/4
f 14/18/4 11/15/4 22/30/4
f 14/18/4 22/30/4 23/31/4
f 24/32/4 23/31/4 22/30/4
f 23/31/4 24/32/4 25/33/4
f 26/34/4 19/26/4 20/27/4
f 19/26/4 26/34/4 27/35/4
f 28/36/4 17/24/4 18/25/4
f 17/24/4 28/36/4 29/37/4
f 2/7/5 9/6/5 1/5/5
f 9/6/5 2/7/5 8/8/5
f 8/8/5 2/7/5 30/38/5
f 8/41/6 7/40/6 6/39/6
f 7/40/6 8/41/6 30/42/6
f 2/45/7 7/44/7 30/43/7
f 7/44/7 2/45/7 4/46/7

usemtl metalGreen

f 1/1/3 2/2/3 3/3/3
f 4/4/3 3/3/3 2/2/3
f 33/49/8 32/48/8 31/47/8
f 34/50/8 31/47/8 32/48/8
f 37/53/4 36/52/4 35/51/4
f 36/52/4 37/53/4 38/54/4
f 35/51/9 36/52/9 37/53/9
f 38/54/9 37/53/9 36/52/9
f 41/57/1 40/56/1 39/55/1
f 40/56/1 41/57/1 42/58/1
f 39/55/3 40/56/3 41/57/3
f 42/58/3 41/57/3 40/56/3
f 5/5/5 3/6/5 6/7/5
f 4/8/5 6/7/5 3/6/5
f 7/9/5 6/7/5 4/8/5
f 43/61/10 35/60/10 36/59/10
f 35/60/10 43/61/10 44/62/10
f 36/59/11 35/60/11 43/61/11
f 44/62/11 43/61/11 35/60/11
f 8/10/1 9/11/1 6/12/1
f 5/13/1 6/12/1 9/11/1
f 36/65/12 38/64/12 45/63/12
f 34/66/12 45/63/12 38/64/12
f 48/69/3 47/68/3 46/67/3
f 47/68/3 48/69/3 49/70/3
f 46/67/1 47/68/1 48/69/1
f 49/70/1 48/69/1 47/68/1
f 50/73/13 36/72/13 38/71/13
f 36/72/13 50/73/13 43/74/13
f 38/71/14 36/72/14 50/73/14
f 43/74/14 50/73/14 36/72/14
f 31/77/4 45/76/4 51/75/4
f 45/76/4 31/77/4 34/78/4
f 51/75/9 45/76/9 31/77/9
f 34/78/9 31/77/9 45/76/9
f 45/81/15 34/80/15 52/79/15
f 32/82/15 52/79/15 34/80/15
f 51/85/16 45/84/16 53/83/16
f 52/86/16 53/83/16 45/84/16
f 10/14/9 11/15/9 12/16/9
f 13/17/9 12/16/9 11/15/9
f 11/15/9 10/14/9 14/18/9
f 10/14/9 15/19/9 14/18/9
f 15/19/9 9/20/9 14/18/9
f 9/20/9 15/19/9 5/21/9
f 3/22/9 5/21/9 15/19/9
f 16/23/9 3/22/9 15/19/9
f 17/24/9 3/22/9 16/23/9
f 18/25/9 3/22/9 17/24/9
f 19/26/9 3/22/9 18/25/9
f 20/27/9 3/22/9 19/26/9
f 21/28/9 3/22/9 20/27/9
f 1/29/9 14/18/9 9/20/9
f 21/28/9 14/18/9 1/29/9
f 3/22/9 21/28/9 1/29/9
f 22/30/9 11/15/9 14/18/9
f 23/31/9 22/30/9 14/18/9
f 22/30/9 23/31/9 24/32/9
f 25/33/9 24/32/9 23/31/9
f 20/27/9 19/26/9 26/34/9
f 27/35/9 26/34/9 19/26/9
f 18/25/9 17/24/9 28/36/9
f 29/37/9 28/36/9 17/24/9
f 21/18/9 23/27/9 14/28/9
f 23/27/9 21/18/9 25/34/9
f 25/34/9 21/18/9 24/35/9
f 24/35/9 21/18/9 13/36/9
f 13/36/9 21/18/9 26/33/9
f 13/36/9 26/33/9 12/37/9
f 26/33/9 21/18/9 20/31/9
f 29/16/9 12/37/9 26/33/9
f 16/19/9 12/37/9 29/16/9
f 15/23/9 12/37/9 16/19/9
f 12/37/9 15/23/9 10/24/9
f 29/16/9 26/33/9 27/32/9
f 29/16/9 27/32/9 28/17/9
f 19/30/9 28/17/9 27/32/9
f 28/17/9 19/30/9 18/15/9
f 16/19/9 29/16/9 17/14/9
f 11/25/9 24/35/9 13/36/9
f 24/35/9 11/25/9 22/26/9
f 14/28/4 23/27/4 21/18/4
f 25/34/4 21/18/4 23/27/4
f 24/35/4 21/18/4 25/34/4
f 13/36/4 21/18/4 24/35/4
f 26/33/4 21/18/4 13/36/4
f 12/37/4 26/33/4 13/36/4
f 20/31/4 21/18/4 26/33/4
f 26/33/4 12/37/4 29/16/4
f 29/16/4 12/37/4 16/19/4
f 16/19/4 12/37/4 15/23/4
f 10/24/4 15/23/4 12/37/4
f 27/32/4 26/33/4 29/16/4
f 28/17/4 27/32/4 29/16/4
f 27/32/4 28/17/4 19/30/4
f 18/15/4 19/30/4 28/17/4
f 17/14/4 29/16/4 16/19/4
f 13/36/4 24/35/4 11/25/4
f 22/26/4 11/25/4 24/35/4
f 1/5/2 9/6/2 2/7/2
f 8/8/2 2/7/2 9/6/2
f 30/38/2 2/7/2 8/8/2
f 43/89/9 54/88/9 44/87/9
f 54/88/9 43/89/9 50/90/9
f 54/88/9 50/90/9 46/91/9
f 46/91/9 50/90/9 48/92/9
f 55/93/9 48/92/9 50/90/9
f 56/94/9 48/92/9 55/93/9
f 48/92/9 56/94/9 57/95/9
f 58/96/9 44/87/9 54/88/9
f 44/87/9 58/96/9 42/97/9
f 42/97/9 58/96/9 40/98/9
f 44/87/4 54/88/4 43/89/4
f 50/90/4 43/89/4 54/88/4
f 46/91/4 50/90/4 54/88/4
f 48/92/4 50/90/4 46/91/4
f 50/90/4 48/92/4 55/93/4
f 55/93/4 48/92/4 56/94/4
f 57/95/4 56/94/4 48/92/4
f 54/88/4 44/87/4 58/96/4
f 42/97/4 58/96/4 44/87/4
f 40/98/4 58/96/4 42/97/4
f 53/101/9 52/100/9 33/99/9
f 32/102/9 33/99/9 52/100/9
f 54/105/2 47/104/2 59/103/2
f 47/104/2 54/105/2 46/106/2
f 59/103/5 47/104/5 54/105/5
f 46/106/5 54/105/5 47/104/5
f 60/55/1 54/108/1 59/107/1
f 54/108/1 60/55/1 58/56/1
f 59/107/3 54/108/3 60/55/3
f 58/56/3 60/55/3 54/108/3
f 14/111/1 61/110/1 23/109/1
f 23/109/1 61/110/1 62/112/1
f 62/112/1 61/110/1 63/113/1
f 64/114/1 63/113/1 61/110/1
f 65/115/1 62/112/1 63/113/1
f 66/116/1 62/112/1 65/115/1
f 67/117/1 66/116/1 65/115/1
f 11/118/1 66/116/1 67/117/1
f 22/119/1 66/116/1 11/118/1
f 68/120/1 67/117/1 65/115/1
f 15/121/1 68/120/1 65/115/1
f 10/122/1 68/120/1 15/121/1
f 48/105/5 69/123/5 49/103/5
f 69/123/5 48/105/5 57/124/5
f 49/103/2 69/123/2 48/105/2
f 57/124/2 48/105/2 69/123/2
f 36/127/17 45/126/17 35/125/17
f 51/128/17 35/125/17 45/126/17
f 38/125/18 37/127/18 34/129/18
f 31/130/18 34/129/18 37/127/18
f 51/133/5 31/132/5 35/131/5
f 37/134/5 35/131/5 31/132/5
f 37/134/5 41/123/5 35/131/5
f 44/135/5 35/131/5 41/123/5
f 42/124/5 44/135/5 41/123/5
f 41/123/5 37/134/5 70/136/5
f 55/137/5 70/136/5 37/134/5
f 56/138/5 70/136/5 55/137/5
f 31/132/5 51/133/5 33/139/5
f 53/140/5 33/139/5 51/133/5
f 40/138/5 60/104/5 39/136/5
f 60/104/5 40/138/5 58/106/5
f 39/136/2 60/104/2 40/138/2
f 58/106/2 40/138/2 60/104/2
f 60/96/4 63/141/4 59/88/4
f 47/91/4 59/88/4 63/141/4
f 71/142/4 47/91/4 63/141/4
f 72/19/4 47/91/4 71/142/4
f 63/141/4 60/96/4 65/23/4
f 39/98/4 65/23/4 60/96/4
f 72/19/4 65/23/4 39/98/4
f 41/97/4 72/19/4 39/98/4
f 69/95/4 72/19/4 41/97/4
f 49/92/4 72/19/4 69/95/4
f 47/91/4 72/19/4 49/92/4
f 69/95/4 41/97/4 70/94/4
f 6/39/19 7/40/19 8/41/19
f 30/42/19 8/41/19 7/40/19
f 56/143/3 69/70/3 57/69/3
f 69/70/3 56/143/3 70/144/3
f 57/69/1 69/70/1 56/143/1
f 70/144/1 56/143/1 69/70/1
f 37/59/20 50/145/20 38/60/20
f 50/145/20 37/59/20 55/146/20
f 38/60/21 50/145/21 37/59/21
f 55/146/21 37/59/21 50/145/21
f 73/149/2 61/148/2 21/147/2
f 14/150/2 21/147/2 61/148/2
f 30/43/22 7/44/22 2/45/22
f 4/46/22 2/45/22 7/44/22
f 35/131/2 41/123/2 37/134/2
f 41/123/2 35/131/2 44/135/2
f 41/123/2 44/135/2 42/124/2
f 70/136/2 37/134/2 41/123/2
f 37/134/2 70/136/2 55/137/2
f 55/137/2 70/136/2 56/138/2
f 71/152/2 63/151/2 74/149/2
f 64/148/2 74/149/2 63/151/2
f 64/141/4 61/28/4 74/142/4
f 73/18/4 74/142/4 61/28/4
f 62/27/4 66/26/4 75/34/4
f 76/35/4 75/34/4 66/26/4
f 62/154/5 75/153/5 23/147/5
f 25/155/5 23/147/5 75/153/5
f 25/109/1 75/112/1 24/119/1
f 76/116/1 24/119/1 75/112/1
f 76/158/2 66/157/2 24/156/2
f 22/150/2 24/156/2 66/157/2
f 67/154/5 77/153/5 11/147/5
f 13/155/5 11/147/5 77/153/5
f 13/118/1 77/117/1 12/122/1
f 78/120/1 12/122/1 77/117/1
f 67/25/4 68/24/4 77/36/4
f 78/37/4 77/36/4 68/24/4
f 78/158/2 68/157/2 12/156/2
f 10/150/2 12/156/2 68/157/2

usemtl metalDark

f 31/47/23 32/48/23 33/49/23
f 32/48/23 31/47/23 34/50/23
f 45/63/24 38/64/24 36/65/24
f 38/64/24 45/63/24 34/66/24
f 52/79/25 34/80/25 45/81/25
f 34/80/25 52/79/25 32/82/25
f 53/83/26 45/84/26 51/85/26
f 45/84/26 53/83/26 52/86/26
f 33/99/4 52/100/4 53/101/4
f 52/100/4 33/99/4 32/102/4
f 35/125/27 45/126/27 36/127/27
f 45/126/27 35/125/27 51/128/27
f 34/129/28 37/127/28 38/125/28
f 37/127/28 34/129/28 31/130/28
f 35/131/2 31/132/2 51/133/2
f 31/132/2 35/131/2 37/134/2
f 33/139/2 51/133/2 31/132/2
f 51/133/2 33/139/2 53/140/2

usemtl cloth

f 15/147/2 72/151/2 65/152/2
f 72/151/2 15/147/2 16/150/2
f 23/109/3 61/110/3 14/111/3
f 62/112/3 61/110/3 23/109/3
f 63/113/3 61/110/3 62/112/3
f 61/110/3 63/113/3 64/114/3
f 63/113/3 62/112/3 65/115/3
f 65/115/3 62/112/3 66/116/3
f 65/115/3 66/116/3 67/117/3
f 67/117/3 66/116/3 11/118/3
f 11/118/3 66/116/3 22/119/3
f 65/115/3 67/117/3 68/120/3
f 65/115/3 68/120/3 15/121/3
f 15/121/3 68/120/3 10/122/3
f 71/161/1 79/160/1 74/159/1
f 79/160/1 71/161/1 72/162/1
f 74/159/1 79/160/1 73/163/1
f 73/163/1 79/160/1 21/164/1
f 79/160/1 72/162/1 80/165/1
f 80/165/1 72/162/1 81/166/1
f 80/165/1 81/166/1 19/167/1
f 81/166/1 72/162/1 82/168/1
f 82/168/1 72/162/1 17/169/1
f 17/169/1 72/162/1 16/170/1
f 18/171/1 19/167/1 81/166/1
f 20/172/1 21/164/1 79/160/1
f 74/149/5 63/151/5 71/152/5
f 63/151/5 74/149/5 64/148/5
f 74/142/9 61/28/9 64/141/9
f 61/28/9 74/142/9 73/18/9
f 75/34/9 66/26/9 62/27/9
f 66/26/9 75/34/9 76/35/9
f 23/147/2 75/153/2 62/154/2
f 75/153/2 23/147/2 25/155/2
f 79/31/9 84/32/9 83/33/9
f 84/32/9 79/31/9 80/30/9
f 19/147/5 84/153/5 80/154/5
f 84/153/5 19/147/5 27/155/5
f 24/156/5 66/157/5 76/158/5
f 66/157/5 24/156/5 22/150/5
f 26/156/2 79/157/2 83/158/2
f 79/157/2 26/156/2 20/150/2
f 11/147/2 77/153/2 67/154/2
f 77/153/2 11/147/2 13/155/2
f 81/15/9 86/16/9 85/17/9
f 86/16/9 81/15/9 82/14/9
f 28/156/2 81/157/2 85/158/2
f 81/157/2 28/156/2 18/150/2
f 17/147/5 86/153/5 82/154/5
f 86/153/5 17/147/5 29/155/5
f 77/36/9 68/24/9 67/25/9
f 68/24/9 77/36/9 78/37/9
f 12/156/5 68/157/5 78/158/5
f 68/157/5 12/156/5 10/150/5

usemtl metalLight

f 65/152/5 72/151/5 15/147/5
f 16/150/5 15/147/5 72/151/5
f 74/159/3 79/160/3 71/161/3
f 72/162/3 71/161/3 79/160/3
f 73/163/3 79/160/3 74/159/3
f 21/164/3 79/160/3 73/163/3
f 80/165/3 72/162/3 79/160/3
f 81/166/3 72/162/3 80/165/3
f 19/167/3 81/166/3 80/165/3
f 82/168/3 72/162/3 81/166/3
f 17/169/3 72/162/3 82/168/3
f 16/170/3 72/162/3 17/169/3
f 81/166/3 19/167/3 18/171/3
f 79/160/3 21/164/3 20/172/3
f 59/88/9 63/141/9 60/96/9
f 63/141/9 59/88/9 47/91/9
f 63/141/9 47/91/9 71/142/9
f 71/142/9 47/91/9 72/19/9
f 65/23/9 60/96/9 63/141/9
f 60/96/9 65/23/9 39/98/9
f 39/98/9 65/23/9 72/19/9
f 39/98/9 72/19/9 41/97/9
f 41/97/9 72/19/9 69/95/9
f 69/95/9 72/19/9 49/92/9
f 49/92/9 72/19/9 47/91/9
f 70/94/9 41/97/9 69/95/9

usemtl glass

f 21/147/5 61/148/5 73/149/5
f 61/148/5 21/147/5 14/150/5
f 84/165/1 26/172/1 83/160/1
f 26/172/1 84/165/1 27/167/1
f 83/160/3 26/172/3 84/165/3
f 27/167/3 84/165/3 26/172/3
f 83/33/4 84/32/4 79/31/4
f 80/30/4 79/31/4 84/32/4
f 24/119/3 75/112/3 25/109/3
f 75/112/3 24/119/3 76/116/3
f 80/154/2 84/153/2 19/147/2
f 27/155/2 19/147/2 84/153/2
f 83/158/5 79/157/5 26/156/5
f 20/150/5 26/156/5 79/157/5
f 86/168/1 28/171/1 85/166/1
f 28/171/1 86/168/1 29/169/1
f 85/166/3 28/171/3 86/168/3
f 29/169/3 86/168/3 28/171/3
f 85/17/4 86/16/4 81/15/4
f 82/14/4 81/15/4 86/16/4
f 85/158/5 81/157/5 28/156/5
f 18/150/5 28/156/5 81/157/5
f 82/154/2 86/153/2 17/147/2
f 29/155/2 17/147/2 86/153/2
f 12/122/3 77/117/3 13/118/3
f 77/117/3 12/122/3 78/120/3

