# Created by Kenney (www.kenney.nl)

mtllib boat_021.mtl

g boat_021

v 0.413339 1.199503 -0.07703047
v -0.413339 1.199503 -0.07703047
v 0.1808718 1.199503 -0.4458326
v -7.219114E-16 1.199503 -0.5459445
v -0.1808718 1.199503 -0.4458326
v -7.219114E-16 0.9 -0.9217937
v -0.2411625 0.9 -0.7883111
v 0.5511187 0.9 -0.296575
v 0.5511187 0.9 -0.07703047
v -0.5511187 0.9 -0.296575
v -0.5511187 0.9 -0.07703047
v 0.2411625 0.9 -0.7883111
v 0.413339 1.199503 0.6830074
v -0.413339 1.199503 0.6830074
v 0.5511187 0.9 0.9330075
v -0.5511187 0.9 0.9330075
v -0.40698 0 1.585
v -0.40698 0 0.18206
v -0.6783 0.2 1.585
v -0.6783 0.2 -0.2863
v -7.219114E-16 0.2 -1.0558
v -7.219114E-16 0.6 -1.585
v -0.2968153 0.2 -0.8915137
v -0.3905465 0.6 -1.368834
v -7.219114E-16 0 -0.27964
v -0.1780892 0 -0.1810682
v 0.3905465 0.6 -1.368834
v 0.2968153 0.2 -0.8915137
v 0.1780892 0 -0.1810682
v 0.40698 0 1.585
v 0.6783 0.2 1.585
v 0.8925 0.6 1.585
v -0.8925 0.6 1.585
v -0.8925 0.6 -0.5725
v 0.8925 0.6 -0.5725
v 0.6783 0.2 -0.2863
v 0.40698 0 0.18206
v -7.219114E-16 0.8 -1.47475
v 0.3710192 0.8 -1.269392
v 0.847875 0.8 -0.512875
v -0.3710192 0.8 -1.269392
v -0.847875 0.8 -0.512875
v -0.847875 0.8 0.6830074
v -0.847875 0.8 0.9330075
v -0.847875 0.8 1.585
v 0.847875 0.8 1.585
v 0.5511187 0.9 1.585
v -0.5511187 0.9 1.585
v 0.847875 0.8 0.6830074
v 0.6994969 0.85 0.6830074
v 0.6994969 0.85 0.9330075
v 0.847875 0.8 0.9330075
v -0.847875 1.608114 0.9830074
v -0.6994969 0.85 0.6830074
v 0.6994969 1.458114 0.9230074
v 0.6994969 1.458114 1.173007
v -0.847875 1.608114 1.233007
v -0.6994969 0.85 0.9330075
v -0.6994969 1.458114 1.173007
v 0.847875 1.608114 1.233007
v -0.6994969 1.458114 0.9230074
v 0.847875 1.608114 0.9830074

vn 0 1 0
vn -0.3260853 0.7393146 -0.589137
vn 0.9084806 0.4179268 0
vn -0.6670303 0.6150551 -0.4204496
vn -0.9084806 0.4179268 0
vn 0.6670303 0.6150551 -0.4204496
vn 0.3260853 0.7393146 -0.589137
vn 0 -1 0
vn 0.3260853 -0.7393146 0.589137
vn -0.9084806 -0.4179268 0
vn 0.6670303 -0.6150551 0.4204496
vn 0.9084806 -0.4179268 0
vn -0.6670303 -0.6150551 0.4204496
vn -0.3260853 -0.7393146 0.589137
vn -0.5933529 -0.8049424 0
vn -0.3165844 -0.7567184 -0.5719716
vn -0.1368141 -0.9592618 -0.2471815
vn 0.3165844 -0.7567184 -0.5719716
vn 0.1368141 -0.9592618 -0.2471815
vn 0 0 1
vn -0.8815585 -0.4720746 0
vn 0.649501 -0.6407338 -0.4094003
vn 0.3257908 -0.9228701 -0.2053559
vn -0.649501 -0.6407338 -0.4094003
vn 0.8815585 -0.4720746 0
vn -0.3257908 -0.9228701 -0.2053559
vn 0.5933529 -0.8049424 0
vn 0.5933529 0.8049424 0
vn 0.3165844 0.7567184 0.5719716
vn 0.4361847 0.4344141 -0.7880529
vn -0.4361847 -0.4344141 0.7880529
vn 0.2227476 0.9647124 -0.1404046
vn -0.2227476 -0.9647124 0.1404046
vn -0.2227476 0.9647124 -0.1404046
vn 0.2227476 -0.9647124 0.1404046
vn 0.1368141 0.9592618 0.2471815
vn -0.3165844 0.7567184 0.5719716
vn -0.9760001 0.21777 0
vn 0.9760001 -0.21777 0
vn -0.1368141 0.9592618 0.2471815
vn 0 0 -1
vn 0.8815585 0.4720746 0
vn -0.649501 0.6407338 0.4094003
vn 0.09802558 0.9792986 -0.1771024
vn -0.09802558 -0.9792986 0.1771024
vn -0.3257908 0.9228701 0.2053559
vn -0.799036 0.3284376 -0.5036568
vn 0.799036 -0.3284376 0.5036568
vn 0.649501 0.6407338 0.4094003
vn 0 -0.6408112 -0.7676985
vn 0.3193336 0.9476424 0
vn -0.3193336 -0.9476424 0
vn -0.8815585 0.4720746 0
vn -0.4361847 0.4344141 -0.7880529
vn 0.4361847 -0.4344141 0.7880529
vn 0.799036 0.3284376 -0.5036568
vn -0.799036 -0.3284376 0.5036568
vn 0.3257908 0.9228701 0.2053559
vn -0.5933529 0.8049424 0
vn -0.09802558 0.9792986 -0.1771024
vn 0.09802558 -0.9792986 0.1771024
vn 0.9760001 0.21777 0
vn -0.9760001 -0.21777 0
vn 0.1164787 -0.3456579 0.9311032
vn 1 0 0
vn -0.005018649 0.3671024 -0.930167
vn -0.3193336 0.9476424 0
vn 0.3193336 -0.9476424 0
vn 0 0.3713907 -0.9284768
vn -1 0 0
vn 0.1164787 0.3456579 -0.9311032
vn 0.005018649 -0.3671024 0.930167
vn -0.1164787 -0.3456579 0.9311032
vn 0.005018649 0.3671024 -0.930167
vn -0.1164787 0.3456579 -0.9311032
vn -0.005018649 -0.3671024 0.930167
vn 0 -0.3713907 0.9284768
vn 0 0.6408112 0.7676985

vt -16.27319 -3.032696
vt 16.27319 -3.032696
vt -7.120939 -17.55246
vt 2.842171E-14 -21.49388
vt 7.120939 -17.55246
vt -17.57454 0.3846264
vt -10.40875 17.89597
vt -6.722601 0.3846264
vt -2.2698 17.89597
vt 3.032696 36.10155
vt 11.67618 23.12226
vt 3.032696 23.12226
vt -21.1924 12.81938
vt -11.05162 27.77395
vt 1.692329 12.81938
vt 6.111925 27.77395
vt -3.032696 23.12226
vt -11.67618 23.12226
vt -3.032696 36.10155
vt 21.1924 12.81938
vt -1.692329 12.81938
vt 11.05162 27.77395
vt -6.111925 27.77395
vt 6.722601 0.3846264
vt 2.2698 17.89597
vt 17.57454 0.3846264
vt 10.40875 17.89597
vt -16.27319 26.89006
vt 16.27319 26.89006
vt -26.89006 36.10155
vt -36.73258 23.12226
vt 36.73258 23.12226
vt 26.89006 36.10155
vt 62.40157 12.89746
vt 7.167717 12.89746
vt 62.40157 26.16784
vt -11.27165 26.16784
vt -20.12944 32.66773
vt -30.21895 56.75684
vt -6.773215 32.66773
vt -12.64497 56.75684
vt -5.3315 9.23999
vt -20.12944 37.11077
vt 2.682237 9.23999
vt -6.773215 37.11077
vt 12.64497 56.75684
vt 30.21895 56.75684
vt 6.773215 32.66773
vt 20.12944 32.66773
vt 6.773215 37.11077
vt 20.12944 37.11077
vt -2.682237 9.23999
vt 5.3315 9.23999
vt 16.02283 0
vt -16.02283 0
vt 26.70473 7.874016
vt -26.70473 7.874016
vt 35.13779 23.62205
vt -35.13779 23.62205
vt -22.53937 37.41188
vt 62.40157 37.41188
vt -11.27165 19.54803
vt 62.40157 19.54803
vt 37.39102 44.88306
vt 23.46128 24.37148
vt 0.3307262 44.88306
vt -4.70454 24.37148
vt -4.70454 29.42807
vt 23.46128 29.42807
vt -14.60762 8.981987
vt 2.291872 8.981987
vt -37.39102 44.88306
vt -0.3307262 44.88306
vt -23.46128 24.37148
vt 4.70454 24.37148
vt 22.53937 37.41188
vt 11.27165 19.54803
vt -62.40157 37.41188
vt -62.40157 19.54803
vt -2.291872 8.981987
vt -23.46128 29.42807
vt 14.60762 8.981987
vt 4.70454 29.42807
vt -62.40157 26.16784
vt 11.27165 26.16784
vt -62.40157 12.89746
vt -7.167717 12.89746
vt 16.02283 62.40157
vt 16.02283 7.167717
vt -16.02283 62.40157
vt 7.011386 -7.12867
vt -2.842171E-14 -11.00945
vt -7.011386 -7.12867
vt -16.02283 7.167717
vt 30.21895 -2.440776
vt 12.64497 -2.440776
vt 28.11697 6.301203
vt 11.42169 6.301203
vt -0.7182876 -29.33666
vt -1.692329 -14.38443
vt 34.48899 -29.33666
vt 21.1924 -14.38443
vt -21.1924 -14.38443
vt 1.692329 -14.38443
vt -34.48899 -29.33666
vt 0.7182876 -29.33666
vt -22.53937 15.40316
vt -20.19193 23.4708
vt 62.40157 15.40316
vt 26.89006 23.4708
vt 36.73258 23.4708
vt 62.40157 23.4708
vt 33.38091 31.49606
vt -33.38091 31.49606
vt 21.69759 35.43307
vt -21.69759 35.43307
vt 11.42169 -43.37173
vt 6.722601 -23.92213
vt 28.11697 -43.37173
vt 17.57454 -23.92213
vt -37.39102 8.601264
vt -34.48899 16.93774
vt -0.3307262 8.601264
vt 0.7182876 16.93774
vt 16.27319 19.02274
vt -21.69759 3.663271
vt 21.69759 3.663271
vt -16.27319 19.02274
vt 20.19193 -21.57541
vt -26.89006 -21.57541
vt 11.67618 -9.246585
vt -26.89006 -15.411
vt -36.73258 -15.411
vt -62.40157 -9.246585
vt -62.40157 -21.57541
vt -36.73258 -21.57541
vt 3.032696 -9.246585
vt -36.73258 -9.246585
vt -12.64497 -2.440776
vt -30.21895 -2.440776
vt -11.42169 6.301203
vt -28.11697 6.301203
vt 37.39102 8.601264
vt 0.3307262 8.601264
vt 34.48899 16.93774
vt -0.7182876 16.93774
vt -28.11697 -43.37173
vt -17.57454 -23.92213
vt -11.42169 -43.37173
vt -6.722601 -23.92213
vt 22.53937 15.40316
vt -62.40157 15.40316
vt 20.19193 23.4708
vt -26.89006 23.4708
vt -36.73258 23.4708
vt -62.40157 23.4708
vt 37.9267 71.2507
vt 30.66412 39.44309
vt 36.4606 37.34528
vt 36.73258 33.46457
vt 36.33887 57.40606
vt 26.89006 33.46457
vt 46.1814 57.40606
vt -33.64233 76.64529
vt -27.73703 44.55796
vt -27.78801 70.29651
vt 26.89006 -15.411
vt 36.73258 -15.411
vt 26.89006 -21.57541
vt 36.73258 -21.57541
vt -20.19193 -21.57541
vt 62.40157 -9.246585
vt 36.73258 -9.246585
vt -3.032696 -9.246585
vt -11.67618 -9.246585
vt 62.40157 -21.57541
vt 33.38091 76.81196
vt -27.53925 70.45153
vt 27.53925 70.45153
vt -33.38091 76.81196
vt -36.33887 57.40606
vt -36.73258 33.46457
vt -26.89006 33.46457
vt -46.1814 57.40606
vt 33.38091 38.70108
vt -33.38091 48.5436
vt -33.38091 38.70108
vt 33.38091 48.5436
vt 36.73258 31.49606
vt 38.70108 63.31157
vt 26.89006 31.49606
vt 48.5436 63.31157
vt -21.69759 36.73258
vt -21.69759 62.40157
vt 21.69759 36.73258
vt 21.69759 62.40157
vt -38.70108 63.31157
vt -36.73258 31.49606
vt -26.89006 31.49606
vt -48.5436 63.31157
vt -27.53925 46.1814
vt 27.53925 36.33887
vt 27.53925 46.1814
vt -27.53925 36.33887
vt 39.14846 74.62653
vt 31.88587 42.81892
vt 37.68235 40.72112
vt 33.58923 73.03213
vt 27.73491 66.68335
vt 27.68393 40.94481
vt -37.9267 71.2507
vt -36.4606 37.34528
vt -30.66412 39.44309
vt 33.64233 76.64529
vt 27.78801 70.29651
vt 27.73703 44.55796
vt -39.14846 74.62653
vt -37.68235 40.72112
vt -31.88587 42.81892
vt -33.58923 73.03213
vt -27.68393 40.94481
vt -27.73491 66.68335
vt 33.38091 73.15654
vt -27.53925 66.7961
vt 27.53925 66.7961
vt -33.38091 73.15654

usemtl glass

f 3/3/1 2/2/1 1/1/1
f 2/2/1 3/3/1 4/4/1
f 2/2/1 4/4/1 5/5/1
f 7/8/2 4/7/2 6/6/2
f 4/7/2 7/8/2 5/9/2
f 9/12/3 8/11/3 1/10/3
f 10/15/4 5/14/4 7/13/4
f 5/14/4 10/15/4 2/16/4
f 2/19/5 10/18/5 11/17/5
f 3/22/6 8/21/6 12/20/6
f 8/21/6 3/22/6 1/23/6
f 6/26/7 3/25/7 12/24/7
f 3/25/7 6/26/7 4/27/7

usemtl metalGreen

f 1/1/8 2/2/8 3/3/8
f 4/4/8 3/3/8 2/2/8
f 5/5/8 4/4/8 2/2/8
f 1/1/8 13/28/8 2/2/8
f 14/29/8 2/2/8 13/28/8
f 6/6/9 4/7/9 7/8/9
f 5/9/9 7/8/9 4/7/9
f 1/10/10 8/11/10 9/12/10
f 1/10/10 9/12/10 13/30/10
f 15/31/10 13/30/10 9/12/10
f 7/13/11 5/14/11 10/15/11
f 2/16/11 10/15/11 5/14/11
f 11/17/12 2/19/12 16/32/12
f 14/33/12 16/32/12 2/19/12
f 11/17/12 10/18/12 2/19/12
f 12/20/13 8/21/13 3/22/13
f 1/23/13 3/22/13 8/21/13
f 12/24/14 3/25/14 6/26/14
f 4/27/14 6/26/14 3/25/14

usemtl metalDark

f 19/36/15 18/35/15 17/34/15
f 18/35/15 19/36/15 20/37/15
f 23/40/16 22/39/16 21/38/16
f 22/39/16 23/40/16 24/41/16
f 26/44/17 21/43/17 25/42/17
f 21/43/17 26/44/17 23/45/17
f 28/48/18 22/47/18 27/46/18
f 22/47/18 28/48/18 21/49/18
f 29/52/19 21/51/19 28/50/19
f 21/51/19 29/52/19 25/53/19
f 31/56/20 17/55/20 30/54/20
f 17/55/20 31/56/20 19/57/20
f 32/58/20 19/57/20 31/56/20
f 19/57/20 32/58/20 33/59/20
f 20/62/21 33/61/21 34/60/21
f 33/61/21 20/62/21 19/63/21
f 35/66/22 28/65/22 27/64/22
f 28/65/22 35/66/22 36/67/22
f 37/70/23 28/69/23 36/68/23
f 28/69/23 37/70/23 29/71/23
f 23/74/24 34/73/24 24/72/24
f 34/73/24 23/74/24 20/75/24
f 32/78/25 36/77/25 35/76/25
f 36/77/25 32/78/25 31/79/25
f 18/82/26 23/81/26 26/80/26
f 23/81/26 18/82/26 20/83/26
f 30/86/27 36/85/27 31/84/27
f 36/85/27 30/86/27 37/87/27
f 17/90/8 37/89/8 30/88/8
f 37/89/8 17/90/8 29/91/8
f 29/91/8 17/90/8 25/92/8
f 25/92/8 17/90/8 26/93/8
f 26/93/8 17/90/8 18/94/8

usemtl metalRed

f 17/34/28 18/35/28 19/36/28
f 20/37/28 19/36/28 18/35/28
f 21/38/29 22/39/29 23/40/29
f 24/41/29 23/40/29 22/39/29
f 38/97/30 27/96/30 22/95/30
f 27/96/30 38/97/30 39/98/30
f 22/95/31 27/96/31 38/97/31
f 39/98/31 38/97/31 27/96/31
f 39/101/32 8/100/32 40/99/32
f 8/100/32 39/101/32 12/102/32
f 40/99/33 8/100/33 39/101/33
f 12/102/33 39/101/33 8/100/33
f 41/105/34 10/104/34 7/103/34
f 10/104/34 41/105/34 42/106/34
f 7/103/35 10/104/35 41/105/35
f 42/106/35 41/105/35 10/104/35
f 25/42/36 21/43/36 26/44/36
f 23/45/36 26/44/36 21/43/36
f 27/46/37 22/47/37 28/48/37
f 21/49/37 28/48/37 22/47/37
f 33/109/38 42/108/38 34/107/38
f 42/108/38 33/109/38 43/110/38
f 43/110/38 33/109/38 44/111/38
f 44/111/38 33/109/38 45/112/38
f 34/107/39 42/108/39 33/109/39
f 43/110/39 33/109/39 42/108/39
f 44/111/39 33/109/39 43/110/39
f 45/112/39 33/109/39 44/111/39
f 28/50/40 21/51/40 29/52/40
f 25/53/40 29/52/40 21/51/40
f 30/54/41 17/55/41 31/56/41
f 19/57/41 31/56/41 17/55/41
f 31/56/41 19/57/41 32/58/41
f 33/59/41 32/58/41 19/57/41
f 32/58/41 33/59/41 46/113/41
f 45/114/41 46/113/41 33/59/41
f 47/115/41 46/113/41 45/114/41
f 48/116/41 47/115/41 45/114/41
f 34/60/42 33/61/42 20/62/42
f 19/63/42 20/62/42 33/61/42
f 27/64/43 28/65/43 35/66/43
f 36/67/43 35/66/43 28/65/43
f 38/119/44 12/118/44 39/117/44
f 12/118/44 38/119/44 6/120/44
f 39/117/45 12/118/45 38/119/45
f 6/120/45 38/119/45 12/118/45
f 36/68/46 28/69/46 37/70/46
f 29/71/46 37/70/46 28/69/46
f 34/123/47 41/122/47 24/121/47
f 41/122/47 34/123/47 42/124/47
f 24/121/48 41/122/48 34/123/48
f 42/124/48 34/123/48 41/122/48
f 24/72/49 34/73/49 23/74/49
f 20/75/49 23/74/49 34/73/49
f 15/127/50 16/126/50 13/125/50
f 14/128/50 13/125/50 16/126/50
f 8/131/51 49/130/51 40/129/51
f 49/130/51 8/131/51 50/132/51
f 50/132/51 8/131/51 51/133/51
f 47/134/51 51/133/51 8/131/51
f 46/135/51 51/133/51 47/134/51
f 51/133/51 46/135/51 52/136/51
f 50/132/51 52/136/51 49/130/51
f 52/136/51 50/132/51 51/133/51
f 47/134/51 8/131/51 9/137/51
f 47/134/51 9/137/51 15/138/51
f 40/129/52 49/130/52 8/131/52
f 50/132/52 8/131/52 49/130/52
f 51/133/52 8/131/52 50/132/52
f 8/131/52 51/133/52 47/134/52
f 47/134/52 51/133/52 46/135/52
f 52/136/52 46/135/52 51/133/52
f 49/130/52 52/136/52 50/132/52
f 51/133/52 50/132/52 52/136/52
f 9/137/52 8/131/52 47/134/52
f 15/138/52 9/137/52 47/134/52
f 35/76/53 36/77/53 32/78/53
f 31/79/53 32/78/53 36/77/53
f 46/113/20 33/59/20 32/58/20
f 33/59/20 46/113/20 45/114/20
f 45/114/20 46/113/20 47/115/20
f 45/114/20 47/115/20 48/116/20
f 41/141/54 22/140/54 24/139/54
f 22/140/54 41/141/54 38/142/54
f 24/139/55 22/140/55 41/141/55
f 38/142/55 41/141/55 22/140/55
f 39/145/56 35/144/56 27/143/56
f 35/144/56 39/145/56 40/146/56
f 27/143/57 35/144/57 39/145/57
f 40/146/57 39/145/57 35/144/57
f 26/80/58 23/81/58 18/82/58
f 20/83/58 18/82/58 23/81/58
f 31/84/59 36/85/59 30/86/59
f 37/87/59 30/86/59 36/85/59
f 30/88/1 37/89/1 17/90/1
f 29/91/1 17/90/1 37/89/1
f 25/92/1 17/90/1 29/91/1
f 26/93/1 17/90/1 25/92/1
f 18/94/1 17/90/1 26/93/1
f 41/149/60 6/148/60 38/147/60
f 6/148/60 41/149/60 7/150/60
f 38/147/61 6/148/61 41/149/61
f 7/150/61 41/149/61 6/148/61
f 40/153/62 32/152/62 35/151/62
f 32/152/62 40/153/62 49/154/62
f 32/152/62 49/154/62 52/155/62
f 32/152/62 52/155/62 46/156/62
f 35/151/63 32/152/63 40/153/63
f 49/154/63 40/153/63 32/152/63
f 52/155/63 49/154/63 32/152/63
f 46/156/63 52/155/63 32/152/63
f 43/159/64 54/158/64 53/157/64
f 50/162/65 55/161/65 51/160/65
f 56/163/65 51/160/65 55/161/65
f 59/166/66 58/165/66 57/164/66
f 43/169/67 58/168/67 54/167/67
f 58/168/67 43/169/67 44/170/67
f 54/167/67 42/171/67 43/169/67
f 48/172/67 42/171/67 54/167/67
f 58/168/67 48/172/67 54/167/67
f 16/173/67 42/171/67 48/172/67
f 11/174/67 42/171/67 16/173/67
f 42/171/67 11/174/67 10/175/67
f 48/172/67 58/168/67 45/176/67
f 45/176/67 58/168/67 44/170/67
f 54/167/68 58/168/68 43/169/68
f 44/170/68 43/169/68 58/168/68
f 43/169/68 42/171/68 54/167/68
f 54/167/68 42/171/68 48/172/68
f 54/167/68 48/172/68 58/168/68
f 48/172/68 42/171/68 16/173/68
f 16/173/68 42/171/68 11/174/68
f 10/175/68 11/174/68 42/171/68
f 45/176/68 58/168/68 48/172/68
f 44/170/68 58/168/68 45/176/68
f 56/179/69 59/178/69 60/177/69
f 57/180/69 60/177/69 59/178/69
f 54/183/70 58/182/70 61/181/70
f 59/184/70 61/181/70 58/182/70
f 62/187/8 60/186/8 53/185/8
f 57/188/8 53/185/8 60/186/8
f 43/191/65 53/190/65 44/189/65
f 57/192/65 44/189/65 53/190/65
f 16/195/1 47/194/1 15/193/1
f 47/194/1 16/195/1 48/196/1
f 15/193/8 47/194/8 16/195/8
f 48/196/8 16/195/8 47/194/8
f 49/199/70 52/198/70 62/197/70
f 60/200/70 62/197/70 52/198/70
f 56/203/1 55/202/1 59/201/1
f 61/204/1 59/201/1 55/202/1
f 52/207/71 51/206/71 60/205/71
f 54/210/72 61/209/72 53/208/72
f 50/213/73 49/212/73 62/211/73
f 51/216/74 56/215/74 60/214/74
f 58/219/75 44/218/75 57/217/75
f 55/222/76 50/221/76 62/220/76
f 61/225/77 55/224/77 53/223/77
f 62/226/77 53/223/77 55/224/77

usemtl metalLight

f 2/2/1 13/28/1 1/1/1
f 13/28/1 2/2/1 14/29/1
f 16/32/5 2/19/5 11/17/5
f 2/19/5 16/32/5 14/33/5
f 13/30/3 9/12/3 1/10/3
f 9/12/3 13/30/3 15/31/3
f 13/125/78 16/126/78 15/127/78
f 16/126/78 13/125/78 14/128/78
f 53/157/75 54/158/75 43/159/75
f 51/160/70 55/161/70 50/162/70
f 55/161/70 51/160/70 56/163/70
f 57/164/72 58/165/72 59/166/72
f 60/177/77 59/178/77 56/179/77
f 59/178/77 60/177/77 57/180/77
f 61/181/65 58/182/65 54/183/65
f 58/182/65 61/181/65 59/184/65
f 53/185/1 60/186/1 62/187/1
f 60/186/1 53/185/1 57/188/1
f 44/189/70 53/190/70 43/191/70
f 53/190/70 44/189/70 57/192/70
f 62/197/65 52/198/65 49/199/65
f 52/198/65 62/197/65 60/200/65
f 59/201/8 55/202/8 56/203/8
f 55/202/8 59/201/8 61/204/8
f 60/205/73 51/206/73 52/207/73
f 53/208/66 61/209/66 54/210/66
f 62/211/71 49/212/71 50/213/71
f 60/214/76 56/215/76 51/216/76
f 57/217/64 44/218/64 58/219/64
f 62/220/74 50/221/74 55/222/74
f 53/223/69 55/224/69 61/225/69
f 55/224/69 53/223/69 62/226/69

