# Created by Kenney (www.kenney.nl)

mtllib boat_009.mtl

g boat_009

v -0.75 0.45 -0.8685493
v -0.75 0.65 -0.8685493
v -0.4175216 0.45 -1.149213
v -0.4175216 0.65 -1.149213
v 0.75 0.45 -0.8685493
v 0.4175216 0.45 -1.149213
v 0.75 0.65 -0.8685493
v 0.4175216 0.65 -1.149213
v 0.545 0.45 1.335
v 0.545 0.65 1.335
v 0.545 0.45 1.435
v 0.545 0.65 1.435
v 2.346212E-15 0 -0.581
v -0.372 0.1 -0.985
v 6.497203E-15 0.1 -1.085
v -0.2232 0 -0.521
v 0.408 0 -0.365
v 0.372 0.1 -0.985
v 0.68 0.1 -0.725
v 0.2232 0 -0.521
v -0.55 0.8 -0.46
v 0.55 1.199503 0.24
v 0.55 0.8 -0.46
v -0.55 1.199503 0.24
v -0.8925 0.35 1.435
v 0.8925 0.35 1.435
v 0.85 0.65 1.435
v -0.545 0.45 1.435
v -0.85 0.65 1.435
v -0.545 0.65 1.435
v -0.68 0.1 1.435
v 0.68 0.1 1.435
v -0.408 0 1.435
v 0.408 0 1.435
v -0.8925 0.35 -0.9625
v -0.48825 0.35 -1.30375
v -0.85 0.65 -0.915
v -0.465 0.65 -1.24
v 0.55 0.45 -0.46
v -0.55 0.45 -0.46
v 0.8925 0.35 -0.9625
v 0.85 0.65 -0.915
v 0.75 0.45 1.335
v 0.75 0.65 1.335
v 1.082867E-15 0.35 -1.435
v 0.48825 0.35 -1.30375
v 1.804779E-15 0.65 -1.365
v 0.465 0.65 -1.24
v 1.804779E-15 0.45 -1.26145
v 1.804779E-15 0.65 -1.26145
v -0.68 0.1 -0.725
v -0.55 0.45 1.135
v 0.55 0.45 1.135
v -0.545 0.45 1.335
v -0.75 0.45 1.335
v 0.55 1.199503 0.835
v 0.55 0.8 0.24
v -0.408 0 -0.365
v -0.75 0.65 1.335
v -0.545 0.65 1.335
v -0.55 0.8 0.24
v -0.55 1.199503 0.835

vn 0.6450521 0 0.7641386
vn -0.6450521 0 -0.7641386
vn -0.6450521 0 0.7641386
vn 0.6450521 0 -0.7641386
vn -1 0 0
vn 1 0 0
vn 0.05224545 0.9795394 0.1943531
vn -0.1397704 0.9762425 0.1655742
vn 0 -0.8685088 0.4956737
vn 0 0 1
vn 0 0 -1
vn -0.63098 0.207738 -0.7474686
vn 0.63098 -0.207738 0.7474686
vn 0.9901139 0.1402661 0
vn -0.9901139 -0.1402661 0
vn 0.2532512 0.219822 -0.9420946
vn -0.2532512 -0.219822 0.9420946
vn 0.1543738 0.8039789 0.5742706
vn -0.2596011 0 0.965716
vn 0.2596011 0 -0.965716
vn -0.1543738 0.8039789 0.5742706
vn 0.398237 0.7866713 0.4717577
vn 0 1 0
vn 0 -1 0
vn -0.398237 0.7866713 0.4717577
vn 0.63098 0.207738 -0.7474686
vn -0.63098 -0.207738 0.7474686
vn -0.2532512 0.219822 -0.9420946
vn 0.2532512 -0.219822 0.9420946
vn 0.2596011 0 0.965716
vn -0.2596011 0 -0.965716
vn 0.1397704 0.9762425 0.1655742
vn -0.05224545 0.9795394 0.1943531
vn -0.7619393 0.6476484 0
vn 0.3450657 0.9385786 0
vn -0.9901139 0.1402661 0
vn 0.9901139 -0.1402661 0
vn -0.3450657 0.9385786 0
vn 0.7619393 0.6476484 0
vn 0 0.8685088 -0.4956737
vn -0.05224545 -0.9795394 -0.1943531
vn 0.1397704 -0.9762425 -0.1655742
vn -0.1543738 -0.8039789 -0.5742706
vn 0.1543738 -0.8039789 -0.5742706
vn -0.398237 -0.7866713 -0.4717577
vn 0.398237 -0.7866713 -0.4717577
vn -0.1397704 -0.9762425 -0.1655742
vn 0.05224545 -0.9795394 -0.1943531
vn 0.7619393 -0.6476484 0
vn -0.3450657 -0.9385786 0
vn 0.3450657 -0.9385786 0
vn -0.7619393 -0.6476484 0
vn 0 0.3716031 0.9283918
vn 0 -0.3716031 -0.9283918

vt -0.5056869 17.71654
vt -0.5056869 25.59055
vt 16.62432 17.71654
vt 16.62432 25.59055
vt 0.5056869 17.71654
vt -16.62432 17.71654
vt 0.5056869 25.59055
vt -16.62432 25.59055
vt 52.55906 17.71654
vt 52.55906 25.59055
vt 56.49606 17.71654
vt 56.49606 25.59055
vt -5.938119 21.63783
vt 4.07635 41.20033
vt -11.08926 41.20033
vt 3.161246 21.63783
vt -3.004903 20.83516
vt 13.82349 39.00478
vt -2.045335 39.00478
vt 6.516394 20.83516
vt 21.65354 -0.1171309
vt -21.65354 31.61433
vt -21.65354 -0.1171309
vt 21.65354 31.61433
vt -35.13779 13.77953
vt 21.45669 17.71654
vt 35.13779 13.77953
vt 33.46457 25.59055
vt 21.45669 25.59055
vt -21.45669 17.71654
vt -33.46457 25.59055
vt -21.45669 25.59055
vt -26.77165 3.937008
vt 26.77165 3.937008
vt -16.06299 0
vt 16.06299 0
vt 2.406736 2.755121
vt -18.4211 2.755121
vt 2.334455 14.82955
vt -17.50158 14.82955
vt 21.65354 31.49606
vt -21.65354 17.71654
vt 21.65354 17.71654
vt -21.65354 31.49606
vt 37.8937 8.714659
vt -56.49606 8.714659
vt 36.02362 20.64361
vt -56.49606 20.64361
vt -29.52756 17.71654
vt -29.52756 25.59055
vt 14.66644 1.449176
vt -5.238422 1.449176
vt 13.951 13.55634
vt -5.006008 13.55634
vt 4.07635 35.50694
vt -14.66644 52.05851
vt -11.08926 35.50694
vt 5.238422 52.05851
vt 4.128753 17.71654
vt -12.89267 17.71654
vt 4.128753 25.59055
vt -12.89267 25.59055
vt -4.07635 35.50694
vt 14.66644 52.05851
vt -5.238422 52.05851
vt 11.08926 35.50694
vt 2.045335 33.17384
vt -18.4211 49.11644
vt -13.82349 33.17384
vt 2.406736 49.11644
vt -29.52756 52.55906
vt -21.65354 -18.11024
vt -29.52756 -34.19485
vt -16.43786 -45.2446
vt 21.65354 -18.11024
vt -7.137091E-14 -49.66338
vt 16.43786 -45.2446
vt 29.52756 -34.19485
vt 21.65354 44.68504
vt -21.65354 44.68504
vt -21.45669 52.55906
vt -21.45669 56.49606
vt 21.45669 52.55906
vt 29.52756 52.55906
vt 21.45669 56.49606
vt -34.19485 17.71654
vt -34.19485 25.59055
vt -2.045335 33.17384
vt 18.4211 49.11644
vt -2.406736 49.11644
vt 13.82349 33.17384
vt 18.4211 2.755121
vt -2.406736 2.755121
vt 17.50158 14.82955
vt -2.334455 14.82955
vt 5.238422 1.449176
vt -14.66644 1.449176
vt 5.006008 13.55634
vt -13.951 13.55634
vt 12.89267 17.71654
vt -4.128753 17.71654
vt 12.89267 25.59055
vt -4.128753 25.59055
vt -32.87402 47.22451
vt -9.448819 31.49606
vt -9.448819 47.22451
vt -44.68504 17.71654
vt 18.11024 17.71654
vt 18.11024 31.49606
vt 3.004903 20.83516
vt -13.82349 39.00478
vt -6.516394 20.83516
vt 2.045335 39.00478
vt -3.161246 21.63783
vt 11.08926 41.20033
vt -4.07635 41.20033
vt 5.938119 21.63783
vt -56.49606 33.2561
vt 28.54331 20.33838
vt 37.8937 33.2561
vt -56.49606 20.33838
vt 56.49606 26.48583
vt -14.37008 15.07638
vt 56.49606 15.07638
vt -28.54331 26.48583
vt -33.46457 56.49606
vt -33.46457 -36.02362
vt -18.30709 -48.8189
vt -7.105427E-14 -53.74016
vt -7.105427E-14 -49.66338
vt 18.30709 -48.8189
vt 33.46457 -36.02362
vt 33.46457 56.49606
vt -37.8937 8.714659
vt -36.02362 20.64361
vt 56.49606 8.714659
vt 56.49606 20.64361
vt -56.49606 15.07638
vt 28.54331 26.48583
vt -56.49606 26.48583
vt 14.37008 15.07638
vt -52.55906 25.59055
vt -52.55906 17.71654
vt -56.49606 25.59055
vt -56.49606 17.71654
vt -28.54331 20.33838
vt 56.49606 33.2561
vt -37.8937 33.2561
vt 56.49606 20.33838
vt 29.52756 17.71654
vt 29.52756 25.59055
vt -16.06299 56.49606
vt 16.06299 -14.37008
vt 16.06299 56.49606
vt 8.787401 -20.51181
vt 9.237056E-14 -22.87402
vt -8.787401 -20.51181
vt -16.06299 -14.37008
vt 34.19485 25.59055
vt 34.19485 17.71654
vt 9.448819 31.49606
vt -18.11024 31.49606
vt 9.448819 47.22451
vt 35.13779 56.49606
vt 35.13779 -37.8937
vt -35.13779 56.49606
vt 19.22244 -51.32874
vt 4.293553E-14 -56.49606
vt -19.22244 -51.32874
vt -35.13779 -37.8937
vt 26.77165 56.49606
vt 26.77165 -28.54331
vt -26.77165 56.49606
vt 14.64567 -38.77953
vt 2.557954E-13 -42.71653
vt -14.64567 -38.77953
vt -26.77165 -28.54331
vt 21.65354 9.448819
vt -21.65354 32.87402
vt -21.65354 9.448819
vt 21.65354 32.87402
vt -18.11024 17.71654
vt 44.68504 17.71654
vt 32.87402 47.22451
vt 21.65354 -0.157215
vt -21.65354 -0.157215
vt 21.65354 31.62676
vt -21.65354 31.62676

usemtl metalRed

f 3/3/1 2/2/1 1/1/1
f 2/2/1 3/3/1 4/4/1
f 1/1/2 2/2/2 3/3/2
f 4/4/2 3/3/2 2/2/2
f 7/7/3 6/6/3 5/5/3
f 6/6/3 7/7/3 8/8/3
f 5/5/4 6/6/4 7/7/4
f 8/8/4 7/7/4 6/6/4
f 11/11/5 10/10/5 9/9/5
f 10/10/5 11/11/5 12/12/5
f 9/9/6 10/10/6 11/11/6
f 12/12/6 11/11/6 10/10/6
f 15/15/7 14/14/7 13/13/7
f 16/16/7 13/13/7 14/14/7
f 19/19/8 18/18/8 17/17/8
f 20/20/8 17/17/8 18/18/8
f 23/23/9 22/22/9 21/21/9
f 24/24/9 21/21/9 22/22/9
f 26/27/10 11/26/10 25/25/10
f 11/26/10 26/27/10 27/28/10
f 11/26/10 27/28/10 12/29/10
f 28/30/10 25/25/10 11/26/10
f 25/25/10 28/30/10 29/31/10
f 29/31/10 28/30/10 30/32/10
f 25/25/11 11/26/11 26/27/11
f 27/28/11 26/27/11 11/26/11
f 12/29/11 27/28/11 11/26/11
f 11/26/11 25/25/11 28/30/11
f 29/31/11 28/30/11 25/25/11
f 30/32/11 28/30/11 29/31/11
f 25/25/11 26/27/11 31/33/11
f 32/34/11 31/33/11 26/27/11
f 31/33/11 32/34/11 33/35/11
f 34/36/11 33/35/11 32/34/11
f 37/39/12 36/38/12 35/37/12
f 36/38/12 37/39/12 38/40/12
f 35/37/13 36/38/13 37/39/13
f 38/40/13 37/39/13 36/38/13
f 40/43/10 39/42/10 21/41/10
f 23/44/10 21/41/10 39/42/10
f 42/47/14 26/46/14 41/45/14
f 26/46/14 42/47/14 27/48/14
f 41/45/15 26/46/15 42/47/15
f 27/48/15 42/47/15 26/46/15
f 10/32/11 43/49/11 9/30/11
f 43/49/11 10/32/11 44/50/11
f 9/30/10 43/49/10 10/32/10
f 44/50/10 10/32/10 43/49/10
f 47/53/16 46/52/16 45/51/16
f 46/52/16 47/53/16 48/54/16
f 45/51/17 46/52/17 47/53/17
f 48/54/17 47/53/17 46/52/17
f 15/57/18 45/56/18 14/55/18
f 36/58/18 14/55/18 45/56/18
f 8/61/19 49/60/19 6/59/19
f 49/60/19 8/61/19 50/62/19
f 6/59/20 49/60/20 8/61/20
f 50/62/20 8/61/20 49/60/20
f 46/65/21 45/64/21 18/63/21
f 15/66/21 18/63/21 45/64/21
f 14/69/22 36/68/22 51/67/22
f 35/70/22 51/67/22 36/68/22
f 5/73/23 39/72/23 43/71/23
f 39/72/23 5/73/23 6/74/23
f 39/72/23 6/74/23 40/75/23
f 40/75/23 6/74/23 49/76/23
f 40/75/23 49/76/23 3/77/23
f 40/75/23 3/77/23 1/78/23
f 40/75/23 1/78/23 52/79/23
f 53/80/23 43/71/23 39/72/23
f 43/71/23 53/80/23 9/81/23
f 9/81/23 53/80/23 52/79/23
f 9/81/23 52/79/23 11/82/23
f 11/82/23 52/79/23 54/83/23
f 54/83/23 52/79/23 55/84/23
f 55/84/23 52/79/23 1/78/23
f 28/85/23 11/82/23 54/83/23
f 43/71/24 39/72/24 5/73/24
f 6/74/24 5/73/24 39/72/24
f 40/75/24 6/74/24 39/72/24
f 49/76/24 6/74/24 40/75/24
f 3/77/24 49/76/24 40/75/24
f 1/78/24 3/77/24 40/75/24
f 52/79/24 1/78/24 40/75/24
f 39/72/24 43/71/24 53/80/24
f 9/81/24 53/80/24 43/71/24
f 52/79/24 53/80/24 9/81/24
f 11/82/24 52/79/24 9/81/24
f 54/83/24 52/79/24 11/82/24
f 55/84/24 52/79/24 54/83/24
f 1/78/24 52/79/24 55/84/24
f 54/83/24 11/82/24 28/85/24
f 43/9/5 7/87/5 5/86/5
f 7/87/5 43/9/5 44/10/5
f 5/86/6 7/87/6 43/9/6
f 44/10/6 43/9/6 7/87/6
f 41/90/25 46/89/25 19/88/25
f 18/91/25 19/88/25 46/89/25
f 48/94/26 41/93/26 46/92/26
f 41/93/26 48/94/26 42/95/26
f 46/92/27 41/93/27 48/94/27
f 42/95/27 48/94/27 41/93/27
f 38/98/28 45/97/28 36/96/28
f 45/97/28 38/98/28 47/99/28
f 36/96/29 45/97/29 38/98/29
f 47/99/29 38/98/29 45/97/29
f 50/102/30 3/101/30 49/100/30
f 3/101/30 50/102/30 4/103/30
f 49/100/31 3/101/31 50/102/31
f 4/103/31 50/102/31 3/101/31
f 22/106/5 57/105/5 56/104/5
f 56/104/5 57/105/5 53/107/5
f 53/107/5 57/105/5 39/108/5
f 23/109/5 39/108/5 57/105/5
f 22/106/5 23/109/5 57/105/5
f 16/112/32 14/111/32 58/110/32
f 51/113/32 58/110/32 14/111/32
f 18/116/33 15/115/33 20/114/33
f 13/117/33 20/114/33 15/115/33
f 41/120/34 19/119/34 26/118/34
f 32/121/34 26/118/34 19/119/34
f 33/124/35 58/123/35 31/122/35
f 51/125/35 31/122/35 58/123/35
f 42/127/23 7/73/23 27/126/23
f 7/73/23 42/127/23 48/128/23
f 7/73/23 48/128/23 8/74/23
f 8/74/23 48/128/23 47/129/23
f 8/74/23 47/129/23 50/130/23
f 50/130/23 47/129/23 38/131/23
f 50/130/23 38/131/23 4/77/23
f 4/77/23 38/131/23 2/78/23
f 2/78/23 38/131/23 37/132/23
f 2/78/23 37/132/23 59/84/23
f 29/133/23 59/84/23 37/132/23
f 30/85/23 59/84/23 29/133/23
f 59/84/23 30/85/23 60/83/23
f 44/71/23 27/126/23 7/73/23
f 27/126/23 44/71/23 12/82/23
f 12/82/23 44/71/23 10/81/23
f 27/126/24 7/73/24 42/127/24
f 48/128/24 42/127/24 7/73/24
f 8/74/24 48/128/24 7/73/24
f 47/129/24 48/128/24 8/74/24
f 50/130/24 47/129/24 8/74/24
f 38/131/24 47/129/24 50/130/24
f 4/77/24 38/131/24 50/130/24
f 2/78/24 38/131/24 4/77/24
f 37/132/24 38/131/24 2/78/24
f 59/84/24 37/132/24 2/78/24
f 37/132/24 59/84/24 29/133/24
f 29/133/24 59/84/24 30/85/24
f 60/83/24 30/85/24 59/84/24
f 7/73/24 27/126/24 44/71/24
f 12/82/24 44/71/24 27/126/24
f 10/81/24 44/71/24 12/82/24
f 25/136/36 37/135/36 35/134/36
f 37/135/36 25/136/36 29/137/36
f 35/134/37 37/135/37 25/136/37
f 29/137/37 25/136/37 37/135/37
f 32/140/38 19/139/38 34/138/38
f 17/141/38 34/138/38 19/139/38
f 30/144/6 54/143/6 60/142/6
f 54/143/6 30/144/6 28/145/6
f 60/142/5 54/143/5 30/144/5
f 28/145/5 30/144/5 54/143/5
f 35/148/39 25/147/39 51/146/39
f 31/149/39 51/146/39 25/147/39
f 59/151/11 54/26/11 55/150/11
f 54/26/11 59/151/11 60/29/11
f 55/150/10 54/26/10 59/151/10
f 60/29/10 59/151/10 54/26/10
f 34/154/23 17/153/23 33/152/23
f 20/155/23 33/152/23 17/153/23
f 13/156/23 33/152/23 20/155/23
f 16/157/23 33/152/23 13/156/23
f 58/158/23 33/152/23 16/157/23
f 59/142/6 1/160/6 2/159/6
f 1/160/6 59/142/6 55/143/6
f 2/159/5 1/160/5 59/142/5
f 55/143/5 59/142/5 1/160/5

usemtl glass

f 24/163/5 21/162/5 61/161/5
f 61/161/6 21/162/6 24/163/6
f 21/21/40 22/22/40 23/23/40
f 22/22/40 21/21/40 24/24/40
f 57/105/6 23/109/6 22/106/6

usemtl metalDark

f 13/13/41 14/14/41 15/15/41
f 14/14/41 13/13/41 16/16/41
f 17/17/42 18/18/42 19/19/42
f 18/18/42 17/17/42 20/20/42
f 14/55/43 45/56/43 15/57/43
f 45/56/43 14/55/43 36/58/43
f 18/63/44 45/64/44 46/65/44
f 45/64/44 18/63/44 15/66/44
f 51/67/45 36/68/45 14/69/45
f 36/68/45 51/67/45 35/70/45
f 19/88/46 46/89/46 41/90/46
f 46/89/46 19/88/46 18/91/46
f 58/110/47 14/111/47 16/112/47
f 14/111/47 58/110/47 51/113/47
f 20/114/48 15/115/48 18/116/48
f 15/115/48 20/114/48 13/117/48
f 26/118/49 19/119/49 41/120/49
f 19/119/49 26/118/49 32/121/49
f 31/122/50 58/123/50 33/124/50
f 58/123/50 31/122/50 51/125/50
f 26/27/10 31/33/10 32/34/10
f 31/33/10 26/27/10 25/25/10
f 33/35/10 32/34/10 31/33/10
f 32/34/10 33/35/10 34/36/10
f 34/138/51 19/139/51 32/140/51
f 19/139/51 34/138/51 17/141/51
f 51/146/52 25/147/52 35/148/52
f 25/147/52 51/146/52 31/149/52
f 33/152/24 17/153/24 34/154/24
f 17/153/24 33/152/24 20/155/24
f 20/155/24 33/152/24 13/156/24
f 13/156/24 33/152/24 16/157/24
f 16/157/24 33/152/24 58/158/24

usemtl metalGreen

f 25/166/24 41/165/24 26/164/24
f 41/165/24 25/166/24 46/167/24
f 46/167/24 25/166/24 45/168/24
f 45/168/24 25/166/24 36/169/24
f 36/169/24 25/166/24 35/170/24
f 26/164/23 41/165/23 25/166/23
f 46/167/23 25/166/23 41/165/23
f 45/168/23 25/166/23 46/167/23
f 36/169/23 25/166/23 45/168/23
f 35/170/23 25/166/23 36/169/23
f 31/173/24 19/172/24 32/171/24
f 19/172/24 31/173/24 18/174/24
f 18/174/24 31/173/24 15/175/24
f 15/175/24 31/173/24 14/176/24
f 14/176/24 31/173/24 51/177/24
f 32/171/23 19/172/23 31/173/23
f 18/174/23 31/173/23 19/172/23
f 15/175/23 31/173/23 18/174/23
f 14/176/23 31/173/23 15/175/23
f 51/177/23 31/173/23 14/176/23
f 22/180/24 56/179/24 24/178/24
f 62/181/24 24/178/24 56/179/24

usemtl metalLight

f 52/183/5 21/162/5 40/182/5
f 21/162/5 52/183/5 61/161/5
f 61/161/5 52/183/5 24/163/5
f 24/163/5 52/183/5 62/184/5
f 40/182/6 21/162/6 52/183/6
f 61/161/6 52/183/6 21/162/6
f 24/163/6 52/183/6 61/161/6
f 62/184/6 52/183/6 24/163/6
f 21/41/11 39/42/11 40/43/11
f 39/42/11 21/41/11 23/44/11
f 56/187/53 52/186/53 53/185/53
f 52/186/53 56/187/53 62/188/53
f 53/185/54 52/186/54 56/187/54
f 62/188/54 56/187/54 52/186/54
f 56/104/6 57/105/6 22/106/6
f 53/107/6 57/105/6 56/104/6
f 39/108/6 57/105/6 53/107/6
f 57/105/6 39/108/6 23/109/6
f 24/178/23 56/179/23 22/180/23
f 56/179/23 24/178/23 62/181/23

