# Created by Kenney (www.kenney.nl)

mtllib boat_025.mtl

g boat_025

v 1.33875 0.7 -1.755
v 1.33875 0.7 2.322
v 1.275 1 -1.698
v 1.275 1 2.322
v -1.33875 0.7 2.322
v 0.8175 0.8 2.322
v 0.8175 1 2.322
v -0.8175 0.8 2.322
v -1.275 1 2.322
v -0.8175 1 2.322
v -1.02 0.3 2.322
v 1.02 0.3 2.322
v -0.612 9.023893E-17 2.322
v 0.612 9.023893E-17 2.322
v 1.02 0.3 -1.47
v -0.612 0 -1.038
v -0.558 0.3 -1.782
v -0.3348 9.023893E-17 -1.2252
v -1.02 0.3 -1.47
v -1.125 1 -1.612259
v -1.125 0.8 -1.612259
v -1.125 1 2.172
v -1.125 0.8 2.172
v 0.825 1.749503 -1.052
v 0.825 1.274751 -1.152
v 0.825 1.749503 -1.152
v 0.825 1.174751 -1.052
v 0.825 0.8 -1.252
v 0.825 1.274751 -1.252
v 0.825 0.8 1.482
v 0.825 1.174751 0.115
v 0.825 1.174751 0.215
v 0.825 1.749503 0.215
v 0.825 1.749503 0.115
v 0.825 1.174751 1.382
v 0.825 1.749503 1.482
v 0.825 1.749503 1.382
v 1.125 0.8 -1.612259
v 0.6262823 0.8 -1.949055
v 1.125 1 -1.612259
v 0.6262823 1 -1.949055
v 4.331469E-15 0.8 -2.08374
v 4.331469E-15 1 -2.08374
v 4.331469E-15 0.7 -2.322
v 7.219114E-15 0.3 -1.902
v -0.732375 0.7 -2.1645
v 0.725 1.749503 1.382
v 0.725 1.749503 0.215
v 0.975 1.749503 -1.272
v 0.975 1.749503 1.602
v -0.975 1.749503 1.602
v -0.825 1.749503 1.482
v -0.825 1.749503 1.382
v -0.825 1.749503 0.215
v -0.825 1.749503 0.115
v -0.825 1.749503 -1.052
v -0.825 1.749503 -1.152
v -0.975 1.749503 -1.272
v 0.725 1.749503 0.115
v 0.725 1.749503 -1.052
v -0.725 1.749503 -1.052
v -0.725 1.749503 0.115
v -0.725 1.749503 0.215
v -0.725 1.749503 1.382
v -0.825 1.274751 -1.152
v -0.6262823 0.8 -1.949055
v -0.6262823 1 -1.949055
v 0.612 9.023893E-17 -1.038
v 0.558 0.3 -1.782
v 0.975 1.899503 -1.272
v -1.443823E-15 2.399503 1.602
v 0.975 1.899503 1.602
v -1.443823E-15 2.399503 -1.272
v 0.732375 0.7 -2.1645
v -1.33875 0.7 -1.755
v -0.975 1.899503 1.602
v 0.8175 0.8 2.172
v 1.125 0.8 2.172
v 0.8175 1 2.172
v 1.125 1 2.172
v -1.275 1 -1.698
v -0.975 1.899503 -1.272
v 0.6975 1 -2.088
v 4.331469E-15 9.023893E-17 -1.2972
v 0.3348 9.023893E-17 -1.2252
v -0.8175 0.8 2.172
v -0.8175 1 2.172
v -0.6975 1 -2.088
v 4.331469E-15 1 -2.238
v -0.825 0.8 -1.252
v -0.825 0.8 1.482
v -0.825 1.274751 -1.252
v 0.725 1.174751 0.115
v 0.725 1.174751 -1.052
v 0.725 1.174751 0.215
v 0.725 1.174751 1.382
v -0.825 1.174751 -1.052
v -0.825 1.174751 0.115
v -0.825 1.174751 0.215
v -0.825 1.174751 1.382
v -0.725 1.174751 1.382
v -0.725 1.174751 0.215
v -0.725 1.174751 -1.052
v -0.725 1.174751 0.115

vn 0.9781588 0.2078588 0
vn -0.9781588 -0.2078588 0
vn 0 0 1
vn 0 0 -1
vn -0.7820596 0.6232036 0
vn 0.2549156 0.8902436 0.3774711
vn 1 0 0
vn -1 0 0
vn -0.5596577 0 0.8287238
vn 0.5596577 0 -0.8287238
vn -0.2102469 0 0.9776483
vn 0.2102469 0 -0.9776483
vn 0.1467082 0.7163026 0.682193
vn 0 1 0
vn 0.5596577 0 0.8287238
vn -0.5596577 0 -0.8287238
vn -0.5923905 0.805651 0
vn 0 -1 0
vn -0.4563166 -0.8898174 0
vn -0.9781588 0.2078588 0
vn 0.9781588 -0.2078588 0
vn 0.5394335 0.2663971 -0.7987765
vn -0.5394335 -0.2663971 0.7987765
vn 0.0951295 0.8917819 0.4423522
vn -0.2549156 0.8902436 0.3774711
vn -0.3885936 0.7196455 0.5754175
vn 0.4563166 -0.8898174 0
vn -0.0951295 0.8917819 0.4423522
vn 0.7820596 0.6232036 0
vn -0.1467082 0.7163026 0.682193
vn -0.2027864 0.2640279 -0.9429565
vn 0.2027864 -0.2640279 0.9429565
vn -0.5394335 0.2663971 -0.7987765
vn 0.5394335 -0.2663971 0.7987765
vn 0.2027864 0.2640279 -0.9429565
vn -0.2027864 -0.2640279 0.9429565
vn 0.3885936 0.7196455 0.5754175
vn 0.2102469 0 0.9776483
vn -0.2102469 0 -0.9776483
vn 0.5923905 0.805651 0
vn 0.7820596 -0.6232036 0
vn -0.2549156 -0.8902436 -0.3774711
vn -0.1467082 -0.7163026 -0.682193
vn 0.5923905 -0.805651 0
vn -0.0951295 -0.8917819 -0.4423522
vn 0.2549156 -0.8902436 -0.3774711
vn 0.3885936 -0.7196455 -0.5754175
vn 0.0951295 -0.8917819 -0.4423522
vn -0.7820596 -0.6232036 0
vn 0.1467082 -0.7163026 -0.682193
vn -0.3885936 -0.7196455 -0.5754175
vn -0.5923905 -0.805651 0
vn 0.4563166 0.8898174 0
vn -0.4563166 0.8898174 0

vt 69.09449 16.00159
vt -91.41732 16.00159
vt 66.8504 28.07634
vt -91.41732 28.07634
vt -52.70669 27.55906
vt 32.18504 31.49606
vt 52.70669 27.55906
vt 50.19685 39.37008
vt 32.18504 39.37008
vt -32.18504 31.49606
vt -50.19685 39.37008
vt -32.18504 39.37008
vt -40.15748 11.81102
vt 40.15748 11.81102
vt -24.09449 3.552714E-15
vt 24.09449 3.552714E-15
vt -91.41732 54.39983
vt 57.87402 34.26321
vt 69.09449 54.39983
vt -91.41732 34.26321
vt -2.903373 42.15429
vt -21.05835 68.08495
vt -16.07228 42.15429
vt 0.8898252 68.08495
vt 63.47477 39.37008
vt 63.47477 31.49606
vt -85.51181 39.37008
vt -85.51181 31.49606
vt 41.41732 68.87806
vt 45.35433 50.18706
vt 45.35433 68.87806
vt 41.41732 46.25005
vt 49.29134 31.49606
vt 49.29134 50.18706
vt -58.34646 31.49606
vt -4.527559 46.25005
vt -8.464567 46.25005
vt -8.464567 68.87806
vt -4.527559 68.87806
vt -54.40945 46.25005
vt -58.34646 68.87806
vt -54.40945 68.87806
vt 1.181148 31.49606
vt -22.51137 31.49606
vt 1.181148 39.37008
vt -22.51137 39.37008
vt 7.972476 31.49606
vt -17.24803 31.49606
vt 7.972476 39.37008
vt -17.24803 39.37008
vt 6.727075 60.68081
vt -19.22021 83.24925
vt -15.74369 60.68081
vt 10.27266 83.24925
vt 28.54331 54.40945
vt 32.48032 8.464567
vt 32.48032 54.40945
vt 28.54331 8.464567
vt 32.48032 -45.35433
vt 32.48032 58.34646
vt 38.38583 -50.07874
vt 38.38583 63.07087
vt -38.38583 63.07087
vt -32.48032 58.34646
vt -32.48032 54.40945
vt -32.48032 8.464567
vt -32.48032 4.527559
vt -32.48032 -41.41732
vt -32.48032 -45.35433
vt -38.38583 -50.07874
vt 32.48032 4.527559
vt 32.48032 -41.41732
vt 28.54331 4.527559
vt 28.54331 -41.41732
vt -28.54331 -41.41732
vt -28.54331 4.527559
vt -28.54331 8.464567
vt -28.54331 54.40945
vt 32.48032 68.87806
vt -32.48032 50.18706
vt 32.48032 50.18706
vt -32.48032 68.87806
vt 22.51137 31.49606
vt -1.181148 31.49606
vt 22.51137 39.37008
vt -1.181148 39.37008
vt -91.41732 19.41175
vt 57.87402 39.34965
vt -91.41732 39.34965
vt 40.86614 19.41175
vt 40.15748 91.41732
vt 40.15748 -57.87402
vt -40.15748 91.41732
vt 21.9685 -70.15748
vt 2.844443E-13 -74.88189
vt -21.9685 -70.15748
vt -40.15748 -57.87402
vt 50.07874 -0.03139171
vt -63.07087 43.1076
vt -63.07087 -0.03139171
vt 50.07874 43.1076
vt 52.70669 91.41732
vt 52.70669 -69.09449
vt -52.70669 91.41732
vt 28.83366 -85.21654
vt 1.713382E-13 -91.41732
vt -28.83366 -85.21654
vt -52.70669 -69.09449
vt 38.38583 74.78357
vt -38.38583 68.87806
vt 38.38583 68.87806
vt -38.38583 74.78357
vt -1.502415E-13 94.46861
vt -44.29134 31.49606
vt -44.29134 39.37008
vt -69.09449 16.00159
vt -66.8504 28.07634
vt 91.41732 16.00159
vt 91.41732 28.07634
vt 5.684342E-14 94.46861
vt 85.51181 31.49606
vt 85.51181 39.37008
vt 91.41732 31.49606
vt 91.41732 39.37008
vt 23.79695 3.451088
vt -5.010034 3.451088
vt 23.24923 15.70492
vt -4.185992 15.70492
vt -63.47477 31.49606
vt -63.47477 39.37008
vt -10.73749 44.52609
vt 6.727075 70.62978
vt -15.74369 70.62978
vt 2.744964 44.52609
vt 2.903373 42.15429
vt 21.05835 68.08495
vt -0.8898252 68.08495
vt 16.07228 42.15429
vt 44.29134 31.49606
vt 44.29134 39.37008
vt -0.8898252 58.88985
vt 23.79695 81.57037
vt -5.010034 81.57037
vt 21.05835 58.88985
vt -50.07874 -0.03139171
vt 63.07087 43.1076
vt -50.07874 43.1076
vt 63.07087 -0.03139171
vt -2.744964 44.52609
vt 15.74369 70.62978
vt -6.727075 70.62978
vt 10.73749 44.52609
vt -63.07087 74.78357
vt 50.07874 68.87806
vt 50.07874 74.78357
vt -63.07087 68.87806
vt -57.87402 34.26321
vt 91.41732 54.39983
vt -69.09449 54.39983
vt 91.41732 34.26321
vt -6.727075 60.68081
vt 19.22021 83.24925
vt -10.27266 83.24925
vt 15.74369 60.68081
vt 10.27266 2.983903
vt -19.22021 2.983903
vt 9.563546 15.22946
vt -18.52491 15.22946
vt 63.07087 68.87806
vt -50.07874 74.78357
vt -50.07874 68.87806
vt 63.07087 74.78357
vt 5.010034 3.451088
vt -23.79695 3.451088
vt 4.185992 15.70492
vt -23.24923 15.70492
vt 19.22021 2.983903
vt -10.27266 2.983903
vt 18.52491 15.22946
vt -9.563546 15.22946
vt -91.41732 39.37008
vt -91.41732 31.49606
vt 0.8898252 58.88985
vt -23.79695 81.57037
vt -21.05835 58.88985
vt 5.010034 81.57037
vt -44.29134 -63.47477
vt -32.48032 -49.29134
vt -44.29134 85.51181
vt -24.65678 -76.73447
vt 32.48032 -49.29134
vt -1.705303E-13 -82.037
vt 24.65678 -76.73447
vt 44.29134 -63.47477
vt -32.18504 85.51181
vt -32.18504 91.41732
vt 32.18504 85.51181
vt 44.29134 85.51181
vt 32.18504 91.41732
vt 17.24803 31.49606
vt -7.972476 31.49606
vt 17.24803 39.37008
vt -7.972476 39.37008
vt -50.19685 91.41732
vt -50.19685 -66.8504
vt -27.46063 -82.20473
vt -1.705303E-13 -88.11024
vt 27.46063 -82.20473
vt 50.19685 -66.8504
vt 50.19685 91.41732
vt -24.09449 91.41732
vt 24.09449 -40.86614
vt 24.09449 91.41732
vt 13.1811 -48.23622
vt 1.705303E-13 -51.07087
vt -13.1811 -48.23622
vt -24.09449 -40.86614
vt 91.41732 39.34965
vt -40.86614 19.41175
vt 91.41732 19.41175
vt -57.87402 39.34965
vt -32.48032 31.49606
vt 32.48032 31.49606
vt -28.54331 68.87806
vt -32.48032 46.25005
vt -28.54331 46.25005
vt 28.54331 46.25005
vt 32.48032 46.25005
vt 28.54331 68.87806
vt -49.29134 50.18706
vt -41.41732 46.25005
vt -49.29134 31.49606
vt 58.34646 31.49606
vt -45.35433 50.18706
vt -45.35433 68.87806
vt 4.527559 46.25005
vt 8.464567 46.25005
vt 4.527559 68.87806
vt 54.40945 46.25005
vt 54.40945 68.87806
vt 58.34646 68.87806
vt 8.464567 68.87806
vt -41.41732 68.87806

usemtl metalGreen

f 3/3/1 2/2/1 1/1/1
f 2/2/1 3/3/1 4/4/1
f 1/1/2 2/2/2 3/3/2
f 4/4/2 3/3/2 2/2/2
f 2/7/3 6/6/3 5/5/3
f 6/6/3 2/7/3 4/8/3
f 6/6/3 4/8/3 7/9/3
f 8/10/3 5/5/3 6/6/3
f 5/5/3 8/10/3 9/11/3
f 9/11/3 8/10/3 10/12/3
f 5/5/4 6/6/4 2/7/4
f 4/8/4 2/7/4 6/6/4
f 7/9/4 4/8/4 6/6/4
f 6/6/4 5/5/4 8/10/4
f 9/11/4 8/10/4 5/5/4
f 10/12/4 8/10/4 9/11/4
f 5/5/4 2/7/4 11/13/4
f 12/14/4 11/13/4 2/7/4
f 11/13/4 12/14/4 13/15/4
f 14/16/4 13/15/4 12/14/4
f 1/19/5 15/18/5 2/17/5
f 12/20/5 2/17/5 15/18/5
f 18/23/6 17/22/6 16/21/6
f 19/24/6 16/21/6 17/22/6
f 22/27/7 21/26/7 20/25/7
f 21/26/7 22/27/7 23/28/7
f 20/25/8 21/26/8 22/27/8
f 23/28/8 22/27/8 21/26/8
f 26/31/8 25/30/8 24/29/8
f 24/29/8 25/30/8 27/32/8
f 27/32/8 25/30/8 28/33/8
f 29/34/8 28/33/8 25/30/8
f 30/35/8 27/32/8 28/33/8
f 31/36/8 27/32/8 30/35/8
f 32/37/8 31/36/8 30/35/8
f 33/38/8 31/36/8 32/37/8
f 34/39/8 31/36/8 33/38/8
f 35/40/8 32/37/8 30/35/8
f 36/41/8 35/40/8 30/35/8
f 37/42/8 35/40/8 36/41/8
f 40/45/9 39/44/9 38/43/9
f 39/44/9 40/45/9 41/46/9
f 38/43/10 39/44/10 40/45/10
f 41/46/10 40/45/10 39/44/10
f 41/49/11 42/48/11 39/47/11
f 42/48/11 41/49/11 43/50/11
f 39/47/12 42/48/12 41/49/12
f 43/50/12 41/49/12 42/48/12
f 45/53/13 44/52/13 17/51/13
f 46/54/13 17/51/13 44/52/13
f 37/57/14 33/56/14 47/55/14
f 48/58/14 47/55/14 33/56/14
f 33/56/14 37/57/14 26/59/14
f 37/57/14 36/60/14 26/59/14
f 36/60/14 49/61/14 26/59/14
f 49/61/14 36/60/14 50/62/14
f 51/63/14 50/62/14 36/60/14
f 52/64/14 51/63/14 36/60/14
f 53/65/14 51/63/14 52/64/14
f 54/66/14 51/63/14 53/65/14
f 55/67/14 51/63/14 54/66/14
f 56/68/14 51/63/14 55/67/14
f 57/69/14 51/63/14 56/68/14
f 58/70/14 26/59/14 49/61/14
f 57/69/14 26/59/14 58/70/14
f 51/63/14 57/69/14 58/70/14
f 34/71/14 33/56/14 26/59/14
f 24/72/14 34/71/14 26/59/14
f 34/71/14 24/72/14 59/73/14
f 60/74/14 59/73/14 24/72/14
f 56/68/14 55/67/14 61/75/14
f 62/76/14 61/75/14 55/67/14
f 54/66/14 53/65/14 63/77/14
f 64/78/14 63/77/14 53/65/14
f 65/81/3 25/80/3 57/79/3
f 26/82/3 57/79/3 25/80/3
f 67/85/15 21/84/15 66/83/15
f 21/84/15 67/85/15 20/86/15
f 66/83/16 21/84/16 67/85/16
f 20/86/16 67/85/16 21/84/16
f 12/89/17 15/88/17 14/87/17
f 68/90/17 14/87/17 15/88/17
f 11/93/18 15/92/18 12/91/18
f 15/92/18 11/93/18 69/94/18
f 69/94/18 11/93/18 45/95/18
f 45/95/18 11/93/18 17/96/18
f 17/96/18 11/93/18 19/97/18
f 12/91/14 15/92/14 11/93/14
f 69/94/14 11/93/14 15/92/14
f 45/95/14 11/93/14 69/94/14
f 17/96/14 11/93/14 45/95/14
f 19/97/14 11/93/14 17/96/14
f 72/100/19 71/99/19 70/98/19
f 73/101/19 70/98/19 71/99/19
f 5/104/18 1/103/18 2/102/18
f 1/103/18 5/104/18 74/105/18
f 74/105/18 5/104/18 44/106/18
f 44/106/18 5/104/18 46/107/18
f 46/107/18 5/104/18 75/108/18
f 2/102/14 1/103/14 5/104/14
f 74/105/14 5/104/14 1/103/14
f 44/106/14 5/104/14 74/105/14
f 46/107/14 5/104/14 44/106/14
f 75/108/14 5/104/14 46/107/14
f 50/111/4 51/110/4 72/109/4
f 76/112/4 72/109/4 51/110/4
f 71/113/4 72/109/4 76/112/4
f 79/12/4 78/114/4 77/10/4
f 78/114/4 79/12/4 80/115/4
f 77/10/3 78/114/3 79/12/3
f 80/115/3 79/12/3 78/114/3
f 5/118/20 81/117/20 75/116/20
f 81/117/20 5/118/20 9/119/20
f 75/116/21 81/117/21 5/118/21
f 9/119/21 5/118/21 81/117/21
f 58/111/3 49/110/3 82/109/3
f 70/112/3 82/109/3 49/110/3
f 73/120/3 82/109/3 70/112/3
f 6/123/8 79/122/8 77/121/8
f 79/122/8 6/123/8 7/124/8
f 77/121/7 79/122/7 6/123/7
f 7/124/7 6/123/7 79/122/7
f 83/127/22 1/126/22 74/125/22
f 1/126/22 83/127/22 3/128/22
f 74/125/23 1/126/23 83/127/23
f 3/128/23 83/127/23 1/126/23
f 78/121/8 40/130/8 38/129/8
f 40/130/8 78/121/8 80/122/8
f 38/129/7 40/130/7 78/121/7
f 80/122/7 78/121/7 40/130/7
f 45/133/24 17/132/24 84/131/24
f 18/134/24 84/131/24 17/132/24
f 15/137/25 69/136/25 68/135/25
f 85/138/25 68/135/25 69/136/25
f 22/140/4 86/6/4 23/139/4
f 86/6/4 22/140/4 87/9/4
f 23/139/3 86/6/3 22/140/3
f 87/9/3 22/140/3 86/6/3
f 1/143/26 74/142/26 15/141/26
f 69/144/26 15/141/26 74/142/26
f 73/147/27 71/146/27 82/145/27
f 76/148/27 82/145/27 71/146/27
f 69/151/28 45/150/28 85/149/28
f 84/152/28 85/149/28 45/150/28
f 70/155/8 49/154/8 72/153/8
f 50/156/8 72/153/8 49/154/8
f 47/78/14 36/64/14 37/65/14
f 36/64/14 47/78/14 52/60/14
f 52/60/14 47/78/14 64/55/14
f 64/55/14 47/78/14 63/58/14
f 52/60/14 64/55/14 53/57/14
f 47/78/14 61/74/14 63/58/14
f 48/77/14 61/74/14 47/78/14
f 48/77/14 57/59/14 61/74/14
f 59/76/14 57/59/14 48/77/14
f 33/66/14 59/76/14 48/77/14
f 59/76/14 33/66/14 34/67/14
f 60/75/14 57/59/14 59/76/14
f 24/68/14 57/59/14 60/75/14
f 57/59/14 24/68/14 26/69/14
f 61/74/14 57/59/14 56/72/14
f 62/73/14 63/58/14 61/74/14
f 63/58/14 62/73/14 54/56/14
f 54/56/14 62/73/14 55/71/14
f 37/65/18 36/64/18 47/78/18
f 52/60/18 47/78/18 36/64/18
f 64/55/18 47/78/18 52/60/18
f 63/58/18 47/78/18 64/55/18
f 53/57/18 64/55/18 52/60/18
f 63/58/18 61/74/18 47/78/18
f 47/78/18 61/74/18 48/77/18
f 61/74/18 57/59/18 48/77/18
f 48/77/18 57/59/18 59/76/18
f 48/77/18 59/76/18 33/66/18
f 34/67/18 33/66/18 59/76/18
f 59/76/18 57/59/18 60/75/18
f 60/75/18 57/59/18 24/68/18
f 26/69/18 24/68/18 57/59/18
f 56/72/18 57/59/18 61/74/18
f 61/74/18 63/58/18 62/73/18
f 54/56/18 62/73/18 63/58/18
f 55/71/18 62/73/18 54/56/18
f 75/159/29 5/158/29 19/157/29
f 11/160/29 19/157/29 5/158/29
f 74/163/30 44/162/30 69/161/30
f 45/164/30 69/161/30 44/162/30
f 88/167/31 44/166/31 46/165/31
f 44/166/31 88/167/31 89/168/31
f 46/165/32 44/166/32 88/167/32
f 89/168/32 88/167/32 44/166/32
f 58/171/7 82/170/7 51/169/7
f 76/172/7 51/169/7 82/170/7
f 81/175/33 46/174/33 75/173/33
f 46/174/33 81/175/33 88/176/33
f 75/173/34 46/174/34 81/175/34
f 88/176/34 81/175/34 46/174/34
f 89/179/35 74/178/35 44/177/35
f 74/178/35 89/179/35 83/180/35
f 44/177/36 74/178/36 89/179/36
f 83/180/36 89/179/36 74/178/36
f 10/181/7 86/28/7 87/27/7
f 86/28/7 10/181/7 8/182/7
f 87/27/8 86/28/8 10/181/8
f 8/182/8 10/181/8 86/28/8
f 17/185/37 46/184/37 19/183/37
f 75/186/37 19/183/37 46/184/37
f 78/189/18 28/188/18 38/187/18
f 39/190/18 38/187/18 28/188/18
f 90/191/18 39/190/18 28/188/18
f 42/192/18 39/190/18 90/191/18
f 66/193/18 42/192/18 90/191/18
f 21/194/18 66/193/18 90/191/18
f 91/60/18 21/194/18 90/191/18
f 28/188/18 78/189/18 30/64/18
f 77/195/18 30/64/18 78/189/18
f 91/60/18 30/64/18 77/195/18
f 6/196/18 91/60/18 77/195/18
f 86/197/18 91/60/18 6/196/18
f 23/198/18 91/60/18 86/197/18
f 21/194/18 91/60/18 23/198/18
f 86/197/18 6/196/18 8/199/18
f 43/202/38 66/201/38 42/200/38
f 66/201/38 43/202/38 67/203/38
f 42/200/39 66/201/39 43/202/39
f 67/203/39 43/202/39 66/201/39
f 3/205/14 40/187/14 4/204/14
f 40/187/14 3/205/14 83/206/14
f 40/187/14 83/206/14 41/190/14
f 41/190/14 83/206/14 89/207/14
f 41/190/14 89/207/14 43/192/14
f 43/192/14 89/207/14 88/208/14
f 43/192/14 88/208/14 67/193/14
f 67/193/14 88/208/14 20/194/14
f 20/194/14 88/208/14 81/209/14
f 20/194/14 81/209/14 22/198/14
f 9/210/14 22/198/14 81/209/14
f 10/199/14 22/198/14 9/210/14
f 22/198/14 10/199/14 87/197/14
f 80/189/14 4/204/14 40/187/14
f 4/204/14 80/189/14 7/196/14
f 7/196/14 80/189/14 79/195/14
f 4/204/18 40/187/18 3/205/18
f 83/206/18 3/205/18 40/187/18
f 41/190/18 83/206/18 40/187/18
f 89/207/18 83/206/18 41/190/18
f 43/192/18 89/207/18 41/190/18
f 88/208/18 89/207/18 43/192/18
f 67/193/18 88/208/18 43/192/18
f 20/194/18 88/208/18 67/193/18
f 81/209/18 88/208/18 20/194/18
f 22/198/18 81/209/18 20/194/18
f 81/209/18 22/198/18 9/210/18
f 9/210/18 22/198/18 10/199/18
f 87/197/18 10/199/18 22/198/18
f 40/187/18 4/204/18 80/189/18
f 7/196/18 80/189/18 4/204/18
f 79/195/18 80/189/18 7/196/18
f 14/213/14 68/212/14 13/211/14
f 85/214/14 13/211/14 68/212/14
f 84/215/14 13/211/14 85/214/14
f 18/216/14 13/211/14 84/215/14
f 16/217/14 13/211/14 18/216/14
f 13/220/40 16/219/40 11/218/40
f 19/221/40 11/218/40 16/219/40
f 90/223/3 28/222/3 92/81/3
f 29/80/3 92/81/3 28/222/3
f 29/188/18 25/69/18 92/191/18
f 65/59/18 92/191/18 25/69/18
f 93/226/3 31/225/3 59/224/3
f 34/82/3 59/224/3 31/225/3
f 60/29/8 94/32/8 59/39/8
f 93/36/8 59/39/8 94/32/8
f 27/228/4 94/227/4 24/79/4
f 60/229/4 24/79/4 94/227/4
f 27/68/18 31/67/18 94/75/18
f 93/76/18 94/75/18 31/67/18
f 32/228/4 95/227/4 33/79/4
f 48/229/4 33/79/4 95/227/4
f 96/226/3 35/225/3 47/224/3
f 37/82/3 47/224/3 35/225/3
f 48/38/8 95/37/8 47/42/8
f 96/40/8 47/42/8 95/37/8
f 32/66/18 35/65/18 95/77/18
f 96/78/18 95/77/18 35/65/18

usemtl metalDark

f 2/17/41 15/18/41 1/19/41
f 15/18/41 2/17/41 12/20/41
f 16/21/42 17/22/42 18/23/42
f 17/22/42 16/21/42 19/24/42
f 12/14/3 13/15/3 14/16/3
f 13/15/3 12/14/3 11/13/3
f 2/7/3 11/13/3 12/14/3
f 11/13/3 2/7/3 5/5/3
f 17/51/43 44/52/43 45/53/43
f 44/52/43 17/51/43 46/54/43
f 14/87/44 15/88/44 12/89/44
f 15/88/44 14/87/44 68/90/44
f 84/131/45 17/132/45 45/133/45
f 17/132/45 84/131/45 18/134/45
f 68/135/46 69/136/46 15/137/46
f 69/136/46 68/135/46 85/138/46
f 15/141/47 74/142/47 1/143/47
f 74/142/47 15/141/47 69/144/47
f 85/149/48 45/150/48 69/151/48
f 45/150/48 85/149/48 84/152/48
f 19/157/49 5/158/49 75/159/49
f 5/158/49 19/157/49 11/160/49
f 69/161/50 44/162/50 74/163/50
f 44/162/50 69/161/50 45/164/50
f 19/183/51 46/184/51 17/185/51
f 46/184/51 19/183/51 75/186/51
f 13/211/18 68/212/18 14/213/18
f 68/212/18 13/211/18 85/214/18
f 85/214/18 13/211/18 84/215/18
f 84/215/18 13/211/18 18/216/18
f 18/216/18 13/211/18 16/217/18
f 11/218/52 16/219/52 13/220/52
f 16/219/52 11/218/52 19/221/52

usemtl cloth

f 90/232/8 97/231/8 92/230/8
f 97/231/8 90/232/8 91/233/8
f 92/230/8 97/231/8 65/234/8
f 65/234/8 97/231/8 57/235/8
f 97/231/8 91/233/8 98/236/8
f 98/236/8 91/233/8 99/237/8
f 98/236/8 99/237/8 55/238/8
f 99/237/8 91/233/8 100/239/8
f 100/239/8 91/233/8 53/240/8
f 53/240/8 91/233/8 52/241/8
f 54/242/8 55/238/8 99/237/8
f 56/243/8 57/235/8 97/231/8
f 24/29/7 25/30/7 26/31/7
f 27/32/7 25/30/7 24/29/7
f 28/33/7 25/30/7 27/32/7
f 25/30/7 28/33/7 29/34/7
f 28/33/7 27/32/7 30/35/7
f 30/35/7 27/32/7 31/36/7
f 30/35/7 31/36/7 32/37/7
f 32/37/7 31/36/7 33/38/7
f 33/38/7 31/36/7 34/39/7
f 30/35/7 32/37/7 35/40/7
f 30/35/7 35/40/7 36/41/7
f 36/41/7 35/40/7 37/42/7
f 36/79/3 91/222/3 30/223/3
f 91/222/3 36/79/3 52/82/3
f 53/79/4 101/227/4 100/228/4
f 101/227/4 53/79/4 64/229/4
f 99/56/14 101/55/14 102/58/14
f 101/55/14 99/56/14 100/57/14
f 63/224/3 99/225/3 102/226/3
f 99/225/3 63/224/3 54/82/3
f 92/81/4 28/222/4 90/223/4
f 28/222/4 92/81/4 29/80/4
f 92/191/14 25/69/14 29/188/14
f 25/69/14 92/191/14 65/59/14
f 59/224/4 31/225/4 93/226/4
f 31/225/4 59/224/4 34/82/4
f 97/72/14 104/73/14 103/74/14
f 104/73/14 97/72/14 98/71/14
f 61/224/3 97/225/3 103/226/3
f 97/225/3 61/224/3 56/82/3
f 24/79/3 94/227/3 27/228/3
f 94/227/3 24/79/3 60/229/3
f 55/79/4 104/227/4 98/228/4
f 104/227/4 55/79/4 62/229/4
f 94/75/14 31/67/14 27/68/14
f 31/67/14 94/75/14 93/76/14
f 33/79/3 95/227/3 32/228/3
f 95/227/3 33/79/3 48/229/3
f 47/224/4 35/225/4 96/226/4
f 35/225/4 47/224/4 37/82/4
f 95/77/14 35/65/14 32/66/14
f 35/65/14 95/77/14 96/78/14

usemtl metalLight

f 92/230/7 97/231/7 90/232/7
f 91/233/7 90/232/7 97/231/7
f 65/234/7 97/231/7 92/230/7
f 57/235/7 97/231/7 65/234/7
f 98/236/7 91/233/7 97/231/7
f 99/237/7 91/233/7 98/236/7
f 55/238/7 99/237/7 98/236/7
f 100/239/7 91/233/7 99/237/7
f 53/240/7 91/233/7 100/239/7
f 52/241/7 91/233/7 53/240/7
f 99/237/7 55/238/7 54/242/7
f 97/231/7 57/235/7 56/243/7
f 30/223/4 91/222/4 36/79/4
f 52/82/4 36/79/4 91/222/4
f 38/187/14 28/188/14 78/189/14
f 28/188/14 38/187/14 39/190/14
f 28/188/14 39/190/14 90/191/14
f 90/191/14 39/190/14 42/192/14
f 90/191/14 42/192/14 66/193/14
f 90/191/14 66/193/14 21/194/14
f 90/191/14 21/194/14 91/60/14
f 30/64/14 78/189/14 28/188/14
f 78/189/14 30/64/14 77/195/14
f 77/195/14 30/64/14 91/60/14
f 77/195/14 91/60/14 6/196/14
f 6/196/14 91/60/14 86/197/14
f 86/197/14 91/60/14 23/198/14
f 23/198/14 91/60/14 21/194/14
f 8/199/14 6/196/14 86/197/14

usemtl wood

f 47/55/18 33/56/18 37/57/18
f 33/56/18 47/55/18 48/58/18
f 26/59/18 37/57/18 33/56/18
f 26/59/18 36/60/18 37/57/18
f 26/59/18 49/61/18 36/60/18
f 50/62/18 36/60/18 49/61/18
f 36/60/18 50/62/18 51/63/18
f 36/60/18 51/63/18 52/64/18
f 52/64/18 51/63/18 53/65/18
f 53/65/18 51/63/18 54/66/18
f 54/66/18 51/63/18 55/67/18
f 55/67/18 51/63/18 56/68/18
f 56/68/18 51/63/18 57/69/18
f 49/61/18 26/59/18 58/70/18
f 58/70/18 26/59/18 57/69/18
f 58/70/18 57/69/18 51/63/18
f 26/59/18 33/56/18 34/71/18
f 26/59/18 34/71/18 24/72/18
f 59/73/18 24/72/18 34/71/18
f 24/72/18 59/73/18 60/74/18
f 61/75/18 55/67/18 56/68/18
f 55/67/18 61/75/18 62/76/18
f 63/77/18 53/65/18 54/66/18
f 53/65/18 63/77/18 64/78/18
f 70/98/53 71/99/53 72/100/53
f 71/99/53 70/98/53 73/101/53
f 72/109/3 51/110/3 50/111/3
f 51/110/3 72/109/3 76/112/3
f 76/112/3 72/109/3 71/113/3
f 82/109/4 49/110/4 58/111/4
f 49/110/4 82/109/4 70/112/4
f 70/112/4 82/109/4 73/120/4
f 82/145/54 71/146/54 73/147/54
f 71/146/54 82/145/54 76/148/54
f 72/153/7 49/154/7 70/155/7
f 49/154/7 72/153/7 50/156/7
f 51/169/8 82/170/8 58/171/8
f 82/170/8 51/169/8 76/172/8

usemtl glass

f 57/79/4 25/80/4 65/81/4
f 25/80/4 57/79/4 26/82/4
f 100/228/3 101/227/3 53/79/3
f 64/229/3 53/79/3 101/227/3
f 102/58/18 101/55/18 99/56/18
f 100/57/18 99/56/18 101/55/18
f 102/226/4 99/225/4 63/224/4
f 54/82/4 63/224/4 99/225/4
f 104/236/8 61/243/8 103/231/8
f 61/243/8 104/236/8 62/238/8
f 103/231/7 61/243/7 104/236/7
f 62/238/7 104/236/7 61/243/7
f 103/74/18 104/73/18 97/72/18
f 98/71/18 97/72/18 104/73/18
f 103/226/4 97/225/4 61/224/4
f 56/82/4 61/224/4 97/225/4
f 59/39/7 94/32/7 60/29/7
f 94/32/7 59/39/7 93/36/7
f 98/228/3 104/227/3 55/79/3
f 62/229/3 55/79/3 104/227/3
f 47/42/7 95/37/7 48/38/7
f 95/37/7 47/42/7 96/40/7
f 101/239/8 63/242/8 102/237/8
f 63/242/8 101/239/8 64/240/8
f 102/237/7 63/242/7 101/239/7
f 64/240/7 101/239/7 63/242/7

