# Created by Kenney (www.kenney.nl)

mtllib boat_016.mtl

g boat_016

v 0.6783 0.2 1.585
v -0.6783 0.2 1.585
v 0.8925 0.6 1.585
v -0.8925 0.6 1.585
v -0.40698 0 1.585
v 0.40698 0 1.585
v 0.8925 0.6 -0.5725
v 0.6783 0.2 -0.2863
v -7.219114E-16 0 -0.27964
v -7.219114E-16 0.2 -1.0558
v -0.1780892 0 -0.1810682
v -0.2968153 0.2 -0.8915137
v 0.2968153 0.2 -0.8915137
v 0.40698 0 0.18206
v 0.1780892 0 -0.1810682
v -0.40698 0 0.18206
v -0.6783 0.2 -0.2863
v -0.8925 0.6 -0.5725
v 0.3905465 0.6 -1.368834
v -7.219114E-16 0.6 -1.585
v -0.3905465 0.6 -1.368834
v 0.847875 0.8 1.585
v -0.847875 0.8 1.585
v 0.5511187 0.9 1.585
v -0.5511187 0.9 1.585
v -7.219114E-16 0.8 -1.47475
v 0.3710192 0.8 -1.269392
v -0.3710192 0.8 -1.269392
v -0.847875 0.8 -0.512875
v -7.219114E-16 0.9 -0.9217937
v -0.2411625 0.9 -0.7883111
v 0.2411625 0.9 -0.7883111
v 0.5511187 0.9 0.9330075
v -0.5511187 0.9 0.9330075
v 0.847875 0.8 -0.512875
v 0.5511187 0.9 -0.296575
v 0.413339 1.199503 0.6830074
v -0.413339 1.199503 0.6830074
v -0.5511187 0.9 -0.296575
v -0.5511187 0.9 -0.07703047
v 0.5511187 0.9 -0.07703047
v 0.413339 1.199503 -0.07703047
v -0.413339 1.199503 -0.07703047
v -7.219114E-16 1.199503 -0.5459445
v -0.1808718 1.199503 -0.4458326
v 0.1808718 1.199503 -0.4458326

vn 0 0 1
vn 0.8815585 -0.4720746 0
vn -0.1368141 -0.9592618 -0.2471815
vn 0.3257908 -0.9228701 -0.2053559
vn -0.5933529 -0.8049424 0
vn 0.1368141 -0.9592618 -0.2471815
vn 0.5933529 -0.8049424 0
vn 0 -1 0
vn -0.8815585 -0.4720746 0
vn 0.3165844 -0.7567184 -0.5719716
vn -0.3257908 -0.9228701 -0.2053559
vn -0.3165844 -0.7567184 -0.5719716
vn -0.649501 -0.6407338 -0.4094003
vn 0.649501 -0.6407338 -0.4094003
vn 0 0 -1
vn -0.8815585 0.4720746 0
vn 0.1368141 0.9592618 0.2471815
vn -0.3257908 0.9228701 0.2053559
vn 0.5933529 0.8049424 0
vn -0.1368141 0.9592618 0.2471815
vn -0.5933529 0.8049424 0
vn 0 1 0
vn 0.8815585 0.4720746 0
vn 0.4361847 0.4344141 -0.7880529
vn -0.4361847 -0.4344141 0.7880529
vn -0.3165844 0.7567184 0.5719716
vn 0.3257908 0.9228701 0.2053559
vn -0.4361847 0.4344141 -0.7880529
vn 0.4361847 -0.4344141 0.7880529
vn 0.3165844 0.7567184 0.5719716
vn -0.799036 0.3284376 -0.5036568
vn 0.799036 -0.3284376 0.5036568
vn 0.649501 0.6407338 0.4094003
vn -0.09802558 0.9792986 -0.1771024
vn 0.09802558 -0.9792986 0.1771024
vn 0.09802558 0.9792986 -0.1771024
vn -0.09802558 -0.9792986 0.1771024
vn 0.2227476 0.9647124 -0.1404046
vn -0.2227476 -0.9647124 0.1404046
vn -0.9760001 0.21777 0
vn 0.9760001 -0.21777 0
vn -0.649501 0.6407338 0.4094003
vn 0 -0.6408112 -0.7676985
vn 0.799036 0.3284376 -0.5036568
vn -0.799036 -0.3284376 0.5036568
vn -0.3193336 0.9476424 0
vn 0.3193336 -0.9476424 0
vn 0.9760001 0.21777 0
vn -0.9760001 -0.21777 0
vn 0.3193336 0.9476424 0
vn -0.3193336 -0.9476424 0
vn -0.2227476 0.9647124 -0.1404046
vn 0.2227476 -0.9647124 0.1404046
vn 0.9084806 0.4179268 0
vn 0 0.6408112 0.7676985
vn -0.9084806 0.4179268 0
vn -0.9084806 -0.4179268 0
vn 0.9084806 -0.4179268 0
vn 0.3260853 -0.7393146 0.589137
vn -0.3260853 -0.7393146 0.589137
vn -0.6670303 -0.6150551 0.4204496
vn 0.6670303 -0.6150551 0.4204496
vn -0.3260853 0.7393146 -0.589137
vn 0.3260853 0.7393146 -0.589137
vn 0.6670303 0.6150551 -0.4204496
vn -0.6670303 0.6150551 -0.4204496

vt 26.70473 7.874016
vt -26.70473 7.874016
vt 35.13779 23.62205
vt -35.13779 23.62205
vt -16.02283 0
vt 16.02283 0
vt 22.53937 37.41188
vt 11.27165 19.54803
vt -62.40157 37.41188
vt -62.40157 19.54803
vt -5.3315 9.23999
vt -20.12944 37.11077
vt 2.682237 9.23999
vt -6.773215 37.11077
vt -4.70454 29.42807
vt 23.46128 29.42807
vt -14.60762 8.981987
vt 2.291872 8.981987
vt 62.40157 12.89746
vt 7.167717 12.89746
vt 62.40157 26.16784
vt -11.27165 26.16784
vt 6.773215 37.11077
vt 20.12944 37.11077
vt -2.682237 9.23999
vt 5.3315 9.23999
vt -62.40157 26.16784
vt 11.27165 26.16784
vt -62.40157 12.89746
vt -7.167717 12.89746
vt 16.02283 62.40157
vt 16.02283 7.167717
vt -16.02283 62.40157
vt 7.011386 -7.12867
vt -2.842171E-14 -11.00945
vt -7.011386 -7.12867
vt -16.02283 7.167717
vt -22.53937 37.41188
vt 62.40157 37.41188
vt -11.27165 19.54803
vt 62.40157 19.54803
vt 12.64497 56.75684
vt 30.21895 56.75684
vt 6.773215 32.66773
vt 20.12944 32.66773
vt -2.291872 8.981987
vt -23.46128 29.42807
vt 14.60762 8.981987
vt 4.70454 29.42807
vt -20.12944 32.66773
vt -30.21895 56.75684
vt -6.773215 32.66773
vt -12.64497 56.75684
vt -37.39102 44.88306
vt -0.3307262 44.88306
vt -23.46128 24.37148
vt 4.70454 24.37148
vt 37.39102 44.88306
vt 23.46128 24.37148
vt 0.3307262 44.88306
vt -4.70454 24.37148
vt 33.38091 31.49606
vt -33.38091 31.49606
vt 21.69759 35.43307
vt -21.69759 35.43307
vt 30.21895 -2.440776
vt 12.64497 -2.440776
vt 28.11697 6.301203
vt 11.42169 6.301203
vt -12.64497 -2.440776
vt -30.21895 -2.440776
vt -11.42169 6.301203
vt -28.11697 6.301203
vt -37.39102 8.601264
vt -34.48899 16.93774
vt -0.3307262 8.601264
vt 0.7182876 16.93774
vt -28.11697 -43.37173
vt -17.57454 -23.92213
vt -11.42169 -43.37173
vt -6.722601 -23.92213
vt 11.42169 -43.37173
vt 6.722601 -23.92213
vt 28.11697 -43.37173
vt 17.57454 -23.92213
vt -21.69759 36.73258
vt -21.69759 62.40157
vt 21.69759 36.73258
vt 21.69759 62.40157
vt -0.7182876 -29.33666
vt -1.692329 -14.38443
vt 34.48899 -29.33666
vt 21.1924 -14.38443
vt -22.53937 15.40316
vt -20.19193 23.4708
vt 62.40157 15.40316
vt 62.40157 23.4708
vt 16.27319 19.02274
vt -21.69759 3.663271
vt 21.69759 3.663271
vt -16.27319 19.02274
vt 37.39102 8.601264
vt 0.3307262 8.601264
vt 34.48899 16.93774
vt -0.7182876 16.93774
vt -11.67618 -9.246585
vt -3.032696 -9.246585
vt -20.19193 -21.57541
vt 36.73258 -9.246585
vt 62.40157 -9.246585
vt 62.40157 -21.57541
vt 22.53937 15.40316
vt -62.40157 15.40316
vt 20.19193 23.4708
vt -62.40157 23.4708
vt 20.19193 -21.57541
vt -62.40157 -21.57541
vt 11.67618 -9.246585
vt -62.40157 -9.246585
vt 3.032696 -9.246585
vt -36.73258 -9.246585
vt -21.1924 -14.38443
vt 1.692329 -14.38443
vt -34.48899 -29.33666
vt 0.7182876 -29.33666
vt 3.032696 36.10155
vt 3.032696 23.12226
vt -26.89006 36.10155
vt -36.73258 23.12226
vt -3.032696 23.12226
vt -3.032696 36.10155
vt 36.73258 23.12226
vt 26.89006 36.10155
vt -16.27319 -3.032696
vt -16.27319 26.89006
vt 16.27319 -3.032696
vt 16.27319 26.89006
vt 11.67618 23.12226
vt -11.67618 23.12226
vt -6.722601 0.3846264
vt -10.40875 17.89597
vt -17.57454 0.3846264
vt -2.2698 17.89597
vt 17.57454 0.3846264
vt 2.2698 17.89597
vt 6.722601 0.3846264
vt 10.40875 17.89597
vt 11.05162 27.77395
vt -1.692329 12.81938
vt 21.1924 12.81938
vt -6.111925 27.77395
vt 1.692329 12.81938
vt -11.05162 27.77395
vt -21.1924 12.81938
vt 6.111925 27.77395
vt -7.120939 -17.55246
vt 2.842171E-14 -21.49388
vt 7.120939 -17.55246

usemtl metalDark

f 3/3/1 2/2/1 1/1/1
f 2/2/1 3/3/1 4/4/1
f 5/5/1 1/1/1 2/2/1
f 1/1/1 5/5/1 6/6/1
f 3/9/2 8/8/2 7/7/2
f 8/8/2 3/9/2 1/10/2
f 11/13/3 10/12/3 9/11/3
f 10/12/3 11/13/3 12/14/3
f 14/17/4 13/16/4 8/15/4
f 13/16/4 14/17/4 15/18/4
f 2/21/5 16/20/5 5/19/5
f 16/20/5 2/21/5 17/22/5
f 15/25/6 10/24/6 13/23/6
f 10/24/6 15/25/6 9/26/6
f 6/29/7 8/28/7 1/27/7
f 8/28/7 6/29/7 14/30/7
f 5/33/8 14/32/8 6/31/8
f 14/32/8 5/33/8 15/34/8
f 15/34/8 5/33/8 9/35/8
f 9/35/8 5/33/8 11/36/8
f 11/36/8 5/33/8 16/37/8
f 17/40/9 4/39/9 18/38/9
f 4/39/9 17/40/9 2/41/9
f 13/44/10 20/43/10 19/42/10
f 20/43/10 13/44/10 10/45/10
f 16/48/11 12/47/11 11/46/11
f 12/47/11 16/48/11 17/49/11
f 12/52/12 20/51/12 10/50/12
f 20/51/12 12/52/12 21/53/12
f 12/56/13 18/55/13 21/54/13
f 18/55/13 12/56/13 17/57/13
f 7/60/14 13/59/14 19/58/14
f 13/59/14 7/60/14 8/61/14

usemtl metalRed

f 1/1/15 2/2/15 3/3/15
f 4/4/15 3/3/15 2/2/15
f 2/2/15 1/1/15 5/5/15
f 6/6/15 5/5/15 1/1/15
f 3/3/15 4/4/15 22/62/15
f 23/63/15 22/62/15 4/4/15
f 24/64/15 22/62/15 23/63/15
f 25/65/15 24/64/15 23/63/15
f 7/7/16 8/8/16 3/9/16
f 1/10/16 3/9/16 8/8/16
f 9/11/17 10/12/17 11/13/17
f 12/14/17 11/13/17 10/12/17
f 8/15/18 13/16/18 14/17/18
f 15/18/18 14/17/18 13/16/18
f 5/19/19 16/20/19 2/21/19
f 17/22/19 2/21/19 16/20/19
f 13/23/20 10/24/20 15/25/20
f 9/26/20 15/25/20 10/24/20
f 1/27/21 8/28/21 6/29/21
f 14/30/21 6/29/21 8/28/21
f 6/31/22 14/32/22 5/33/22
f 15/34/22 5/33/22 14/32/22
f 9/35/22 5/33/22 15/34/22
f 11/36/22 5/33/22 9/35/22
f 16/37/22 5/33/22 11/36/22
f 18/38/23 4/39/23 17/40/23
f 2/41/23 17/40/23 4/39/23
f 26/68/24 19/67/24 20/66/24
f 19/67/24 26/68/24 27/69/24
f 20/66/25 19/67/25 26/68/25
f 27/69/25 26/68/25 19/67/25
f 19/42/26 20/43/26 13/44/26
f 10/45/26 13/44/26 20/43/26
f 11/46/27 12/47/27 16/48/27
f 17/49/27 16/48/27 12/47/27
f 28/72/28 20/71/28 21/70/28
f 20/71/28 28/72/28 26/73/28
f 21/70/29 20/71/29 28/72/29
f 26/73/29 28/72/29 20/71/29
f 10/50/30 20/51/30 12/52/30
f 21/53/30 12/52/30 20/51/30
f 18/76/31 28/75/31 21/74/31
f 28/75/31 18/76/31 29/77/31
f 21/74/32 28/75/32 18/76/32
f 29/77/32 18/76/32 28/75/32
f 21/54/33 18/55/33 12/56/33
f 17/57/33 12/56/33 18/55/33
f 28/80/34 30/79/34 26/78/34
f 30/79/34 28/80/34 31/81/34
f 26/78/35 30/79/35 28/80/35
f 31/81/35 28/80/35 30/79/35
f 26/84/36 32/83/36 27/82/36
f 32/83/36 26/84/36 30/85/36
f 27/82/37 32/83/37 26/84/37
f 30/85/37 26/84/37 32/83/37
f 34/88/22 24/87/22 33/86/22
f 24/87/22 34/88/22 25/89/22
f 33/86/8 24/87/8 34/88/8
f 25/89/8 34/88/8 24/87/8
f 27/92/38 36/91/38 35/90/38
f 36/91/38 27/92/38 32/93/38
f 35/90/39 36/91/39 27/92/39
f 32/93/39 27/92/39 36/91/39
f 4/96/40 29/95/40 18/94/40
f 29/95/40 4/96/40 23/97/40
f 18/94/41 29/95/41 4/96/41
f 23/97/41 4/96/41 29/95/41
f 22/62/1 4/4/1 3/3/1
f 4/4/1 22/62/1 23/63/1
f 23/63/1 22/62/1 24/64/1
f 23/63/1 24/64/1 25/65/1
f 19/58/42 13/59/42 7/60/42
f 8/61/42 7/60/42 13/59/42
f 33/100/43 34/99/43 37/98/43
f 38/101/43 37/98/43 34/99/43
f 27/104/44 7/103/44 19/102/44
f 7/103/44 27/104/44 35/105/44
f 19/102/45 7/103/45 27/104/45
f 35/105/45 27/104/45 7/103/45
f 29/108/46 40/107/46 39/106/46
f 40/107/46 29/108/46 34/109/46
f 34/109/46 29/108/46 25/110/46
f 25/110/46 29/108/46 23/111/46
f 39/106/47 40/107/47 29/108/47
f 34/109/47 29/108/47 40/107/47
f 25/110/47 29/108/47 34/109/47
f 23/111/47 29/108/47 25/110/47
f 35/114/48 3/113/48 7/112/48
f 3/113/48 35/114/48 22/115/48
f 7/112/49 3/113/49 35/114/49
f 22/115/49 35/114/49 3/113/49
f 36/118/50 22/117/50 35/116/50
f 22/117/50 36/118/50 24/119/50
f 24/119/50 36/118/50 41/120/50
f 24/119/50 41/120/50 33/121/50
f 35/116/51 22/117/51 36/118/51
f 24/119/51 36/118/51 22/117/51
f 41/120/51 36/118/51 24/119/51
f 33/121/51 41/120/51 24/119/51
f 28/124/52 39/123/52 31/122/52
f 39/123/52 28/124/52 29/125/52
f 31/122/53 39/123/53 28/124/53
f 29/125/53 28/124/53 39/123/53

usemtl metalLight

f 37/128/54 41/127/54 42/126/54
f 41/127/54 37/128/54 33/129/54
f 37/98/55 34/99/55 33/100/55
f 34/99/55 37/98/55 38/101/55
f 34/132/56 43/131/56 40/130/56
f 43/131/56 34/132/56 38/133/56
f 43/136/22 37/135/22 42/134/22
f 37/135/22 43/136/22 38/137/22

usemtl metalGreen

f 42/126/57 41/127/57 37/128/57
f 33/129/57 37/128/57 41/127/57
f 42/126/57 36/138/57 41/127/57
f 40/130/58 39/139/58 43/131/58
f 40/130/58 43/131/58 34/132/58
f 38/133/58 34/132/58 43/131/58
f 30/142/59 44/141/59 31/140/59
f 45/143/59 31/140/59 44/141/59
f 32/146/60 46/145/60 30/144/60
f 44/147/60 30/144/60 46/145/60
f 32/150/61 36/149/61 46/148/61
f 42/151/61 46/148/61 36/149/61
f 31/154/62 45/153/62 39/152/62
f 43/155/62 39/152/62 45/153/62
f 42/134/8 37/135/8 43/136/8
f 38/137/8 43/136/8 37/135/8
f 42/134/8 43/136/8 46/156/8
f 44/157/8 46/156/8 43/136/8
f 45/158/8 44/157/8 43/136/8

usemtl glass

f 43/131/56 39/139/56 40/130/56
f 31/140/63 44/141/63 30/142/63
f 44/141/63 31/140/63 45/143/63
f 41/127/54 36/138/54 42/126/54
f 30/144/64 46/145/64 32/146/64
f 46/145/64 30/144/64 44/147/64
f 46/148/65 36/149/65 32/150/65
f 36/149/65 46/148/65 42/151/65
f 39/152/66 45/153/66 31/154/66
f 45/153/66 39/152/66 43/155/66
f 46/156/22 43/136/22 42/134/22
f 43/136/22 46/156/22 44/157/22
f 43/136/22 44/157/22 45/158/22

