# Created by Kenney (www.kenney.nl)

mtllib boat_014.mtl

g boat_014

v -0.55 0.5 1.135
v 0.55 0.5 1.135
v -0.55 0.7 1.135
v 0.55 0.7 1.135
v 0.68 0.3 1.435
v 0.68 0.3 -0.725
v -0.68 0.3 1.435
v 0.372 0.3 -0.985
v 7.219114E-15 0.3 -1.085
v -0.372 0.3 -0.985
v -0.68 0.3 -0.725
v 0.55 0.5 0.24
v -0.55 0.5 0.24
v 0.55 0.8 0.24
v -0.55 0.8 0.24
v 0.55 0.5 0.935
v -0.55 0.5 0.935
v 0.55 0.5 0.735
v -0.55 0.5 0.735
v 0.55 0.8 1.135
v -0.55 0.8 1.135
v 0.55 0.7 0.735
v 0.55 0.8 0.9683333
v 0.55 0.7 0.935
v -0.55 0.7 0.935
v 0.55 0.8 -0.46
v -0.55 0.8 -0.46
v -0.55 0.8 0.9683333
v -0.55 0.7 0.735
v -0.55 1.174627 0.24
v 0.55 1.174627 0.24
v 0.55 1 1.135
v -0.55 1 1.135
v -0.55 1 1.035
v 0.55 1 1.035
v -0.55 1.174627 0.065
v 0.55 1.174627 0.065
v -0.48825 0.7 -1.30375
v 2.887646E-15 0.7 -1.435
v -0.465 1 -1.24
v 2.887646E-15 1 -1.365
v 0.2232 9.023893E-17 -0.521
v 2.887646E-15 9.023893E-17 -0.581
v -0.75 0.8 1.335
v -0.545 0.8 1.335
v -0.75 1 1.335
v -0.545 1 1.335
v -0.2232 9.023893E-17 -0.521
v -0.8925 0.7 1.435
v -0.8925 0.7 -0.9625
v 0.48825 0.7 -1.30375
v 0.8925 0.7 -0.9625
v 0.465 1 -1.24
v 0.85 1 -0.915
v -0.408 9.023893E-17 1.435
v 0.408 9.023893E-17 -0.365
v 0.408 9.023893E-17 1.435
v -0.408 0 -0.365
v 0.85 1 1.435
v 0.75 1 -0.8685493
v 0.4175216 1 -1.149213
v 2.887646E-15 1 -1.26145
v -0.4175216 1 -1.149213
v -0.75 1 -0.8685493
v -0.85 1 -0.915
v -0.85 1 1.435
v -0.545 1 1.435
v 0.75 1 1.335
v 0.545 1 1.435
v 0.545 1 1.335
v 0.8925 0.7 1.435
v -0.75 0.8 -0.8685493
v 0.545 0.8 1.335
v 0.545 0.8 1.435
v 0.75 0.8 -0.8685493
v 0.75 0.8 1.335
v -0.4175216 0.8 -1.149213
v 0.4175216 0.8 -1.149213
v 2.887646E-15 0.8 -1.26145
v -0.545 0.8 1.435

vn 0 0 -1
vn 0 -1 0
vn 0 0 1
vn 0 1 0
vn -1 0 0
vn 1 0 0
vn 0 0.8140069 -0.5808551
vn 0 -0.8140069 0.5808551
vn -0.2532512 0.219822 -0.9420946
vn 0.2532512 -0.219822 0.9420946
vn -0.1362141 0.8512837 0.5067165
vn 0.1362141 0.8512837 0.5067165
vn 0.8831158 0.4691553 0
vn 0.63098 0.207738 -0.7474686
vn -0.63098 -0.207738 0.7474686
vn -0.5045881 0.6229722 0.5977429
vn 0.5045881 0.6229722 0.5977429
vn 0.9901139 0.1402661 0
vn -0.9901139 -0.1402661 0
vn -0.7408333 0.6716889 0
vn 0.6450521 0 0.7641386
vn -0.6450521 0 -0.7641386
vn -0.9901139 0.1402661 0
vn 0.9901139 -0.1402661 0
vn 0.3575112 0.8323594 0.4235133
vn -0.6450521 0 0.7641386
vn 0.6450521 0 -0.7641386
vn 0.1982885 0.6454291 0.7376333
vn -0.3575112 0.8323594 0.4235133
vn 0.2596011 0 0.965716
vn -0.2596011 0 -0.965716
vn -0.1982885 0.6454291 0.7376333
vn -0.8831158 0.4691553 0
vn -0.63098 0.207738 -0.7474686
vn 0.63098 -0.207738 0.7474686
vn 0.7408333 0.6716889 0
vn -0.2596011 0 0.965716
vn 0.2596011 0 -0.965716
vn 0.2532512 0.219822 -0.9420946
vn -0.2532512 -0.219822 0.9420946
vn 0.1362141 -0.8512837 -0.5067165
vn -0.1362141 -0.8512837 -0.5067165
vn -0.8831158 -0.4691553 0
vn 0.5045881 -0.6229722 -0.5977429
vn -0.5045881 -0.6229722 -0.5977429
vn 0.7408333 -0.6716889 0
vn -0.3575112 -0.8323594 -0.4235133
vn -0.1982885 -0.6454291 -0.7376333
vn 0.3575112 -0.8323594 -0.4235133
vn 0.1982885 -0.6454291 -0.7376333
vn 0.8831158 -0.4691553 0
vn -0.7408333 -0.6716889 0
vn 0 0.3162278 -0.9486833

vt 21.65354 19.68504
vt -21.65354 19.68504
vt 21.65354 27.55906
vt -21.65354 27.55906
vt 26.77165 56.49606
vt 26.77165 -28.54331
vt -26.77165 56.49606
vt 14.64567 -38.77953
vt 2.845579E-13 -42.71653
vt -14.64567 -38.77953
vt -26.77165 -28.54331
vt 21.65354 31.49606
vt -21.65354 31.49606
vt -21.65354 36.81102
vt 21.65354 36.81102
vt -21.65354 28.93701
vt 21.65354 28.93701
vt 21.65354 9.448819
vt -21.65354 9.448819
vt -21.65354 44.68504
vt 21.65354 44.68504
vt 9.448819 19.68504
vt 9.448819 31.49606
vt 28.93701 19.68504
vt 28.93701 27.55906
vt 38.12336 31.49606
vt 36.81102 27.55906
vt 44.68504 27.55906
vt 44.68504 31.49606
vt 44.68504 19.68504
vt 36.81102 19.68504
vt -21.65354 -18.11024
vt 21.65354 -18.11024
vt -36.81102 27.55906
vt -36.81102 19.68504
vt -44.68504 27.55906
vt -44.68504 19.68504
vt -38.12336 31.49606
vt -44.68504 31.49606
vt -28.93701 19.68504
vt -28.93701 27.55906
vt -9.448819 19.68504
vt -9.448819 31.49606
vt -21.65354 46.24516
vt 21.65354 46.24516
vt 21.65354 39.37008
vt -21.65354 39.37008
vt 21.65354 40.74803
vt -21.65354 40.74803
vt 40.74803 39.37008
vt 44.68504 39.37008
vt -40.74803 39.37008
vt -44.68504 39.37008
vt -18.11024 31.49606
vt 2.559055 46.24516
vt 9.448819 46.24516
vt -21.65354 3.552793
vt -21.65354 28.94483
vt 21.65354 3.552793
vt 21.65354 28.94483
vt 18.11024 31.49606
vt -2.559055 46.24516
vt -9.448819 46.24516
vt -21.65354 2.559055
vt 21.65354 2.559055
vt 5.238422 14.89166
vt -14.66644 14.89166
vt 5.006008 26.99882
vt -13.951 26.99882
vt -3.161246 18.80469
vt 11.08926 41.3145
vt -4.07635 41.3145
vt 5.938119 18.80469
vt 29.52756 31.49606
vt 21.45669 31.49606
vt 29.52756 39.37008
vt 21.45669 39.37008
vt -5.938119 18.80469
vt 4.07635 41.3145
vt -11.08926 41.3145
vt 3.161246 18.80469
vt -28.54331 22.99056
vt 56.49606 40.82291
vt -37.8937 40.82291
vt 56.49606 22.99056
vt 18.4211 16.23404
vt -2.406736 16.23404
vt 17.50158 28.30848
vt -2.334455 28.30848
vt -2.045335 33.58495
vt 18.4211 53.71682
vt -2.406736 53.71682
vt 13.82349 33.58495
vt 2.045335 33.58495
vt -18.4211 53.71682
vt -13.82349 33.58495
vt 2.406736 53.71682
vt -16.06299 56.49606
vt 16.06299 -14.37008
vt 16.06299 56.49606
vt 8.787401 -20.51181
vt 1.136868E-13 -22.87402
vt -8.787401 -20.51181
vt -16.06299 -14.37008
vt -33.46457 56.49606
vt -29.52756 -34.19485
vt -33.46457 -36.02362
vt -18.30709 -48.8189
vt -16.43786 -45.2446
vt -1.136868E-13 -53.74016
vt -1.136868E-13 -49.66338
vt 18.30709 -48.8189
vt 16.43786 -45.2446
vt 29.52756 -34.19485
vt 33.46457 -36.02362
vt 29.52756 52.55906
vt 33.46457 56.49606
vt 21.45669 56.49606
vt 21.45669 52.55906
vt -29.52756 52.55906
vt -21.45669 56.49606
vt -21.45669 52.55906
vt 37.8937 22.35796
vt -56.49606 22.35796
vt 36.02362 34.28691
vt -56.49606 34.28691
vt 34.19485 39.37008
vt 34.19485 31.49606
vt -52.55906 39.37008
vt -52.55906 31.49606
vt 52.55906 31.49606
vt 52.55906 39.37008
vt 56.49606 31.49606
vt 56.49606 39.37008
vt -34.19485 31.49606
vt -34.19485 39.37008
vt -21.45669 31.49606
vt -29.52756 31.49606
vt -21.45669 39.37008
vt -29.52756 39.37008
vt -56.49606 26.73222
vt 14.37008 10.78933
vt 28.54331 26.73222
vt -56.49606 10.78933
vt 16.62432 31.49606
vt -0.5056869 31.49606
vt 16.62432 39.37008
vt -0.5056869 39.37008
vt -37.8937 22.35796
vt -36.02362 34.28691
vt 56.49606 22.35796
vt 56.49606 34.28691
vt 3.004903 17.76438
vt -13.82349 39.07483
vt -6.516394 17.76438
vt 2.045335 39.07483
vt 0.5056869 31.49606
vt -16.62432 31.49606
vt 0.5056869 39.37008
vt -16.62432 39.37008
vt 5.238422 56.26423
vt -11.08926 35.64677
vt 4.07635 35.64677
vt -14.66644 56.26423
vt -3.004903 17.76438
vt 13.82349 39.07483
vt -2.045335 39.07483
vt 6.516394 17.76438
vt 12.89267 31.49606
vt -4.128753 31.49606
vt 12.89267 39.37008
vt -4.128753 39.37008
vt -35.13779 27.55906
vt 35.13779 27.55906
vt 33.46457 39.37008
vt -33.46457 39.37008
vt -26.77165 11.81102
vt 26.77165 11.81102
vt -16.06299 3.552714E-15
vt 16.06299 3.552714E-15
vt 14.66644 56.26423
vt -4.07635 35.64677
vt 11.08926 35.64677
vt -5.238422 56.26423
vt -56.49606 40.82291
vt 28.54331 22.99056
vt 37.8937 40.82291
vt -56.49606 22.99056
vt -56.49606 39.37008
vt -56.49606 31.49606
vt 2.406736 16.23404
vt -18.4211 16.23404
vt 2.334455 28.30848
vt -17.50158 28.30848
vt -14.37008 10.78933
vt 56.49606 26.73222
vt -28.54331 26.73222
vt 56.49606 10.78933
vt 21.65354 38.12336
vt -21.65354 38.12336
vt 4.128753 31.49606
vt -12.89267 31.49606
vt 4.128753 39.37008
vt -12.89267 39.37008
vt 14.66644 14.89166
vt -5.238422 14.89166
vt 13.951 26.99882
vt -5.006008 26.99882
vt 21.65354 37.78548
vt -21.65354 37.78548
vt 21.65354 41.93546
vt -21.65354 41.93546
vt 21.65354 50.23539
vt -21.65354 50.23539

usemtl metalLight

f 3/3/1 2/2/1 1/1/1
f 2/2/1 3/3/1 4/4/1
f 7/7/2 6/6/2 5/5/2
f 6/6/2 7/7/2 8/8/2
f 8/8/2 7/7/2 9/9/2
f 9/9/2 7/7/2 10/10/2
f 10/10/2 7/7/2 11/11/2
f 14/12/3 13/2/3 12/1/3
f 13/2/3 14/12/3 15/13/3
f 18/16/4 17/15/4 16/14/4
f 17/15/4 18/16/4 19/17/4
f 18/16/4 13/18/4 19/17/4
f 13/18/4 18/16/4 12/19/4
f 17/15/4 2/20/4 16/14/4
f 2/20/4 17/15/4 1/21/4
f 20/12/3 3/4/3 4/3/3
f 3/4/3 20/12/3 21/13/3
f 18/24/5 14/23/5 12/22/5
f 14/23/5 18/24/5 22/25/5
f 14/23/5 22/25/5 23/26/5
f 23/26/5 22/25/5 24/27/5
f 4/28/5 23/26/5 24/27/5
f 23/26/5 4/28/5 20/29/5
f 24/27/5 2/30/5 4/28/5
f 2/30/5 24/27/5 16/31/5
f 16/31/5 22/25/5 18/24/5
f 22/25/5 16/31/5 24/27/5
f 25/15/4 4/20/4 24/14/4
f 4/20/4 25/15/4 3/21/4
f 27/33/4 14/19/4 26/32/4
f 14/19/4 27/33/4 15/18/4
f 25/3/1 16/2/1 17/1/1
f 16/2/1 25/3/1 24/4/1
f 3/36/6 17/35/6 25/34/6
f 17/35/6 3/36/6 1/37/6
f 28/38/6 3/36/6 25/34/6
f 3/36/6 28/38/6 21/39/6
f 19/40/6 25/34/6 17/35/6
f 25/34/6 19/40/6 29/41/6
f 29/41/6 28/38/6 25/34/6
f 13/42/6 28/38/6 29/41/6
f 19/40/6 13/42/6 29/41/6
f 28/38/6 13/42/6 15/43/6

usemtl metalGreen

f 1/1/3 2/2/3 3/3/3
f 4/4/3 3/3/3 2/2/3
f 5/5/4 6/6/4 7/7/4
f 8/8/4 7/7/4 6/6/4
f 9/9/4 7/7/4 8/8/4
f 10/10/4 7/7/4 9/9/4
f 11/11/4 7/7/4 10/10/4
f 12/1/1 13/2/1 14/12/1
f 15/13/1 14/12/1 13/2/1
f 15/13/1 30/44/1 14/12/1
f 31/45/1 14/12/1 30/44/1
f 16/14/2 17/15/2 18/16/2
f 19/17/2 18/16/2 17/15/2
f 16/14/2 2/20/2 17/15/2
f 1/21/2 17/15/2 2/20/2
f 4/3/1 3/4/1 20/12/1
f 21/13/1 20/12/1 3/4/1
f 20/12/1 21/13/1 32/46/1
f 33/47/1 32/46/1 21/13/1
f 19/1/3 18/2/3 29/3/3
f 22/4/3 29/3/3 18/2/3
f 35/49/2 32/20/2 34/48/2
f 33/21/2 34/48/2 32/20/2
f 12/22/6 14/23/6 18/24/6
f 22/25/6 18/24/6 14/23/6
f 23/26/6 22/25/6 14/23/6
f 24/27/6 22/25/6 23/26/6
f 24/27/6 23/26/6 4/28/6
f 20/29/6 4/28/6 23/26/6
f 4/28/6 2/30/6 24/27/6
f 16/31/6 24/27/6 2/30/6
f 18/24/6 22/25/6 16/31/6
f 24/27/6 16/31/6 22/25/6
f 24/14/2 4/20/2 25/15/2
f 3/21/2 25/15/2 4/20/2
f 24/14/2 25/15/2 22/16/2
f 29/17/2 22/16/2 25/15/2
f 26/32/2 14/19/2 27/33/2
f 15/18/2 27/33/2 14/19/2
f 17/1/3 16/2/3 25/3/3
f 24/4/3 25/3/3 16/2/3
f 28/26/6 34/50/6 21/29/6
f 33/51/6 21/29/6 34/50/6
f 25/34/5 17/35/5 3/36/5
f 1/37/5 3/36/5 17/35/5
f 25/34/5 3/36/5 28/38/5
f 21/39/5 28/38/5 3/36/5
f 17/35/5 25/34/5 19/40/5
f 29/41/5 19/40/5 25/34/5
f 25/34/5 28/38/5 29/41/5
f 29/41/5 28/38/5 13/42/5
f 29/41/5 13/42/5 19/40/5
f 15/43/5 13/42/5 28/38/5
f 23/38/5 20/39/5 35/52/5
f 32/53/5 35/52/5 20/39/5

usemtl glass

f 15/23/5 36/55/5 27/54/5
f 36/55/5 15/23/5 30/56/5
f 27/54/6 36/55/6 15/23/6
f 30/56/6 15/23/6 36/55/6
f 27/59/7 37/58/7 26/57/7
f 37/58/7 27/59/7 36/60/7
f 37/62/6 14/43/6 26/61/6
f 14/43/6 37/62/6 31/63/6
f 14/12/3 30/44/3 15/13/3
f 30/44/3 14/12/3 31/45/3
f 36/65/4 31/19/4 37/64/4
f 31/19/4 36/65/4 30/18/4
f 37/64/2 31/19/2 36/65/2
f 30/18/2 36/65/2 31/19/2

usemtl metalRed

f 26/57/8 37/58/8 27/59/8
f 36/60/8 27/59/8 37/58/8
f 40/68/9 39/67/9 38/66/9
f 39/67/9 40/68/9 41/69/9
f 38/66/10 39/67/10 40/68/10
f 41/69/10 40/68/10 39/67/10
f 8/72/11 9/71/11 42/70/11
f 43/73/11 42/70/11 9/71/11
f 46/76/1 45/75/1 44/74/1
f 45/75/1 46/76/1 47/77/1
f 44/74/3 45/75/3 46/76/3
f 47/77/3 46/76/3 45/75/3
f 9/80/12 10/79/12 43/78/12
f 48/81/12 43/78/12 10/79/12
f 50/84/13 49/83/13 11/82/13
f 7/85/13 11/82/13 49/83/13
f 53/88/14 52/87/14 51/86/14
f 52/87/14 53/88/14 54/89/14
f 51/86/15 52/87/15 53/88/15
f 54/89/15 53/88/15 52/87/15
f 26/61/5 14/43/5 37/62/5
f 31/63/5 37/62/5 14/43/5
f 52/92/16 51/91/16 6/90/16
f 8/93/16 6/90/16 51/91/16
f 10/96/17 38/95/17 11/94/17
f 50/97/17 11/94/17 38/95/17
f 57/100/4 56/99/4 55/98/4
f 42/101/4 55/98/4 56/99/4
f 43/102/4 55/98/4 42/101/4
f 48/103/4 55/98/4 43/102/4
f 58/104/4 55/98/4 48/103/4
f 54/107/4 60/106/4 59/105/4
f 60/106/4 54/107/4 53/108/4
f 60/106/4 53/108/4 61/109/4
f 61/109/4 53/108/4 41/110/4
f 61/109/4 41/110/4 62/111/4
f 62/111/4 41/110/4 40/112/4
f 62/111/4 40/112/4 63/113/4
f 63/113/4 40/112/4 64/114/4
f 64/114/4 40/112/4 65/115/4
f 64/114/4 65/115/4 46/116/4
f 66/117/4 46/116/4 65/115/4
f 67/118/4 46/116/4 66/117/4
f 46/116/4 67/118/4 47/119/4
f 68/120/4 59/105/4 60/106/4
f 59/105/4 68/120/4 69/121/4
f 69/121/4 68/120/4 70/122/4
f 59/105/2 60/106/2 54/107/2
f 53/108/2 54/107/2 60/106/2
f 61/109/2 53/108/2 60/106/2
f 41/110/2 53/108/2 61/109/2
f 62/111/2 41/110/2 61/109/2
f 40/112/2 41/110/2 62/111/2
f 63/113/2 40/112/2 62/111/2
f 64/114/2 40/112/2 63/113/2
f 65/115/2 40/112/2 64/114/2
f 46/116/2 65/115/2 64/114/2
f 65/115/2 46/116/2 66/117/2
f 66/117/2 46/116/2 67/118/2
f 47/119/2 67/118/2 46/116/2
f 60/106/2 59/105/2 68/120/2
f 69/121/2 68/120/2 59/105/2
f 70/122/2 68/120/2 69/121/2
f 54/125/18 71/124/18 52/123/18
f 71/124/18 54/125/18 59/126/18
f 52/123/19 71/124/19 54/125/19
f 59/126/19 54/125/19 71/124/19
f 46/129/6 72/128/6 64/127/6
f 72/128/6 46/129/6 44/130/6
f 64/127/5 72/128/5 46/129/5
f 44/130/5 46/129/5 72/128/5
f 74/133/5 70/132/5 73/131/5
f 70/132/5 74/133/5 69/134/5
f 73/131/6 70/132/6 74/133/6
f 69/134/6 74/133/6 70/132/6
f 76/131/5 60/136/5 75/135/5
f 60/136/5 76/131/5 68/132/5
f 75/135/6 60/136/6 76/131/6
f 68/132/6 76/131/6 60/136/6
f 70/139/1 76/138/1 73/137/1
f 76/138/1 70/139/1 68/140/1
f 73/137/3 76/138/3 70/139/3
f 68/140/3 70/139/3 76/138/3
f 6/143/20 56/142/20 5/141/20
f 57/144/20 5/141/20 56/142/20
f 63/147/21 72/146/21 77/145/21
f 72/146/21 63/147/21 64/148/21
f 77/145/22 72/146/22 63/147/22
f 64/148/22 63/147/22 72/146/22
f 49/151/23 65/150/23 50/149/23
f 65/150/23 49/151/23 66/152/23
f 50/149/24 65/150/24 49/151/24
f 66/152/24 49/151/24 65/150/24
f 48/155/25 10/154/25 58/153/25
f 11/156/25 58/153/25 10/154/25
f 60/159/26 78/158/26 75/157/26
f 78/158/26 60/159/26 61/160/26
f 75/157/27 78/158/27 60/159/27
f 61/160/27 60/159/27 78/158/27
f 10/163/28 9/162/28 38/161/28
f 39/164/28 38/161/28 9/162/28
f 6/167/29 8/166/29 56/165/29
f 42/168/29 56/165/29 8/166/29
f 62/171/30 77/170/30 79/169/30
f 77/170/30 62/171/30 63/172/30
f 79/169/31 77/170/31 62/171/31
f 63/172/31 62/171/31 77/170/31
f 71/174/3 74/75/3 49/173/3
f 74/75/3 71/174/3 59/175/3
f 74/75/3 59/175/3 69/77/3
f 80/137/3 49/173/3 74/75/3
f 49/173/3 80/137/3 66/176/3
f 66/176/3 80/137/3 67/139/3
f 49/173/1 74/75/1 71/174/1
f 59/175/1 71/174/1 74/75/1
f 69/77/1 59/175/1 74/75/1
f 74/75/1 49/173/1 80/137/1
f 66/176/1 80/137/1 49/173/1
f 67/139/1 80/137/1 66/176/1
f 49/173/1 71/174/1 7/177/1
f 5/178/1 7/177/1 71/174/1
f 7/177/1 5/178/1 55/179/1
f 57/180/1 55/179/1 5/178/1
f 9/183/32 8/182/32 39/181/32
f 51/184/32 39/181/32 8/182/32
f 52/187/33 6/186/33 71/185/33
f 5/188/33 71/185/33 6/186/33
f 67/189/6 45/130/6 47/129/6
f 45/130/6 67/189/6 80/190/6
f 47/129/5 45/130/5 67/189/5
f 80/190/5 67/189/5 45/130/5
f 65/193/34 38/192/34 50/191/34
f 38/192/34 65/193/34 40/194/34
f 50/191/35 38/192/35 65/193/35
f 40/194/35 65/193/35 38/192/35
f 11/197/36 7/196/36 58/195/36
f 55/198/36 58/195/36 7/196/36
f 75/106/4 26/32/4 76/120/4
f 26/32/4 75/106/4 78/109/4
f 26/32/4 78/109/4 27/33/4
f 27/33/4 78/109/4 79/111/4
f 27/33/4 79/111/4 77/113/4
f 27/33/4 77/113/4 72/114/4
f 27/33/4 72/114/4 15/18/4
f 15/18/4 72/114/4 28/199/4
f 28/199/4 72/114/4 21/21/4
f 20/20/4 76/120/4 26/32/4
f 76/120/4 20/20/4 73/122/4
f 73/122/4 20/20/4 21/21/4
f 20/20/4 26/32/4 14/19/4
f 20/20/4 14/19/4 23/200/4
f 73/122/4 21/21/4 74/121/4
f 74/121/4 21/21/4 45/119/4
f 45/119/4 21/21/4 44/116/4
f 44/116/4 21/21/4 72/114/4
f 80/118/4 74/121/4 45/119/4
f 76/120/2 26/32/2 75/106/2
f 78/109/2 75/106/2 26/32/2
f 27/33/2 78/109/2 26/32/2
f 79/111/2 78/109/2 27/33/2
f 77/113/2 79/111/2 27/33/2
f 72/114/2 77/113/2 27/33/2
f 15/18/2 72/114/2 27/33/2
f 28/199/2 72/114/2 15/18/2
f 21/21/2 72/114/2 28/199/2
f 26/32/2 76/120/2 20/20/2
f 73/122/2 20/20/2 76/120/2
f 21/21/2 20/20/2 73/122/2
f 14/19/2 26/32/2 20/20/2
f 23/200/2 14/19/2 20/20/2
f 74/121/2 21/21/2 73/122/2
f 45/119/2 21/21/2 74/121/2
f 44/116/2 21/21/2 45/119/2
f 72/114/2 21/21/2 44/116/2
f 45/119/2 74/121/2 80/118/2
f 61/203/37 79/202/37 78/201/37
f 79/202/37 61/203/37 62/204/37
f 78/201/38 79/202/38 61/203/38
f 62/204/38 61/203/38 79/202/38
f 41/207/39 51/206/39 39/205/39
f 51/206/39 41/207/39 53/208/39
f 39/205/40 51/206/40 41/207/40
f 53/208/40 41/207/40 51/206/40

usemtl metalDark

f 42/70/41 9/71/41 8/72/41
f 9/71/41 42/70/41 43/73/41
f 43/78/42 10/79/42 9/80/42
f 10/79/42 43/78/42 48/81/42
f 11/82/43 49/83/43 50/84/43
f 49/83/43 11/82/43 7/85/43
f 6/90/44 51/91/44 52/92/44
f 51/91/44 6/90/44 8/93/44
f 11/94/45 38/95/45 10/96/45
f 38/95/45 11/94/45 50/97/45
f 55/98/2 56/99/2 57/100/2
f 56/99/2 55/98/2 42/101/2
f 42/101/2 55/98/2 43/102/2
f 43/102/2 55/98/2 48/103/2
f 48/103/2 55/98/2 58/104/2
f 5/141/46 56/142/46 6/143/46
f 56/142/46 5/141/46 57/144/46
f 58/153/47 10/154/47 48/155/47
f 10/154/47 58/153/47 11/156/47
f 38/161/48 9/162/48 10/163/48
f 9/162/48 38/161/48 39/164/48
f 56/165/49 8/166/49 6/167/49
f 8/166/49 56/165/49 42/168/49
f 39/181/50 8/182/50 9/183/50
f 8/182/50 39/181/50 51/184/50
f 71/185/51 6/186/51 52/187/51
f 6/186/51 71/185/51 5/188/51
f 71/174/3 7/177/3 5/178/3
f 7/177/3 71/174/3 49/173/3
f 55/179/3 5/178/3 7/177/3
f 5/178/3 55/179/3 57/180/3
f 58/195/52 7/196/52 11/197/52
f 7/196/52 58/195/52 55/198/52

usemtl wood

f 29/3/1 18/2/1 19/1/1
f 18/2/1 29/3/1 22/4/1
f 32/46/3 21/13/3 20/12/3
f 21/13/3 32/46/3 33/47/3
f 34/48/4 32/20/4 35/49/4
f 32/20/4 34/48/4 33/21/4
f 28/211/53 24/210/53 25/209/53
f 24/210/53 28/211/53 23/212/53
f 23/212/53 28/211/53 34/213/53
f 23/212/53 34/213/53 35/214/53
f 21/29/5 34/50/5 28/26/5
f 34/50/5 21/29/5 33/51/5
f 22/16/4 25/15/4 24/14/4
f 25/15/4 22/16/4 29/17/4
f 35/52/6 20/39/6 23/38/6
f 20/39/6 35/52/6 32/53/6

