# Created by Kenney (www.kenney.nl)

mtllib boat_015.mtl

g boat_015

v -0.1780892 0 -0.4310682
v -0.2968153 0.2 -1.141514
v -0.40698 0 -0.06794
v -0.6783 0.2 -0.5363
v 0.40698 0 1.835
v 0.40698 0 -0.06794
v -0.40698 0 1.835
v 0.1780892 0 -0.4310682
v 5.775291E-15 0 -0.52964
v 5.775291E-15 0.2 -1.3058
v 5.775291E-15 0.6 -1.835
v -0.3905465 0.6 -1.618834
v -0.8925 0.6 -0.8225
v -0.8925 0.6 1.835
v -0.6783 0.2 1.835
v 0.3905465 0.6 -1.618834
v 0.2968153 0.2 -1.141514
v 0.8925 0.6 -0.8225
v 0.6783 0.2 -0.5363
v 0.8925 0.6 1.835
v 0.6783 0.2 1.835
v 5.775291E-15 0.8 -1.72475
v 0.3710192 0.8 -1.519392
v -0.3710192 0.8 -1.519392
v -0.847875 0.8 -0.762875
v 0.847875 0.8 -0.762875
v 0.847875 0.8 1.835
v -0.847875 0.8 1.835
v 0.5511187 0.9 1.835
v -0.5511187 0.9 1.835
v -0.5511187 0.9 0.4330074
v -0.5511187 1.049751 0.08300745
v -0.5511187 0.9 -0.2669925
v -0.5511187 1.049751 0.4330074
v -0.5511187 0.9 1.21259
v -0.5511187 1 1.11259
v -0.5511187 0.9 1.06259
v -0.5511187 1 1.21259
v 0.5511187 0.9 -0.546575
v 0.5511187 0.9 -0.2669925
v 0.2411625 0.9 -1.038311
v 0 0.9 -1.171794
v -0.2411625 0.9 -1.038311
v -0.5511187 0.9 -0.546575
v -0.5511187 0.8 0.8125899
v 0.5511187 0.8 1.01259
v 0.5511187 0.8 0.8125899
v -0.5511187 0.8 1.01259
v 0.5511187 0.8 1.21259
v -0.5511187 0.8 1.21259
v 0.5511187 1 1.21259
v 0.5511187 0.9 1.21259
v 0.5511187 0.9 0.4330074
v -0.5511187 0.6 0.4330074
v 0.5511187 0.6 0.4330074
v 0.5511187 1.049751 0.4330074
v 0.5511187 1 1.11259
v 0.5511187 1.049751 0.08300745
v 0.5511187 0.9 1.06259
v 0.5511187 0.6 0.8125899
v -0.5511187 0.6 0.8125899

vn -0.3257908 -0.9228701 -0.2053559
vn 0 -1 0
vn -0.3165844 -0.7567184 -0.5719716
vn -0.649501 -0.6407338 -0.4094003
vn -0.8815585 -0.4720746 0
vn 0.3165844 -0.7567184 -0.5719716
vn 0.649501 -0.6407338 -0.4094003
vn -0.1368141 -0.9592618 -0.2471815
vn 0.8815585 -0.4720746 0
vn 0.3257908 -0.9228701 -0.2053559
vn 0.5933529 -0.8049424 0
vn 0.1368141 -0.9592618 -0.2471815
vn -0.5933529 -0.8049424 0
vn 0 0 1
vn 0.3257908 0.9228701 0.2053559
vn 0 1 0
vn 0.4361847 0.4344141 -0.7880529
vn -0.4361847 -0.4344141 0.7880529
vn 0.3165844 0.7567184 0.5719716
vn -0.799036 0.3284376 -0.5036568
vn 0.799036 -0.3284376 0.5036568
vn 0.649501 0.6407338 0.4094003
vn 0.799036 0.3284376 -0.5036568
vn -0.799036 -0.3284376 0.5036568
vn -0.4361847 0.4344141 -0.7880529
vn 0.4361847 -0.4344141 0.7880529
vn 0.8815585 0.4720746 0
vn -0.3165844 0.7567184 0.5719716
vn -0.649501 0.6407338 0.4094003
vn 0.1368141 0.9592618 0.2471815
vn -0.8815585 0.4720746 0
vn -0.3257908 0.9228701 0.2053559
vn -0.5933529 0.8049424 0
vn -0.1368141 0.9592618 0.2471815
vn 0.5933529 0.8049424 0
vn 0 0 -1
vn 1 0 0
vn -0.9760001 0.21777 0
vn 0.9760001 -0.21777 0
vn -0.2227476 0.9647124 -0.1404046
vn 0.2227476 -0.9647124 0.1404046
vn -0.09802558 0.9792986 -0.1771024
vn 0.09802558 -0.9792986 0.1771024
vn 0.2227476 0.9647124 -0.1404046
vn -0.2227476 -0.9647124 0.1404046
vn 0.09802558 0.9792986 -0.1771024
vn -0.09802558 -0.9792986 0.1771024
vn -1 0 0
vn 0.9760001 0.21777 0
vn -0.9760001 -0.21777 0
vn -0.3193336 0.9476424 0
vn 0.3193336 -0.9476424 0
vn 0 -0.9193814 0.3933674
vn 0.3193336 0.9476424 0
vn -0.3193336 -0.9476424 0
vn 0 0.9193814 -0.3933674
vn 0 0.4472136 -0.8944272
vn 0 -0.4472136 0.8944272

vt -10.6183 13.82558
vt -31.78771 34.27166
vt 6.28119 13.82558
vt -3.621891 34.27166
vt 16.02283 72.24409
vt 16.02283 -2.674803
vt -16.02283 72.24409
vt 7.011386 -16.97119
vt 2.273737E-13 -20.85197
vt -7.011386 -16.97119
vt -16.02283 -2.674803
vt -24.89584 39.18416
vt -34.98535 63.27326
vt -11.53961 39.18416
vt -17.41136 63.27326
vt -45.71745 48.24589
vt -8.657157 48.24589
vt -31.78771 27.73431
vt -3.621891 27.73431
vt -32.38189 37.41188
vt 72.24409 37.41188
vt -21.11417 19.54803
vt 72.24409 19.54803
vt 17.41136 63.27326
vt 34.98535 63.27326
vt 11.53961 39.18416
vt 24.89584 39.18416
vt 45.71745 48.24589
vt 31.78771 27.73431
vt 8.657157 48.24589
vt 3.621891 27.73431
vt -10.0979 17.5006
vt -24.89584 45.37139
vt -2.084159 17.5006
vt -11.53961 45.37139
vt 32.38189 37.41188
vt 21.11417 19.54803
vt -72.24409 37.41188
vt -72.24409 19.54803
vt 3.621891 34.27166
vt 31.78771 34.27166
vt -6.28119 13.82558
vt 10.6183 13.82558
vt -72.24409 26.16784
vt 21.11417 26.16784
vt -72.24409 12.89746
vt 2.674803 12.89746
vt 11.53961 45.37139
vt 24.89584 45.37139
vt 2.084159 17.5006
vt 10.0979 17.5006
vt 72.24409 12.89746
vt -2.674803 12.89746
vt 72.24409 26.16784
vt -21.11417 26.16784
vt 16.02283 0
vt -16.02283 0
vt 26.70473 7.874016
vt -26.70473 7.874016
vt 35.13779 23.62205
vt -35.13779 23.62205
vt 34.98535 -6.181701
vt 17.41136 -6.181701
vt 32.88337 2.560277
vt 16.18808 2.560277
vt -45.71745 6.877491
vt -42.81542 15.21397
vt -8.657157 6.877491
vt -7.608143 15.21397
vt 45.71745 6.877491
vt 8.657157 6.877491
vt 42.81542 15.21397
vt 7.608143 15.21397
vt -17.41136 -6.181701
vt -34.98535 -6.181701
vt -16.18808 2.560277
vt -32.88337 2.560277
vt 33.38091 31.49606
vt -33.38091 31.49606
vt 21.69759 35.43307
vt -21.69759 35.43307
vt 17.04754 35.43307
vt 3.26801 41.32879
vt -10.51152 35.43307
vt 17.04754 41.32879
vt 47.73976 35.43307
vt 43.80275 39.37008
vt 41.83425 35.43307
vt 47.73976 39.37008
vt -21.69759 -21.5187
vt -21.69759 -10.51152
vt -9.494585 -40.87839
vt 21.69759 -10.51152
vt 0 -46.13361
vt 9.494585 -40.87839
vt 21.69759 -21.5187
vt -32.38189 15.40316
vt -30.03445 23.4708
vt 72.24409 15.40316
vt 72.24409 23.4708
vt -29.51883 -19.44763
vt -6.634101 -19.44763
vt -42.81542 -34.39986
vt -7.608143 -34.39986
vt 21.69759 31.99173
vt -21.69759 39.86575
vt -21.69759 31.99173
vt 21.69759 39.86575
vt -21.69759 47.73976
vt 21.69759 47.73976
vt 21.69759 39.37008
vt -21.69759 39.37008
vt -21.69759 31.49606
vt 21.69759 31.49606
vt -32.88337 -51.80489
vt -22.34093 -32.35529
vt -16.18808 -51.80489
vt -11.489 -32.35529
vt -21.69759 23.62205
vt 21.69759 23.62205
vt 21.69759 41.32879
vt -21.69759 41.32879
vt 21.69759 43.80275
vt -21.69759 43.80275
vt 7.608143 -34.39986
vt 6.634101 -19.44763
vt 42.81542 -34.39986
vt 29.51883 -19.44763
vt 16.18808 -51.80489
vt 11.489 -32.35529
vt 32.88337 -51.80489
vt 22.34093 -32.35529
vt -21.69759 72.24409
vt 21.69759 72.24409
vt -3.26801 41.32879
vt -17.04754 35.43307
vt 10.51152 35.43307
vt -17.04754 41.32879
vt 32.38189 15.40316
vt -72.24409 15.40316
vt 30.03445 23.4708
vt -72.24409 23.4708
vt -21.5187 -9.246585
vt -10.51152 -9.246585
vt -30.03445 -21.57541
vt 17.04754 -9.246585
vt 41.83425 -9.246585
vt 72.24409 -21.57541
vt 72.24409 -9.246585
vt 47.73976 -9.246585
vt 47.73976 31.49606
vt 39.86575 31.49606
vt 31.99173 31.49606
vt 31.99173 23.62205
vt 17.04754 23.62205
vt 21.69759 4.27412
vt -21.69759 19.26195
vt -21.69759 4.27412
vt 21.69759 19.26195
vt -43.80275 39.37008
vt -47.73976 35.43307
vt -41.83425 35.43307
vt -47.73976 39.37008
vt -31.99173 31.49606
vt -17.04754 23.62205
vt -39.86575 31.49606
vt -31.99173 23.62205
vt -47.73976 31.49606
vt -17.04754 -9.246585
vt -47.73976 -9.246585
vt -41.83425 -9.246585
vt -72.24409 -9.246585
vt 10.51152 -9.246585
vt 21.5187 -9.246585
vt -72.24409 -21.57541
vt 30.03445 -21.57541
vt 21.69759 17.04754
vt -21.69759 17.04754
vt 21.69759 3.26801
vt -21.69759 3.26801
vt 21.69759 45.99944
vt -21.69759 45.99944
vt 21.69759 50.40115
vt -21.69759 50.40115
vt 21.69759 54.80286
vt -21.69759 54.80286

usemtl metalDark

f 3/3/1 2/2/1 1/1/1
f 2/2/1 3/3/1 4/4/1
f 7/7/2 6/6/2 5/5/2
f 6/6/2 7/7/2 8/8/2
f 8/8/2 7/7/2 9/9/2
f 9/9/2 7/7/2 1/10/2
f 1/10/2 7/7/2 3/11/2
f 2/14/3 11/13/3 10/12/3
f 11/13/3 2/14/3 12/15/3
f 2/18/4 13/17/4 12/16/4
f 13/17/4 2/18/4 4/19/4
f 4/22/5 14/21/5 13/20/5
f 14/21/5 4/22/5 15/23/5
f 17/26/6 11/25/6 16/24/6
f 11/25/6 17/26/6 10/27/6
f 18/30/7 17/29/7 16/28/7
f 17/29/7 18/30/7 19/31/7
f 1/34/8 10/33/8 9/32/8
f 10/33/8 1/34/8 2/35/8
f 20/38/9 19/37/9 18/36/9
f 19/37/9 20/38/9 21/39/9
f 6/42/10 17/41/10 19/40/10
f 17/41/10 6/42/10 8/43/10
f 5/46/11 19/45/11 21/44/11
f 19/45/11 5/46/11 6/47/11
f 8/50/12 10/49/12 17/48/12
f 10/49/12 8/50/12 9/51/12
f 15/54/13 3/53/13 7/52/13
f 3/53/13 15/54/13 4/55/13
f 21/58/14 7/57/14 5/56/14
f 7/57/14 21/58/14 15/59/14
f 20/60/14 15/59/14 21/58/14
f 15/59/14 20/60/14 14/61/14

usemtl metalRed

f 1/1/15 2/2/15 3/3/15
f 4/4/15 3/3/15 2/2/15
f 5/5/16 6/6/16 7/7/16
f 8/8/16 7/7/16 6/6/16
f 9/9/16 7/7/16 8/8/16
f 1/10/16 7/7/16 9/9/16
f 3/11/16 7/7/16 1/10/16
f 22/64/17 16/63/17 11/62/17
f 16/63/17 22/64/17 23/65/17
f 11/62/18 16/63/18 22/64/18
f 23/65/18 22/64/18 16/63/18
f 10/12/19 11/13/19 2/14/19
f 12/15/19 2/14/19 11/13/19
f 13/68/20 24/67/20 12/66/20
f 24/67/20 13/68/20 25/69/20
f 12/66/21 24/67/21 13/68/21
f 25/69/21 13/68/21 24/67/21
f 12/16/22 13/17/22 2/18/22
f 4/19/22 2/18/22 13/17/22
f 23/72/23 18/71/23 16/70/23
f 18/71/23 23/72/23 26/73/23
f 16/70/24 18/71/24 23/72/24
f 26/73/24 23/72/24 18/71/24
f 24/76/25 11/75/25 12/74/25
f 11/75/25 24/76/25 22/77/25
f 12/74/26 11/75/26 24/76/26
f 22/77/26 24/76/26 11/75/26
f 13/20/27 14/21/27 4/22/27
f 15/23/27 4/22/27 14/21/27
f 16/24/28 11/25/28 17/26/28
f 10/27/28 17/26/28 11/25/28
f 16/28/29 17/29/29 18/30/29
f 19/31/29 18/30/29 17/29/29
f 9/32/30 10/33/30 1/34/30
f 2/35/30 1/34/30 10/33/30
f 18/36/31 19/37/31 20/38/31
f 21/39/31 20/38/31 19/37/31
f 19/40/32 17/41/32 6/42/32
f 8/43/32 6/42/32 17/41/32
f 21/44/33 19/45/33 5/46/33
f 6/47/33 5/46/33 19/45/33
f 17/48/34 10/49/34 8/50/34
f 9/51/34 8/50/34 10/49/34
f 7/52/35 3/53/35 15/54/35
f 4/55/35 15/54/35 3/53/35
f 5/56/36 7/57/36 21/58/36
f 15/59/36 21/58/36 7/57/36
f 21/58/36 15/59/36 20/60/36
f 14/61/36 20/60/36 15/59/36
f 20/60/36 14/61/36 27/78/36
f 28/79/36 27/78/36 14/61/36
f 29/80/36 27/78/36 28/79/36
f 30/81/36 29/80/36 28/79/36
f 33/84/37 32/83/37 31/82/37
f 34/85/37 31/82/37 32/83/37
f 37/88/37 36/87/37 35/86/37
f 38/89/37 35/86/37 36/87/37
f 41/92/16 40/91/16 39/90/16
f 40/91/16 41/92/16 33/93/16
f 33/93/16 41/92/16 42/94/16
f 33/93/16 42/94/16 43/95/16
f 33/93/16 43/95/16 44/96/16
f 39/90/2 40/91/2 41/92/2
f 33/93/2 41/92/2 40/91/2
f 42/94/2 41/92/2 33/93/2
f 43/95/2 42/94/2 33/93/2
f 44/96/2 43/95/2 33/93/2
f 14/99/38 25/98/38 13/97/38
f 25/98/38 14/99/38 28/100/38
f 13/97/39 25/98/39 14/99/39
f 28/100/39 14/99/39 25/98/39
f 24/103/40 44/102/40 43/101/40
f 44/102/40 24/103/40 25/104/40
f 43/101/41 44/102/41 24/103/41
f 25/104/41 24/103/41 44/102/41
f 47/107/2 46/106/2 45/105/2
f 48/108/2 45/105/2 46/106/2
f 46/106/2 49/109/2 48/108/2
f 50/110/2 48/108/2 49/109/2
f 52/80/36 35/81/36 51/111/36
f 38/112/36 51/111/36 35/81/36
f 35/81/36 52/80/36 50/113/36
f 49/114/36 50/113/36 52/80/36
f 24/117/42 42/116/42 22/115/42
f 42/116/42 24/117/42 43/118/42
f 22/115/43 42/116/43 24/117/43
f 43/118/43 24/117/43 42/116/43
f 55/120/36 54/119/36 53/80/36
f 31/81/36 53/80/36 54/119/36
f 53/80/36 31/81/36 56/121/36
f 34/122/36 56/121/36 31/81/36
f 57/124/2 51/109/2 36/123/2
f 38/110/2 36/123/2 51/109/2
f 23/127/44 39/126/44 26/125/44
f 39/126/44 23/127/44 41/128/44
f 26/125/45 39/126/45 23/127/45
f 41/128/45 23/127/45 39/126/45
f 22/131/46 41/130/46 23/129/46
f 41/130/46 22/131/46 42/132/46
f 23/129/47 41/130/47 22/131/47
f 42/132/47 22/131/47 41/130/47
f 35/110/16 29/133/16 52/109/16
f 29/133/16 35/110/16 30/134/16
f 52/109/2 29/133/2 35/110/2
f 30/134/2 35/110/2 29/133/2
f 40/137/48 53/136/48 58/135/48
f 56/138/48 58/135/48 53/136/48
f 26/141/49 20/140/49 18/139/49
f 20/140/49 26/141/49 27/142/49
f 18/139/50 20/140/50 26/141/50
f 27/142/50 26/141/50 20/140/50
f 25/145/51 33/144/51 44/143/51
f 33/144/51 25/145/51 31/146/51
f 31/146/51 25/145/51 37/147/51
f 28/148/51 37/147/51 25/145/51
f 30/149/51 37/147/51 28/148/51
f 37/147/51 30/149/51 35/150/51
f 44/143/52 33/144/52 25/145/52
f 31/146/52 25/145/52 33/144/52
f 37/147/52 25/145/52 31/146/52
f 25/145/52 37/147/52 28/148/52
f 28/148/52 37/147/52 30/149/52
f 35/150/52 30/149/52 37/147/52
f 46/152/37 59/88/37 49/151/37
f 52/86/37 49/151/37 59/88/37
f 46/152/37 47/153/37 59/88/37
f 59/88/37 47/153/37 53/82/37
f 47/153/37 60/154/37 53/82/37
f 55/155/37 53/82/37 60/154/37
f 40/158/53 58/157/53 33/156/53
f 32/159/53 33/156/53 58/157/53
f 59/162/48 52/161/48 57/160/48
f 51/163/48 57/160/48 52/161/48
f 27/78/14 14/61/14 20/60/14
f 14/61/14 27/78/14 28/79/14
f 28/79/14 27/78/14 29/80/14
f 28/79/14 29/80/14 30/81/14
f 61/120/14 60/119/14 45/114/14
f 47/113/14 45/114/14 60/119/14
f 54/165/48 45/164/48 31/136/48
f 37/162/48 31/136/48 45/164/48
f 48/166/48 37/162/48 45/164/48
f 45/164/48 54/165/48 61/167/48
f 48/166/48 50/168/48 37/162/48
f 35/161/48 37/162/48 50/168/48
f 59/171/54 52/170/54 53/169/54
f 29/172/54 53/169/54 52/170/54
f 29/172/54 40/173/54 53/169/54
f 29/172/54 39/174/54 40/173/54
f 27/175/54 39/174/54 29/172/54
f 39/174/54 27/175/54 26/176/54
f 53/169/55 52/170/55 59/171/55
f 52/170/55 53/169/55 29/172/55
f 53/169/55 40/173/55 29/172/55
f 40/173/55 39/174/55 29/172/55
f 29/172/55 39/174/55 27/175/55
f 26/176/55 27/175/55 39/174/55
f 55/178/2 60/107/2 54/177/2
f 61/105/2 54/177/2 60/107/2
f 58/180/2 56/178/2 32/179/2
f 34/177/2 32/179/2 56/178/2

usemtl glass

f 31/82/48 32/83/48 33/84/48
f 32/83/48 31/82/48 34/85/48
f 58/135/37 53/136/37 40/137/37
f 53/136/37 58/135/37 56/138/37
f 33/156/56 58/157/56 40/158/56
f 58/157/56 33/156/56 32/159/56
f 56/121/14 31/81/14 53/80/14
f 31/81/14 56/121/14 34/122/14
f 32/179/16 56/178/16 58/180/16
f 56/178/16 32/179/16 34/177/16

usemtl wood

f 35/86/48 36/87/48 37/88/48
f 36/87/48 35/86/48 38/89/48
f 45/105/16 46/106/16 47/107/16
f 46/106/16 45/105/16 48/108/16
f 51/111/14 35/81/14 52/80/14
f 35/81/14 51/111/14 38/112/14
f 36/123/16 51/109/16 57/124/16
f 51/109/16 36/123/16 38/110/16
f 37/183/57 46/182/57 48/181/57
f 46/182/57 37/183/57 59/184/57
f 59/184/57 37/183/57 36/185/57
f 59/184/57 36/185/57 57/186/57
f 57/160/37 52/161/37 59/162/37
f 52/161/37 57/160/37 51/163/37
f 45/114/36 60/119/36 61/120/36
f 60/119/36 45/114/36 47/113/36

usemtl metalGreen

f 33/93/16 53/178/16 40/91/16
f 53/178/16 33/93/16 31/177/16
f 40/91/2 53/178/2 33/93/2
f 31/177/2 33/93/2 53/178/2
f 48/181/58 46/182/58 37/183/58
f 59/184/58 37/183/58 46/182/58
f 36/185/58 37/183/58 59/184/58
f 57/186/58 36/185/58 59/184/58

usemtl metalLight

f 53/80/14 54/119/14 55/120/14
f 54/119/14 53/80/14 31/81/14
f 49/151/48 59/88/48 46/152/48
f 59/88/48 49/151/48 52/86/48
f 59/88/48 47/153/48 46/152/48
f 53/82/48 47/153/48 59/88/48
f 53/82/48 60/154/48 47/153/48
f 60/154/48 53/82/48 55/155/48
f 48/108/16 49/109/16 46/106/16
f 49/109/16 48/108/16 50/110/16
f 31/136/37 45/164/37 54/165/37
f 45/164/37 31/136/37 37/162/37
f 45/164/37 37/162/37 48/166/37
f 61/167/37 54/165/37 45/164/37
f 37/162/37 50/168/37 48/166/37
f 50/168/37 37/162/37 35/161/37
f 52/80/14 50/113/14 49/114/14
f 50/113/14 52/80/14 35/81/14
f 54/177/16 60/107/16 55/178/16
f 60/107/16 54/177/16 61/105/16

